<svg xmlns="http://www.w3.org/2000/svg" version="1.1" xmlns:xlink="http://www.w3.org/1999/xlink" xmlns:svgjs="http://svgjs.dev/svgjs" viewBox="0 0 800 800"><defs><filter id="bbburst-blur-1" x="-100%" y="-100%" width="400%" height="400%"><feGaussianBlur in="SourceGraphic" stdDeviation="1"></feGaussianBlur></filter><filter id="bbburst-blur-2" x="-100%" y="-100%" width="400%" height="400%"><feGaussianBlur in="SourceGraphic" stdDeviation="2"></feGaussianBlur></filter><filter id="bbburst-blur-3" x="-100%" y="-100%" width="400%" height="400%"><feGaussianBlur in="SourceGraphic" stdDeviation="4"></feGaussianBlur></filter><filter id="bbburst-blur-4" x="-100%" y="-100%" width="400%" height="400%"><feGaussianBlur in="SourceGraphic" stdDeviation="12"></feGaussianBlur></filter><symbol id="bbburst-shape-1" viewBox="0 0 194 167"><path d="m97 0 96.129 166.5H.871L97 0Z"></path></symbol><symbol id="bbburst-shape-3" viewBox="0 0 131 127"><path d="m66 0 66 63.5L66 127 0 63.5 66 0Z"></path></symbol><symbol id="bbburst-shape-4" viewBox="0 0 149 143"><path d="M71.647 2.781c.898-2.764 4.808-2.764 5.706 0l15.445 47.534a3 3 0 0 0 2.853 2.073h49.98c2.906 0 4.115 3.719 1.764 5.427L106.96 87.193a2.999 2.999 0 0 0-1.09 3.354l15.445 47.534c.898 2.764-2.266 5.062-4.617 3.354l-40.435-29.378a3 3 0 0 0-3.526 0l-40.435 29.378c-2.351 1.708-5.515-.59-4.617-3.354L43.13 90.547a3 3 0 0 0-1.09-3.354L1.605 57.815c-2.35-1.708-1.142-5.427 1.764-5.427h49.98a3 3 0 0 0 2.853-2.073L71.647 2.781Z"></path></symbol><symbol id="bbburst-shape-8" viewBox="0 0 87 168"><path d="m12 12 31.2546 18.0749c16.4102 9.4902 20.014 31.6325 7.4603 45.8369L36.3296 92.1884c-12.5684 14.2206-8.9394 36.3916 7.5068 45.8636L75 156" stroke-width="14" stroke-linecap="round" stroke-linejoin="round"></path></symbol><symbol id="bbburst-shape-9" viewBox="0 0 182 172"><path d="M13.5809 69.845 91 13.5967l77.419 56.2483-29.571 91.012H43.1524L13.5809 69.845Z" stroke-width="22"></path></symbol><symbol id="bbburst-shape-10" viewBox="0 0 145 145"><circle cx="72.5" cy="72.5" r="61.5" fill="none" stroke-width="22"></circle></symbol><symbol id="bbburst-shape-11" viewBox="0 0 194 167"><path d="M10.398 161 97 11l86.603 150H10.397Z" stroke-width="11"></path></symbol><symbol id="bbburst-shape-12" viewBox="0 0 170 151"><path d="M69.3728 54.2122 85 10.0031l15.627 44.2091c1.413 3.9958 5.19 6.6672 9.428 6.6673h49.312l-39.149 26.1447c-3.803 2.5401-5.399 7.3367-3.875 11.6488l15.179 42.94-40.9683-27.36c-3.3621-2.245-7.7453-2.245-11.1074 0l-40.9682 27.36 15.1785-42.94c1.5243-4.3121-.0712-9.1087-3.8746-11.6488L10.6333 60.8795h49.3112c4.2381-.0001 8.0159-2.6715 9.4283-6.6673Z" stroke-width="12"></path></symbol><symbol id="bbburst-shape-13" viewBox="0 0 159 159"><path stroke-width="22" d="M11 11h137v137H11z"></path></symbol><symbol id="bbburst-shape-14" viewBox="0 0 185 109"><path d="M168 16.5C168 58.1975 134.197 92 92.5 92 50.8025 92 17 58.1975 17 16.5" stroke-width="33" stroke-linecap="round"></path></symbol></defs><use xlink:href="#bbburst-shape-13" width="35.17477564093658" opacity="0.2732215460665669" transform="matrix(1.1950185254464998,-0.36664795627368985,0.36664795627368985,1.1950185254464998,220.22795424943155,255.26753099479185)" fill="none" stroke="#ffa6d5" filter="url(#bbburst-blur-3)"></use><use xlink:href="#bbburst-shape-13" width="25.083156662238586" opacity="0.6685029040609258" transform="matrix(0.7205495107825574,-0.6934034918508972,0.6934034918508972,0.7205495107825574,204.42759767257758,2.140378922277762)" fill="none" stroke="#00a19d" filter="url(#bbburst-blur-1)"></use><use xlink:href="#bbburst-shape-13" width="21.36715470279572" opacity="0.4633312009794921" transform="matrix(0.9951578756225021,0.09828938186044633,-0.09828938186044633,0.9951578756225021,669.4535126168852,19.667044426105804)" fill="none" stroke="#2c2891" filter="url(#bbburst-blur-2)"></use><use xlink:href="#bbburst-shape-1" width="16.494718475108623" opacity="0.7844418565623278" transform="matrix(0.9129249487763087,0.408127477513796,-0.408127477513796,0.9129249487763087,474.3100254453265,-21.268459611269407)" fill="#ff5c58"></use><use xlink:href="#bbburst-shape-3" width="31.915510336571483" opacity="0.0682751266071725" transform="matrix(1.7479197444763372,0.08530279520494287,-0.08530279520494287,1.7479197444763372,765.4378217761,-516.4283844165533)" fill="#ffa6d5" filter="url(#bbburst-blur-4)"></use><use xlink:href="#bbburst-shape-14" width="18.81102257271638" opacity="0.6850096136010513" transform="matrix(0.9747121395126166,-0.22346419195642403,0.22346419195642403,0.9747121395126166,438.701275906029,47.661596748916566)" fill="none" stroke="#00a19d" filter="url(#bbburst-blur-1)"></use><use xlink:href="#bbburst-shape-10" width="46.58586676202798" opacity="-0.07703944637866367" transform="matrix(1.5301494077285605,0.8492012659128197,-0.8492012659128197,1.5301494077285605,359.6605399487837,109.19712474265839)" fill="none" stroke="#00a19d" filter="url(#bbburst-blur-4)"></use><use xlink:href="#bbburst-shape-13" width="9.808256842982201" opacity="0.9672020445785805" transform="matrix(0.7367230036905252,-0.6761946582406654,0.6761946582406654,0.7367230036905252,140.53359526398276,110.61593678559893)" fill="none" stroke="#ffa6d5"></use><use xlink:href="#bbburst-shape-13" width="31.67730339840204" opacity="0.15795154967974" transform="matrix(1.2396889018457595,-0.1602230527747314,0.1602230527747314,1.2396889018457595,218.2108677588703,272.67445843707986)" fill="none" stroke="#2c2891" filter="url(#bbburst-blur-3)"></use><use xlink:href="#bbburst-shape-11" width="36.061040219489904" opacity="0.4587783394409777" transform="matrix(0.981860613755915,0.18960415384389084,-0.18960415384389084,0.981860613755915,218.38102537675798,45.697571241456785)" fill="none" stroke="#2c2891" filter="url(#bbburst-blur-2)"></use><use xlink:href="#bbburst-shape-1" width="29.068223359966712" opacity="0.5847778342258761" transform="matrix(0.7511773069968191,0.660100487390372,-0.660100487390372,0.7511773069968191,591.4726301435173,266.3584139617758)" fill="#ff5c58" filter="url(#bbburst-blur-1)"></use><use xlink:href="#bbburst-shape-10" width="12.946322593287016" opacity="0.8183924701301102" transform="matrix(0.8275066984720998,0.5614558433072055,-0.5614558433072055,0.8275066984720998,569.7786428662014,130.42977983749586)" fill="none" stroke="#ffa6d5"></use><use xlink:href="#bbburst-shape-12" width="18.199546280416925" opacity="0.7064912738279087" transform="matrix(0.9999480150769738,0.010196427983367031,-0.010196427983367031,0.9999480150769738,266.3144822669352,29.7300263438226)" fill="none" stroke="#ffa6d5" filter="url(#bbburst-blur-1)"></use><use xlink:href="#bbburst-shape-12" width="33.65693328122486" opacity="0.49705076571618567" transform="matrix(0.806513115961783,0.5912161988491313,-0.5912161988491313,0.806513115961783,658.3343007627576,-156.1477563320182)" fill="none" stroke="#ffa6d5" filter="url(#bbburst-blur-2)"></use><use xlink:href="#bbburst-shape-12" width="20.85095744906711" opacity="0.7537943297003273" transform="matrix(0.9986793913333398,0.0513758048702879,-0.0513758048702879,0.9986793913333398,394.11690589499915,-109.67281103672349)" fill="none" stroke="#2c2891" filter="url(#bbburst-blur-1)"></use><use xlink:href="#bbburst-shape-11" width="26.10869073855836" opacity="0.5319568834501903" transform="matrix(0.9933863713837942,0.11481949812178482,-0.11481949812178482,0.9933863713837942,286.12470394889294,151.77140943572795)" fill="none" stroke="#00a19d" filter="url(#bbburst-blur-2)"></use><use xlink:href="#bbburst-shape-12" width="23.207044289395824" opacity="0.608190165709008" transform="matrix(0.7186633234873804,-0.6953582008390157,0.6953582008390157,0.7186633234873804,289.59290152128665,111.97074943730263)" fill="none" stroke="#ff5c58" filter="url(#bbburst-blur-1)"></use><use xlink:href="#bbburst-shape-11" width="53.2105715085966" opacity="-0.08304309262116738" transform="matrix(1.6156185130869118,0.6725152936334131,-0.6725152936334131,1.6156185130869118,969.0847104182712,-611.8788624289332)" fill="none" stroke="#2c2891" filter="url(#bbburst-blur-4)"></use><use xlink:href="#bbburst-shape-4" width="14.19591123854376" opacity="0.8741255205535121" transform="matrix(0.9681361541297739,0.2504244138793392,-0.2504244138793392,0.9681361541297739,474.9828603482326,64.58239490621213)" fill="#00a19d"></use><use xlink:href="#bbburst-shape-10" width="48.54452309845431" opacity="0.31737371068113196" transform="matrix(1.230880062206279,-0.21779410566649082,0.21779410566649082,1.230880062206279,23.61716258722481,-251.61973755716897)" fill="none" stroke="#2c2891" filter="url(#bbburst-blur-3)"></use><use xlink:href="#bbburst-shape-9" width="40.87856845403131" opacity="-0.07911346151444443" transform="matrix(1.6117068380785955,-0.6818365405951021,0.6818365405951021,1.6117068380785955,-246.42369529959754,-577.3522981454996)" fill="none" stroke="#00a19d" filter="url(#bbburst-blur-4)"></use><use xlink:href="#bbburst-shape-3" width="30.73080490897185" opacity="0.38074296226460447" transform="matrix(0.7256330145998224,-0.6880819196307761,0.6880819196307761,0.7256330145998224,-156.0979739112682,50.015689376451064)" fill="#2c2891" filter="url(#bbburst-blur-2)"></use><use xlink:href="#bbburst-shape-9" width="31.268860994521653" opacity="0.22384928149089633" transform="matrix(1.1526422237324803,-0.4836485336161405,0.4836485336161405,1.1526422237324803,-140.87860692944133,62.67452479352585)" fill="none" stroke="#2c2891" filter="url(#bbburst-blur-3)"></use><use xlink:href="#bbburst-shape-3" width="26.304050555172534" opacity="0.6468697680321336" transform="matrix(0.7785495556841835,-0.6275831334125865,0.6275831334125865,0.7785495556841835,25.013958387165076,-14.183898703204136)" fill="#2c2891" filter="url(#bbburst-blur-1)"></use><use xlink:href="#bbburst-shape-9" width="36.97420206027795" opacity="0.4599997285093057" transform="matrix(0.9964318365069732,0.08440139332582558,-0.08440139332582558,0.9964318365069732,388.36213858079816,241.11421743923728)" fill="none" stroke="#ff5c58" filter="url(#bbburst-blur-2)"></use><use xlink:href="#bbburst-shape-11" width="36.43075386671898" opacity="0.2615308380334047" transform="matrix(1.238830236588919,0.16673225516690848,-0.16673225516690848,1.238830236588919,722.2652501140727,-281.1216422409681)" fill="none" stroke="#2c2891" filter="url(#bbburst-blur-3)"></use><use xlink:href="#bbburst-shape-14" width="35.112771780276404" opacity="0.32555830650889017" transform="matrix(1.2337456480985007,0.2009270409825678,-0.2009270409825678,1.2337456480985007,634.5084711695528,-344.36024252551647)" fill="none" stroke="#ffa6d5" filter="url(#bbburst-blur-3)"></use><use xlink:href="#bbburst-shape-8" width="16.617535716413897" opacity="0.9502644460201523" transform="matrix(0.8239642393137242,0.5666418024926821,-0.5666418024926821,0.8239642393137242,608.5424627798004,46.36874220018046)" fill="none" stroke="#00a19d"></use><use xlink:href="#bbburst-shape-3" width="17.482854687166753" opacity="0.7928828444950455" transform="matrix(0.9932986524483377,0.11557589300678742,-0.11557589300678742,0.9932986524483377,353.5076831620193,42.1000659427354)" fill="#2c2891"></use><use xlink:href="#bbburst-shape-13" width="33.306968322272" opacity="0.322971544447871" transform="matrix(0.9884501879050133,-0.7651576478285661,0.7651576478285661,0.9884501879050133,-119.44383011104713,249.8320220143347)" fill="none" stroke="#00a19d" filter="url(#bbburst-blur-3)"></use><use xlink:href="#bbburst-shape-11" width="30.231898942400406" opacity="0.17925074642300676" transform="matrix(1.1146905693120563,-0.56565443044916,0.56565443044916,1.1146905693120563,96.64749790031607,-402.1876586234087)" fill="none" stroke="#00a19d" filter="url(#bbburst-blur-3)"></use><use xlink:href="#bbburst-shape-8" width="32.11092745036392" opacity="0.32298884288677643" transform="matrix(1.1980184905372477,-0.3567235572973199,0.3567235572973199,1.1980184905372477,333.98424684040765,-362.64480427589416)" fill="none" stroke="#ffbd9b" filter="url(#bbburst-blur-3)"></use><use xlink:href="#bbburst-shape-9" width="18.515397315480904" opacity="0.7323297821564679" transform="matrix(0.9928661671613107,0.11923411469209749,-0.11923411469209749,0.9928661671613107,356.2649222055658,89.62126485489182)" fill="none" stroke="#00a19d" filter="url(#bbburst-blur-1)"></use><use xlink:href="#bbburst-shape-9" width="13.383990380775657" opacity="0.9500127412094451" transform="matrix(0.9710121266961902,-0.23903022781426994,0.23903022781426994,0.9710121266961902,283.9608588624269,30.786897358045053)" fill="none" stroke="#00a19d"></use><use xlink:href="#bbburst-shape-13" width="29.192909243159605" opacity="0.3548965102704743" transform="matrix(0.9724873540598203,-0.23295567431107925,0.23295567431107925,0.9724873540598203,553.4381154320808,141.87108566027933)" fill="none" stroke="#00a19d" filter="url(#bbburst-blur-2)"></use><use xlink:href="#bbburst-shape-8" width="36.392399283611304" opacity="0.25538933286575594" transform="matrix(1.1788588176557304,-0.415682436524967,0.415682436524967,1.1788588176557304,340.5908188744855,245.5530252148729)" fill="none" stroke="#ffbd9b" filter="url(#bbburst-blur-3)"></use><use xlink:href="#bbburst-shape-11" width="38.67742592648756" opacity="0.2079476695882857" transform="matrix(1.2434778445413683,0.12752588025476347,-0.12752588025476347,1.2434778445413683,678.5512058540655,152.05638226924907)" fill="none" stroke="#00a19d" filter="url(#bbburst-blur-3)"></use><use xlink:href="#bbburst-shape-8" width="12.965041110702177" opacity="0.8403673242530222" transform="matrix(0.9508283138952044,-0.30971844874854115,0.30971844874854115,0.9508283138952044,321.3400076665592,71.86782075582829)" fill="none" stroke="#ff5c58"></use><use xlink:href="#bbburst-shape-3" width="27.37847408208792" opacity="0.3105178790366412" transform="matrix(0.9643099734593535,-0.7953654977975979,0.7953654977975979,0.9643099734593535,378.2770139197314,43.58330115455925)" fill="#2c2891" filter="url(#bbburst-blur-3)"></use><use xlink:href="#bbburst-shape-4" width="14.453859934262516" opacity="0.784813867661381" transform="matrix(0.9763630426079555,-0.2161370144823318,0.2161370144823318,0.9763630426079555,333.9973987506289,103.87477048043831)" fill="#00a19d"></use><use xlink:href="#bbburst-shape-12" width="23.396734128111806" opacity="0.17533856763380007" transform="matrix(0.9208636803007574,-0.8452869822154749,0.8452869822154749,0.9208636803007574,117.29158698205958,406.64649416867286)" fill="none" stroke="#2c2891" filter="url(#bbburst-blur-3)"></use><use xlink:href="#bbburst-shape-3" width="37.15635082436774" opacity="0.09383336178864876" transform="matrix(1.7377144730619127,0.20699857514282238,-0.20699857514282238,1.7377144730619127,650.1914795525737,-654.3642328464571)" fill="#ffbd9b" filter="url(#bbburst-blur-4)"></use><use xlink:href="#bbburst-shape-4" width="45.886547074140196" opacity="0.042257935782763156" transform="matrix(1.5876710918349684,0.7360709912444311,-0.7360709912444311,1.5876710918349684,1011.144628734045,-4.876572526838686)" fill="#ffa6d5" filter="url(#bbburst-blur-4)"></use><use xlink:href="#bbburst-shape-8" width="11.160566385901655" opacity="0.9186801014138741" transform="matrix(0.9985475843286485,-0.053876913714693796,0.053876913714693796,0.9985475843286485,398.89908995428016,-24.847170020071644)" fill="none" stroke="#ffa6d5"></use><use xlink:href="#bbburst-shape-13" width="27.274809396447555" opacity="0.6502247663027761" transform="matrix(0.9390505493192257,-0.34377909451166516,0.34377909451166516,0.9390505493192257,292.81107411763134,-122.30665416270114)" fill="none" stroke="#2c2891" filter="url(#bbburst-blur-1)"></use><use xlink:href="#bbburst-shape-8" width="35.22263035859372" opacity="0.08297806970418087" transform="matrix(1.3148457300635552,1.154850945418341,-1.154850945418341,1.3148457300635552,1048.8141302978215,208.93534657847192)" fill="none" stroke="#ffa6d5" filter="url(#bbburst-blur-4)"></use><use xlink:href="#bbburst-shape-11" width="21.21221500312768" opacity="0.7310310025622384" transform="matrix(0.7834641047242642,0.6214370415485443,-0.6214370415485443,0.7834641047242642,758.9394071068995,55.18247203208108)" fill="none" stroke="#00a19d" filter="url(#bbburst-blur-1)"></use><use xlink:href="#bbburst-shape-10" width="36.01430564024943" opacity="0.0828420257859307" transform="matrix(1.2787382813120594,-1.194708503320823,1.194708503320823,1.2787382813120594,-322.8276814191586,257.9995427013058)" fill="none" stroke="#2c2891" filter="url(#bbburst-blur-4)"></use><use xlink:href="#bbburst-shape-14" width="49.65203624950697" opacity="-0.07614707877946758" transform="matrix(1.7372788593036324,-0.21062327748059897,0.21062327748059897,1.7372788593036324,608.1615184769923,59.62699351157562)" fill="none" stroke="#2c2891" filter="url(#bbburst-blur-4)"></use><use xlink:href="#bbburst-shape-9" width="37.36866613761494" opacity="0.4797945204310259" transform="matrix(0.9989968185144118,0.04478120809093119,-0.04478120809093119,0.9989968185144118,260.542644795917,-189.25347243210942)" fill="none" stroke="#ffa6d5" filter="url(#bbburst-blur-2)"></use><use xlink:href="#bbburst-shape-11" width="31.46012609190014" opacity="0.0714946383094921" transform="matrix(1.712069730854729,-0.36237720222306496,0.36237720222306496,1.712069730854729,-134.36006516148402,-71.74545665199253)" fill="none" stroke="#2c2891" filter="url(#bbburst-blur-4)"></use><use xlink:href="#bbburst-shape-14" width="27.958911113938125" opacity="0.63436929252405" transform="matrix(0.8990029426663982,0.4379425865078169,-0.4379425865078169,0.8990029426663982,693.2753904589047,134.27793579223686)" fill="none" stroke="#00a19d" filter="url(#bbburst-blur-1)"></use><use xlink:href="#bbburst-shape-10" width="28.27578273713398" opacity="0.6293461116020661" transform="matrix(0.8212888263852137,0.5705126323358654,-0.5705126323358654,0.8212888263852137,544.902677386401,-87.18254723141277)" fill="none" stroke="#2c2891" filter="url(#bbburst-blur-1)"></use><use xlink:href="#bbburst-shape-10" width="31.614915439751194" opacity="0.5088945888820391" transform="matrix(0.9949666673496915,-0.10020644122534408,0.10020644122534408,0.9949666673496915,446.09966018134537,-192.5000658932438)" fill="none" stroke="#2c2891" filter="url(#bbburst-blur-2)"></use><use xlink:href="#bbburst-shape-9" width="31.087946179219024" opacity="0.17413524226016164" transform="matrix(1.2384081302879943,-0.1698390497989018,0.1698390497989018,1.2384081302879943,674.8810618435715,-176.63554210513496)" fill="none" stroke="#00a19d" filter="url(#bbburst-blur-3)"></use><use xlink:href="#bbburst-shape-8" width="34.22429550860735" opacity="0.18187099487332348" transform="matrix(0.8852425104502081,0.8825223496840255,-0.8825223496840255,0.8852425104502081,382.9838844898628,-67.19331467339225)" fill="none" stroke="#2c2891" filter="url(#bbburst-blur-3)"></use><use xlink:href="#bbburst-shape-9" width="14.733663566470586" opacity="0.8892225653896405" transform="matrix(0.786799531568835,0.6172086333834466,-0.6172086333834466,0.786799531568835,595.6754881947546,60.22943879791478)" fill="none" stroke="#2c2891"></use><use xlink:href="#bbburst-shape-8" width="35.468681098357365" opacity="0.17630329822179291" transform="matrix(0.8842838747458022,0.8834828967583642,-0.8834828967583642,0.8842838747458022,807.7788894362446,-333.3622131467702)" fill="none" stroke="#ffbd9b" filter="url(#bbburst-blur-3)"></use><use xlink:href="#bbburst-shape-14" width="28.78456849249168" opacity="0.3010693388143415" transform="matrix(1.1933469407787383,-0.37205252174125425,0.37205252174125425,1.1933469407787383,121.76892471464558,-365.74392749621893)" fill="none" stroke="#2c2891" filter="url(#bbburst-blur-3)"></use><use xlink:href="#bbburst-shape-8" width="32.66148654282284" opacity="0.38348605648118206" transform="matrix(0.8796748883090016,0.4755755364592941,-0.4755755364592941,0.8796748883090016,337.95587269947987,183.0786910307845)" fill="none" stroke="#00a19d" filter="url(#bbburst-blur-2)"></use><use xlink:href="#bbburst-shape-14" width="30.02127762314333" opacity="0.5628281819052909" transform="matrix(0.973610054145649,0.22821801521025112,-0.22821801521025112,0.973610054145649,582.5153662112637,172.99198875398116)" fill="none" stroke="#2c2891" filter="url(#bbburst-blur-1)"></use><use xlink:href="#bbburst-shape-1" width="16.407832689025447" opacity="0.8401527439075946" transform="matrix(0.9089042472333393,-0.417004879301426,0.417004879301426,0.9089042472333393,270.1194789897203,-16.738399802169)" fill="#2c2891"></use><use xlink:href="#bbburst-shape-11" width="13.843898399814277" opacity="0.8636330830572011" transform="matrix(0.9998310025898197,0.018383858687335518,-0.018383858687335518,0.9998310025898197,404.48564691973064,-61.46937500053707)" fill="none" stroke="#ffa6d5"></use><use xlink:href="#bbburst-shape-4" width="30.782346035621984" opacity="0.35172571529585395" transform="matrix(0.869352010509172,0.49419336481144766,-0.49419336481144766,0.869352010509172,577.6592406032996,-246.97095894487376)" fill="#ffa6d5" filter="url(#bbburst-blur-2)"></use><use xlink:href="#bbburst-shape-8" width="32.61062871686419" opacity="0.1652689598250302" transform="matrix(1.1202806839601196,-0.554500846839612,0.554500846839612,1.1202806839601196,502.92460770970195,114.07595647417418)" fill="none" stroke="#ffbd9b" filter="url(#bbburst-blur-3)"></use><use xlink:href="#bbburst-shape-1" width="35.4342761970235" opacity="0.5069361703588526" transform="matrix(0.9393897110972769,0.3428512369593766,-0.3428512369593766,0.9393897110972769,336.8938812130267,-106.3896728404793)" fill="#2c2891" filter="url(#bbburst-blur-2)"></use><use xlink:href="#bbburst-shape-1" width="18.88253304458091" opacity="0.7680566441343797" transform="matrix(0.968595855878969,0.24864043913669281,-0.24864043913669281,0.968595855878969,523.3746293413806,-88.75953003752238)" fill="#2c2891" filter="url(#bbburst-blur-1)"></use><use xlink:href="#bbburst-shape-9" width="36.64818707020652" opacity="0.32852067690230025" transform="matrix(1.2101743196442436,0.31301456207913425,-0.31301456207913425,1.2101743196442436,201.03280045594985,-82.70182484747045)" fill="none" stroke="#00a19d" filter="url(#bbburst-blur-3)"></use><use xlink:href="#bbburst-shape-8" width="33.239252858914234" opacity="0.13553194782465827" transform="matrix(1.1491917451419003,0.4917909443022652,-0.4917909443022652,1.1491917451419003,846.6753576800436,-348.8073475063113)" fill="none" stroke="#2c2891" filter="url(#bbburst-blur-3)"></use><use xlink:href="#bbburst-shape-14" width="27.643004602853594" opacity="0.3782294639819158" transform="matrix(0.9975360533716106,0.07015569986673396,-0.07015569986673396,0.9975360533716106,571.9363695564283,231.19865791354152)" fill="none" stroke="#2c2891" filter="url(#bbburst-blur-2)"></use><use xlink:href="#bbburst-shape-13" width="14.223751223537734" opacity="0.6791419716337127" transform="matrix(0.9999964575296667,0.0026617528280283307,-0.0026617528280283307,0.9999964575296667,323.63797966121757,126.09026568215921)" fill="none" stroke="#ffbd9b" filter="url(#bbburst-blur-1)"></use><use xlink:href="#bbburst-shape-9" width="19.51035042704008" opacity="0.6680370665239972" transform="matrix(0.9863268515383289,0.16480091606082553,-0.16480091606082553,0.9863268515383289,447.5985742894547,152.86037550401443)" fill="none" stroke="#00a19d" filter="url(#bbburst-blur-1)"></use><use xlink:href="#bbburst-shape-8" width="29.108777321340447" opacity="0.42230690395351955" transform="matrix(0.9522766460910448,-0.3052362843922575,0.3052362843922575,0.9522766460910448,476.7699141438494,-125.89564988096629)" fill="none" stroke="#2c2891" filter="url(#bbburst-blur-2)"></use><use xlink:href="#bbburst-shape-13" width="16.099983411867015" opacity="0.7752597250164239" transform="matrix(0.9026727000994864,-0.4303277779729106,0.4303277779729106,0.9026727000994864,201.58064335193325,141.7232144436278)" fill="none" stroke="#00a19d" filter="url(#bbburst-blur-1)"></use><use xlink:href="#bbburst-shape-1" width="15.876089938157788" opacity="0.7598492653887439" transform="matrix(0.9209678908454407,0.38963847863333567,-0.38963847863333567,0.9209678908454407,634.0065234951858,-37.59425570352738)" fill="#2c2891" filter="url(#bbburst-blur-1)"></use><use xlink:href="#bbburst-shape-10" width="14.559752125621078" opacity="0.889170170079516" transform="matrix(0.8771486730606701,0.4802189139839306,-0.4802189139839306,0.8771486730606701,634.2686982639955,56.98633303246686)" fill="none" stroke="#ffa6d5"></use><use xlink:href="#bbburst-shape-13" width="31.14589950573098" opacity="0.345873451051798" transform="matrix(0.9671033917236234,-0.2543836270609096,0.2543836270609096,0.9671033917236234,566.3934642640772,-63.126254965417615)" fill="none" stroke="#ffbd9b" filter="url(#bbburst-blur-2)"></use><use xlink:href="#bbburst-shape-11" width="31.600632881912688" opacity="0.5330517657598355" transform="matrix(0.7548699376594509,-0.6558745133163941,0.6558745133163941,0.7548699376594509,-78.54796141024389,57.752467639909185)" fill="none" stroke="#00a19d" filter="url(#bbburst-blur-2)"></use><use xlink:href="#bbburst-shape-4" width="28.593413078892972" opacity="0.29741962246774345" transform="matrix(1.2340055238913263,0.1993247777013512,-0.1993247777013512,1.2340055238913263,339.98215673085076,195.21242156030814)" fill="#ffa6d5" filter="url(#bbburst-blur-3)"></use><use xlink:href="#bbburst-shape-12" width="26.680388468044477" opacity="0.17754527463055658" transform="matrix(1.1754789854778136,0.4251460392618637,-0.4251460392618637,1.1754789854778136,185.28174976717725,-48.88727275735283)" fill="none" stroke="#ff5c58" filter="url(#bbburst-blur-3)"></use><use xlink:href="#bbburst-shape-3" width="19.35913104350103" opacity="0.7919026416155412" transform="matrix(0.9309051009976075,-0.36526112979159747,0.36526112979159747,0.9309051009976075,334.92455814385795,56.688057000010815)" fill="#ffa6d5"></use><use xlink:href="#bbburst-shape-12" width="28.01786628586604" opacity="0.4255224065954115" transform="matrix(0.8186877511929381,-0.574238945080051,0.574238945080051,0.8186877511929381,221.40733692861957,331.3486333125461)" fill="none" stroke="#00a19d" filter="url(#bbburst-blur-2)"></use><use xlink:href="#bbburst-shape-11" width="18.990981436016163" opacity="0.8313736635776805" transform="matrix(0.998450839482692,0.05564100229424067,-0.05564100229424067,0.998450839482692,336.9173485670548,-1.383158131019286)" fill="none" stroke="#ffbd9b"></use><use xlink:href="#bbburst-shape-1" width="34.78962531264631" opacity="0.45092860316658" transform="matrix(0.9430709525772555,-0.3325916090418218,0.3325916090418218,0.9430709525772555,438.6528693318504,188.83601726241)" fill="#2c2891" filter="url(#bbburst-blur-2)"></use><use xlink:href="#bbburst-shape-11" width="17.339042896546996" opacity="0.8561924518639932" transform="matrix(0.781901943290094,-0.6234014365392293,0.6234014365392293,0.781901943290094,111.54074033317028,36.32438816044265)" fill="none" stroke="#00a19d"></use><use xlink:href="#bbburst-shape-3" width="27.293548691175793" opacity="0.5242615996268916" transform="matrix(0.9654762138318739,-0.2604912292666871,0.2604912292666871,0.9654762138318739,432.6254064361364,-135.25771763692657)" fill="#00a19d" filter="url(#bbburst-blur-2)"></use><use xlink:href="#bbburst-shape-13" width="27.21912126012096" opacity="0.6295159951684701" transform="matrix(0.9275773672356489,-0.37363113868116266,0.37363113868116266,0.9275773672356489,383.56491098711973,-47.08442083155063)" fill="none" stroke="#00a19d" filter="url(#bbburst-blur-1)"></use><use xlink:href="#bbburst-shape-10" width="30.558173356103957" opacity="0.3078440717692703" transform="matrix(1.2476612913161997,0.07642841193687572,-0.07642841193687572,1.2476612913161997,221.94559085065225,-347.375297044665)" fill="none" stroke="#ffa6d5" filter="url(#bbburst-blur-3)"></use><use xlink:href="#bbburst-shape-10" width="28.806284082180923" opacity="0.48901999538252483" transform="matrix(0.9696147090713476,0.24463711074259759,-0.24463711074259759,0.9696147090713476,423.64209373916617,-213.27736910000618)" fill="none" stroke="#ffbd9b" filter="url(#bbburst-blur-2)"></use><use xlink:href="#bbburst-shape-9" width="16.77248344196317" opacity="0.8390615392941975" transform="matrix(0.982664696002851,0.18539173452347998,-0.18539173452347998,0.982664696002851,535.7061306086945,-14.154099300359746)" fill="none" stroke="#ffa6d5"></use><use xlink:href="#bbburst-shape-4" width="18.666773609940375" opacity="0.7438095905753378" transform="matrix(0.8369274473805021,0.5473138476424262,-0.5473138476424262,0.8369274473805021,497.079401178347,43.13536449198568)" fill="#2c2891" filter="url(#bbburst-blur-1)"></use><use xlink:href="#bbburst-shape-10" width="34.675703183049976" opacity="0.14594885345038966" transform="matrix(1.1724851270519352,-0.43333431302172143,0.43333431302172143,1.1724851270519352,-67.0435277824478,-331.6045931615234)" fill="none" stroke="#ffa6d5" filter="url(#bbburst-blur-3)"></use><use xlink:href="#bbburst-shape-10" width="12.564809731623303" opacity="0.8603462123729023" transform="matrix(0.9866430542756949,-0.16289715605107483,0.16289715605107483,0.9866430542756949,340.9775488806318,67.9879479296838)" fill="none" stroke="#00a19d"></use><use xlink:href="#bbburst-shape-14" width="24.90638458402076" opacity="0.5803397790027063" transform="matrix(0.8721039552402836,-0.4893206425793351,0.4893206425793351,0.8721039552402836,227.55070658200992,243.02004042445083)" fill="none" stroke="#ffbd9b" filter="url(#bbburst-blur-1)"></use><use xlink:href="#bbburst-shape-3" width="21.147326323956563" opacity="0.6922820767746867" transform="matrix(0.9003123787102391,0.43524432304294447,-0.43524432304294447,0.9003123787102391,619.3798775213264,162.37390251380043)" fill="#ffa6d5" filter="url(#bbburst-blur-1)"></use><use xlink:href="#bbburst-shape-4" width="28.001354838957305" opacity="0.17588321351766723" transform="matrix(1.2443219204803095,-0.1190082274979091,0.1190082274979091,1.2443219204803095,701.5847236106754,-40.07246860651105)" fill="#2c2891" filter="url(#bbburst-blur-3)"></use><use xlink:href="#bbburst-shape-14" width="34.25488769071641" opacity="0.07413568350752842" transform="matrix(1.7470296754727852,-0.10191816824028231,0.10191816824028231,1.7470296754727852,-26.573885222997013,-513.6208461840682)" fill="none" stroke="#2c2891" filter="url(#bbburst-blur-4)"></use><use xlink:href="#bbburst-shape-3" width="21.261555978358746" opacity="0.7555844386690354" transform="matrix(0.9930776413276634,0.1174597730931095,-0.1174597730931095,0.9930776413276634,376.59690278441826,-90.831973075132)" fill="#ff5c58" filter="url(#bbburst-blur-1)"></use><use xlink:href="#bbburst-shape-1" width="35.37247154819262" opacity="0.09068352693438253" transform="matrix(1.5738418069713824,0.7651940712192259,-0.7651940712192259,1.5738418069713824,476.4227392631251,-598.9778736763269)" fill="#ffa6d5" filter="url(#bbburst-blur-4)"></use><use xlink:href="#bbburst-shape-11" width="17.427824177654937" opacity="0.7452405560756132" transform="matrix(0.94394188054089,0.3301116874043211,-0.3301116874043211,0.94394188054089,606.2302676856423,99.1054341353294)" fill="none" stroke="#2c2891" filter="url(#bbburst-blur-1)"></use><use xlink:href="#bbburst-shape-12" width="17.227711901015613" opacity="0.6654096664982944" transform="matrix(0.9714971707764002,-0.23705114885494616,0.23705114885494616,0.9714971707764002,172.46981059587165,98.33078071985898)" fill="none" stroke="#ffbd9b" filter="url(#bbburst-blur-1)"></use><use xlink:href="#bbburst-shape-9" width="30.98748230475912" opacity="0.5379456331272903" transform="matrix(0.8163383743180785,-0.5775739421197227,0.5775739421197227,0.8163383743180785,349.85766518278876,157.93917696020247)" fill="none" stroke="#2c2891" filter="url(#bbburst-blur-2)"></use><use xlink:href="#bbburst-shape-13" width="45.69687450639122" opacity="0.1638556353335443" transform="matrix(1.1505132416014299,0.4886913963840267,-0.4886913963840267,1.1505132416014299,285.7687780471583,176.11267377695674)" fill="none" stroke="#ffa6d5" filter="url(#bbburst-blur-3)"></use><use xlink:href="#bbburst-shape-8" width="26.87858818399581" opacity="0.4585515695812261" transform="matrix(0.8613954490480452,0.5079349174444661,-0.5079349174444661,0.8613954490480452,480.9734173213848,265.70658921855613)" fill="none" stroke="#ffa6d5" filter="url(#bbburst-blur-2)"></use><use xlink:href="#bbburst-shape-11" width="25.459995220988077" opacity="0.6094779061619219" transform="matrix(0.9593664406473073,-0.28216313111339814,0.28216313111339814,0.9593664406473073,99.1712989883075,24.725635067013513)" fill="none" stroke="#00a19d" filter="url(#bbburst-blur-1)"></use><use xlink:href="#bbburst-shape-9" width="33.04545406532909" opacity="0.5077374243857934" transform="matrix(0.8823491003491702,0.4705954367745291,-0.4705954367745291,0.8823491003491702,785.208829776584,-26.952994265129746)" fill="none" stroke="#2c2891" filter="url(#bbburst-blur-2)"></use><use xlink:href="#bbburst-shape-3" width="22.24017459039612" opacity="0.6622322076404539" transform="matrix(0.7657059430789768,-0.6431908027432721,0.6431908027432721,0.7657059430789768,-5.760516178662556,41.51603895802543)" fill="#ffa6d5" filter="url(#bbburst-blur-1)"></use><use xlink:href="#bbburst-shape-13" width="29.447567039603918" opacity="0.5588860104747282" transform="matrix(0.8258993629969986,0.5638175610968071,-0.5638175610968071,0.8258993629969986,432.35646510474925,142.8131191467054)" fill="none" stroke="#ffbd9b" filter="url(#bbburst-blur-1)"></use><use xlink:href="#bbburst-shape-14" width="12.414746424435709" opacity="0.920573432978118" transform="matrix(0.8145518681215299,-0.5800907292309762,0.5800907292309762,0.8145518681215299,180.17089004885466,109.0954888054859)" fill="none" stroke="#2c2891"></use><use xlink:href="#bbburst-shape-14" width="25.36166732720008" opacity="0.6230545531389335" transform="matrix(0.9018768439174585,0.43199323884232754,-0.43199323884232754,0.9018768439174585,549.2254846179196,-135.38974005272834)" fill="none" stroke="#ffa6d5" filter="url(#bbburst-blur-1)"></use><use xlink:href="#bbburst-shape-8" width="15.415819517310506" opacity="0.8902563317347587" transform="matrix(0.9717280610642324,-0.23610289142733404,0.23610289142733404,0.9717280610642324,253.40805208217668,34.20601256749069)" fill="none" stroke="#2c2891"></use></svg>