<svg xmlns="http://www.w3.org/2000/svg" version="1.1" xmlns:xlink="http://www.w3.org/1999/xlink" xmlns:svgjs="http://svgjs.dev/svgjs" viewBox="0 0 800 800"><defs><filter id="uuunion-blur" x="-100%" y="-100%" width="400%" height="400%" color-interpolation-filters="sRGB">
        <feGaussianBlur in="SourceGraphic" stdDeviation="1.5 0" result="blur"></feGaussianBlur>
        <feDropShadow stdDeviation="18.461538461538463" in="blur" dx="15" dy="15" flood-color="hsl(230, 55%, 40%)" flood-opacity="1" x="0%" y="0%" width="100%" height="100%"></feDropShadow>
      </filter><filter id="uuunion-blur2" x="-100%" y="-100%" width="400%" height="400%" color-interpolation-filters="sRGB">
        <feGaussianBlur in="SourceGraphic" stdDeviation="1.5 0" result="blur"></feGaussianBlur>
        <feDropShadow stdDeviation="18.461538461538463" in="blur" dx="-15" dy="-15" flood-color="hsl(230, 55%, 40%)" flood-opacity="1" x="0%" y="0%" width="100%" height="100%"></feDropShadow>
      </filter><linearGradient gradientTransform="rotate(58, 0.5, 0.5)" x1="50%" y1="0%" x2="50%" y2="100%" id="uuunion-grad"><stop stop-color="hsl(230, 55%, 70%)" offset="10%"></stop><stop stop-color="hsl(230, 55%, 40%)" offset="90%"></stop></linearGradient><linearGradient gradientTransform="rotate(176, 0.5, 0.5)" x1="50%" y1="0%" x2="50%" y2="100%" id="uuunion-grad2"><stop stop-color="hsl(230, 55%, 70%)" offset="25%"></stop><stop stop-color="hsl(230, 55%, 40%)" offset="100%"></stop></linearGradient><linearGradient gradientTransform="rotate(326, 0.5, 0.5)" x1="50%" y1="0%" x2="50%" y2="100%" id="uuunion-grad3"><stop stop-color="hsl(230, 55%, 70%)" offset="0%"></stop><stop stop-color="hsl(230, 55%, 40%)" offset="75%"></stop></linearGradient></defs><path d="M-75.63 -79.4Q-61.62 -78.06 -47.61 -76.86 -33.6 -75.89 -19.59 -75.23 -5.57 -74.92 8.43 -74.98 22.44 -75.41 36.45 -76.19 50.46 -77.24 64.47 -78.5 78.48 -79.87 92.49 -81.24 106.5 -82.53 120.52 -83.63 134.53 -84.46 148.54 -84.96 162.55 -85.09 176.56 -84.85 190.57 -84.25 204.58 -83.33 218.59 -82.17 232.6 -80.84 246.62 -79.46 260.63 -78.11 274.64 -76.9 288.65 -75.93 302.66 -75.25 316.67 -74.92 330.68 -74.97 344.69 -75.39 358.7 -76.15 372.72 -77.19 386.73 -78.45 400.74 -79.81 414.75 -81.19 428.76 -82.48 442.77 -83.59 456.78 -84.43 470.79 -84.95 484.81 -85.09 498.82 -84.86 512.83 -84.27 526.84 -83.37 540.85 -82.21 554.86 -80.89 568.87 -79.51 582.88 -78.16 596.89 -76.95 610.91 -75.96 624.92 -75.27 638.93 -74.93 652.94 -74.96 666.95 -75.37 680.96 -76.12 694.97 -77.15 708.98 -78.4 722.99 -79.76 737.01 -81.14 751.02 -82.44 765.03 -83.55 779.04 -84.41 793.05 -84.93 807.06 -85.09 821.07 -84.88 815.29 -70.76 818.5 -56.64 830.26 -42.52 848.93 -28.4 871.92 -14.28 896.03 -0.16 917.91 13.95 934.52 28.07 943.56 42.19 943.76 56.31 935.1 70.43 918.78 84.55 897.07 98.67 872.98 112.79 849.88 126.91 830.95 141.03 818.85 155.15 815.24 169.27 820.63 183.39 834.28 197.51 854.27 211.63 877.84 225.75 901.72 239.87 922.57 253.99 937.5 268.11 944.45 282.23 942.43 296.35 931.74 310.48 913.85 324.6 891.26 338.72 867.11 352.84 844.74 366.96 827.28 381.08 817.14 395.2 815.74 409.32 823.27 423.44 838.68 437.56 859.83 451.68 883.79 465.8 907.22 479.92 926.87 494.04 940 508.16 944.79 522.28 940.58 536.4 927.94 550.52 908.64 564.64 885.36 578.76 861.34 592.88 839.91 607 824.04 621.12 815.96 635.24 816.77 649.36 826.38 663.48 843.43 677.6 865.57 691.72 889.71 705.84 912.5 719.96 930.77 734.08 941.99 748.2 944.59 762.32 938.21 776.44 923.74 790.56 903.19 804.68 879.42 818.8 864.43 816.11 849.44 818.14 834.45 824.74 819.46 835.42 804.47 849.4 789.48 865.65 774.49 882.95 759.5 900.03 744.51 915.64 729.52 928.61 714.53 937.98 699.54 943.07 684.55 943.5 669.56 939.23 654.57 930.58 639.58 918.2 624.59 902.99 609.59 886.08 594.6 868.72 579.61 852.19 564.62 837.72 549.63 826.38 534.64 819 519.65 816.12 504.66 817.97 489.67 824.4 474.68 834.95 459.69 848.82 444.7 865 429.71 882.28 414.72 899.4 399.73 915.08 384.74 928.17 369.75 937.7 354.76 942.96 339.77 943.57 324.78 939.48 309.79 930.99 294.8 918.73 279.81 903.61 264.82 886.74 249.83 869.38 234.84 852.8 219.84 838.23 204.85 826.74 189.86 819.2 174.87 816.15 159.88 817.81 144.89 824.08 129.9 834.48 114.91 848.24 99.92 864.35 84.93 881.61 69.94 898.76 54.95 914.52 39.96 927.73 24.97 937.41 9.98 942.84 -5 943.63 -19.99 939.72 -34.98 931.39 -49.97 919.26 -64.96 904.23 -79.95 887.41 -81.71 872.3 -83.24 857.19 -84.31 842.09 -84.78 826.98 -84.59 811.87 -83.76 796.77 -82.4 781.66 -80.71 766.55 -78.93 751.45 -77.29 736.34 -76.02 721.23 -75.31 706.13 -75.25 691.02 -75.85 675.91 -77.03 660.81 -78.61 645.7 -80.39 630.6 -82.12 615.49 -83.55 600.38 -84.48 585.28 -84.79 570.17 -84.44 555.06 -83.47 539.96 -82.01 524.85 -80.28 509.74 -78.5 494.64 -76.93 479.53 -75.79 464.42 -75.24 449.32 -75.34 434.21 -76.09 419.1 -77.38 404 -79.04 388.89 -80.83 373.78 -82.5 358.68 -83.83 343.57 -84.62 328.46 -84.77 313.36 -84.25 298.25 -83.15 283.14 -81.6 268.04 -79.84 252.93 -78.09 237.82 -76.61 222.72 -75.6 207.61 -75.2 192.5 -75.47 177.4 -76.36 162.29 -77.76 147.19 -79.48 132.08 -81.26 116.97 -82.87 101.87 -84.08 86.76 -84.72 71.65 -84.7 56.55 -84.03 41.44 -82.8 26.33 -81.18 11.23 -79.4 -3.87 -77.69 -18.98 -76.31 -34.08 -75.44 -49.19 -75.2 -64.3 -75.63 -79.4" fill="url(#uuunion-grad)"></path><path d="M-75.63 -79.4Q-75.2 -64.3 -75.44 -49.19 -76.31 -34.08 -77.69 -18.98 -79.4 -3.87 -81.18 11.23 -82.8 26.33 -84.03 41.44 -84.7 56.55 -84.72 71.65 -84.08 86.76 -82.87 101.87 -81.26 116.97 -79.48 132.08 -77.76 147.19 -76.36 162.29 -75.47 177.4 -75.2 192.5 -75.6 207.61 -76.61 222.72 -78.09 237.82 -79.84 252.93 -81.6 268.04 -83.15 283.14 -84.25 298.25 -84.77 313.36 -84.62 328.46 -83.83 343.57 -82.5 358.68 -80.83 373.78 -79.04 388.89 -77.38 404 -67.78 410.13 -58.17 415.92 -48.57 421.19 -38.96 425.77 -29.36 429.49 -19.75 432.24 -1.74 434.34 1.36 434.47 13.62 426.69 26.16 417.27 38.98 406.4 52.1 394.36 65.49 381.47 79.13 368.08 92.97 354.58 106.97 341.34 121.06 328.7 135.17 316.99 149.23 306.45 163.16 297.28 176.89 289.59 190.34 283.42 203.43 278.73 216.13 275.4 228.36 273.24 240.11 272.01 251.35 271.43 262.09 271.19 272.32 270.98 282.1 270.48 291.46 269.41 300.48 267.52 309.23 264.61 317.82 260.53 326.35 255.22 334.93 248.66 343.68 240.9 352.72 232.07 362.18 222.32 372.15 211.87 382.75 200.97 394.06 189.85 406.15 178.78 419.07 168.01 432.87 157.77 447.54 148.22 463.07 139.53 479.42 131.78 496.51 125.02 514.27 119.24 532.58 114.36 551.29 110.29 570.28 106.88 589.36 103.94 608.38 101.3 627.14 98.75 645.49 96.09 663.24 93.13 680.22 89.73 696.31 85.76 711.36 81.11 725.26 75.75 737.95 69.67 749.37 62.88 759.5 55.46 768.37 47.51 776.01 39.15 782.52 30.51 788.02 21.74 792.64 12.98 796.57 4.37 800 -3.97 775 -21.04 754.71 -38.11 742.95 -55.19 741.94 -72.26 751.86 -89.34 770.85 -106.41 795.33 -123.49 820.69 -140.56 805.41 -140.19 790.12 -139.8 774.84 -139.43 759.55 -139.1 744.26 -138.84 728.98 -138.66 713.69 -138.57 698.41 -138.6 683.12 -138.72 667.84 -138.93 652.55 -139.23 637.27 -139.58 621.98 -139.96 606.7 -140.34 591.41 -140.7 576.13 -141 560.84 -141.24 545.56 -141.38 530.27 -141.42 514.98 -141.36 499.7 -141.19 484.41 -140.94 469.13 -140.63 453.84 -140.26 438.56 -139.88 423.27 -139.5 407.99 -139.16 392.7 -138.88 377.42 -138.68 362.13 -138.58 346.85 -138.58 331.56 -138.69 316.27 -138.89 300.99 -139.17 285.7 -139.51 270.42 -139.89 255.13 -140.27 239.85 -140.64 224.56 -140.95 209.28 -141.2 193.99 -141.36 178.71 -141.42 163.42 -141.38 148.14 -141.23 132.85 -141 117.57 -140.69 102.28 -140.33 86.99 -139.95 71.71 -139.57 56.42 -139.22 41.14 -138.93 25.85 -138.71 10.57 -138.59 -4.71 -138.58 -19.99 -138.66 -35.28 -138.85 -50.56 -139.11 -65.85 -139.44 -81.13 -139.82 -96.42 -140.2 -111.7 -140.57 -126.99 -140.9 -134.46 -128.5 -114.14 -111.72 -104.02 -103.9 -94.23 -95.91 -84.78 -87.74 -75.63 -79.4" fill="url(#uuunion-grad2)" filter="url(#uuunion-blur)"></path><path d="M767.9 386.3Q777.5 380.8 787.11 375.93 796.71 371.86 806.32 368.71 815.93 366.6 825.53 365.58 831.21 373.39 817.14 395.2 815.74 409.32 823.27 423.44 838.68 437.56 859.83 451.68 883.79 465.8 907.22 479.92 926.87 494.04 940 508.16 944.79 522.28 940.58 536.4 927.94 550.52 908.64 564.64 885.36 578.76 861.34 592.88 839.91 607 824.04 621.12 815.96 635.24 816.77 649.36 826.38 663.48 843.43 677.6 865.57 691.72 889.71 705.84 912.5 719.96 930.77 734.08 941.99 748.2 944.59 762.32 938.21 776.44 923.74 790.56 903.19 804.68 879.42 818.8 865.66 816.15 851.91 817.48 838.15 822.7 824.39 831.5 810.64 843.31 796.88 857.42 783.12 872.93 769.37 888.88 755.61 904.27 741.85 918.16 728.1 929.66 714.34 938.07 700.58 942.86 686.83 943.74 673.07 940.64 659.31 933.76 645.56 923.53 631.8 910.59 618.04 895.74 604.29 879.91 590.53 864.09 576.77 849.26 563.02 836.34 549.26 826.14 535.5 819.3 521.74 816.24 507.99 817.16 494.23 821.99 480.47 830.43 466.72 841.96 452.96 855.87 439.2 871.27 425.45 887.22 411.69 902.72 397.93 916.81 384.18 928.6 370.42 937.36 356.66 942.54 342.91 943.83 329.15 941.14 315.39 934.64 301.64 924.74 287.88 912.04 274.12 897.35 260.37 881.58 246.61 865.71 232.85 850.73 219.1 837.57 205.34 827.06 191.58 819.84 177.83 816.38 164.07 816.87 150.31 821.31 136.55 829.39 122.8 840.64 109.04 854.33 95.28 869.62 81.53 885.56 67.77 901.16 54.01 915.43 40.26 927.5 26.5 936.6 5.98 937.73 -0.56 922.66 -0.37 912.05 -0.22 901.43 -0.12 890.82 -0.07 880.21 0.14 864.3 0.91 859 14.09 850.85 27.09 839.82 39.84 826.16 52.31 810.31 64.49 792.77 76.36 774.16 87.91 755.11 99.18 736.3 110.18 718.35 120.97 701.87 131.59 687.35 142.12 675.19 152.64 665.66 163.21 658.9 173.93 654.88 184.87 653.46 196.12 654.35 207.75 657.15 219.83 661.38 232.41 666.46 245.52 671.82 259.2 676.84 273.45 680.96 288.26 683.66 303.59 684.5 319.41 683.15 335.63 679.39 352.18 673.12 368.96 664.39 385.85 653.37 402.74 640.33 419.5 625.66 436 609.82 452.11 593.31 467.71 576.67 482.67 560.43 496.91 545.11 510.33 531.16 522.87 518.93 534.49 508.72 545.15 500.69 554.88 494.89 571.28 490.49 585.4 491.18 596.94 496.49 607.87 501.84 619.58 502.85 632.87 499.18 640.88 494.11 649.91 487.07 660.09 478.16 671.52 467.54 684.27 455.48 698.38 442.29 713.85 428.37 730.64 414.13 748.69 399.97 767.9 386.3 767.9 386.3 767.9 386.3" fill="url(#uuunion-grad3)" filter="url(#uuunion-blur2)"></path></svg>