<svg xmlns="http://www.w3.org/2000/svg" version="1.1" xmlns:xlink="http://www.w3.org/1999/xlink" xmlns:svgjs="http://svgjs.dev/svgjs" viewBox="0 0 800 800"><defs><filter id="uuunion-blur" x="-100%" y="-100%" width="400%" height="400%" color-interpolation-filters="sRGB">
        <feGaussianBlur in="SourceGraphic" stdDeviation="1.5 0" result="blur"></feGaussianBlur>
        <feDropShadow stdDeviation="11.076923076923077" in="blur" dx="9" dy="9" flood-color="hsl(265, 55%, 30%)" flood-opacity="1" x="0%" y="0%" width="100%" height="100%"></feDropShadow>
      </filter><filter id="uuunion-blur2" x="-100%" y="-100%" width="400%" height="400%" color-interpolation-filters="sRGB">
        <feGaussianBlur in="SourceGraphic" stdDeviation="1.5 0" result="blur"></feGaussianBlur>
        <feDropShadow stdDeviation="11.076923076923077" in="blur" dx="-9" dy="-9" flood-color="hsl(265, 55%, 30%)" flood-opacity="1" x="0%" y="0%" width="100%" height="100%"></feDropShadow>
      </filter><linearGradient gradientTransform="rotate(105, 0.5, 0.5)" x1="50%" y1="0%" x2="50%" y2="100%" id="uuunion-grad"><stop stop-color="hsl(265, 55%, 60%)" offset="10%"></stop><stop stop-color="hsl(265, 55%, 30%)" offset="90%"></stop></linearGradient><linearGradient gradientTransform="rotate(161, 0.5, 0.5)" x1="50%" y1="0%" x2="50%" y2="100%" id="uuunion-grad2"><stop stop-color="hsl(265, 55%, 60%)" offset="25%"></stop><stop stop-color="hsl(265, 55%, 30%)" offset="100%"></stop></linearGradient><linearGradient gradientTransform="rotate(132, 0.5, 0.5)" x1="50%" y1="0%" x2="50%" y2="100%" id="uuunion-grad3"><stop stop-color="hsl(265, 55%, 60%)" offset="0%"></stop><stop stop-color="hsl(265, 55%, 30%)" offset="75%"></stop></linearGradient></defs><path d="M-76.2 -78.98Q-62.1 -77.45 -48 -76.1 -33.9 -75.01 -19.8 -74.27 -5.69 -73.92 8.4 -73.99 22.5 -74.47 36.6 -75.34 50.7 -76.52 64.8 -77.95 78.9 -79.51 93 -81.11 107.1 -82.63 121.2 -83.97 135.3 -85.04 149.4 -85.76 163.5 -86.08 177.6 -85.98 191.7 -85.47 205.8 -84.59 219.9 -83.39 234 -81.95 248.1 -80.38 262.2 -78.78 276.3 -77.27 290.4 -75.94 304.5 -74.9 318.6 -74.2 332.7 -73.9 346.8 -74.03 360.91 -74.56 375.01 -75.47 389.11 -76.69 403.21 -78.13 417.31 -79.71 431.41 -81.3 445.51 -82.81 459.61 -84.12 473.71 -85.15 487.81 -85.82 501.91 -86.09 516.01 -85.94 530.11 -85.38 544.21 -84.46 558.31 -83.22 572.41 -81.76 586.51 -80.18 600.61 -78.59 614.71 -77.09 628.81 -75.8 642.91 -74.79 657.01 -74.14 671.11 -73.9 685.21 -74.07 699.31 -74.65 713.41 -75.6 727.52 -76.86 741.62 -78.32 755.72 -79.91 769.82 -81.5 783.92 -82.98 798.02 -84.26 812.12 -85.25 826.22 -85.88 828.16 -71.58 834.72 -57.28 845.34 -42.99 859.04 -28.69 874.62 -14.4 890.68 -0.1 905.79 14.18 918.59 28.48 927.94 42.77 933.01 57.07 933.35 71.36 928.92 85.66 920.11 99.95 907.73 114.25 892.87 128.54 876.85 142.84 861.12 157.13 847.08 171.43 835.97 185.72 828.8 200.02 826.2 214.31 828.4 228.61 835.22 242.9 846.03 257.2 859.88 271.49 875.52 285.79 891.57 300.08 906.58 314.38 919.21 328.67 928.35 342.97 933.16 357.26 933.22 371.56 928.53 385.85 919.51 400.15 906.95 414.44 891.99 428.74 875.95 443.03 860.28 457.33 846.37 471.62 835.46 485.92 828.53 500.21 826.2 514.51 828.67 528.81 835.73 543.1 846.74 557.4 860.72 571.69 876.43 585.99 892.45 600.28 907.36 614.58 919.83 628.87 928.74 643.17 933.29 657.46 933.08 671.76 928.13 686.05 918.89 700.35 906.16 714.64 891.1 728.94 875.05 743.23 859.44 757.53 845.66 771.82 834.96 786.12 828.27 800.41 826.21 814.71 828.95 829 814.8 834.42 800.66 842.98 786.51 854.08 772.36 866.97 758.22 880.75 744.07 894.49 729.92 907.22 715.78 918.08 701.63 926.32 687.49 931.37 673.34 932.88 659.19 930.75 645.05 925.13 630.9 916.39 616.76 905.15 602.61 892.18 588.46 878.37 574.32 864.67 560.17 852.03 546.03 841.31 531.88 833.26 517.73 828.42 503.59 827.13 489.44 829.49 475.3 835.32 461.15 844.23 447 855.6 432.86 868.65 418.71 882.48 404.57 896.14 390.42 908.69 376.27 919.26 362.13 927.13 347.98 931.75 333.84 932.81 319.69 930.24 305.54 924.2 291.4 915.12 277.25 903.62 263.11 890.5 248.96 876.65 234.81 863.03 220.67 850.58 206.52 840.16 192.38 832.47 178.23 828.06 164.08 827.23 149.94 830.03 135.79 836.27 121.65 845.52 107.5 857.14 93.35 870.34 79.21 884.2 65.06 897.77 50.91 910.12 36.77 920.4 22.62 927.89 8.48 932.08 -5.66 932.69 -19.81 929.67 -33.95 923.23 -48.1 913.81 -62.24 902.07 -76.39 888.8 -76.2 873.68 -76.34 858.56 -76.81 843.44 -77.57 828.32 -78.54 813.19 -79.65 798.07 -80.78 782.95 -81.84 767.83 -82.74 752.71 -83.4 737.59 -83.74 722.46 -83.76 707.34 -83.44 692.22 -82.81 677.1 -81.93 661.98 -80.87 646.86 -79.74 631.73 -78.63 616.61 -77.65 601.49 -76.87 586.37 -76.37 571.25 -76.2 556.12 -76.36 541 -76.85 525.88 -77.62 510.76 -78.6 495.64 -79.71 480.52 -80.84 465.39 -81.9 450.27 -82.79 435.15 -83.42 420.03 -83.75 404.91 -83.75 389.79 -83.41 374.66 -82.77 359.54 -81.87 344.42 -80.81 329.3 -79.68 314.18 -78.57 299.05 -77.6 283.93 -76.83 268.81 -76.35 253.69 -76.2 238.57 -76.38 223.45 -76.89 208.32 -77.67 193.2 -78.66 178.08 -79.77 162.96 -80.9 147.84 -81.95 132.72 -82.83 117.59 -83.45 102.47 -83.76 87.35 -83.74 72.23 -83.38 57.11 -82.72 41.98 -81.82 26.86 -80.75 11.74 -79.62 -3.37 -78.52 -18.49 -77.55 -33.61 -76.8 -48.74 -76.33 -63.86 -76.2 -78.98" fill="url(#uuunion-grad)"></path><path d="M-76.2 -78.98Q-76.33 -63.86 -76.8 -48.74 -77.55 -33.61 -78.52 -18.49 -79.62 -3.37 -80.75 11.74 -81.82 26.86 -82.72 41.98 -83.38 57.11 -83.74 72.23 -83.76 87.35 -83.45 102.47 -82.83 117.59 -81.95 132.72 -80.9 147.84 -79.77 162.96 -78.66 178.08 -77.67 193.2 -76.89 208.32 -76.38 223.45 -76.2 238.57 -76.35 253.69 -76.83 268.81 -77.6 283.93 -78.57 299.05 -79.68 314.18 -80.81 329.3 -81.87 344.42 -82.77 359.54 -83.41 374.66 -83.75 389.79 -83.75 404.91 -73.16 409.91 -62.57 414.61 -51.97 418.85 -41.38 422.52 -30.79 425.5 -20.19 427.7 -0.34 429.37 3.09 429.48 16.32 422.01 29.52 413.22 42.67 403.27 55.72 392.35 68.64 380.72 81.41 368.63 94.01 356.37 106.4 344.24 118.58 332.52 130.54 321.45 142.28 311.25 153.78 302.09 165.07 294.08 176.16 287.29 187.07 281.69 197.83 277.25 208.46 273.84 219.01 271.3 229.51 269.44 240.01 268.02 250.56 266.81 261.2 265.56 271.98 264.04 282.95 262.02 294.14 259.31 305.62 255.77 317.41 251.29 329.54 245.8 342.05 239.31 354.96 231.86 368.28 223.52 382.02 214.42 396.18 204.73 410.75 194.62 425.7 184.3 441.02 173.96 456.67 163.8 472.6 154.01 488.77 144.73 505.12 136.11 521.58 128.22 538.1 121.13 554.59 114.85 570.99 109.34 587.21 104.56 603.2 100.38 618.87 96.71 634.16 93.38 649 90.26 663.34 87.17 677.11 83.96 690.29 80.49 702.83 76.65 714.71 72.31 725.91 67.43 736.44 61.94 746.3 55.85 755.52 49.18 764.13 41.97 772.18 34.29 779.71 26.25 786.81 17.95 793.54 9.49 800 1.01 783.19 -16.56 768.43 -34.15 757.49 -51.74 751.71 -69.32 751.78 -86.91 757.7 -104.5 768.86 -130.48 754.37 -138.14 739.76 -137.53 725.15 -137.1 710.55 -136.86 695.94 -136.84 681.33 -137.03 666.73 -137.42 652.12 -137.98 637.51 -138.69 622.91 -139.48 608.3 -140.31 593.69 -141.11 579.09 -141.84 564.48 -142.45 549.87 -142.89 535.27 -143.13 520.66 -143.16 506.05 -142.97 491.45 -142.58 476.84 -142.01 462.23 -141.31 447.63 -140.52 433.02 -139.69 418.41 -138.89 403.81 -138.15 389.2 -137.55 374.59 -137.11 359.99 -136.86 345.38 -136.83 330.77 -137.02 316.17 -137.4 301.56 -137.97 286.95 -138.67 272.35 -139.46 257.74 -140.29 243.13 -141.09 228.53 -141.83 213.92 -142.43 199.31 -142.88 184.71 -143.12 170.1 -143.16 155.49 -142.98 140.89 -142.59 126.28 -142.03 111.67 -141.33 97.07 -140.54 82.46 -139.71 67.85 -138.91 53.25 -138.17 38.64 -137.56 24.04 -137.12 9.43 -136.87 -5.17 -136.83 -19.77 -137.01 -34.38 -137.39 -48.99 -137.95 -63.59 -138.65 -78.2 -139.44 -92.81 -140.26 -107.41 -141.07 -122.02 -141.81 -130.22 -129.49 -112.13 -112.14 -102.9 -104.07 -93.85 -95.84 -84.96 -87.47 -76.2 -78.98" fill="url(#uuunion-grad2)" filter="url(#uuunion-blur)"></path><path d="M848.47 403Q859.07 397.83 869.66 392.73 880.25 387.85 890.85 383.35 901.44 379.35 912.04 375.99 925.58 379.61 919.51 400.15 906.95 414.44 891.99 428.74 875.95 443.03 860.28 457.33 846.37 471.62 835.46 485.92 828.53 500.21 826.2 514.51 828.67 528.81 835.73 543.1 846.74 557.4 860.72 571.69 876.43 585.99 892.45 600.28 907.36 614.58 919.83 628.87 928.74 643.17 933.29 657.46 933.08 671.76 928.13 686.05 918.89 700.35 906.16 714.64 891.1 728.94 875.05 743.23 859.44 757.53 845.66 771.82 834.96 786.12 828.27 800.41 826.21 814.71 828.95 829 815.97 833.85 802.98 841.37 790 851.14 777.02 862.58 764.04 875.03 751.06 887.77 738.07 900.06 725.09 911.19 712.11 920.5 699.13 927.46 686.15 931.67 673.16 932.88 660.18 931.02 647.2 926.19 634.22 918.69 621.24 908.94 608.25 897.51 595.27 885.06 582.29 872.32 569.31 860.03 556.33 848.89 543.34 839.56 530.36 832.58 517.38 828.34 504.4 827.11 491.42 828.94 478.43 833.74 465.45 841.23 452.47 850.96 439.49 862.38 426.51 874.82 413.53 887.56 400.54 899.86 387.56 911.01 374.58 920.36 361.6 927.36 348.62 931.62 335.63 932.88 322.65 931.07 309.67 926.3 296.69 918.84 283.71 909.12 270.72 897.72 257.74 885.28 244.76 872.54 231.78 860.23 218.8 849.07 205.81 839.7 192.83 832.67 179.85 828.39 166.87 827.11 153.89 828.89 140.9 833.64 127.92 841.08 114.94 850.78 101.96 862.17 88.98 874.6 75.99 887.34 63.01 899.66 50.03 910.83 37.05 920.22 24.07 927.27 4.57 926.99 -1.93 911.91 -1.9 901.42 -1.83 890.94 -1.73 880.45 -1.59 869.96 -1.11 854.23 -0.28 849 12.2 841.27 24.89 831.31 37.76 819.29 50.82 805.54 64.05 790.43 77.43 774.39 90.94 757.92 104.55 741.49 118.23 725.61 131.95 710.71 145.67 697.21 159.34 685.42 172.94 675.6 186.42 667.87 199.74 662.3 212.87 658.81 225.78 657.25 238.42 657.36 250.79 658.82 262.86 661.24 274.61 664.19 286.05 667.23 297.17 669.91 307.98 671.81 318.49 672.56 328.74 671.82 338.74 669.37 348.54 665.05 358.17 658.79 367.68 650.62 377.14 640.67 386.58 629.13 396.08 616.28 405.69 602.47 415.47 588.05 425.48 573.45 435.79 559.04 446.44 545.24 457.5 532.37 469 520.75 480.98 510.61 493.47 502.12 506.5 495.35 520.09 490.29 534.22 486.87 548.91 484.92 564.14 484.21 579.87 484.45 596.07 485.32 612.69 486.46 629.69 487.52 646.99 488.15 664.52 488.03 682.21 486.87 699.97 484.46 717.72 480.64 735.35 475.31 752.8 468.46 769.95 460.14 786.73 450.49 803.04 439.7 818.82 427.99 833.98 415.66 848.47 403 848.47 403 848.47 403" fill="url(#uuunion-grad3)" filter="url(#uuunion-blur2)"></path></svg>