<svg xmlns="http://www.w3.org/2000/svg" version="1.1" xmlns:xlink="http://www.w3.org/1999/xlink" xmlns:svgjs="http://svgjs.dev/svgjs" viewBox="0 0 800 800"><defs><linearGradient x1="50%" y1="0%" x2="50%" y2="100%" id="ccchaos-grad"><stop stop-color="hsl(206, 75%, 49%)" stop-opacity="1" offset="0%"></stop><stop stop-color="hsl(331, 90%, 56%)" stop-opacity="1" offset="100%"></stop></linearGradient></defs><g stroke-width="2" stroke="url(#ccchaos-grad)" fill="none" stroke-linecap="round"><path d="M378.49 120.14C387.85 116.07 397.16 112.36 406.4 109.35 415.66 106.84 424.85 105.61 433.99 105.83 443.16 107.14 452.3 110.02 461.4 114.36 470.57 119.63 479.75 126.03 488.93 133.26 498.22 140.78 507.56 148.64 516.94 156.57 526.48 164.09 536.09 171.32 545.76 178.16 555.59 184.22 565.49 189.81 575.43 194.98 585.5 199.4 595.57 203.56 605.57 207.59 615.61 211.17 625.49 214.87 635.11 218.81 644.61 222.63 653.71 226.9 662.29 231.68 670.53 236.58 678.07 242.08 684.79 248.18 690.94 254.5 696.11 261.41 700.18 268.85 703.52 276.51 705.69 284.63 706.61 293.13 706.79 301.79 705.75 310.75 703.53 319.93 700.75 329.18 696.94 338.59 692.22 348.08 687.3 357.59 681.75 367.13 675.75 376.65 670.01 386.18 664.26 395.46 658.66 404.48 653.72 413.52 649.12 422.33 644.92 430.96 641.56 439.67 638.64 448.28 636.13 456.85 634.42 465.63 633.02 474.5 631.85 483.56 631.28 492.97 630.76 502.72 630.18 512.87 629.93 523.49 629.42 534.6 628.56 546.19 627.78 558.19 626.48 570.58 624.62 583.21 622.64 595.9 620 608.47 616.68 620.63 613.13 632.16 608.87 642.7 603.93 651.88 598.73 659.67 592.88 665.6 586.4 669.41 579.7 671.48 572.44 671.41 564.67 669.3 556.74 666.06 548.36 661.49 539.6 656.13 530.74 651.2 521.55 646.7 512.09 643.3 502.58 642.05 492.84 642.85 482.92 645.96 472.99 651.78 462.9 659.72 452.7 669.29 442.49 680.17 432.18 691.19 421.79 701.38 411.41 710.2 401.19 716.29 391.15 719.17 381.1 719.13 371.22 715.64 361.52 709.06 351.8 700.22 342.24 689.38 332.86 677.33 323.44 665.02 314.17 652.93 305.07 641.66 295.92 631.92 286.92 623.77 278.09 617.36 269.21 613.01 260.48 610.25 251.94 608.77 243.35 608.75 234.94 609.32 226.75 610.06 218.52 611.19 210.53 611.79 202.8 611.55 195.07 610.87 187.63 608.98 180.52 605.82 173.46 601.85 166.76 596.58 160.46 590.13 154.26 582.93 148.5 574.75 143.2 565.76 138.05 556.26 133.39 546.21 129.27 535.77 125.32 525.08 121.91 514.2 119.07 503.26 116.41 492.23 114.32 481.24 112.82 470.39 111.48 459.53 110.71 448.84 110.54 438.37 110.48 427.92 110.98 417.68 112.07 407.69 113.2 397.7 114.83 388.19 116.94 379.12 119.02 370.03 121.53 361.36 124.43 353.08 127.24 344.74 130.4 336.73 133.89 329.04 137.24 321.2 140.88 313.58 144.8 306.12 148.55 298.42 152.56 290.77 156.82 283.11 160.9 275.09 165.23 266.94 169.79 258.62 174.2 249.88 178.86 240.91 183.76 231.72 188.54 222.18 193.6 212.49 198.92 202.75 204.16 192.91 209.69 183.25 215.51 173.96 221.28 165 227.37 156.73 233.76 149.35 240.13 142.74 246.82 137.28 253.81 133.09 260.8 129.81 268.1 127.8 275.68 127 283.28 126.77 291.15 127.38 299.28 128.6 307.42 129.64 315.81 130.73 324.43 131.59 333.04 131.5 341.88 130.8 350.89 129.39 359.91 126.82 369.11 123.67 378.48 120.15" stroke-dasharray="9 11" transform="rotate(0, 400, 400)" opacity="0.78"></path><path d="M380.02 131.32C389.06 127.3 398.08 123.62 407.06 120.58 416.05 117.98 425.02 116.58 433.96 116.52 442.94 117.48 451.91 119.93 460.87 123.79 469.9 128.6 478.95 134.54 488.02 141.39 497.19 148.61 506.41 156.29 515.67 164.17 525.06 171.78 534.5 179.24 543.99 186.4 553.61 192.9 563.26 198.98 572.91 204.65 582.64 209.6 592.32 214.24 601.89 218.67 611.45 222.58 620.81 226.47 629.86 230.48 638.76 234.24 647.22 238.31 655.15 242.76 662.72 247.2 669.6 252.14 675.67 257.58 681.21 263.15 685.8 269.26 689.36 275.88 692.25 282.64 694.05 289.88 694.69 297.54 694.68 305.31 693.55 313.44 691.33 321.85 688.62 330.33 684.97 339.04 680.49 347.92 675.83 356.83 670.59 365.86 664.91 375 659.47 384.14 653.99 393.16 648.63 402.05 643.85 410.97 639.34 419.8 635.18 428.58 631.76 437.44 628.72 446.34 626.05 455.31 624.1 464.47 622.44 473.83 620.99 483.43 620.1 493.33 619.28 503.58 618.43 514.2 617.92 525.16 617.21 536.51 616.21 548.18 615.32 560.07 614 572.13 612.2 584.18 610.33 596.05 607.88 607.56 604.82 618.4 601.59 628.46 597.72 637.36 593.23 644.82 588.52 650.9 583.19 655.18 577.28 657.5 571.17 658.33 564.51 657.31 557.36 654.61 550.05 651.12 542.3 646.68 534.15 641.77 525.9 637.53 517.31 633.9 508.43 631.44 499.49 631.06 490.29 632.62 480.89 636.27 471.46 642.37 461.85 650.3 452.1 659.62 442.34 670.05 432.44 680.53 422.44 690.2 412.44 698.62 402.57 704.53 392.84 707.52 383.11 707.86 373.52 705.02 364.09 699.26 354.64 691.35 345.32 681.43 336.16 670.18 326.97 658.47 317.92 646.69 309.03 635.43 300.09 625.33 291.3 616.53 282.66 609.21 273.99 603.72 265.47 599.72 257.13 597.02 248.76 595.81 240.57 595.36 232.59 595.33 224.6 595.93 216.84 596.32 209.33 596.21 201.86 595.94 194.66 594.76 187.79 592.54 180.99 589.74 174.54 585.8 168.48 580.77 162.53 575.09 157 568.41 151.93 560.89 147.01 552.87 142.57 544.19 138.64 535 134.88 525.52 131.66 515.71 128.98 505.7 126.48 495.56 124.53 485.34 123.16 475.13 121.94 464.89 121.27 454.72 121.19 444.68 121.21 434.65 121.78 424.76 122.91 415.05 124.08 405.34 125.75 396.03 127.86 387.11 129.96 378.15 132.46 369.55 135.33 361.26 138.13 352.9 141.26 344.8 144.69 336.92 148 328.89 151.6 320.99 155.45 313.18 159.14 305.13 163.08 297.06 167.25 288.93 171.25 280.48 175.49 271.89 179.95 263.13 184.25 254.04 188.79 244.77 193.57 235.37 198.21 225.74 203.11 216.08 208.26 206.51 213.31 196.99 218.64 187.78 224.24 179.07 229.78 170.8 235.61 163.3 241.72 156.76 247.81 150.99 254.19 146.36 260.85 142.94 267.51 140.35 274.46 138.91 281.68 138.54 288.9 138.61 296.4 139.38 304.15 140.64 311.9 141.62 319.9 142.57 328.13 143.25 336.36 142.99 344.81 142.13 353.47 140.61 362.12 137.99 370.97 134.82 380.01 131.32" stroke-dasharray="11 3" transform="rotate(4.04, 400, 400)" opacity="0.73"></path><path d="M382.2 142.5C390.93 138.53 399.66 134.89 408.38 131.84 417.11 129.17 425.85 127.6 434.58 127.28 443.35 127.9 452.14 129.94 460.93 133.33 469.78 137.64 478.67 143.1 487.58 149.51 496.58 156.37 505.63 163.78 514.71 171.51 523.89 179.12 533.12 186.69 542.36 194.08 551.69 200.93 561.02 207.45 570.32 213.59 579.65 219.07 588.9 224.22 597.99 229.11 607.03 233.45 615.83 237.69 624.29 241.92 632.57 245.82 640.39 249.89 647.67 254.22 654.59 258.44 660.83 263.03 666.28 268.04 671.23 273.07 675.29 278.58 678.37 284.55 680.85 290.6 682.31 297.11 682.71 304.04 682.53 311.05 681.33 318.45 679.13 326.18 676.5 333.97 673.02 342.05 668.77 350.38 664.38 358.73 659.43 367.31 654.07 376.1 648.92 384.88 643.72 393.67 638.58 402.46 633.97 411.27 629.57 420.12 625.46 429.02 622.02 438.01 618.89 447.13 616.08 456.4 613.92 465.83 612.02 475.51 610.32 485.45 609.15 495.62 608.04 506.1 606.93 516.87 606.16 527.85 605.23 539.09 604.07 550.48 603.06 561.89 601.68 573.27 599.89 584.42 598.08 595.2 595.76 605.4 592.9 614.76 589.93 623.25 586.38 630.5 582.26 636.27 575.54 642.18 559.07 643.61 549.43 639.7 542.71 636.19 535.54 632.04 527.98 627.71 520.32 624.21 512.31 621.46 503.99 619.92 495.61 620.36 486.95 622.6 478.06 626.72 469.15 633.01 460.02 640.89 450.73 649.94 441.42 659.92 431.96 669.87 422.36 679.02 412.76 687.04 403.25 692.78 393.87 695.84 384.48 696.52 375.2 694.27 366.04 689.3 356.88 682.28 347.84 673.28 338.92 662.88 329.99 651.85 321.18 640.51 312.51 629.41 303.82 619.15 295.26 609.88 286.84 601.84 278.41 595.38 270.12 590.27 262.01 586.4 253.88 583.98 245.93 582.44 238.19 581.48 230.46 581.33 222.95 581.23 215.71 580.91 208.5 580.69 201.57 579.85 194.96 578.22 188.42 576.24 182.24 573.31 176.43 569.41 170.75 565.01 165.47 559.68 160.64 553.49 155.95 546.86 151.73 539.52 148.02 531.59 144.46 523.36 141.42 514.69 138.92 505.7 136.58 496.55 134.77 487.21 133.52 477.75 132.42 468.24 131.86 458.69 131.85 449.16 131.95 439.63 132.58 430.15 133.74 420.75 134.96 411.36 136.65 402.26 138.76 393.45 140.86 384.62 143.35 376.05 146.2 367.71 148.97 359.3 152.06 351.06 155.45 342.95 158.72 334.71 162.26 326.53 166.04 318.36 169.68 309.99 173.55 301.55 177.64 293.03 181.57 284.25 185.72 275.34 190.08 266.29 194.29 257.02 198.73 247.64 203.38 238.22 207.9 228.71 212.66 219.29 217.65 210.08 222.54 201.05 227.69 192.46 233.08 184.46 238.41 176.97 244.01 170.32 249.87 164.64 255.7 159.72 261.8 155.9 268.17 153.21 274.52 151.25 281.15 150.31 288.04 150.3 294.92 150.6 302.06 151.48 309.46 152.71 316.85 153.6 324.49 154.39 332.37 154.88 340.23 154.45 348.33 153.43 356.64 151.8 364.95 149.13 373.47 145.97 382.19 142.5" stroke-dasharray="9 3" transform="rotate(8.08, 400, 400)" opacity="0.16"></path><path d="M384.96 153.67C393.38 149.78 401.83 146.18 410.28 143.13 418.75 140.4 427.25 138.69 435.76 138.14 444.29 138.43 452.87 140.06 461.46 142.98 470.1 146.79 478.79 151.74 487.5 157.66 496.28 164.1 505.1 171.17 513.94 178.65 522.86 186.14 531.81 193.72 540.74 201.23 549.73 208.34 558.69 215.19 567.58 221.75 576.47 227.72 585.23 233.37 593.8 238.75 602.29 243.58 610.51 248.25 618.36 252.83 626.02 257.02 633.21 261.28 639.84 265.68 646.13 269.88 651.75 274.34 656.61 279.13 661.02 283.85 664.57 288.97 667.22 294.49 669.33 300.02 670.49 305.98 670.68 312.35 670.35 318.75 669.1 325.55 666.94 332.72 664.41 339.91 661.09 347.45 657.07 355.31 652.93 363.18 648.28 371.35 643.23 379.82 638.37 388.29 633.43 396.86 628.53 405.53 624.09 414.22 619.82 423.04 615.77 432 612.32 441.03 609.13 450.24 606.2 459.66 603.88 469.2 601.77 478.98 599.83 489.01 598.4 499.18 597.03 509.59 595.67 520.2 594.65 530.88 593.5 541.66 592.17 552.43 591.01 563.06 589.54 573.47 587.72 583.45 585.92 592.94 583.69 601.7 580.99 609.5 576.56 619.23 564.94 630.14 557.74 630.95 552.63 630.05 547.02 627.89 540.96 624.71 534.78 621.36 528.16 617.65 521.15 613.99 514.05 611.28 506.59 609.41 498.81 608.74 490.97 609.94 482.85 612.77 474.47 617.29 466.06 623.72 457.43 631.5 448.6 640.25 439.76 649.76 430.73 659.19 421.55 667.85 412.37 675.47 403.25 681.01 394.22 684.14 385.18 685.11 376.24 683.4 367.39 679.18 358.54 673.02 349.79 664.93 341.15 655.4 332.51 645.12 323.97 634.33 315.55 623.53 307.13 613.29 298.82 603.75 290.66 595.18 282.49 587.93 274.46 581.86 266.6 576.92 258.74 573.35 251.06 570.69 243.59 568.72 236.14 567.65 228.91 566.84 221.94 566.05 215.01 565.58 208.37 564.73 202.04 563.34 195.79 561.82 189.88 559.55 184.35 556.49 178.93 553.07 173.92 548.82 169.33 543.77 164.9 538.36 160.91 532.23 157.41 525.48 154.06 518.45 151.21 510.9 148.88 502.94 146.7 494.83 145.04 486.4 143.91 477.75 142.93 469.04 142.46 460.17 142.53 451.22 142.71 442.25 143.39 433.22 144.58 424.17 145.83 415.12 147.53 406.26 149.64 397.59 151.74 388.9 154.21 380.36 157.02 371.97 159.76 363.52 162.82 355.16 166.15 346.86 169.38 338.43 172.86 330.02 176.58 321.57 180.16 312.96 183.96 304.26 187.98 295.48 191.84 286.52 195.91 277.46 200.18 268.32 204.31 259.05 208.65 249.77 213.19 240.54 217.6 231.35 222.23 222.36 227.08 213.69 231.82 205.31 236.8 197.46 242.02 190.27 247.16 183.65 252.55 177.88 258.19 173.07 263.77 168.98 269.62 165.92 275.72 163.9 281.79 162.49 288.13 161.98 294.72 162.26 301.28 162.73 308.11 163.65 315.18 164.82 322.24 165.58 329.54 166.19 337.08 166.48 344.61 165.87 352.37 164.7 360.35 162.96 368.33 160.26 376.53 157.11 384.95 153.68" stroke-dasharray="10 8" transform="rotate(12.12, 400, 400)" opacity="0.33"></path><path d="M388.21 164.85C396.32 161.03 404.49 157.49 412.67 154.45 420.87 151.69 429.11 149.85 437.37 149.08 445.66 149.07 453.99 150.3 462.35 152.76 470.74 156.07 479.18 160.49 487.65 165.88 496.16 171.85 504.71 178.5 513.26 185.65 521.86 192.92 530.47 200.39 539.04 207.9 547.64 215.14 556.18 222.23 564.61 229.1 573.01 235.49 581.26 241.6 589.28 247.44 597.2 252.78 604.82 257.92 612.06 262.92 619.09 267.51 625.65 272.08 631.66 276.7 637.34 281.06 642.37 285.6 646.69 290.35 652.12 297.44 658.14 313.19 658.59 321.96 658.16 327.93 656.87 334.28 654.76 341.01 652.33 347.74 649.19 354.85 645.4 362.31 641.51 369.77 637.14 377.59 632.39 385.77 627.81 393.94 623.14 402.29 618.47 410.8 614.21 419.33 610.07 428.05 606.1 436.94 602.66 445.9 599.44 455.06 596.43 464.42 593.96 473.86 591.68 483.52 589.54 493.37 587.87 503.27 586.26 513.32 584.67 523.45 583.4 533.53 582.05 543.57 580.54 553.43 579.21 563.04 577.64 572.26 575.76 580.91 573.94 589 571.75 596.27 569.14 602.52 564.96 610 554.15 617.09 547.5 616.64 542.8 615.24 537.64 612.88 532.04 609.78 526.35 606.75 520.23 603.6 513.73 600.67 507.16 598.78 500.22 597.76 492.96 597.9 485.65 599.79 478.04 603.14 470.16 607.98 462.26 614.48 454.11 622.12 445.75 630.54 437.37 639.59 428.8 648.5 420.05 656.67 411.29 663.9 402.57 669.25 393.92 672.4 385.26 673.63 376.66 672.42 368.15 668.89 359.64 663.56 351.2 656.36 342.87 647.72 334.53 638.23 326.29 628.09 318.16 617.72 310.02 607.66 302.01 598.05 294.12 589.15 286.24 581.3 278.5 574.44 270.93 568.59 263.37 563.97 255.98 560.23 248.8 557.23 241.65 555.16 234.72 553.5 228.05 552.04 221.43 551.04 215.09 549.9 209.05 548.44 203.11 547.04 197.49 545.1 192.24 542.53 187.11 539.78 182.36 536.32 178.04 532.15 173.85 527.72 170.1 522.61 166.82 516.87 163.69 510.91 161.03 504.4 158.87 497.41 156.85 490.28 155.34 482.76 154.34 474.92 153.46 467.01 153.09 458.85 153.23 450.5 153.47 442.13 154.2 433.59 155.42 424.92 156.7 416.26 158.4 407.67 160.5 399.17 162.58 390.66 165.03 382.2 167.8 373.81 170.51 365.37 173.52 356.95 176.8 348.53 179.97 340.02 183.4 331.46 187.05 322.86 190.57 314.15 194.31 305.35 198.25 296.49 202.04 287.53 206.04 278.51 210.23 269.48 214.27 260.44 218.52 251.46 222.95 242.63 227.26 233.95 231.78 225.56 236.49 217.59 241.11 209.98 245.94 202.96 250.99 196.66 255.96 190.93 261.16 186.04 266.6 182.09 271.97 178.78 277.59 176.42 283.45 175 289.27 174.06 295.34 173.9 301.65 174.39 307.93 174.96 314.46 175.86 321.23 176.93 327.98 177.53 334.97 177.95 342.2 178.03 349.41 177.24 356.85 175.94 364.52 174.1 372.19 171.37 380.08 168.24 388.2 164.86" stroke-dasharray="4 5" transform="rotate(16.16, 400, 400)" opacity="0.09"></path><path d="M391.84 176.03C399.65 172.3 407.52 168.82 415.43 165.81 423.34 163.02 431.3 161.08 439.3 160.11 447.31 159.82 455.37 160.68 463.46 162.69 471.58 165.49 479.73 169.38 487.9 174.22 496.1 179.66 504.33 185.83 512.54 192.57 520.78 199.52 529 206.77 537.16 214.16 545.32 221.41 553.39 228.62 561.33 235.69 569.22 242.38 576.92 248.86 584.38 255.12 591.71 260.92 598.73 266.52 605.36 271.96 611.77 277.01 617.72 281.97 623.13 286.92 628.23 291.58 632.71 296.32 636.5 301.2 641.25 308.37 646.28 323.82 646.47 332.26 645.94 337.96 644.64 344.01 642.59 350.43 640.27 356.83 637.3 363.6 633.74 370.74 630.1 377.87 626.01 385.38 621.55 393.28 617.25 401.17 612.83 409.27 608.4 417.56 604.32 425.87 600.32 434.39 596.46 443.09 593.05 451.82 589.81 460.76 586.75 469.87 584.17 479 581.74 488.3 579.43 497.7 577.55 507.09 575.73 516.51 573.92 525.9 572.43 535.14 570.87 544.2 569.18 552.96 567.69 561.37 565.99 569.28 564.04 576.53 561.07 586.1 553.42 599.24 548.59 602.37 543.26 603.21 530.34 599.05 522.78 595.04 517.52 592.46 511.86 589.95 505.83 587.8 499.74 586.71 493.29 586.51 486.52 587.41 479.71 589.89 472.6 593.69 465.21 598.76 457.79 605.28 450.13 612.74 442.23 620.82 434.32 629.41 426.2 637.8 417.89 645.49 409.57 652.34 401.27 657.47 393.01 660.63 384.74 662.09 376.52 661.33 368.36 658.44 360.21 653.89 352.12 647.56 344.11 639.8 336.11 631.15 328.19 621.72 320.37 611.91 312.56 602.18 304.86 592.67 297.28 583.63 289.72 575.4 282.29 567.95 275.03 561.35 267.79 555.81 260.72 551.09 253.85 547.1 247.03 544.03 240.42 541.44 234.07 539.18 227.77 537.48 221.75 535.82 216.02 534.03 207.74 531.49 193.05 524.24 186.76 519.18 181.08 513.29 172.11 498.3 168.89 489.35 167.05 483.1 165.67 476.41 164.79 469.33 164.03 462.2 163.75 454.73 163.95 446.98 164.25 439.21 165.02 431.18 166.26 422.93 167.55 414.69 169.25 406.42 171.33 398.14 173.4 389.86 175.81 381.56 178.54 373.25 181.21 364.91 184.17 356.53 187.38 348.11 190.51 339.64 193.87 331.1 197.45 322.5 200.91 313.85 204.58 305.14 208.44 296.4 212.17 287.63 216.09 278.87 220.19 270.17 224.16 261.54 228.32 253.06 232.66 244.82 236.87 236.81 241.28 229.16 245.88 222.01 250.37 215.26 255.07 209.13 259.97 203.74 264.79 198.9 269.82 194.87 275.07 191.73 282.96 188.27 299.81 185.99 308.78 186.66 314.8 187.27 321.06 188.11 327.54 189.03 334.01 189.45 340.71 189.66 347.63 189.53 354.55 188.58 361.69 187.14 369.06 185.21 376.42 182.47 384.01 179.36 391.83 176.03" stroke-dasharray="5 1" transform="rotate(20.200000000000003, 400, 400)" opacity="0.35"></path><path d="M395.73 187.21C403.24 183.57 410.82 180.17 418.43 177.2 426.05 174.4 433.71 172.38 441.41 171.23 449.13 170.68 456.89 171.2 464.67 172.77 472.47 175.09 480.3 178.43 488.13 182.72 495.99 187.6 503.84 193.24 511.67 199.48 519.51 206.03 527.3 212.95 535 220.11 542.7 227.24 550.27 234.42 557.69 241.56 565.04 248.44 572.18 255.17 579.05 261.74 585.8 267.93 592.22 273.95 598.24 279.8 604.06 285.28 609.42 290.67 614.25 295.99 618.8 301.01 622.76 306.06 626.08 311.17 630.2 318.62 634.34 334.21 634.31 342.54 633.71 348.12 632.42 354.01 630.44 360.22 628.24 366.4 625.44 372.93 622.1 379.81 618.7 386.68 614.88 393.91 610.71 401.53 606.67 409.14 602.52 416.96 598.32 424.96 594.43 432.97 590.58 441.18 586.83 449.55 583.48 457.93 580.25 466.47 577.16 475.12 574.49 483.76 571.94 492.48 569.5 501.22 567.44 509.87 565.43 518.47 563.44 526.9 561.74 535.13 559.98 543.07 558.13 550.6 556.47 557.75 554.64 564.32 552.6 570.18 545.79 582.42 532.37 588.72 526.58 586.88 520.31 584.12 505.78 577.69 497.56 575.42 491.9 575.11 485.91 575.66 479.61 577.24 473.26 580.25 466.62 584.4 459.7 589.64 452.76 596.12 445.56 603.36 438.13 611.08 430.69 619.2 423.02 627.09 415.15 634.31 407.28 640.78 399.41 645.7 391.55 648.85 383.69 650.49 375.86 650.13 368.08 647.82 360.31 644.01 352.58 638.52 344.93 631.63 337.28 623.83 329.71 615.18 322.23 606.01 314.77 596.74 307.41 587.49 300.17 578.51 292.95 570.1 285.87 562.26 278.94 555.11 272.04 548.83 265.32 543.28 258.79 538.4 252.31 534.37 246.04 530.86 240.02 527.75 231.22 524.08 215.17 517.51 208.02 513.97 201.39 510.2 190.21 500.34 185.75 494.09 181.91 487.18 176.66 470.75 175.27 461.37 174.62 454.92 174.43 448.09 174.69 440.92 175.05 433.73 175.85 426.22 177.1 418.42 178.4 410.62 180.09 402.71 182.14 394.73 184.19 386.75 186.56 378.69 189.24 370.57 191.86 362.43 194.76 354.22 197.91 345.95 200.97 337.66 204.27 329.3 207.77 320.9 211.17 312.49 214.77 304.06 218.55 295.64 222.21 287.26 226.05 278.95 230.07 270.77 233.96 262.74 238.03 254.92 242.27 247.43 246.4 240.2 250.71 233.41 255.19 227.15 259.57 221.3 264.14 216.09 268.9 211.6 276.02 206.01 291.16 199.43 299.2 198.33 307.39 198.21 324.79 199.98 334.02 201.09 340.22 201.33 346.65 201.32 353.29 200.98 359.92 199.86 366.77 198.3 373.84 196.3 380.91 193.54 388.2 190.47 395.72 187.21" stroke-dasharray="0 2" transform="rotate(24.24, 400, 400)" opacity="0.56"></path><path d="M399.76 198.39C406.97 194.85 414.23 191.54 421.53 188.62 428.84 185.83 436.2 183.74 443.58 182.44 450.97 181.67 458.4 181.86 465.84 183.03 473.3 184.87 480.76 187.68 488.22 191.4 495.69 195.7 503.14 200.77 510.54 206.47 517.94 212.53 525.27 219.02 532.49 225.84 539.68 232.72 546.74 239.75 553.61 246.82 560.41 253.74 566.99 260.59 573.28 267.34 579.44 273.81 585.27 280.14 590.71 286.33 595.95 292.21 600.74 297.98 605.03 303.66 609.07 309.07 612.54 314.46 615.42 319.86 618.97 327.69 622.34 343.72 622.12 352.09 621.48 357.66 620.2 363.48 618.3 369.58 616.22 375.63 613.6 381.99 610.48 388.65 607.32 395.31 603.76 402.29 599.87 409.61 596.1 416.92 592.2 424.42 588.23 432.06 584.53 439.7 580.85 447.5 577.21 455.4 573.93 463.3 570.74 471.29 567.64 479.32 564.92 487.31 562.29 495.29 559.74 503.19 557.53 510.97 555.36 518.59 553.21 525.95 551.33 533.08 549.4 539.83 547.39 546.09 544.59 554.63 538.32 567.53 534.68 571.54 526.19 573.87 510.21 569.42 503.65 566.61 496.67 564.68 480.98 564.6 472.32 567.4 466.41 570.84 460.22 575.26 453.75 580.61 447.27 586.99 440.52 593.98 433.54 601.32 426.56 608.98 419.34 616.37 411.92 623.13 404.5 629.23 397.06 633.92 389.62 637.04 382.19 638.83 374.77 638.82 367.38 637.06 360.01 633.93 352.67 629.23 345.39 623.2 338.13 616.25 330.93 608.41 323.82 599.95 316.73 591.27 309.73 582.42 302.85 573.66 296 565.27 289.28 557.25 282.71 549.75 276.18 542.94 269.82 536.72 263.65 531.1 257.53 526.22 251.62 521.86 245.95 517.91 237.67 513.03 222.63 504.65 215.95 500.59 209.77 496.58 199.4 487.04 195.28 481.28 191.76 475.02 187 460.18 185.79 451.64 185.25 445.78 185.13 439.51 185.45 432.88 185.86 426.23 186.69 419.22 187.94 411.88 189.25 404.53 190.92 397.04 192.94 389.43 194.95 381.82 197.28 374.09 199.89 366.27 202.46 358.46 205.3 350.55 208.37 342.58 211.37 334.63 214.59 326.62 218.01 318.59 221.34 310.6 224.86 302.63 228.56 294.72 232.15 286.91 235.91 279.22 239.84 271.73 243.66 264.43 247.64 257.41 251.78 250.76 255.82 244.41 260.03 238.52 264.4 233.18 270.91 226.09 284.67 215.87 291.95 212.85 299.33 211.05 314.98 210.62 323.28 211.49 328.84 211.99 334.61 212.57 340.58 213.11 346.53 213.13 352.69 212.91 359.06 212.37 365.42 211.09 371.99 209.42 378.77 207.35 385.55 204.6 392.54 201.57 399.75 198.39" stroke-dasharray="8 5" transform="rotate(28.28, 400, 400)" opacity="0.96"></path><path d="M403.8 209.56C410.7 206.14 417.64 202.93 424.62 200.07 431.6 197.31 438.62 195.18 445.66 193.75 452.7 192.78 459.77 192.68 466.84 193.46 473.92 194.86 481 197.16 488.05 200.31 495.1 204.03 502.11 208.5 509.05 213.61 515.99 219.11 522.83 225.1 529.55 231.47 536.22 237.99 542.74 244.72 549.07 251.59 555.31 258.4 561.31 265.23 567.03 272.02 572.62 278.63 577.88 285.15 582.75 291.56 587.44 297.73 591.71 303.8 595.49 309.79 599.04 315.54 602.07 321.24 604.55 326.92 607.58 335.17 610.28 351.76 609.91 360.26 609.24 365.9 607.99 371.72 606.19 377.74 604.23 383.73 601.79 389.95 598.89 396.43 595.95 402.89 592.65 409.62 589.03 416.63 585.51 423.63 581.86 430.75 578.13 437.96 574.63 445.17 571.11 452.47 567.61 459.8 564.42 467.12 561.28 474.45 558.21 481.73 555.46 488.96 552.77 496.09 550.15 503.05 547.82 509.88 545.52 516.46 543.23 522.71 540.15 531.51 533.96 546.14 530.69 551.62 523.67 557.8 510.94 558.85 505.72 557.01 500.17 555.12 487.48 552.24 480.34 552.2 475.45 553.32 470.26 555.18 464.79 557.86 459.29 561.65 453.51 566.27 447.48 571.64 441.42 577.88 435.12 584.59 428.59 591.55 422.04 598.73 415.28 605.64 408.31 611.96 401.34 617.68 394.34 622.15 387.33 625.2 380.33 627.11 373.32 627.41 366.35 626.13 359.38 623.63 352.45 619.69 345.57 614.47 338.71 608.38 331.9 601.37 325.18 593.68 318.48 585.66 311.87 577.35 305.38 568.96 298.92 560.76 292.58 552.77 286.39 545.12 280.25 537.98 274.26 531.31 268.46 525.12 262.72 519.55 257.19 514.45 251.88 509.76 246.64 505.63 241.65 501.78 236.93 498.15 230.13 493.33 218.21 484.04 213.16 479.16 208.64 474.18 201.65 462.64 199.23 455.95 197.38 448.84 195.88 432.66 196.23 423.6 196.68 417.43 197.53 410.9 198.78 404.03 200.08 397.15 201.73 390.1 203.7 382.92 205.68 375.74 207.95 368.43 210.5 361.03 213 353.65 215.77 346.18 218.76 338.66 221.68 331.18 224.83 323.67 228.16 316.19 231.41 308.77 234.85 301.41 238.45 294.17 241.96 287.07 245.64 280.13 249.48 273.45 253.21 266.98 257.1 260.83 261.15 255.09 265.1 249.64 269.21 244.67 273.47 240.24 279.81 234.44 293.19 226.45 300.25 224.28 307.39 223.08 322.5 223.15 330.49 223.96 338.61 224.54 355.78 224.64 364.84 223.68 370.93 222.27 377.22 220.49 383.71 218.37 390.2 215.64 396.89 212.67 403.79 209.57" stroke-dasharray="9 8" transform="rotate(32.32, 400, 400)" opacity="0.98"></path><path d="M407.71 220.74C414.29 217.44 420.9 214.33 427.53 211.55 434.17 208.84 440.84 206.68 447.51 205.16 454.19 204.01 460.88 203.65 467.55 204.09 474.23 205.06 480.89 206.87 487.5 209.48 494.11 212.61 500.66 216.47 507.12 220.97 513.57 225.87 519.91 231.29 526.1 237.13 532.25 243.18 538.23 249.51 544.01 256.04 549.7 262.6 555.14 269.25 560.3 275.93 565.33 282.52 570.04 289.07 574.38 295.57 578.55 301.9 582.31 308.16 585.63 314.34 588.74 320.34 591.36 326.28 593.48 332.18 596.05 340.8 598.17 357.92 597.69 366.56 597.01 372.27 595.8 378.11 594.1 384.08 592.27 390.02 590 396.12 587.31 402.41 584.6 408.68 581.55 415.15 578.19 421.81 574.93 428.48 571.52 435.19 568.02 441.92 564.71 448.64 561.37 455.37 558.02 462.06 554.93 468.73 551.87 475.33 548.84 481.81 546.09 488.22 543.38 494.45 540.71 500.45 537.1 509.08 530.24 524.24 526.87 530.47 514.8 542.21 500.56 543.97 495.56 542.53 490.28 541.34 478.33 540.4 471.65 541.4 467.08 543.12 462.24 545.51 457.14 548.61 452.01 552.66 446.63 557.4 441 562.74 435.36 568.79 429.48 575.2 423.38 581.75 417.27 588.47 410.95 594.9 404.42 600.78 397.9 606.13 391.34 610.37 384.77 613.35 378.2 615.34 371.63 615.91 365.08 615.06 358.54 613.13 352.03 609.88 345.56 605.45 339.12 600.19 332.72 594.01 326.41 587.12 320.12 579.84 313.92 572.16 307.83 564.28 301.77 556.44 295.84 548.65 290.04 541.05 284.3 533.8 278.7 526.87 273.3 520.32 267.94 514.25 262.79 508.58 257.85 503.27 252.99 498.45 248.36 493.93 243.99 489.64 237.7 483.86 226.71 473.08 222.09 467.74 217.96 462.45 211.61 450.87 209.45 444.41 207.81 437.64 206.6 422.44 207.03 413.99 207.51 408.23 208.38 402.15 209.62 395.73 210.91 389.32 212.53 382.74 214.45 376.04 216.38 369.34 218.59 362.53 221.06 355.64 223.5 348.78 226.18 341.86 229.08 334.91 231.92 328.02 234.98 321.14 238.22 314.33 241.38 307.6 244.72 300.97 248.23 294.51 251.65 288.2 255.24 282.1 258.97 276.29 262.62 270.7 266.42 265.45 270.36 260.62 276.21 254.02 288.54 243.77 295.02 240.25 301.54 237.7 315.29 235.44 322.53 235.47 329.88 235.76 345.37 236.73 353.53 236.91 359 236.5 364.67 235.85 370.51 234.92 376.33 233.38 382.35 231.52 388.55 229.36 394.75 226.66 401.13 223.75 407.7 220.75" stroke-dasharray="6 6" transform="rotate(36.36, 400, 400)" opacity="0.70"></path><path d="M411.38 231.92C417.62 228.74 423.89 225.76 430.16 223.06 436.44 220.41 442.74 218.25 449.03 216.65 461.61 214.48 474.16 215.24 486.49 218.94 498.77 224.54 510.73 232.75 522.12 242.94 533.31 254.13 543.73 266.44 553.08 279.27 561.96 292.02 569.52 304.8 575.47 317.39 580.7 329.49 584.13 341.43 585.6 353.25 586.31 364.7 585.11 376.3 582.03 388.13 580.34 394 578.24 399.97 575.76 406.05 573.26 412.11 570.45 418.3 567.35 424.6 564.33 430.9 561.16 437.17 557.89 443.37 554.79 449.58 551.62 455.71 548.44 461.73 542.73 473.68 537.03 484.98 531.42 495.25 526.73 505.01 521.98 513.29 517.1 519.68 510.52 526.9 495.16 530.39 485.69 528.61 479.14 528.43 471.59 528.99 463.07 531.14 454.5 536.41 444.94 544.07 434.47 553.89 429.22 559.71 423.74 565.79 418.06 571.93 412.37 578.18 406.48 584.15 400.4 589.6 394.32 594.59 388.2 598.59 382.06 601.48 375.94 603.53 369.8 604.31 363.68 603.84 351.48 600.08 339.39 591.84 327.58 580.23 315.88 566.89 304.53 552.21 293.72 537.35 283.09 523.31 273.08 510.22 263.9 498.35 255 488.06 247.01 478.74 240.12 470.05 233.6 462.38 228.25 454.65 224.25 446.5 220.63 438.69 218.37 430.01 217.58 420.32 217.35 412.92 218.8 396.71 220.46 387.91 221.73 381.94 223.31 375.85 225.18 369.65 227.05 363.47 229.19 357.21 231.57 350.9 236.26 338.38 241.85 325.82 248.17 313.59 254.24 301.75 260.99 290.58 268.31 280.54 275.33 271.28 282.93 263.54 291.05 257.66 298.89 252.75 307.31 249.72 316.28 248.55 325.04 247.69 334.42 247.94 344.41 248.82 354.26 248.51 364.79 247.72 375.96 246.08 381.52 244.43 387.26 242.5 393.16 240.32 399.06 237.66 405.13 234.83 411.37 231.92" stroke-dasharray="10 8" transform="rotate(40.400000000000006, 400, 400)" opacity="0.48"></path><path d="M414.68 243.1C426.47 236.87 438.31 231.72 450.08 228.25 461.85 225.79 473.53 225.93 484.92 228.71 496.25 233.19 507.21 240.13 517.56 249.04 527.7 259.02 537.06 270.28 545.37 282.26 553.26 294.42 559.89 306.82 565.03 319.16 569.56 331.24 572.45 343.21 573.57 355.02 574.08 366.56 572.88 378.12 569.99 389.69 566.81 401.18 562.26 412.86 556.51 424.68 551.05 436.49 545.07 447.86 538.86 458.61 533.38 469.23 527.81 478.99 522.26 487.57 517.51 495.74 512.65 502.41 507.65 507.34 500.84 512.97 485.39 515.94 476.19 515.38 469.89 516.31 462.72 518.11 454.71 521.4 446.67 527.42 437.75 535.41 428.01 545.08 418.23 556.53 407.65 568.11 396.36 578.42 385.06 587.16 373.64 591.97 362.27 592.49 350.95 589.76 339.73 582.96 328.79 572.96 317.95 561.17 307.46 547.79 297.48 533.83 287.69 520.2 278.49 507.07 270.08 494.81 261.92 483.74 254.63 473.53 248.38 463.99 242.45 455.38 237.63 446.94 234.06 438.38 230.83 430.2 228.86 421.47 228.26 412.06 227.94 402.7 228.93 392.48 231.3 381.41 233.8 370.34 237.45 358.97 242.04 347.56 246.57 336.27 251.95 325.13 258.02 314.47 263.89 304.18 270.42 294.69 277.49 286.36 284.29 278.7 291.66 272.5 299.51 267.97 307.11 264.15 315.26 261.93 323.91 261.21 332.36 260.5 341.39 260.61 350.96 261.12 360.41 260.38 370.46 259.16 381.09 257.15 391.67 253.18 402.88 248.37 414.67 243.1" stroke-dasharray="7 4" transform="rotate(44.44, 400, 400)" opacity="0.78"></path><path d="M417.5 254.27C428.57 248.35 439.64 243.4 450.58 239.93 461.52 237.25 472.3 236.86 482.74 238.8 493.12 242.23 503.07 247.93 512.39 255.53 521.52 264.22 529.86 274.26 537.19 285.17 544.15 296.46 549.94 308.16 554.34 319.96 558.24 331.69 560.66 343.39 561.5 354.93 561.84 366.32 560.67 377.63 557.99 388.81 555.08 399.94 550.93 411.05 545.67 422.03 540.65 433.02 535.11 443.33 529.28 452.83 524.06 462.21 518.67 470.6 513.24 477.76 508.48 484.62 503.57 490.06 498.52 493.97 491.55 498.65 476.09 502.14 467.13 502.99 461.06 505 454.24 507.92 446.69 512.17 439.14 518.75 430.81 526.9 421.75 536.29 412.67 547.07 402.87 557.77 392.43 567.25 381.99 575.36 371.44 580.05 360.96 581 350.51 579.18 340.18 573.71 330.12 565.26 320.15 555.05 310.52 543.1 301.4 530.29 292.43 517.41 284.04 504.64 276.4 492.38 268.99 480.95 262.39 470.19 256.76 460.07 251.42 450.72 247.11 441.66 243.95 432.7 241.09 424.13 239.4 415.29 238.97 406.07 238.79 396.93 239.83 387.23 242.14 376.96 244.58 366.7 248.08 356.38 252.47 346.22 256.81 336.16 261.96 326.42 267.77 317.31 273.42 308.51 279.69 300.58 286.48 293.81 293.05 287.57 300.16 282.66 307.71 279.23 315.06 276.23 322.91 274.55 331.21 274.05 339.35 273.34 348.01 273.2 357.14 273.26 366.17 272.1 375.74 270.46 385.81 268.14 395.84 264.08 406.42 259.34 417.5 254.27" stroke-dasharray="9 5" transform="rotate(48.48, 400, 400)" opacity="0.35"></path><path d="M419.75 265.45C430.09 259.85 440.36 255.13 450.45 251.7 460.53 248.88 470.4 248.04 479.89 249.25 489.32 251.7 498.28 256.23 506.61 262.54 514.76 269.88 522.14 278.6 528.56 288.29 534.65 298.46 539.66 309.2 543.42 320.18 546.76 331.25 548.78 342.37 549.38 353.38 549.6 364.34 548.47 375.18 546.01 385.81 543.37 396.41 539.62 406.84 534.83 416.96 530.25 427.09 525.13 436.39 519.7 444.77 514.76 453.06 509.6 460.29 504.33 466.35 499.62 472.21 494.74 476.81 489.7 480.12 482.66 484.41 467.28 489.19 458.57 491.53 452.7 494.53 446.2 498.41 439.09 503.42 431.99 510.36 424.22 518.51 415.82 527.53 407.41 537.58 398.36 547.41 388.75 556.07 379.15 563.56 369.46 568.09 359.86 569.39 350.28 568.35 340.83 564.09 331.65 557.11 322.56 548.46 313.8 538.03 305.52 526.53 297.39 514.69 289.8 502.62 282.91 490.76 276.23 479.38 270.31 468.46 265.29 458.07 260.52 448.26 256.7 438.8 253.94 429.58 251.44 420.7 250.01 411.78 249.73 402.74 249.67 393.79 250.74 384.55 252.98 375.05 255.33 365.55 258.67 356.23 262.85 347.26 266.99 338.37 271.89 329.97 277.42 322.28 282.81 314.83 288.81 308.29 295.3 302.85 301.6 297.77 308.41 293.88 315.64 291.25 322.7 288.83 330.22 287.45 338.15 286.97 345.95 286.11 354.21 285.62 362.88 285.22 371.47 283.64 380.54 281.61 390.02 279.02 399.48 274.93 409.41 270.3 419.75 265.45" stroke-dasharray="5 7" transform="rotate(52.52, 400, 400)" opacity="0.24"></path><path d="M421.36 276.63C430.94 271.37 440.4 266.9 449.63 263.56 458.85 260.67 467.8 259.47 476.36 260.04 484.84 261.64 492.85 265.08 500.23 270.15 507.44 276.15 513.92 283.51 519.5 291.87 524.81 300.77 529.12 310.33 532.3 320.26 535.15 330.38 536.82 340.66 537.25 350.89 537.37 361.15 536.31 371.31 534.07 381.21 531.7 391.12 528.32 400.77 523.99 410.02 519.83 419.28 515.15 427.65 510.11 435.06 505.48 442.42 500.58 448.77 495.53 454.03 490.93 459.2 486.14 463.31 481.17 466.39 474.16 470.74 458.98 477.29 450.54 481.05 444.89 484.91 438.71 489.55 432.01 495.12 425.34 502.22 418.1 510.22 410.33 518.77 402.55 528.07 394.24 537.03 385.44 544.89 376.64 551.77 367.81 556.1 359.07 557.65 350.36 557.29 341.78 554.1 333.48 548.47 325.25 541.34 317.35 532.44 309.9 522.37 302.59 511.78 295.79 500.71 289.65 489.58 283.68 478.65 278.42 467.96 273.98 457.65 269.76 447.74 266.41 438.15 264.02 428.87 261.86 419.86 260.67 410.97 260.54 402.16 260.59 393.44 261.66 384.67 263.82 375.88 266.08 367.1 269.24 358.71 273.18 350.83 277.1 343 281.73 335.78 286.96 329.33 292.08 323.04 297.76 317.64 303.91 313.26 309.92 309.09 316.4 305.94 323.28 303.82 330.01 301.72 337.17 300.43 344.7 299.81 352.11 298.7 359.94 297.82 368.13 296.93 376.25 294.97 384.78 292.62 393.67 289.81 402.53 285.72 411.78 281.24 421.36 276.63" stroke-dasharray="4 7" transform="rotate(56.56, 400, 400)" opacity="0.46"></path><path d="M422.28 287.81C431.08 282.9 439.71 278.71 448.07 275.5 456.43 272.6 464.48 271.14 472.12 271.19 479.69 272.04 486.78 274.51 493.26 278.43 499.59 283.17 505.23 289.17 510.04 296.17 514.63 303.7 518.32 311.96 521 320.67 523.42 329.63 524.81 338.84 525.1 348.09 525.16 357.42 524.18 366.69 522.16 375.73 520.05 384.8 517.03 393.6 513.15 401.98 509.41 410.36 505.14 417.88 500.52 424.51 496.22 431.11 491.62 436.8 486.82 441.55 480.07 448.26 466.03 458.05 458.61 461.91 453.79 464.98 448.61 468.13 443.08 471.58 437.65 476.13 431.79 481.32 425.51 487.22 419.26 494.31 412.54 502.01 405.38 510.01 398.22 518.52 390.6 526.63 382.6 533.71 374.59 539.99 366.59 544.07 358.7 545.81 350.83 545.99 343.12 543.74 335.68 539.35 328.3 533.63 321.23 526.24 314.61 517.65 308.09 508.45 302.06 498.59 296.63 488.47 291.36 478.34 286.73 468.23 282.85 458.36 279.16 448.7 276.25 439.3 274.22 430.22 272.36 421.32 271.4 412.62 271.39 404.15 271.53 395.74 272.6 387.46 274.66 379.37 276.81 371.27 279.78 363.73 283.47 356.81 287.15 349.91 291.49 343.69 296.39 338.25 301.21 332.89 306.55 328.38 312.34 324.76 318.02 321.22 324.13 318.54 330.61 316.69 336.98 314.71 343.74 313.34 350.83 312.45 357.83 311.02 365.19 309.72 372.86 308.38 380.48 306.08 388.44 303.45 396.7 300.49 404.93 296.46 413.48 292.15 422.28 287.81" stroke-dasharray="10 1" transform="rotate(60.599999999999994, 400, 400)" opacity="0.51"></path><path d="M422.48 298.98C430.48 294.45 438.28 290.56 445.78 287.52 453.27 284.68 460.45 283.04 467.2 282.68 473.89 282.92 480.11 284.55 485.74 287.45 491.26 291.01 496.13 295.73 500.24 301.4 504.18 307.56 507.32 314.45 509.57 321.85 511.61 329.53 512.76 337.53 512.94 345.64 512.97 353.88 512.08 362.12 510.28 370.19 508.43 378.31 505.76 386.2 502.3 393.73 498.97 401.25 495.12 408.02 490.92 414.01 486.96 419.99 482.69 425.22 478.2 429.7 471.78 436.19 458.26 446.72 451.1 451.47 446.43 455.16 441.46 458.99 436.2 463.12 431.03 468.13 425.51 473.65 419.64 479.67 413.82 486.57 407.6 493.85 401.04 501.24 394.48 508.95 387.56 516.21 380.32 522.54 373.08 528.2 365.89 532.02 358.83 533.86 351.79 534.47 344.91 533.03 338.31 529.73 331.75 525.31 325.51 519.35 319.67 512.23 313.93 504.48 308.63 495.98 303.9 487.07 299.28 478 295.25 468.78 291.91 459.65 288.71 450.6 286.22 441.7 284.51 433.07 282.96 424.55 282.19 416.25 282.28 408.24 282.5 400.28 283.56 392.55 285.5 385.13 287.52 377.7 290.3 370.91 293.72 364.8 297.14 358.69 301.17 353.27 305.71 348.61 310.2 343.96 315.18 340.07 320.57 336.95 325.87 333.81 331.59 331.36 337.63 329.56 343.6 327.54 349.92 325.97 356.52 324.74 363.06 322.97 369.92 321.27 377.03 319.52 384.11 316.94 391.48 314.12 399.07 311.07 406.65 307.14 414.47 303.04 422.48 298.98" stroke-dasharray="3 4" transform="rotate(64.64, 400, 400)" opacity="0.56"></path><path d="M421.94 310.16C429.13 306.02 436.1 302.45 442.76 299.62 449.4 296.89 455.71 295.17 461.61 294.5 470.16 294.74 484.55 301.54 490.13 307.74 493.49 312.58 496.14 318.14 498.01 324.22 499.74 330.56 500.68 337.28 500.81 344.2 500.81 351.23 500.03 358.36 498.45 365.41 496.84 372.5 494.5 379.46 491.46 386.15 488.52 392.85 485.09 398.94 481.31 404.41 477.71 409.89 473.8 414.8 469.65 419.15 463.63 425.59 450.82 436.99 444.02 442.52 439.57 446.7 434.85 451.03 429.9 455.6 425.03 460.86 419.87 466.49 414.44 472.42 409.05 478.98 403.35 485.74 397.38 492.44 391.42 499.33 385.17 505.77 378.68 511.36 372.2 516.42 365.78 519.94 359.53 521.82 353.29 522.75 347.23 521.97 341.43 519.61 335.68 516.34 330.21 511.71 325.14 506 320.13 499.7 315.55 492.61 311.46 485.02 307.47 477.2 304.01 469.1 301.17 460.96 298.43 452.79 296.33 444.66 294.93 436.74 293.64 428.85 293.05 421.16 293.23 413.76 293.5 406.39 294.52 399.28 296.34 392.52 298.22 385.76 300.78 379.66 303.92 374.22 307.07 368.76 310.77 363.97 314.93 359.86 321.36 353.98 336.14 345.25 344.35 342.16 349.87 340 355.7 338.17 361.78 336.57 367.82 334.48 374.13 332.42 380.65 330.33 387.15 327.55 393.88 324.61 400.78 321.53 407.67 317.76 414.75 313.92 421.94 310.16" stroke-dasharray="1 7" transform="rotate(68.68, 400, 400)" opacity="0.11"></path><path d="M420.7 321.34C433.45 313.66 445.2 308.56 455.42 306.64 465.49 305.87 473.79 308.96 479.76 315.29 485.35 322.9 488.44 332.97 488.69 344.29 488.64 356.05 485.96 368.31 480.62 380.1 475.58 391.89 468.85 402.01 461.16 410.48 454.11 419.34 446.06 427.39 437.36 435.12 429.11 444.44 419.89 454.59 409.92 465.41 400.08 477.91 389.24 490.17 377.73 500.18 366.23 508.56 355.16 511.44 345.09 509.01 335.13 503.76 326.35 494.18 319.34 482.03 312.61 468.83 307.81 454.53 305.45 440.48 303.44 426.42 303.89 412.9 307.18 400.74 310.66 388.57 316.51 378.78 324.05 371.36 331.52 363.73 340.62 358.11 350.77 354.19 360.78 349.23 371.92 344.9 383.71 340.78 395.44 334.47 407.94 327.76 420.7 321.34" stroke-dasharray="4 6" transform="rotate(72.72, 400, 400)" opacity="0.73"></path><path d="M418.78 332.52C429.89 325.71 440 321.09 448.68 319.07 457.25 317.74 464.23 319.56 469.18 324.11 473.87 329.57 476.44 337.28 476.61 346.36 476.59 355.78 474.34 365.99 469.78 376.24 465.45 386.49 459.55 395.79 452.71 404.07 446.33 412.71 439 421.01 431.06 429.19 423.47 438.53 415.05 448.45 406.07 458.59 397.19 469.76 387.57 480.42 377.51 489 367.45 496.36 357.9 499.29 349.32 497.95 340.81 494.51 333.4 487.38 327.55 477.85 321.9 467.33 317.95 455.5 316.1 443.54 314.5 431.46 315.03 419.65 318.02 408.87 321.16 398.1 326.37 389.3 333.07 382.43 339.74 375.32 347.85 369.73 356.89 365.42 365.85 360.17 375.79 355.38 386.24 350.86 396.66 344.66 407.67 338.35 418.78 332.52" stroke-dasharray="10 3" transform="rotate(76.76, 400, 400)" opacity="0.26"></path><path d="M416.26 343.69C425.72 337.78 434.24 333.72 441.48 331.75 451.52 330.58 463.4 340.71 464.58 350.62 464.6 357.93 462.75 366.22 458.94 375 455.29 383.77 450.24 392.19 444.3 400.11 438.68 408.3 432.16 416.48 425.11 424.61 418.29 433.51 410.79 442.76 402.87 451.88 395.03 461.57 386.65 470.62 378.01 477.83 369.37 484.14 361.3 486.98 354.12 486.46 347 484.47 340.86 479.45 336.09 472.31 331.45 464.35 328.26 455.01 326.86 445.25 325.63 435.33 326.21 425.36 328.86 416.03 331.64 406.7 336.18 398.83 342 392.42 347.82 385.78 354.89 380.23 362.75 375.61 370.57 370.24 379.22 365.23 388.27 360.55 397.31 354.66 406.79 348.87 416.26 343.69" stroke-dasharray="0 6" transform="rotate(80.80000000000001, 400, 400)" opacity="0.35"></path><path d="M413.2 354.87C421.04 349.89 428.02 346.44 433.9 344.65 446.84 346.45 451.93 365.89 448.1 376.5 445.11 383.83 440.91 391.24 435.91 398.52 431.11 405.97 425.52 413.59 419.44 421.17 413.53 429.2 407.05 437.38 400.27 445.24 393.55 453.34 386.44 460.77 379.23 466.65 368.68 473.22 351.23 472.02 344.97 465.31 341.26 459.64 338.77 452.66 337.74 445.06 336.83 437.32 337.41 429.26 339.7 421.42 342.08 413.59 345.92 406.68 350.83 400.78 355.76 394.7 361.73 389.32 368.36 384.61 374.98 379.37 382.27 374.42 389.86 369.84 397.46 364.47 405.37 359.33 413.2 354.87" stroke-dasharray="3 1" transform="rotate(84.84, 400, 400)" opacity="0.20"></path><path d="M409.72 366.05C426.9 356.37 441.9 364.69 437.26 380.6 432.66 392.39 424.11 405.72 414.04 418.62 404.33 432.36 392.72 446.04 381.12 455.47 369.51 463.36 360 463.19 354.17 456.84 348.51 448.97 346.82 437.05 350.54 424.46 354.49 411.86 363.06 400.93 373.75 392.32 384.46 382.37 397.29 372.96 409.72 366.05" stroke-dasharray="2 8" transform="rotate(88.88, 400, 400)" opacity="0.15"></path><path d="M405.93 377.23C418.66 369.88 429.76 375.04 426.42 386.82 423.02 395.75 416.54 406.36 408.83 416.63 401.3 427.19 392.37 437.41 383.62 444.29 371.36 450.59 359.04 438.27 361.38 424.8 364.42 415.34 370.91 406.3 378.96 398.7 387.05 390.42 396.68 382.69 405.93 377.23" stroke-dasharray="9 6" transform="rotate(92.92, 400, 400)" opacity="0.09"></path><path d="M401.94 388.4C414.14 379.85 420.22 382.44 415.58 394.5 411.2 406.55 398.41 423.98 386.65 433.12 374.88 440.76 368.28 434.97 372.22 422.41 376.4 409.84 389.72 395.57 401.94 388.4" stroke-dasharray="1 2" transform="rotate(96.96, 400, 400)" opacity="0.50"></path></g></svg>