<svg xmlns="http://www.w3.org/2000/svg" version="1.1" xmlns:xlink="http://www.w3.org/1999/xlink" xmlns:svgjs="http://svgjs.dev/svgjs" viewBox="0 0 800 800"><defs><radialGradient id="cccircular-grad" r="50%" cx="50%" cy="50%">
         <stop offset="15%" stop-color="#c95567" stop-opacity="0.5"></stop>
         <stop offset="75%" stop-color="hsl(352, 100%, 76%)" stop-opacity="1"></stop>
          <stop offset="100%" stop-color="#ffeaf8" stop-opacity="1"></stop>
        </radialGradient></defs><g fill="url(#cccircular-grad)"><circle r="1235" cx="400" cy="400"></circle><circle r="1216" cx="400" cy="400"></circle><circle r="1197" cx="400" cy="400"></circle><circle r="1178" cx="400" cy="400"></circle><circle r="1159" cx="400" cy="400"></circle><circle r="1140" cx="400" cy="400"></circle><circle r="1121" cx="400" cy="400"></circle><circle r="1102" cx="400" cy="400"></circle><circle r="1083" cx="400" cy="400"></circle><circle r="1064" cx="400" cy="400"></circle><circle r="1045" cx="400" cy="400"></circle><circle r="1026" cx="400" cy="400"></circle><circle r="1007" cx="400" cy="400"></circle><circle r="988" cx="400" cy="400"></circle><circle r="969" cx="400" cy="400"></circle><circle r="950" cx="400" cy="400"></circle><circle r="931" cx="400" cy="400"></circle><circle r="912" cx="400" cy="400"></circle><circle r="893" cx="400" cy="400"></circle><circle r="874" cx="400" cy="400"></circle><circle r="855" cx="400" cy="400"></circle><circle r="836" cx="400" cy="400"></circle><circle r="817" cx="400" cy="400"></circle><circle r="798" cx="400" cy="400"></circle><circle r="779" cx="400" cy="400"></circle><circle r="760" cx="400" cy="400"></circle><circle r="741" cx="400" cy="400"></circle><circle r="722" cx="400" cy="400"></circle><circle r="703" cx="400" cy="400"></circle><circle r="684" cx="400" cy="400"></circle><circle r="665" cx="400" cy="400"></circle><circle r="646" cx="400" cy="400"></circle><circle r="627" cx="400" cy="400"></circle><circle r="608" cx="400" cy="400"></circle><circle r="589" cx="400" cy="400"></circle><circle r="570" cx="400" cy="400"></circle><circle r="551" cx="400" cy="400"></circle><circle r="532" cx="400" cy="400"></circle><circle r="513" cx="400" cy="400"></circle><circle r="494" cx="400" cy="400"></circle><circle r="475" cx="400" cy="400"></circle><circle r="456" cx="400" cy="400"></circle><circle r="437" cx="400" cy="400"></circle><circle r="418" cx="400" cy="400"></circle><circle r="399" cx="400" cy="400"></circle><circle r="380" cx="400" cy="400"></circle><circle r="361" cx="400" cy="400"></circle><circle r="342" cx="400" cy="400"></circle><circle r="323" cx="400" cy="400"></circle><circle r="304" cx="400" cy="400"></circle><circle r="285" cx="400" cy="400"></circle><circle r="266" cx="400" cy="400"></circle><circle r="247" cx="400" cy="400"></circle><circle r="228" cx="400" cy="400"></circle><circle r="209" cx="400" cy="400"></circle><circle r="190" cx="400" cy="400"></circle><circle r="171" cx="400" cy="400"></circle><circle r="152" cx="400" cy="400"></circle><circle r="133" cx="400" cy="400"></circle><circle r="114" cx="400" cy="400"></circle><circle r="95" cx="400" cy="400"></circle><circle r="76" cx="400" cy="400"></circle><circle r="57" cx="400" cy="400"></circle><circle r="38" cx="400" cy="400"></circle></g></svg>