<svg xmlns="http://www.w3.org/2000/svg" version="1.1" xmlns:xlink="http://www.w3.org/1999/xlink" xmlns:svgjs="http://svgjs.dev/svgjs" viewBox="0 0 800 800"><defs><linearGradient x1="50%" y1="0%" x2="50%" y2="100%" id="cccoil-grad"><stop stop-color="hsl(206, 75%, 49%)" stop-opacity="1" offset="0%"></stop><stop stop-color="hsl(331, 90%, 56%)" stop-opacity="1" offset="100%"></stop></linearGradient></defs><g stroke="url(#cccoil-grad)" fill="none" stroke-linecap="round"><circle r="387.5" cx="400" cy="400" stroke-width="2.5" stroke-dasharray="2435 2435" transform="rotate(360, 400, 400)" stroke-dashoffset="378" opacity="0.05"></circle><circle r="372" cx="400" cy="400" stroke-width="2.5" stroke-dasharray="2240 2337" transform="rotate(345, 400, 400)" stroke-dashoffset="378" opacity="0.09"></circle><circle r="356.5" cx="400" cy="400" stroke-width="2.5" stroke-dasharray="2053 2240" transform="rotate(330, 400, 400)" stroke-dashoffset="378" opacity="0.13"></circle><circle r="341" cx="400" cy="400" stroke-width="2.5" stroke-dasharray="1875 2143" transform="rotate(315, 400, 400)" stroke-dashoffset="378" opacity="0.17"></circle><circle r="325.5" cx="400" cy="400" stroke-width="2.5" stroke-dasharray="1704 2045" transform="rotate(300, 400, 400)" stroke-dashoffset="378" opacity="0.21"></circle><circle r="310" cx="400" cy="400" stroke-width="2.5" stroke-dasharray="1542 1948" transform="rotate(285, 400, 400)" stroke-dashoffset="378" opacity="0.25"></circle><circle r="294.5" cx="400" cy="400" stroke-width="2.5" stroke-dasharray="1388 1850" transform="rotate(270, 400, 400)" stroke-dashoffset="378" opacity="0.29"></circle><circle r="279" cx="400" cy="400" stroke-width="2.5" stroke-dasharray="1242 1753" transform="rotate(255, 400, 400)" stroke-dashoffset="378" opacity="0.33"></circle><circle r="263.5" cx="400" cy="400" stroke-width="2.5" stroke-dasharray="1104 1656" transform="rotate(240, 400, 400)" stroke-dashoffset="378" opacity="0.37"></circle><circle r="248" cx="400" cy="400" stroke-width="2.5" stroke-dasharray="974 1558" transform="rotate(225, 400, 400)" stroke-dashoffset="378" opacity="0.41"></circle><circle r="232.5" cx="400" cy="400" stroke-width="2.5" stroke-dasharray="852 1461" transform="rotate(210, 400, 400)" stroke-dashoffset="378" opacity="0.45"></circle><circle r="217" cx="400" cy="400" stroke-width="2.5" stroke-dasharray="739 1363" transform="rotate(195, 400, 400)" stroke-dashoffset="378" opacity="0.49"></circle><circle r="201.5" cx="400" cy="400" stroke-width="2.5" stroke-dasharray="633 1266" transform="rotate(180, 400, 400)" stroke-dashoffset="378" opacity="0.53"></circle><circle r="186" cx="400" cy="400" stroke-width="2.5" stroke-dasharray="536 1169" transform="rotate(165, 400, 400)" stroke-dashoffset="378" opacity="0.56"></circle><circle r="170.5" cx="400" cy="400" stroke-width="2.5" stroke-dasharray="446 1071" transform="rotate(150, 400, 400)" stroke-dashoffset="378" opacity="0.60"></circle><circle r="155" cx="400" cy="400" stroke-width="2.5" stroke-dasharray="365 974" transform="rotate(135, 400, 400)" stroke-dashoffset="378" opacity="0.64"></circle><circle r="139.5" cx="400" cy="400" stroke-width="2.5" stroke-dasharray="292 877" transform="rotate(120, 400, 400)" stroke-dashoffset="378" opacity="0.68"></circle><circle r="124" cx="400" cy="400" stroke-width="2.5" stroke-dasharray="227 779" transform="rotate(105, 400, 400)" stroke-dashoffset="378" opacity="0.72"></circle><circle r="108.5" cx="400" cy="400" stroke-width="2.5" stroke-dasharray="170 682" transform="rotate(90, 400, 400)" stroke-dashoffset="378" opacity="0.76"></circle><circle r="93" cx="400" cy="400" stroke-width="2.5" stroke-dasharray="122 584" transform="rotate(75, 400, 400)" stroke-dashoffset="378" opacity="0.80"></circle><circle r="77.5" cx="400" cy="400" stroke-width="2.5" stroke-dasharray="81 487" transform="rotate(60, 400, 400)" stroke-dashoffset="378" opacity="0.84"></circle><circle r="62" cx="400" cy="400" stroke-width="2.5" stroke-dasharray="49 390" transform="rotate(45, 400, 400)" stroke-dashoffset="378" opacity="0.88"></circle><circle r="46.5" cx="400" cy="400" stroke-width="2.5" stroke-dasharray="24 292" transform="rotate(30, 400, 400)" stroke-dashoffset="378" opacity="0.92"></circle><circle r="31" cx="400" cy="400" stroke-width="2.5" stroke-dasharray="8 195" transform="rotate(15, 400, 400)" stroke-dashoffset="378" opacity="0.96"></circle><circle r="15.5" cx="400" cy="400" stroke-width="2.5" stroke-dasharray="0 97" stroke-dashoffset="378" opacity="1.00"></circle></g></svg>