<?xml version="1.0" encoding="utf-8"?>

<!DOCTYPE svg PUBLIC "-//W3C//DTD SVG 1.1//EN" "http://www.w3.org/Graphics/SVG/1.1/DTD/svg11.dtd">
<svg version="1.1" id="Layer_1" xmlns="http://www.w3.org/2000/svg" xmlns:xlink="http://www.w3.org/1999/xlink" x="0px" y="0px"
	 viewBox="0 0 1654 1654" enable-background="new 0 0 1654 1654" xml:space="preserve">
<g>
	<path fill="#2B8531" d="M29.083,885.243c0.005,0,0.009,0,0.014-0.001c0,0,0,0,0-0.001
		C29.092,885.242,29.087,885.243,29.083,885.243z"/>
	<path fill="#C949DF" d="M869.221,28.075c0,0.008-0.001,0.016-0.002,0.023c0,0,0.001,0,0.001,0
		C869.221,28.09,869.221,28.082,869.221,28.075z"/>
	<path fill="#75FBC3" d="M784.779,1625.925c0-0.008,0.001-0.015,0.002-0.023c0,0-0.001,0-0.001,0
		C784.779,1625.91,784.779,1625.917,784.779,1625.925z"/>
	<path fill="#D165CF" d="M768.757,29.083c0,0.005,0,0.009,0.001,0.014c0,0,0,0,0.001,0
		C768.758,29.092,768.757,29.087,768.757,29.083z"/>
	<path fill="#3733F3" d="M27,835.027c0.017,0,0.034,0.001,0.051,0.001c0-0.001,0-0.002,0-0.003
		C27.034,835.025,27.017,835.026,27,835.027z"/>
	<path fill="#279B89" d="M818.973,27c0,0.017-0.001,0.034-0.001,0.051c0.001,0,0.002,0,0.003,0
		C818.975,27.034,818.974,27.017,818.973,27z"/>
	<path fill="#ABBFED" d="M1624.917,768.757c-0.005,0-0.01,0-0.014,0.001c0,0,0,0,0,0.001
		C1624.908,768.758,1624.913,768.757,1624.917,768.757z"/>
	<path fill="#15F173" d="M28.075,784.779c0.008,0.001,0.016,0.001,0.023,0.002c0,0,0-0.001,0-0.001
		C28.09,784.779,28.082,784.779,28.075,784.779z"/>
	<path fill="#45D9CB" d="M1625.925,869.221c-0.008-0.001-0.015-0.001-0.023-0.002c0,0,0,0.001,0,0.001
		C1625.91,869.221,1625.917,869.221,1625.925,869.221z"/>
	<path fill="#E15119" d="M885.243,1624.917c0-0.005,0-0.009-0.001-0.014c0,0,0,0-0.001,0
		C885.242,1624.908,885.243,1624.913,885.243,1624.917z"/>
	<path fill="#3701C1" d="M1627,818.973c-0.017,0-0.034-0.001-0.051-0.001c0,0.001,0,0.002,0,0.003
		C1626.966,818.974,1626.983,818.974,1627,818.973z"/>
	<path fill="#5F1361" d="M835.027,1627c0-0.017,0.001-0.034,0.001-0.051c-0.001,0-0.002,0-0.003,0
		C835.025,1626.966,835.026,1626.983,835.027,1627z"/>
	<path fill="#ADDB45" d="M804.823,292.271c7.149,164.271,11.497,251.56,14.009,274.829l-9.155-291.323
		c-4.758,35.564-11.499,12.371-21.731-69.512l21.694,344.808C816.282,615.996,814.811,545.59,804.823,292.271z"/>
	<path fill="#652D35" d="M1003.228,321.658c-53.825,155.367-81.916,238.127-88.146,260.687l98.731-274.236
		c-17.516,31.315-15.245,7.269,5.385-72.63L912.434,564.06C894.711,626.866,919.262,560.863,1003.228,321.658z"/>
	<path fill="#BB19FD" d="M1395.319,458.284c-172.34,112.829-291.336,190.486-334.886,220.575l291.708-185.123
		c35.038-25.384,83.74-59.375,146.021-102.174c-113.51,69.43-184.954,111.568-215.03,125.452l-241.067,163.829
		C1009.261,706.993,1146.982,617.941,1395.319,458.284z"/>
	<path fill="#85B56D" d="M1284.903,549.959c-140.508,85.403-214.905,131.265-234.086,144.676l250.878-148.369
		c-33.457,12.964-16.38-4.117,50.445-52.53l-291.708,185.123C1006.741,715.955,1067.73,680.748,1284.903,549.959z"/>
	<path fill="#E3A74F" d="M1417.35,494.696c-179.084,101.786-302.722,171.817-348.076,199.112l302.756-166.442
		c36.563-23.134,87.304-54,152.148-92.804c-117.646,62.166-191.595,99.734-222.483,111.703l-250.878,148.369
		C1016.437,718.674,1159.478,638.446,1417.35,494.696z"/>
	<path fill="#F37721" d="M1437.05,532.42c-185.122,90.34-312.914,152.47-359.891,176.864l312.611-147.103
		c37.943-20.793,90.522-48.411,157.675-83.067c-121.317,54.656-197.479,87.507-229.058,97.513L1058.687,708.95
		C1022.865,730.783,1170.661,659.694,1437.05,532.42z"/>
	<path fill="#99BFAF" d="M1301.395,579.257c-145.593,76.411-222.723,117.511-242.708,129.692l259.699-132.323
		c-34.205,10.837-16.089-5.137,53.644-49.259l-302.756,166.442C1013.36,727.46,1076.439,696.152,1301.395,579.257z"/>
	<path fill="#CB057B" d="M1266.604,521.753c-134.868,94.057-206.239,144.499-224.54,159.089l241.067-163.829
		c-32.577,15.039-16.606-3.08,47.047-55.594L1050.67,664.494C999.414,704.888,1058.072,665.921,1266.604,521.753z"/>
	<path fill="#D5F1D3" d="M1224.88,469.063c-122.016,110.219-186.502,169.209-202.83,185.977l218.633-192.751
		c-30.436,19.003-16.862-0.974,39.708-61.052l-251.852,236.505C982.75,684.242,1036.062,638.23,1224.88,469.063z"/>
	<path fill="#A3DFA7" d="M1344.625,389.962c-156.84,133.54-265.165,225.498-304.6,260.809l266.206-220.225
		c31.581-29.576,75.639-69.402,132.063-119.67c-103.913,83.109-169.512,133.869-197.611,151.413L1022.05,655.04
		C992.783,685.096,1118.257,579.485,1344.625,389.962z"/>
	<path fill="#5F31F5" d="M1316.015,609.534c-150.104,67.119-229.663,103.295-250.373,114.197l267.496-115.756
		c-34.818,8.668-15.735-6.137,56.632-45.794l-312.611,147.103C1019.242,739.358,1084.163,712.072,1316.015,609.534z"/>
	<path fill="#B35F03" d="M1371.046,423.326c-164.915,123.428-278.8,208.403-320.375,241.168l279.508-203.074
		c33.375-27.534,79.847-64.516,139.317-111.141c-108.927,76.421-177.584,122.961-206.729,138.707l-230.304,178.642
		C1001.367,695.786,1133.224,598.262,1371.046,423.326z"/>
	<path fill="#5B8DB7" d="M1246.57,494.753c-128.696,102.34-196.759,157.164-214.107,172.874l230.304-178.642
		c-31.568,17.055-16.767-2.032,43.464-58.439l-266.206,220.225C991.407,694.303,1047.502,651.729,1246.57,494.753z"/>
	<path fill="#CBA9F1" d="M1481.443,651.95c-198.772,54.052-335.942,91.135-386.658,106.294l334.638-85.92
		c41.168-13.315,97.99-30.592,170.448-52.051c-129.41,30.955-210.378,48.953-243.273,52.864l-279.895,81.317
		C1037.426,769.188,1195.925,727.053,1481.443,651.95z"/>
	<path fill="#B38BA1" d="M1491.143,693.388c-201.773,41.464-341,69.861-392.569,81.806l339.372-64.739
		c41.922-10.703,99.717-24.378,173.379-41.245c-131.098,22.768-213.037,35.647-246.112,37.485l-284.448,63.582
		C1040.64,782.515,1201.472,750.415,1491.143,693.388z"/>
	<path fill="#B57DE9" d="M1454.343,571.307c-190.43,78.538-321.87,132.521-370.287,153.917l321.23-127.184
		c39.174-18.369,93.383-42.632,162.58-73.003c-124.51,46.93-202.584,74.935-234.729,82.938l-267.496,115.756
		C1028.521,743.271,1180.489,681.603,1454.343,571.307z"/>
	<path fill="#5B0DA1" d="M1498.222,735.354c-203.979,28.713-344.715,48.312-396.932,56.995l342.768-43.302
		c42.512-8.05,101.051-18.069,175.627-30.277c-132.269,14.492-214.855,22.2-247.98,21.957l-287.88,45.596
		C1043.013,796.018,1205.543,774.08,1498.222,735.354z"/>
	<path fill="#D17935" d="M1359.281,771.291c-163.498,17.449-250.342,27.27-273.407,31.238l290.174-27.43
		c-35.793-2.515-13.068-10.699,68.011-26.052l-342.768,43.302C1036.916,803.054,1107.092,797.165,1359.281,771.291z"/>
	<path fill="#5B875D" d="M1361.729,804.823c-164.271,7.149-251.56,11.497-274.829,14.009l291.323-9.155
		c-35.564-4.758-12.371-11.499,69.512-21.731l-344.81,21.694C1038.005,816.282,1108.412,814.811,1361.729,804.823z"/>
	<path fill="#53651F" d="M1354.733,737.979c-162.081,27.681-248.137,42.935-270.907,48.344l287.88-45.596
		c-35.88-0.263-13.714-9.858,66.241-30.271l-339.372,64.739C1034.998,789.92,1104.665,779.637,1354.733,737.979z"/>
	<path fill="#4BE775" d="M1328.704,640.668c-154.023,57.562-235.696,88.67-257.049,98.25l274.236-98.731
		c-35.293,6.465-15.318-7.113,59.395-42.147l-321.23,127.184C1024.366,751.602,1090.872,728.447,1328.704,640.668z"/>
	<path fill="#E777C1" d="M1469.16,611.203c-194.985,66.425-329.555,112.049-379.22,130.363l328.581-106.763
		c40.25-15.873,95.876-36.684,166.843-62.65c-127.211,39.02-206.889,62.067-239.474,68.035l-274.236,98.731
		C1033.38,756.09,1188.921,704.085,1469.16,611.203z"/>
	<path fill="#67C56F" d="M1316.162,358.322c-148.145,143.124-250.483,241.703-287.623,279.42l251.852-236.505
		c29.661-31.5,71.132-74.015,124.289-127.726c-98.49,89.47-160.772,144.249-187.714,163.523l-206.099,206.099
		C983.547,674.966,1102.141,561.685,1316.162,358.322z"/>
	<path fill="#0FCF1B" d="M1339.414,672.538c-157.333,47.777-240.799,73.696-262.712,81.916l279.895-81.317
		c-35.63,4.236-14.842-8.061,61.924-38.335L1089.94,741.565C1028.71,764.144,1096.539,745.21,1339.414,672.538z"/>
	<path fill="#9B2D77" d="M1348.102,705.018c-160.022,37.804-244.951,58.431-267.337,65.259l284.448-63.582
		c-35.826,1.99-14.306-8.977,64.209-34.371l-334.638,85.92C1032.26,776.933,1101.144,762.296,1348.102,705.018z"/>
	<path fill="#D54B67" d="M988.883,169.176C940.49,369.4,906.905,507.467,895.756,559.214l85.92-334.636
		c8.165-42.49,20.399-100.607,36.501-174.44c-35.217,128.316-58.452,207.94-70.872,238.649l-63.582,284.448
		C877.713,614.752,917.147,455.56,988.883,169.176z"/>
	<path fill="#19DB7D" d="M838.443,291.934c-3.18,164.395-4.322,251.785-3.275,275.166l9.155-291.323
		c-6.982,35.195-12.253,11.624-17.323-70.74v345.491C829.552,615.738,832.505,545.379,838.443,291.934z"/>
	<path fill="#2F811B" d="M1201.62,444.787c-114.855,117.663-175.51,180.586-190.752,198.346l206.099-206.099
		c-29.182,20.877-16.889,0.086,35.797-63.425l-236.506,251.853C973.479,674.743,1023.797,625.475,1201.62,444.787z"/>
	<path fill="#5D5B61" d="M1029.869,180.639C968.999,377.43,926.811,513.116,912.434,564.06l106.763-328.582
		c10.817-41.893,26.676-99.128,47.383-171.804c-43.205,125.851-71.394,203.859-85.717,233.728l-81.317,279.894
		C890.94,618.355,940.292,461.953,1029.869,180.639z"/>
	<path fill="#2F001F" d="M1034.61,333.72c-63.475,151.681-96.707,232.514-104.341,254.638l115.756-267.496
		c-19.448,30.154-15.672,6.297,9.935-72.149l-127.184,321.23C907.143,631.513,935.79,567.182,1034.61,333.72z"/>
	<path fill="#83E1B9" d="M1070.054,194.653c-73.106,192.58-123.731,325.35-141.278,375.291l127.184-321.23
		c13.426-41.131,32.848-97.257,58.077-168.49c-51.022,122.89-84.053,198.974-100.224,227.885l-98.731,274.236
		C903.914,622.782,962.99,469.787,1070.054,194.653z"/>
	<path fill="#79A191" d="M938.502,303.555c-33.928,160.888-51.425,246.516-54.778,269.679l63.582-284.448
		c-13.453,33.263-14.214,9.122-3.761-72.733l-64.739,339.372C869.093,619.959,885.178,551.399,938.502,303.555z"/>
	<path fill="#FB0979" d="M1109.28,211.162C1024.225,398.771,965.364,528.1,944.716,576.841l147.103-312.609
		c15.982-40.207,38.89-95.003,68.542-164.511c-58.638,119.444-96.381,193.303-114.335,221.142L930.27,588.358
		C916.586,628.014,985.151,479.03,1109.28,211.162z"/>
	<path fill="#E9EB0F" d="M905.159,154.074c-22.917,204.711-38.933,345.899-43.508,398.635l43.302-342.767
		c2.775-43.178,7.629-102.37,14.35-177.64c-18.858,131.718-31.93,213.626-40.403,245.65l-27.43,290.174
		C850.711,610.07,869.882,447.19,905.159,154.074z"/>
	<path fill="#2DAF69" d="M872.017,293.708c-13.496,163.872-20.123,251.017-20.547,274.418l27.43-290.174
		c-9.178,34.687-12.959,10.832-12.847-71.688L844.36,551.073C842.812,616.316,850.177,546.281,872.017,293.708z"/>
	<path fill="#4BC96F" d="M947.259,160.31c-35.725,202.867-60.575,342.771-68.453,395.116l64.739-339.372
		c5.481-42.919,14.042-101.689,25.476-176.388c-27.091,130.274-45.28,211.199-55.748,242.628l-45.596,287.879
		C864.286,611.986,893.646,450.631,947.259,160.31z"/>
	<path fill="#A3F13D" d="M905.414,297.587c-23.759,162.702-35.845,249.259-37.737,272.587l45.596-287.879
		c-11.338,34.042-13.613,9.997-8.32-72.353l-43.302,342.767C856.01,617.724,867.758,548.289,905.414,297.587z"/>
	<path fill="#4FFBD3" d="M971.149,311.59c-43.964,158.44-66.802,242.8-71.604,265.707l81.317-279.894
		c-15.515,32.353-14.759,8.212,0.813-72.825l-85.92,334.636C882.01,623.01,902.368,555.596,971.149,311.59z"/>
	<path fill="#5D5F23" d="M1253.564,300.71c-129.039,160.564-218.214,271.191-250.335,313.266l220.225-266.206
		c25.479-34.969,61.294-82.346,107.3-142.296c-86.5,101.109-141.426,163.262-165.739,185.76L986.373,621.537
		C963.256,656.545,1066.718,529.294,1253.564,300.71z"/>
	<path fill="#BB6107" d="M1219.676,274.964c-118.702,168.349-200.755,284.357-230.17,328.366l203.075-279.508
		c23.233-36.5,56.003-86.032,98.154-148.753c-79.98,106.34-130.895,171.819-153.748,195.801L973.157,611.936
		C952.285,648.325,1047.553,514.828,1219.676,274.964z"/>
	<path fill="#6D3F65" d="M1150.762,400.848C1051.56,531.978,999.27,602.006,986.373,621.537l178.642-230.304
		c-26.335,24.37-16.745,2.202,27.565-67.412L989.506,603.33C953.241,657.586,996.987,602.399,1150.762,400.848z"/>
	<path fill="#671BBB" d="M1176.881,422.018c-107.24,124.642-163.824,191.25-177.922,209.932l192.751-218.633
		c-27.814,22.668-16.85,1.146,31.744-65.548l-220.225,266.206C963.63,665.846,1010.754,613.516,1176.881,422.018z"/>
	<path fill="#9B5DF7" d="M1285.768,328.532c-138.867,152.145-234.813,256.955-269.511,296.929l236.506-251.853
		c27.625-33.301,66.344-78.335,116.023-135.278c-92.678,95.478-151.398,154.059-177.076,174.987L998.959,631.95
		C973.691,665.437,1084.939,544.933,1285.768,328.532z"/>
	<path fill="#993F95" d="M1065.174,347.73C992.3,495.126,954.059,573.712,945.05,595.313l132.323-259.699
		c-21.302,28.873-16.036,5.301,14.445-71.383L944.716,576.841C919.26,636.931,951.89,574.525,1065.174,347.73z"/>
	<path fill="#DF357D" d="M1094.798,363.631c-81.985,142.53-125.086,218.56-135.433,239.553l148.369-250.879
		c-23.074,27.478-16.338,4.284,18.899-70.335L960.191,584.727C931.013,643.099,967.497,582.865,1094.798,363.631z"/>
	<path fill="#57919B" d="M1147.391,230.102c-96.667,181.899-163.533,307.277-187.2,354.625l166.442-302.756
		c18.475-39.124,44.778-92.373,78.736-159.882c-66.022,115.526-108.328,186.87-127.995,213.526L945.05,595.313
		C928.903,634.032,1006.688,489.648,1147.391,230.102z"/>
	<path fill="#9BCD31" d="M1184.239,251.397c-107.897,175.47-182.504,296.402-209.098,342.17l185.123-291.708
		c20.896-37.887,50.49-89.379,88.62-154.623c-73.146,111.153-119.848,179.699-141.15,205.068L959.365,603.183
		C940.819,640.811,1027.516,501.596,1184.239,251.397z"/>
	<path fill="#8F1323" d="M1123.365,381.36c-90.773,137.101-138.563,210.274-150.207,230.576l163.829-241.067
		c-24.753,25.975-16.574,3.249,23.278-69.009L975.141,593.567C942.354,649.993,982.548,592.169,1123.365,381.36z"/>
	<path fill="#D57F2B" d="M274.964,434.324c168.348,118.702,284.357,200.754,328.365,230.17L323.821,461.419
		c-36.5-23.233-86.032-56.003-148.753-98.154c106.34,79.98,171.819,130.895,195.801,153.748l241.067,163.829
		C648.327,701.716,514.83,606.448,274.964,434.324z"/>
	<path fill="#035125" d="M1013.332,1328.704c-57.561-154.021-88.67-235.694-98.25-257.049l98.731,274.235
		c-6.465-35.293,7.113-15.318,42.147,59.395l-127.184-321.229C902.398,1024.366,925.553,1090.871,1013.332,1328.704z"/>
	<path fill="#1569F5" d="M1082.693,1454.343c-78.538-190.429-132.521-321.869-153.917-370.286l127.184,321.229
		c18.369,39.174,42.632,93.383,73.003,162.58c-46.93-124.51-74.935-202.584-82.938-234.729l-115.756-267.496
		C910.729,1028.521,972.397,1180.489,1082.693,1454.343z"/>
	<path fill="#1BDB6B" d="M1044.466,1316.015c-67.119-150.104-103.295-229.663-114.197-250.373l115.756,267.496
		c-8.668-34.818,6.137-15.735,45.794,56.631l-147.103-312.609C914.642,1019.242,941.927,1084.162,1044.466,1316.015z"/>
	<path fill="#C7F1B7" d="M1042.797,1469.16c-66.425-194.985-112.049-329.555-130.363-379.22l106.763,328.582
		c15.873,40.25,36.684,95.875,62.65,166.842c-39.02-127.211-62.067-206.889-68.035-239.474l-98.731-274.235
		C897.909,1033.379,949.914,1188.919,1042.797,1469.16z"/>
	<path fill="#B147DD" d="M916.021,1354.733c-27.681-162.08-42.935-248.135-48.344-270.906l45.596,287.879
		c0.263-35.88,9.858-13.714,30.271,66.241l-64.739-339.372C864.08,1034.998,874.363,1104.665,916.021,1354.733z"/>
	<path fill="#CD2FE7" d="M1121.58,1437.05c-90.34-185.121-152.469-312.912-176.864-359.891l147.103,312.609
		c20.793,37.944,48.411,90.522,83.067,157.675c-54.656-121.317-87.507-197.479-97.512-229.058l-132.324-259.7
		C923.217,1022.866,994.306,1170.662,1121.58,1437.05z"/>
	<path fill="#4D4F4B" d="M960.611,1491.143c-41.464-201.773-69.861-341-81.806-392.569l64.739,339.372
		c10.703,41.922,24.378,99.718,41.245,173.38c-22.768-131.098-35.647-213.037-37.485-246.112l-63.582-284.448
		C871.485,1040.64,903.584,1201.472,960.611,1491.143z"/>
	<path fill="#C9A1FB" d="M948.982,1348.102c-37.804-160.022-58.431-244.95-65.259-267.336l63.582,284.448
		c-1.99-35.826,8.977-14.306,34.371,64.209l-85.92-334.638C877.067,1032.26,891.704,1101.144,948.982,1348.102z"/>
	<path fill="#034F69" d="M1002.05,1481.443c-54.052-198.772-91.135-335.942-106.294-386.658l85.92,334.638
		c13.315,41.168,30.592,97.99,52.051,170.448c-30.955-129.41-48.954-210.378-52.864-243.273l-81.317-279.895
		C884.812,1037.426,926.947,1195.925,1002.05,1481.443z"/>
	<path fill="#0335F3" d="M981.462,1339.414c-47.777-157.333-73.696-240.799-81.916-262.712l81.317,279.895
		c-4.236-35.63,8.061-14.841,38.335,61.925L912.435,1089.94C889.856,1028.71,908.79,1096.539,981.462,1339.414z"/>
	<path fill="#5F815F" d="M1074.743,1301.395c-76.412-145.594-117.512-222.724-129.693-242.708l132.324,259.7
		c-10.838-34.205,5.137-16.09,49.259,53.644l-166.441-302.756C926.54,1013.36,957.848,1076.439,1074.743,1301.395z"/>
	<path fill="#2357AB" d="M1132.246,1266.604c-94.057-134.869-144.5-206.24-159.089-224.54l163.829,241.067
		c-15.039-32.577,3.08-16.606,55.594,47.047L989.506,1050.67C949.112,999.414,988.079,1058.072,1132.246,1266.604z"/>
	<path fill="#376931" d="M1159.247,1246.57c-102.34-128.697-157.165-196.759-172.874-214.107l178.643,230.305
		c-17.055-31.569,2.031-16.767,58.439,43.464l-220.225-266.206C959.697,991.407,1002.271,1047.502,1159.247,1246.57z"/>
	<path fill="#99E529" d="M1264.038,1344.625c-133.54-156.84-225.498-265.165-260.809-304.6l220.225,266.206
		c29.576,31.581,69.402,75.639,119.67,132.063c-83.109-103.913-133.869-169.512-151.413-197.611L998.959,1022.05
		C968.904,992.783,1074.515,1118.257,1264.038,1344.625z"/>
	<path fill="#67F5DB" d="M1230.674,1371.046c-123.428-164.915-208.403-278.8-241.168-320.375l203.074,279.508
		c27.534,33.375,64.516,79.847,111.142,139.317c-76.42-108.927-122.961-177.584-138.707-206.729l-178.643-230.305
		C958.214,1001.367,1055.738,1133.225,1230.674,1371.046z"/>
	<path fill="#1F95AF" d="M1159.304,1417.35c-101.786-179.084-171.817-302.722-199.113-348.076l166.441,302.756
		c23.134,36.563,54,87.304,92.804,152.149c-62.166-117.646-99.734-191.595-111.703-222.483l-148.369-250.878
		C935.326,1016.437,1015.554,1159.478,1159.304,1417.35z"/>
	<path fill="#8B459D" d="M1195.716,1395.319c-112.829-172.34-190.486-291.336-220.575-334.886l185.123,291.708
		c25.384,35.038,59.375,83.74,102.174,146.021c-69.43-113.51-111.568-184.954-125.452-215.03l-163.829-241.067
		C947.007,1009.262,1036.059,1146.983,1195.716,1395.319z"/>
	<path fill="#67C5E5" d="M1104.041,1284.903c-85.403-140.508-131.265-214.905-144.676-234.086l148.369,250.878
		c-12.964-33.457,4.117-16.38,52.53,50.445l-185.123-291.708C938.045,1006.742,973.252,1067.73,1104.041,1284.903z"/>
	<path fill="#6B0105" d="M882.709,1359.281c-17.449-163.498-27.27-250.342-31.238-273.407l27.43,290.174
		c2.515-35.793,10.699-13.069,26.052,68.011l-43.302-342.767C850.946,1036.915,856.835,1107.09,882.709,1359.281z"/>
	<path fill="#4F99D5" d="M624.131,1473.361c60.87-196.791,103.058-332.477,117.435-383.421l-106.763,328.582
		c-10.817,41.893-26.676,99.127-47.383,171.804c43.205-125.851,71.394-203.859,85.717-233.728l81.317-279.894
		C763.06,1035.644,713.708,1192.047,624.131,1473.361z"/>
	<path fill="#AD5D7F" d="M650.772,1332.342c53.826-155.367,81.916-238.127,88.146-260.687l-98.731,274.236
		c17.516-31.315,15.245-7.269-5.385,72.63l106.763-328.582C759.289,1027.134,734.738,1093.137,650.772,1332.342z"/>
	<path fill="#356BDB" d="M583.946,1459.347c73.106-192.579,123.731-325.349,141.278-375.29l-127.184,321.23
		c-13.426,41.131-32.848,97.257-58.077,168.489c51.022-122.89,84.053-198.974,100.224-227.885l98.731-274.236
		C750.086,1031.218,691.01,1184.213,583.946,1459.347z"/>
	<path fill="#5D4593" d="M918.646,1498.222c-28.712-203.977-48.312-344.713-56.995-396.93l43.302,342.767
		c8.05,42.512,18.069,101.051,30.277,175.627c-14.492-132.27-22.2-214.855-21.957-247.98l-45.596-287.879
		C857.982,1043.011,879.92,1205.542,918.646,1498.222z"/>
	<path fill="#01655F" d="M506.609,1423.898c96.666-181.898,163.532-307.276,187.2-354.624L527.367,1372.03
		c-18.475,39.125-44.778,92.373-78.736,159.882c66.022-115.526,108.328-186.87,127.995-213.526l132.323-259.699
		C725.097,1019.967,647.312,1164.352,506.609,1423.898z"/>
	<path fill="#AFB319" d="M588.826,1306.27c72.874-147.396,111.115-225.982,120.124-247.584l-132.323,259.699
		c21.303-28.873,16.036-5.301-14.445,71.383l147.103-312.609C734.74,1017.068,702.111,1079.474,588.826,1306.27z"/>
	<path fill="#196B5F" d="M665.117,1484.824c48.393-200.223,81.978-338.291,93.127-390.038l-85.92,334.636
		c-8.165,42.49-20.399,100.607-36.501,174.44c35.217-128.316,58.452-207.94,70.872-238.649l63.582-284.448
		C776.287,1039.247,736.854,1198.44,665.117,1484.824z"/>
	<path fill="#27DB95" d="M544.72,1442.838c85.054-187.609,143.915-316.937,164.564-365.679l-147.103,312.609
		c-15.982,40.207-38.89,95.002-68.542,164.51c58.638-119.444,96.381-193.303,114.335-221.142l115.756-267.496
		C737.414,1025.985,668.849,1174.969,544.72,1442.838z"/>
	<path fill="#A1EBDD" d="M619.39,1320.28c63.475-151.68,96.706-232.513,104.341-254.638l-115.756,267.496
		c19.448-30.154,15.672-6.298-9.935,72.149l127.184-321.23C746.857,1022.487,718.21,1086.818,619.39,1320.28z"/>
	<path fill="#8DB3D1" d="M682.851,1342.41c43.964-158.44,66.802-242.8,71.604-265.707l-81.317,279.894
		c15.515-32.353,14.759-8.212-0.813,72.825l85.92-334.636C771.99,1030.99,751.632,1098.404,682.851,1342.41z"/>
	<path fill="#476B01" d="M849.177,1361.729c-7.149-164.271-11.497-251.56-14.009-274.829l9.155,291.323
		c4.758-35.564,11.499-12.371,21.731,69.512l-21.694-344.809C837.718,1038.004,839.189,1108.41,849.177,1361.729z"/>
	<path fill="#DB9DC9" d="M815.557,1362.066c3.18-164.395,4.322-251.785,3.275-275.166l-9.155,291.323
		c6.982-35.195,12.253-11.624,17.323,70.74v-345.491C824.448,1038.262,821.495,1108.621,815.557,1362.066z"/>
	<path fill="#E523B7" d="M781.983,1360.292c13.496-163.871,20.123-251.017,20.547-274.418l-27.43,290.173
		c9.178-34.687,12.959-10.832,12.847,71.688l21.693-344.809C811.188,1037.684,803.823,1107.719,781.983,1360.292z"/>
	<path fill="#41CBF9" d="M1184.937,1224.88c-110.219-122.016-169.209-186.502-185.977-202.83l192.751,218.633
		c-19.003-30.436,0.975-16.862,61.053,39.709l-236.506-251.853C969.758,982.75,1015.77,1036.062,1184.937,1224.88z"/>
	<path fill="#815D7B" d="M748.841,1499.926c22.917-204.711,38.933-345.899,43.508-398.635l-43.302,342.767
		c-2.775,43.178-7.629,102.37-14.35,177.64c18.858-131.718,31.93-213.626,40.403-245.65l27.43-290.173
		C803.289,1043.93,784.118,1206.809,748.841,1499.926z"/>
	<path fill="#D39D6B" d="M715.498,1350.445c33.928-160.887,51.425-246.515,54.778-269.679l-63.582,284.448
		c13.453-33.263,14.214-9.122,3.761,72.733l64.739-339.371C784.907,1034.041,768.822,1102.601,715.498,1350.445z"/>
	<path fill="#D13F9D" d="M706.741,1493.69c35.725-202.867,60.575-342.771,68.453-395.116l-64.739,339.371
		c-5.481,42.919-14.042,101.689-25.476,176.388c27.091-130.274,45.28-211.199,55.748-242.629l45.596-287.879
		C789.714,1042.014,760.354,1203.368,706.741,1493.69z"/>
	<path fill="#4DAFB9" d="M748.586,1356.413c23.759-162.701,35.845-249.259,37.737-272.587l-45.596,287.879
		c11.338-34.042,13.613-9.997,8.32,72.353l43.302-342.767C797.99,1036.276,786.242,1105.711,748.586,1356.413z"/>
	<path fill="#0F75DD" d="M1423.898,1147.391c-181.899-96.667-307.277-163.533-354.625-187.2l302.756,166.442
		c39.124,18.475,92.373,44.778,159.882,78.736c-115.526-66.022-186.87-108.328-213.526-127.995L1058.687,945.05
		C1019.967,928.903,1164.352,1006.688,1423.898,1147.391z"/>
	<path fill="#5F41ED" d="M818.832,567.1c4.503,41.709,3.109-122.289,1.371-417.516c2.921,205.968,4.727,348.051,6.797,400.944
		V205.037c-2.658-43.176-5.26-102.493-8.025-177.986c-0.001,0-0.002,0-0.003,0c-2.2,133.013-4.903,215.896-9.295,248.726
		L818.832,567.1z"/>
	<path fill="#99097D" d="M1086.9,818.832c-41.708,4.503,122.29,3.109,417.516,1.371c-205.969,2.921-348.052,4.727-400.945,6.797
		h345.491c43.176-2.658,102.493-5.26,177.987-8.025c0-0.001,0-0.002,0-0.003c-133.013-2.2-215.896-4.903-248.726-9.295
		L1086.9,818.832z"/>
	<path fill="#F5F15F" d="M1376.048,775.1l-290.174,27.43c-41.343,7.113,122.244-4.576,416.778-24.848
		c-205.379,15.848-347.068,26.572-399.727,31.959l344.81-21.694c42.931-5.364,101.979-11.687,177.168-19.189c0,0,0,0,0-0.001
		C1491.993,774.915,1409.091,777.422,1376.048,775.1z"/>
	<path fill="#39CB93" d="M835.168,567.1c1.875,41.91,10.781-121.853,27.584-416.606c-10.018,205.745-17.137,347.66-18.392,400.579
		l21.693-344.809c0.059-43.263,1.186-102.635,3.168-178.166c0,0-0.001,0-0.001,0c-10.549,132.628-18.452,215.188-24.897,247.679
		L835.168,567.1z"/>
	<path fill="#C3EB79" d="M1362.066,838.443c-164.396-3.18-251.785-4.322-275.167-3.275l291.323,9.155
		c-35.195-6.982-11.624-12.253,70.739-17.323h-345.491C1038.262,829.552,1108.622,832.505,1362.066,838.443z"/>
	<path fill="#D33F1B" d="M1493.69,947.259c-202.867-35.726-342.771-60.575-395.116-68.453l339.371,64.739
		c42.919,5.481,101.689,14.042,176.388,25.476c-130.274-27.091-211.199-45.28-242.629-55.748l-287.879-45.596
		C1042.014,864.286,1203.369,893.646,1493.69,947.259z"/>
	<path fill="#111597" d="M1356.413,905.414c-162.702-23.759-249.259-35.845-272.587-37.737l287.879,45.596
		c-34.042-11.338-9.997-13.613,72.353-8.32l-342.767-43.302C1036.276,856.01,1105.711,867.758,1356.413,905.414z"/>
	<path fill="#57FB15" d="M1499.926,905.159c-204.711-22.917-345.899-38.933-398.635-43.508l342.767,43.302
		c43.178,2.775,102.37,7.629,177.64,14.351c-131.718-18.857-213.625-31.93-245.65-40.403l-290.174-27.43
		C1043.93,850.711,1206.81,869.882,1499.926,905.159z"/>
	<path fill="#734DFD" d="M1360.292,872.017c-163.872-13.496-251.017-20.123-274.418-20.547l290.174,27.43
		c-34.688-9.178-10.832-12.959,71.688-12.847l-344.811-21.694C1037.685,842.812,1107.721,850.177,1360.292,872.017z"/>
	<path fill="#3513DF" d="M775.1,277.952l27.43,290.174c7.113,41.343-4.576-122.244-24.848-416.779
		c15.848,205.377,26.572,347.065,31.959,399.725l-21.694-344.808c-5.364-42.931-11.687-101.979-19.188-177.168c0,0,0,0-0.001,0
		C774.915,162.006,777.422,244.908,775.1,277.952z"/>
	<path fill="#3D0311" d="M818.832,1086.9c-1.875-41.91-10.781,121.853-27.584,416.606c10.018-205.745,17.137-347.66,18.392-400.579
		l-21.693,344.809c-0.059,43.263-1.186,102.635-3.168,178.166c0,0,0.001,0,0.001,0c10.549-132.628,18.452-215.188,24.897-247.679
		L818.832,1086.9z"/>
	<path fill="#BB210B" d="M835.168,1086.9c-4.503-41.709-3.109,122.289-1.371,417.516c-2.921-205.969-4.727-348.051-6.797-400.944
		v345.491c2.658,43.176,5.26,102.493,8.025,177.986c0.001,0,0.002,0,0.003,0c2.2-133.013,4.903-215.896,9.295-248.726
		L835.168,1086.9z"/>
	<path fill="#191931" d="M878.9,1376.048l-27.43-290.174c-7.113-41.343,4.576,122.244,24.848,416.778
		c-15.848-205.377-26.572-347.065-31.959-399.725l21.694,344.809c5.364,42.931,11.687,101.979,19.188,177.168c0,0,0,0,0.001,0
		C879.085,1491.994,876.578,1409.092,878.9,1376.048z"/>
	<path fill="#1B556F" d="M1086.9,835.168c-41.909,1.875,121.853,10.781,416.606,27.584
		c-205.747-10.018-347.663-17.137-400.581-18.392l344.811,21.694c43.263,0.059,102.635,1.186,178.166,3.168c0,0,0-0.001,0-0.001
		c-132.628-10.549-215.188-18.451-247.679-24.897L1086.9,835.168z"/>
	<path fill="#B5939D" d="M567.1,818.832c41.91-1.875-121.853-10.781-416.606-27.584c205.745,10.018,347.66,17.137,400.579,18.392
		l-344.809-21.694c-43.263-0.059-102.635-1.186-178.166-3.168c0,0,0,0.001,0,0.001c132.628,10.549,215.188,18.451,247.679,24.897
		L567.1,818.832z"/>
	<path fill="#E7C129" d="M277.952,878.9l290.174-27.43c41.343-7.113-122.244,4.576-416.779,24.848
		c205.377-15.848,347.065-26.572,399.725-31.959l-344.808,21.694c-42.931,5.364-101.979,11.687-177.168,19.189c0,0,0,0,0,0.001
		C162.006,879.085,244.908,876.578,277.952,878.9z"/>
	<path fill="#2FCDA1" d="M1350.445,938.502c-160.888-33.928-246.515-51.425-269.679-54.778l284.448,63.582
		c-33.264-13.453-9.123-14.214,72.733-3.761l-339.371-64.739C1034.041,869.093,1102.601,885.178,1350.445,938.502z"/>
	<path fill="#1DBFE5" d="M1295.678,1316.162c-143.125-148.145-241.703-250.483-279.42-287.623l236.506,251.853
		c31.5,29.661,74.014,71.131,127.726,124.289c-89.47-98.49-144.249-160.772-163.523-187.714l-206.098-206.098
		C979.033,983.546,1092.314,1102.141,1295.678,1316.162z"/>
	<path fill="#A18F4D" d="M567.1,835.168c41.709-4.503-122.289-3.109-417.516-1.371c205.968-2.921,348.051-4.727,400.944-6.797
		H205.037c-43.176,2.658-102.493,5.26-177.986,8.025c0,0.001,0,0.002,0,0.003c133.013,2.2,215.896,4.903,248.726,9.295
		L567.1,835.168z"/>
	<path fill="#E1E347" d="M1253.152,1150.762c-131.13-99.202-201.158-151.492-220.689-164.389l230.304,178.642
		c-24.37-26.335-2.202-16.746,67.411,27.565L1050.67,989.506C996.414,953.241,1051.6,996.986,1253.152,1150.762z"/>
	<path fill="#C13385" d="M1272.64,1123.365c-137.1-90.772-210.273-138.562-230.576-150.207l241.067,163.829
		c-25.975-24.753-3.249-16.574,69.01,23.278L1060.432,975.14C1004.007,942.355,1061.832,982.549,1272.64,1123.365z"/>
	<path fill="#0DB19B" d="M1379.036,1219.676c-168.349-118.702-284.357-200.755-328.366-230.17l279.508,203.074
		c36.5,23.233,86.032,56.003,148.753,98.154c-106.341-79.98-171.82-130.895-195.801-153.748l-241.067-163.829
		C1005.674,952.285,1139.171,1047.552,1379.036,1219.676z"/>
	<path fill="#B7B12F" d="M1402.603,1184.239c-175.471-107.898-296.403-182.505-342.171-209.098l291.709,185.124
		c37.887,20.895,89.379,50.49,154.623,88.62c-111.153-73.146-179.7-119.848-205.068-141.15l-250.878-148.369
		C1013.188,940.819,1152.404,1027.516,1402.603,1184.239z"/>
	<path fill="#EFC933" d="M1325.468,1285.768c-152.145-138.867-256.955-234.813-296.929-269.511l251.853,236.506
		c33.301,27.625,78.335,66.344,135.278,116.023c-95.478-92.677-154.059-151.397-174.987-177.076L1022.05,998.959
		C988.563,973.691,1109.067,1084.939,1325.468,1285.768z"/>
	<path fill="#19BF6F" d="M1290.369,1094.798c-142.529-81.985-218.559-125.086-239.552-135.433l250.878,148.369
		c-27.478-23.073-4.283-16.337,70.335,18.899l-302.756-166.442C1010.901,931.013,1071.135,967.496,1290.369,1094.798z"/>
	<path fill="#0F514F" d="M1209.213,1201.62c-117.662-114.854-180.585-175.509-198.346-190.752l206.098,206.098
		c-20.877-29.182-0.086-16.889,63.426,35.797l-251.853-236.506C979.257,973.479,1028.525,1023.797,1209.213,1201.62z"/>
	<path fill="#41CBE5" d="M1353.29,1253.564c-160.563-129.039-271.191-218.214-313.265-250.334l266.206,220.224
		c34.969,25.479,82.346,61.294,142.297,107.301c-101.109-86.5-163.261-141.425-185.76-165.739l-230.304-178.642
		C997.455,963.257,1124.707,1066.719,1353.29,1253.564z"/>
	<path fill="#6D0957" d="M1231.982,1176.881c-124.642-107.24-191.25-163.824-209.932-177.922l218.633,192.751
		c-22.668-27.814-1.147-16.851,65.548,31.743l-266.206-220.224C988.153,963.63,1040.484,1010.754,1231.982,1176.881z"/>
	<path fill="#DBD5A3" d="M1473.361,1029.869c-196.79-60.87-332.477-103.058-383.421-117.435l328.582,106.763
		c41.893,10.817,99.127,26.676,171.803,47.383c-125.851-43.205-203.859-71.394-233.728-85.717l-279.894-81.317
		C1035.645,890.94,1192.047,940.292,1473.361,1029.869z"/>
	<path fill="#61852F" d="M1332.342,1003.227c-155.367-53.825-238.126-81.916-260.687-88.146l274.236,98.731
		c-31.315-17.516-7.269-15.245,72.631,5.385L1089.94,912.434C1027.133,894.711,1093.137,919.261,1332.342,1003.227z"/>
	<path fill="#A14903" d="M1459.347,1070.054c-192.581-73.107-325.351-123.732-375.291-141.278l321.23,127.184
		c41.131,13.426,97.257,32.848,168.49,58.077c-122.89-51.022-198.974-84.053-227.885-100.224l-274.236-98.731
		C1031.218,903.914,1184.213,962.989,1459.347,1070.054z"/>
	<path fill="#37F319" d="M1484.824,988.883c-200.225-48.393-338.293-81.979-390.039-93.128l334.637,85.92
		c42.49,8.165,100.607,20.399,174.441,36.502c-128.315-35.217-207.939-58.452-238.649-70.872l-284.448-63.582
		C1039.247,877.713,1198.44,917.146,1484.824,988.883z"/>
	<path fill="#5D0D51" d="M771.291,294.719c17.449,163.498,27.27,250.342,31.238,273.408L775.1,277.952
		c-2.515,35.793-10.699,13.069-26.052-68.011l43.302,342.767C803.054,617.085,797.165,546.91,771.291,294.719z"/>
	<path fill="#EDD3F3" d="M1306.27,1065.174c-147.395-72.873-225.982-111.115-247.583-120.124l259.699,132.323
		c-28.873-21.302-5.301-16.036,71.383,14.445l-312.609-147.103C1017.068,919.26,1079.474,951.889,1306.27,1065.174z"/>
	<path fill="#F7370D" d="M1320.28,1034.61c-151.681-63.475-232.513-96.706-254.638-104.341l267.496,115.756
		c-30.154-19.448-6.298-15.672,72.149,9.934l-321.23-127.184C1022.487,907.144,1086.819,935.791,1320.28,1034.61z"/>
	<path fill="#41C1E1" d="M559.202,1290.369c81.985-142.529,125.086-218.56,135.433-239.553l-148.369,250.879
		c23.074-27.479,16.338-4.284-18.899,70.335l166.441-302.756C722.988,1010.9,686.504,1071.134,559.202,1290.369z"/>
	<path fill="#5F671F" d="M1442.838,1109.28c-187.609-85.054-316.937-143.915-365.679-164.564l312.609,147.103
		c40.207,15.982,95.002,38.89,164.511,68.542c-119.444-58.637-193.303-96.381-221.142-114.335L1065.642,930.27
		C1025.985,916.586,1174.969,985.151,1442.838,1109.28z"/>
	<path fill="#37BFB7" d="M1342.41,971.149c-158.44-43.964-242.801-66.802-265.707-71.604l279.894,81.317
		c-32.353-15.515-8.212-14.759,72.825,0.813l-334.637-85.92C1030.99,882.011,1098.406,902.369,1342.41,971.149z"/>
	<path fill="#112935" d="M400.848,503.238c131.13,99.202,201.159,151.492,220.689,164.389L391.233,488.985
		c24.37,26.336,2.202,16.745-67.412-27.565l279.508,203.075C657.586,700.759,602.4,657.014,400.848,503.238z"/>
	<path fill="#83F377" d="M422.018,477.119c124.642,107.24,191.25,163.824,209.932,177.922L413.317,462.29
		c22.668,27.814,1.146,16.85-65.548-31.744l266.206,220.225C665.846,690.37,613.516,643.246,422.018,477.119z"/>
	<path fill="#E16975" d="M300.71,400.436C461.273,529.475,571.901,618.65,613.975,650.771L347.769,430.546
		c-34.969-25.479-82.346-61.294-142.296-107.3c101.109,86.5,163.261,141.425,185.76,165.739l230.304,178.642
		C656.545,690.743,529.293,587.281,300.71,400.436z"/>
	<path fill="#813BFF" d="M381.36,530.636c137.099,90.772,210.273,138.562,230.575,150.207L370.869,517.014
		c25.975,24.753,3.249,16.574-69.01-23.278l291.708,185.123C649.993,711.646,592.169,671.452,381.36,530.636z"/>
	<path fill="#234F7B" d="M328.532,368.232c152.144,138.866,256.954,234.812,296.929,269.511L373.608,401.237
		c-33.301-27.625-78.335-66.344-135.278-116.023c95.478,92.678,154.059,151.398,174.987,177.076L631.95,655.041
		C665.437,680.309,544.933,569.061,328.532,368.232z"/>
	<path fill="#11F535" d="M311.59,682.851c158.44,43.964,242.801,66.802,265.707,71.604l-279.894-81.317
		c32.353,15.515,8.212,14.759-72.826-0.814l334.637,85.92C623.01,771.99,555.596,751.632,311.59,682.851z"/>
	<path fill="#6D3BBD" d="M358.322,337.838c143.124,148.145,241.702,250.482,279.42,287.623L401.237,373.608
		c-31.5-29.661-74.015-71.132-127.726-124.289c89.47,98.49,144.249,160.772,163.523,187.714l206.098,206.098
		C674.968,670.455,561.687,551.86,358.322,337.838z"/>
	<path fill="#438507" d="M469.064,429.12c110.219,122.016,169.209,186.502,185.977,202.83L462.29,413.317
		c19.003,30.435-0.975,16.861-61.053-39.709l236.505,251.852C684.242,671.25,638.23,617.939,469.064,429.12z"/>
	<path fill="#D307A7" d="M444.787,452.38c117.661,114.854,180.584,175.508,198.345,190.752L437.034,437.034
		c20.877,29.182,0.086,16.889-63.426-35.797l251.853,236.506C674.743,680.521,625.475,630.203,444.787,452.38z"/>
	<path fill="#E7D309" d="M321.658,650.773c155.367,53.826,238.127,81.916,260.687,88.146l-274.236-98.731
		c31.315,17.516,7.269,15.245-72.63-5.385l328.58,106.762C626.867,759.29,560.865,734.739,321.658,650.773z"/>
	<path fill="#CDD957" d="M363.631,559.202c142.53,81.985,218.56,125.086,239.553,135.433L352.305,546.266
		c27.478,23.074,4.284,16.337-70.335-18.899l302.756,166.442C643.099,722.987,582.865,686.504,363.631,559.202z"/>
	<path fill="#FBA339" d="M333.72,619.39c151.681,63.475,232.513,96.707,254.638,104.341L320.863,607.975
		c30.154,19.448,6.298,15.672-72.149-9.934l321.229,127.183C631.514,746.857,567.183,718.21,333.72,619.39z"/>
	<path fill="#59475B" d="M194.653,583.946c192.579,73.106,325.348,123.731,375.29,141.278L248.714,598.04
		c-41.131-13.426-97.257-32.848-168.49-58.077c122.89,51.022,198.974,84.053,227.885,100.224l274.236,98.731
		C622.782,750.086,469.787,691.01,194.653,583.946z"/>
	<path fill="#439947" d="M180.639,624.131c196.789,60.87,332.475,103.057,383.42,117.434l-328.58-106.762
		c-41.893-10.817-99.128-26.676-171.804-47.383c125.851,43.205,203.859,71.394,233.728,85.717l279.894,81.317
		C618.355,763.06,461.953,713.708,180.639,624.131z"/>
	<path fill="#F595EB" d="M389.962,309.375c133.54,156.84,225.498,265.165,260.809,304.6L430.545,347.769
		c-29.576-31.581-69.402-75.638-119.669-132.063c83.109,103.914,133.869,169.513,151.414,197.612L655.041,631.95
		C685.096,661.217,579.485,535.743,389.962,309.375z"/>
	<path fill="#DB43E5" d="M230.102,506.609C412,603.275,537.378,670.141,584.726,693.809L281.97,527.367
		c-39.124-18.475-92.373-44.778-159.882-78.736c115.526,66.022,186.87,108.328,213.526,127.995L595.313,708.95
		C634.032,725.097,489.648,647.312,230.102,506.609z"/>
	<path fill="#1F97D5" d="M347.73,588.826C495.126,661.7,573.712,699.941,595.313,708.95L335.614,576.626
		c28.873,21.302,5.301,16.036-71.382-14.445l312.609,147.103C636.931,734.74,574.525,702.11,347.73,588.826z"/>
	<path fill="#3509A5" d="M211.162,544.72C398.771,629.775,528.1,688.636,576.841,709.284L264.232,562.181
		c-40.207-15.982-95.003-38.89-164.511-68.542c119.444,58.638,193.303,96.381,221.142,114.335L588.358,723.73
		C628.015,737.414,479.031,668.849,211.162,544.72z"/>
	<path fill="#9587FF" d="M251.397,469.761c175.47,107.897,296.402,182.504,342.17,209.098L301.859,493.736
		c-37.887-20.895-89.379-50.49-154.623-88.62c111.153,73.145,179.699,119.848,205.068,141.15l250.879,148.369
		C640.811,713.181,501.596,626.484,251.397,469.761z"/>
	<path fill="#875DF7" d="M672.538,314.586c47.777,157.333,73.696,240.799,81.916,262.712l-81.317-279.895
		c4.236,35.63-8.061,14.841-38.335-61.925l106.763,328.582C764.144,625.29,745.21,557.462,672.538,314.586z"/>
	<path fill="#BD293D" d="M494.753,407.43c102.339,128.696,157.164,196.758,172.874,214.107L488.985,391.233
		c17.055,31.569-2.032,16.767-58.439-43.464l220.225,266.206C694.303,662.593,651.729,606.498,494.753,407.43z"/>
	<path fill="#9BE773" d="M571.307,199.657c78.537,190.429,132.521,321.869,153.917,370.286L598.041,248.714
		c-18.369-39.174-42.632-93.383-73.003-162.58c46.93,124.51,74.935,202.584,82.938,234.729L723.73,588.358
		C743.271,625.48,681.603,473.511,571.307,199.657z"/>
	<path fill="#4DABB1" d="M640.668,325.296c57.561,154.021,88.67,235.694,98.25,257.049l-98.731-274.236
		c6.465,35.294-7.113,15.319-42.147-59.395l127.183,321.229C751.602,629.635,728.447,563.129,640.668,325.296z"/>
	<path fill="#F5B78D" d="M611.203,184.84c66.425,194.984,112.049,329.554,130.363,379.22L634.803,235.477
		c-15.873-40.25-36.684-95.875-62.65-166.842c39.02,127.211,62.067,206.889,68.035,239.474l98.731,274.236
		C756.091,620.621,704.086,465.08,611.203,184.84z"/>
	<path fill="#6B5B97" d="M705.018,305.898c37.804,160.022,58.431,244.95,65.259,267.336l-63.582-284.448
		c1.99,35.826-8.977,14.306-34.371-64.209l85.92,334.637C776.933,621.74,762.296,552.857,705.018,305.898z"/>
	<path fill="#E115C5" d="M735.354,155.778c28.712,203.977,48.312,344.713,56.995,396.93l-43.302-342.767
		c-8.05-42.512-18.069-101.051-30.277-175.627c14.492,132.269,22.2,214.855,21.957,247.98l45.595,287.879
		C796.018,610.989,774.08,448.458,735.354,155.778z"/>
	<path fill="#093BFF" d="M737.979,299.267c27.681,162.08,42.935,248.135,48.344,270.906l-45.595-287.879
		c-0.263,35.88-9.858,13.714-30.271-66.241l64.739,339.371C789.92,619.002,779.637,549.335,737.979,299.267z"/>
	<path fill="#676953" d="M693.389,162.857c41.464,201.773,69.861,341,81.806,392.569l-64.739-339.371
		c-10.703-41.922-24.378-99.718-41.245-173.38c22.768,131.098,35.647,213.037,37.485,246.112l63.582,284.448
		C782.515,613.36,750.416,452.528,693.389,162.857z"/>
	<path fill="#AD5765" d="M651.95,172.557c54.052,198.772,91.135,335.941,106.294,386.658l-85.92-334.637
		c-13.315-41.168-30.592-97.99-52.051-170.448c30.955,129.41,48.954,210.378,52.864,243.273l81.317,279.895
		C769.188,616.574,727.053,458.075,651.95,172.557z"/>
	<path fill="#311B47" d="M458.284,258.681c112.829,172.34,190.486,291.336,220.575,334.886L493.736,301.859
		c-25.384-35.038-59.375-83.741-102.174-146.021c69.43,113.51,111.568,184.954,125.452,215.03l163.829,241.067
		C706.993,644.738,617.941,507.017,458.284,258.681z"/>
	<path fill="#BDA109" d="M521.754,387.396c94.057,134.868,144.5,206.239,159.089,224.54L517.014,370.869
		c15.039,32.577-3.08,16.606-55.594-47.047L664.494,603.33C704.888,654.586,665.921,595.928,521.754,387.396z"/>
	<path fill="#17838B" d="M423.326,282.954c123.428,164.915,208.403,278.8,241.168,320.375L461.419,323.822
		c-27.534-33.375-64.516-79.847-111.141-139.317c76.42,108.927,122.961,177.584,138.707,206.729l178.642,230.304
		C695.786,652.634,598.262,520.776,423.326,282.954z"/>
	<path fill="#ADCF41" d="M549.959,369.097c85.402,140.507,131.264,214.904,144.676,234.086L546.266,352.305
		c12.964,33.457-4.117,16.38-52.53-50.445l185.123,291.708C715.955,647.258,680.748,586.27,549.959,369.097z"/>
	<path fill="#D1BD77" d="M532.42,216.95c90.34,185.121,152.469,312.912,176.863,359.891l-147.103-312.61
		c-20.793-37.944-48.411-90.522-83.067-157.675c54.656,121.317,87.507,197.479,97.512,229.058l132.324,259.7
		C730.783,631.135,659.694,483.339,532.42,216.95z"/>
	<path fill="#0309FD" d="M609.534,337.985c67.119,150.104,103.295,229.663,114.197,250.373L607.975,320.863
		c8.668,34.818-6.137,15.735-45.794-56.632l147.103,312.61C739.358,634.758,712.073,569.838,609.534,337.985z"/>
	<path fill="#33FBF5" d="M494.696,236.65c101.786,179.084,171.817,302.722,199.112,348.076L527.367,281.97
		c-23.134-36.563-54-87.304-92.804-152.148c62.166,117.646,99.734,191.595,111.703,222.483l148.369,250.878
		C718.675,637.564,638.446,494.523,494.696,236.65z"/>
	<path fill="#1DADBB" d="M579.257,352.605c76.411,145.593,117.511,222.723,129.692,242.708l-132.324-259.7
		c10.838,34.205-5.137,16.09-49.259-53.644l166.442,302.756C727.46,640.64,696.152,577.561,579.257,352.605z"/>
	<path fill="#CBD78F" d="M530.636,1272.64c90.773-137.1,138.562-210.274,150.207-230.576l-163.829,241.067
		c24.753-25.975,16.574-3.249-23.278,69.01l185.123-291.707C711.646,1004.006,671.452,1061.83,530.636,1272.64z"/>
	<path fill="#4B7327" d="M407.43,1159.247c128.696-102.339,196.758-157.164,214.107-172.874l-230.304,178.642
		c31.568-17.055,16.767,2.032-43.464,58.439l266.206-220.224C662.593,959.697,606.497,1002.271,407.43,1159.247z"/>
	<path fill="#FD9B1B" d="M282.954,1230.674c164.914-123.428,278.8-208.402,320.375-241.167l-279.508,203.074
		c-33.375,27.534-79.847,64.516-139.317,111.141c108.927-76.421,177.584-122.961,206.729-138.707l230.304-178.642
		C652.634,958.214,520.776,1055.738,282.954,1230.674z"/>
	<path fill="#8D0511" d="M387.396,1132.246c134.868-94.057,206.239-144.499,224.54-159.089l-241.067,163.829
		c32.577-15.039,16.607,3.08-47.047,55.594l279.508-203.074C654.586,949.112,595.928,988.079,387.396,1132.246z"/>
	<path fill="#F7916B" d="M309.375,1264.038c156.84-133.54,265.165-225.499,304.601-260.809L347.77,1223.454
		c-31.581,29.576-75.639,69.402-132.064,119.67c103.914-83.109,169.513-133.869,197.612-151.414L631.95,998.96
		C661.217,968.904,535.743,1074.515,309.375,1264.038z"/>
	<path fill="#F373DD" d="M258.681,1195.716c172.34-112.829,291.336-190.486,334.886-220.575l-291.708,185.123
		c-35.038,25.384-83.741,59.375-146.021,102.174c113.51-69.43,184.954-111.568,215.03-125.452l241.067-163.829
		C644.739,947.007,507.018,1036.059,258.681,1195.716z"/>
	<path fill="#D59359" d="M352.605,1074.743c145.593-76.412,222.723-117.511,242.708-129.692l-259.699,132.323
		c34.205-10.837,16.089,5.137-53.645,49.26l302.757-166.442C640.641,926.54,577.562,957.848,352.605,1074.743z"/>
	<path fill="#5BA1BB" d="M429.12,1184.937c122.016-110.219,186.502-169.209,202.83-185.977L413.317,1191.71
		c30.435-19.003,16.861,0.975-39.709,61.052l251.852-236.505C671.25,969.758,617.938,1015.77,429.12,1184.937z"/>
	<path fill="#8D4745" d="M236.65,1159.304c179.084-101.785,302.721-171.816,348.075-199.112l-302.757,166.442
		c-36.563,23.134-87.303,53.999-152.148,92.803c117.646-62.166,191.594-99.734,222.483-111.703l250.879-148.369
		C637.562,935.326,494.521,1015.555,236.65,1159.304z"/>
	<path fill="#6D8D51" d="M369.097,1104.041c140.508-85.403,214.906-131.265,234.086-144.676l-250.879,148.369
		c33.458-12.964,16.381,4.116-50.445,52.53l291.708-185.123C647.259,938.045,586.27,973.252,369.097,1104.041z"/>
	<path fill="#DBD70B" d="M469.761,1402.603c107.897-175.469,182.503-296.401,209.098-342.17l-185.123,291.707
		c-20.895,37.887-50.49,89.379-88.62,154.623c73.145-111.152,119.848-179.699,141.15-205.068l148.369-250.879
		C713.181,1013.189,626.484,1152.404,469.761,1402.603z"/>
	<path fill="#07D95B" d="M169.176,665.117c200.223,48.393,338.29,81.978,390.037,93.127l-334.637-85.92
		c-42.49-8.165-100.607-20.399-174.44-36.501c128.316,35.217,207.94,58.452,238.649,70.872l284.448,63.582
		C614.753,776.287,455.56,736.853,169.176,665.117z"/>
	<path fill="#13696F" d="M503.238,1253.152c99.202-131.129,151.492-201.158,164.389-220.689l-178.642,230.304
		c26.335-24.37,16.745-2.202-27.565,67.412l203.074-279.508C700.759,996.414,657.014,1051.6,503.238,1253.152z"/>
	<path fill="#DF0F5F" d="M400.436,1353.29c129.039-160.563,218.214-271.191,250.335-313.265l-220.225,266.206
		c-25.479,34.969-61.294,82.346-107.3,142.296c86.5-101.109,141.426-163.262,165.739-185.76l178.642-230.304
		C690.744,997.455,587.282,1124.706,400.436,1353.29z"/>
	<path fill="#875BBD" d="M216.95,1121.58c185.121-90.34,312.912-152.469,359.891-176.863l-312.61,147.103
		c-37.944,20.793-90.522,48.411-157.675,83.067c121.317-54.656,197.479-87.507,229.058-97.513L595.313,945.05
		C631.135,923.217,483.339,994.306,216.95,1121.58z"/>
	<path fill="#6BBB7B" d="M452.38,1209.213c114.854-117.662,175.509-180.585,190.752-198.346l-206.098,206.098
		c29.182-20.877,16.889-0.086-35.797,63.425l236.505-251.852C680.521,979.256,630.204,1028.525,452.38,1209.213z"/>
	<path fill="#27CFE3" d="M337.838,1295.678c148.145-143.124,250.483-241.703,287.623-279.42l-251.852,236.505
		c-29.661,31.5-71.132,74.015-124.289,127.726c98.49-89.47,160.773-144.249,187.714-163.523l206.098-206.098
		C670.454,979.033,551.859,1092.314,337.838,1295.678z"/>
	<path fill="#EFBB19" d="M477.119,1231.982c107.239-124.641,163.823-191.249,177.921-209.931L462.29,1240.683
		c27.814-22.668,16.85-1.146-31.744,65.548l220.225-266.206C690.37,988.153,643.246,1040.484,477.119,1231.982z"/>
	<path fill="#9B5373" d="M368.232,1325.468c138.866-152.144,234.812-256.954,269.511-296.929l-236.505,251.852
		c-27.625,33.301-66.344,78.335-116.024,135.278c92.678-95.478,151.398-154.059,177.076-174.987L655.04,1022.05
		C680.31,988.562,569.062,1109.066,368.232,1325.468z"/>
	<path fill="#5DBD8F" d="M434.324,1379.036c118.702-168.348,200.754-284.357,230.17-328.365l-203.074,279.508
		c-23.233,36.5-56.003,86.032-98.154,148.753c79.98-106.341,130.895-171.82,153.748-195.801l163.829-241.067
		C701.715,1005.674,606.448,1139.171,434.324,1379.036z"/>
	<path fill="#B9931B" d="M293.708,781.982c163.872,13.496,251.018,20.123,274.418,20.547L277.952,775.1
		c34.687,9.178,10.832,12.959-71.688,12.847l344.809,21.694C616.316,811.188,546.281,803.823,293.708,781.982z"/>
	<path fill="#8D0F7F" d="M291.934,815.557c164.395,3.18,251.785,4.322,275.166,3.275l-291.323-9.155
		c35.195,6.982,11.624,12.253-70.74,17.323h345.491C615.738,824.448,545.379,821.495,291.934,815.557z"/>
	<path fill="#D19197" d="M292.271,849.177c164.271-7.149,251.56-11.497,274.829-14.009l-291.323,9.155
		c35.564,4.758,12.371,11.499-69.512,21.731l344.808-21.694C615.996,837.718,545.59,839.189,292.271,849.177z"/>
	<path fill="#B79131" d="M337.985,1044.466c150.103-67.118,229.661-103.294,250.372-114.196l-267.495,115.755
		c34.818-8.668,15.735,6.137-56.632,45.794l312.61-147.103C634.759,914.642,569.838,941.927,337.985,1044.466z"/>
	<path fill="#5FE799" d="M294.719,882.709c163.498-17.449,250.342-27.27,273.408-31.238L277.952,878.9
		c35.793,2.515,13.069,10.699-68.011,26.052l342.767-43.302C617.085,850.946,546.91,856.835,294.719,882.709z"/>
	<path fill="#11E94F" d="M154.074,748.841c204.711,22.917,345.899,38.933,398.635,43.508l-342.768-43.302
		c-43.178-2.775-102.37-7.629-177.639-14.35c131.718,18.858,213.626,31.93,245.65,40.403l290.174,27.43
		C610.07,803.289,447.19,784.118,154.074,748.841z"/>
	<path fill="#3BDF63" d="M160.31,706.741c202.866,35.725,342.769,60.575,395.115,68.453l-339.371-64.738
		c-42.919-5.481-101.689-14.042-176.387-25.476c130.274,27.091,211.199,45.28,242.628,55.748l287.878,45.596
		C611.988,789.715,450.633,760.354,160.31,706.741z"/>
	<path fill="#6B2F73" d="M303.555,715.498c160.888,33.928,246.515,51.425,269.679,54.778l-284.448-63.582
		c33.263,13.453,9.122,14.214-72.733,3.761l339.371,64.738C619.959,784.907,551.4,768.822,303.555,715.498z"/>
	<path fill="#E149DF" d="M297.587,748.586c162.7,23.759,249.258,35.844,272.586,37.737l-287.878-45.596
		c34.043,11.338,9.997,13.613-72.354,8.32l342.768,43.302C617.724,797.99,548.289,786.242,297.587,748.586z"/>
	<path fill="#0BD113" d="M155.778,918.646c203.977-28.712,344.713-48.312,396.93-56.995l-342.767,43.302
		c-42.512,8.05-101.051,18.069-175.627,30.277c132.269-14.492,214.855-22.2,247.98-21.957l287.879-45.595
		C610.989,857.982,448.459,879.92,155.778,918.646z"/>
	<path fill="#8BD7F3" d="M184.84,1042.797c194.985-66.426,329.556-112.049,379.22-130.363l-328.582,106.763
		c-40.25,15.873-95.876,36.684-166.843,62.65c127.211-39.02,206.889-62.066,239.473-68.035l274.236-98.731
		C620.621,897.91,465.08,949.914,184.84,1042.797z"/>
	<path fill="#31CBD9" d="M299.267,916.021c162.08-27.681,248.135-42.935,270.906-48.344l-287.879,45.595
		c35.88,0.263,13.714,9.858-66.241,30.271l339.372-64.739C619.002,864.08,549.335,874.363,299.267,916.021z"/>
	<path fill="#192513" d="M325.296,1013.332c154.021-57.561,235.695-88.67,257.049-98.25l-274.236,98.731
		c35.294-6.465,15.319,7.113-59.396,42.148l321.23-127.184C629.635,902.398,563.129,925.553,325.296,1013.332z"/>
	<path fill="#39C7F5" d="M199.657,1082.693c190.429-78.537,321.869-132.521,370.286-153.917l-321.23,127.184
		c-39.174,18.369-93.383,42.632-162.579,73.003c124.51-46.93,202.584-74.935,234.729-82.938L588.358,930.27
		C625.481,910.728,473.513,972.396,199.657,1082.693z"/>
	<path fill="#83BB03" d="M314.586,981.462c157.332-47.777,240.797-73.696,262.711-81.916l-279.894,81.317
		c35.63-4.236,14.841,8.061-61.925,38.335L564.06,912.434C625.289,889.856,557.461,908.79,314.586,981.462z"/>
	<path fill="#3FBDA9" d="M172.557,1002.05c198.77-54.051,335.939-91.135,386.657-106.294l-334.636,85.92
		c-41.168,13.315-97.99,30.592-170.448,52.051c129.41-30.955,210.378-48.954,243.273-52.864l279.894-81.317
		C616.576,884.811,458.076,926.947,172.557,1002.05z"/>
	<path fill="#7F3B0B" d="M162.857,960.611c201.773-41.464,341-69.861,392.569-81.806l-339.372,64.739
		c-41.922,10.703-99.717,24.378-173.38,41.245c131.098-22.768,213.037-35.647,246.112-37.485l284.448-63.582
		C613.36,871.485,452.528,903.585,162.857,960.611z"/>
	<path fill="#452385" d="M305.898,948.982c160.022-37.804,244.95-58.431,267.337-65.259l-284.448,63.582
		c35.826-1.99,14.306,8.977-64.209,34.371l334.636-85.92C621.741,877.067,552.858,891.704,305.898,948.982z"/>
</g>
</svg>
