<?xml version="1.0" encoding="utf-8"?>

<!DOCTYPE svg PUBLIC "-//W3C//DTD SVG 1.1//EN" "http://www.w3.org/Graphics/SVG/1.1/DTD/svg11.dtd">
<svg version="1.1" id="Layer_1" xmlns="http://www.w3.org/2000/svg" xmlns:xlink="http://www.w3.org/1999/xlink" x="0px" y="0px"
	 viewBox="0 0 1629.998 1629.998" enable-background="new 0 0 1629.998 1629.998" xml:space="preserve">
<g>
	<g>
		<path fill="#F9BD51" d="M814.999,814.999l536.099-40.421c-0.085-1.287-0.129-2.102-0.23-3.038
			c-13.913-0.988-30.103-1.934-44.006-2.571L814.999,814.999C815.585,821.23,814.882,813.079,814.999,814.999z"/>
		<path fill="#57378F" d="M814.999,814.999l624.357-29.702c-0.18-4.272-0.115-3.044-0.269-5.382
			c-10.56-1.263-22.869-2.616-33.454-3.678L814.999,814.999C815.389,820.595,814.897,812.214,814.999,814.999z"/>
		<path fill="#67EF29" d="M814.999,814.999l712.372-14.145c-0.119-6.775-0.075-5.069-0.201-8.25
			C1497.158,787.641,1177.414,800.976,814.999,814.999C815.179,818.941,814.938,810.97,814.999,814.999z"/>
		<path fill="#573FEF" d="M814.999,814.999c472.16,3.28,782.437,7.343,799.966,3.488c0.043-6.37,0.051-4.635-0.006-8.859
			C1597.405,805.849,1279.57,809.871,814.999,814.999C815.068,818.438,815.063,810.091,814.999,814.999z"/>
		<path fill="#013971" d="M814.999,814.999C814.99,817.417,815.219,809.022,814.999,814.999
			c368.105,12.797,681.351,26.135,712.246,20.887c0.166-5.069,0.124-3.305,0.192-8.26L814.999,814.999z"/>
		<path fill="#69953D" d="M814.999,814.999C814.942,816.685,815.412,808.163,814.999,814.999
			c260.415,16.331,581.742,39.189,624.209,33.938c0.191-3.243,0.252-4.082,0.282-5.387L814.999,814.999z"/>
		<path fill="#614333" d="M814.999,814.999L814.999,814.999c148.26,13.465,483.738,46.496,536.016,42.621l0.259-3.03
			L814.999,814.999z"/>
	</g>
	<g>
		<path fill="#19F1E3" d="M814.999,814.999l533.813,64.979l0.331-3.023c-13.423-3.666-29.11-7.735-42.625-11.055L814.999,814.999
			L814.999,814.999z"/>
		<path fill="#A76D11" d="M814.999,814.999l618.301,92.706c0.156-1.006,0.043-0.191,0.743-5.345
			c-10.105-3.302-21.896-7.028-32.066-10.133L814.999,814.999C814.961,815.282,815.033,814.815,814.999,814.999z"/>
		<path fill="#814719" d="M814.999,814.999l701.56,125.206c0.665-3.594,0.41-2.117,1.391-8.157
			C1489.523,921.303,1173.133,872.072,814.999,814.999C814.373,818.932,815.311,813.476,814.999,814.999z"/>
		<path fill="#B92FA7" d="M814.999,814.999c462.35,95.779,766.037,160.058,783.991,159.705c0.773-3.689,0.47-2.15,1.71-8.72
			C1584.24,958.828,1271.596,900.955,814.999,814.999C814.089,819.981,815.764,811.466,814.999,814.999z"/>
		<path fill="#6FD331" d="M814.999,814.999C814.289,818.404,816.19,810.082,814.999,814.999
			c357.805,84.651,662.838,158.679,694.551,159.602c0.856-3.624,0.488-1.972,1.793-8.078L814.999,814.999z"/>
		<path fill="#E90093" d="M814.999,814.999C814.672,816.478,816.107,810.838,814.999,814.999
			c252.133,67.167,563.003,151.94,605.659,155.129c0.845-3.203,0.562-2.085,1.319-5.232L814.999,814.999z"/>
		<path fill="#51B5E3" d="M814.999,814.999L814.999,814.999c142.669,42.32,465.43,139.839,517.477,146.318
			c0.469-1.606,0.638-2.171,0.843-2.922L814.999,814.999z"/>
	</g>
	<g>
		<path fill="#AF47F1" d="M814.999,814.999l510.919,167.804l0.919-2.899c-12.442-6.233-27.02-13.304-39.62-19.216L814.999,814.999
			L814.999,814.999z"/>
		<path fill="#8F9F45" d="M814.999,814.999l588.309,211.59c0.371-1,0.191-0.481,1.784-5.091
			c-9.257-5.221-20.093-11.195-29.452-16.237L814.999,814.999C812.651,821.809,815.401,813.94,814.999,814.999z"/>
		<path fill="#653785" d="M814.999,814.999l663.566,259.799c1.826-4.615,1.191-2.96,2.97-7.716
			C1455.766,1050.966,1155.056,941.345,814.999,814.999C812.972,820.48,815.938,812.687,814.999,814.999z"/>
		<path fill="#F17F09" d="M814.999,814.999c434.569,184.628,719.962,306.604,737.629,309.785c2.126-5.003,1.404-3.262,3.394-8.197
			C1541.281,1106.343,1245.854,988.917,814.999,814.999C813.524,818.732,816.561,811.393,814.999,814.999z"/>
		<path fill="#8DA9CF" d="M814.999,814.999C813.952,817.473,817.416,809.752,814.999,814.999
			c334.857,153.413,619.42,285.075,649.956,292.115c2.104-4.616,1.387-3.003,3.352-7.555L814.999,814.999z"/>
		<path fill="#752DA5" d="M814.999,814.999C814.862,815.33,815.156,814.677,814.999,814.999
			c234.1,115.237,522.451,258.805,563.67,270.294c1.373-2.822,1.787-3.647,2.335-4.861L814.999,814.999z"/>
		<path fill="#D3197D" d="M814.999,814.999L814.999,814.999c131.732,69.458,429.169,227.866,478.919,244.388l1.4-2.702
			L814.999,814.999z"/>
	</g>
	<g>
		<path fill="#7F73F9" d="M814.999,814.999l468.291,264.196c0.403-0.686,0.677-1.204,1.474-2.662
			c-10.984-8.544-23.915-18.342-35.115-26.605L814.999,814.999C814.856,815.259,815.104,814.827,814.999,814.999z"/>
		<path fill="#673DD5" d="M814.999,814.999l535.624,322.238c1.685-2.757,1.098-1.774,2.767-4.627
			c-8.068-6.932-17.546-14.918-25.731-21.681L814.999,814.999C811.991,820.212,816.271,812.945,814.999,814.999z"/>
		<path fill="#ADF1D5" d="M814.999,814.999l600.052,384.185c2.729-4.238,3.403-5.26,4.433-6.965
			C1397.324,1171.377,1123.854,1005.228,814.999,814.999C812.909,818.445,817.15,811.692,814.999,814.999z"/>
		<path fill="#63818F" d="M814.999,814.999c389.57,265.204,646.28,441.055,662.976,447.614c4.562-6.731,4.08-6.029,4.938-7.349
			C1470.436,1242.345,1203.713,1069.528,814.999,814.999C813.56,817.251,818.272,810.209,814.999,814.999z"/>
		<path fill="#91EF6D" d="M814.999,814.999C814.619,815.566,815.398,814.441,814.999,814.999
			c298.314,215.395,551.671,400.261,580.438,413.194c4.658-6.522,3.912-5.474,4.774-6.734L814.999,814.999z"/>
		<path fill="#C7CBD7" d="M814.999,814.999L814.999,814.999c207.269,158.559,461.914,355.749,500.052,374.998l3.239-4.31
			L814.999,814.999z"/>
		<path fill="#63C187" d="M814.999,814.999L814.999,814.999c115.754,93.736,376.362,307.256,421.953,333.117l1.888-2.388
			L814.999,814.999z"/>
	</g>
	<g>
		<path fill="#DF0163" d="M814.999,814.999l407.664,350.479l1.998-2.296c-8.985-10.361-19.762-22.484-29.304-32.938L814.999,814.999
			C811.313,819.461,816.76,812.996,814.999,814.999z"/>
		<path fill="#6F9703" d="M814.999,814.999l462.46,420.491l3.635-3.982C1254.369,1197.602,1011.977,987.635,814.999,814.999
			C812.356,818.056,817.675,812.095,814.999,814.999z"/>
		<path fill="#6B3FD3" d="M814.999,814.999l513.654,493.765l5.707-5.965C1316.691,1278.082,1081.064,1061.525,814.999,814.999
			C813.39,816.778,819.195,810.639,814.999,814.999z"/>
		<path fill="#354F49" d="M814.999,814.999c330.72,335.742,548.009,558.55,563.078,568.197l6.272-6.252
			C1374.639,1361.873,1146.929,1140.079,814.999,814.999C814.899,815.108,815.104,814.894,814.999,814.999z"/>
		<path fill="#E3699D" d="M814.999,814.999L814.999,814.999c251.083,269.435,463.265,500.298,488.784,518.421l5.988-5.685
			L814.999,814.999z"/>
		<path fill="#5D7341" d="M814.999,814.999L814.999,814.999c170.358,193.289,383.831,439.215,417.336,465.358l4-3.616
			L814.999,814.999z"/>
		<path fill="#AB473B" d="M814.999,814.999C811.967,817.618,816.222,814.03,814.999,814.999
			c94.474,113.385,309.022,374.785,348.854,409.114l2.306-1.986L814.999,814.999z"/>
	</g>
	<g>
		<path fill="#598F9F" d="M814.999,814.999l331.462,423.353l2.399-1.871C1122.282,1190.165,909.969,931.648,814.999,814.999
			C811.897,817.556,818.106,812.594,814.999,814.999z"/>
		<path fill="#AB7FAD" d="M814.999,814.999l371.605,502.69l4.33-3.216c-4.93-9.717-10.398-20.231-15.515-29.836L814.999,814.999
			C813.147,816.46,819.94,811.346,814.999,814.999z"/>
		<path fill="#2D3375" d="M814.999,814.999l407.55,584.542l6.753-4.767C1216.816,1367.127,1028.009,1108.585,814.999,814.999
			C814.897,815.078,815.105,814.924,814.999,814.999z"/>
		<path fill="#B1DF69" d="M814.999,814.999c258.935,393.765,428.595,654.803,441.501,667.194l7.372-4.94
			C1257.3,1460.588,1077.202,1198.433,814.999,814.999L814.999,814.999z"/>
		<path fill="#2777EB" d="M814.999,814.999L814.999,814.999c193.661,313.22,356.823,581.176,378.311,603.908l6.98-4.434
			L814.999,814.999z"/>
		<path fill="#891715" d="M814.999,814.999C809.633,818.236,816.644,814.076,814.999,814.999
			c129.258,222.749,290.808,505.741,318.579,537.929l4.624-2.78L814.999,814.999z"/>
		<path fill="#3D878B" d="M814.999,814.999C810.637,817.5,818.051,813.377,814.999,814.999
			c70.932,130.521,230.243,428.191,262.407,469.389l2.643-1.504L814.999,814.999z"/>
	</g>
	<g>
		<path fill="#F5D503" d="M814.999,814.999l242.572,479.933l2.714-1.371c-4.467-13.411-9.651-28.322-14.466-41.6L814.999,814.999
			C812.473,816.37,819.847,812.566,814.999,814.999z"/>
		<path fill="#2301F9" d="M814.999,814.999l266.395,565.601l4.874-2.315c-2.724-9.756-6.217-21.859-9.358-32.281L814.999,814.999
			C813.513,815.757,821.204,812.058,814.999,814.999z"/>
		<path fill="#BBB775" d="M814.999,814.999l285.576,652.922l7.561-3.363C1101.319,1434.993,966.302,1144.652,814.999,814.999
			L814.999,814.999z"/>
		<path fill="#2B6301" d="M814.999,814.999c176.577,436.942,292.395,725.958,302.623,740.638l8.207-3.409
			C1122.658,1534.591,996.884,1242.518,814.999,814.999L814.999,814.999z"/>
		<path fill="#89EDFF" d="M814.999,814.999L814.999,814.999c128.221,344.812,236.336,639.464,253.074,666.18l7.719-2.984
			L814.999,814.999z"/>
		<path fill="#DDB115" d="M814.999,814.999C809.154,817.103,816.81,814.413,814.999,814.999
			c82.964,243.807,186.558,552.735,207.463,589.752l5.08-1.819L814.999,814.999z"/>
		<path fill="#AFBDD9" d="M814.999,814.999C810.215,816.597,818.103,814.074,814.999,814.999
			c43.932,142.015,142.408,464.766,165.854,511.508l2.887-0.955L814.999,814.999z"/>
	</g>
	<g>
		<path fill="#5B41DF" d="M814.999,814.999L959.33,1332.95l2.933-0.807c-1.758-14.167-3.948-29.991-6.01-43.64L814.999,814.999
			C811.817,815.977,819.831,813.686,814.999,814.999z"/>
		<path fill="#43CF0D" d="M814.999,814.999l150.869,606.626l5.234-1.303c-0.805-10.758-1.813-22.676-2.843-33.504L814.999,814.999
			C813.544,815.43,819.161,813.973,814.999,814.999z"/>
		<path fill="#11E983" d="M814.999,814.999l152.569,696.003l8.063-1.794C974.737,1478.885,898.659,1167.833,814.999,814.999
			C813.886,815.283,822.101,813.425,814.999,814.999z"/>
		<path fill="#0FEB09" d="M814.999,814.999c87.657,463.049,145.012,768.942,152.154,785.347l8.688-1.707
			C976.175,1580.736,911.114,1277.17,814.999,814.999L814.999,814.999z"/>
		<path fill="#0BE3B7" d="M814.999,814.999L814.999,814.999c58.491,363.606,107.092,673.353,118.188,702.622l8.132-1.385
			L814.999,814.999z"/>
		<path fill="#431B17" d="M814.999,814.999L814.999,814.999c34.36,258.722,75.07,578.17,88.409,618.756l5.333-0.767L814.999,814.999
			z"/>
		<path fill="#07991F" d="M814.999,814.999L814.999,814.999c15.579,148.228,48.866,483.366,62.823,533.909l3.026-0.356
			L814.999,814.999z"/>
	</g>
	<g>
		<path fill="#69B311" d="M814.999,814.999l40.421,536.099c1.29-0.085,2.102-0.129,3.038-0.23
			c0.987-13.905,1.933-30.09,2.571-44.006L814.999,814.999C808.761,815.586,816.923,814.882,814.999,814.999z"/>
		<path fill="#51C353" d="M814.999,814.999l29.702,624.357c4.253-0.179,3.068-0.117,5.382-0.27
			c1.263-10.566,2.616-22.866,3.678-33.454L814.999,814.999C809.45,815.386,817.764,814.898,814.999,814.999z"/>
		<path fill="#4D252D" d="M814.999,814.999l14.145,712.372c6.793-0.119,5.061-0.075,8.25-0.201
			C842.356,1497.157,829.022,1177.423,814.999,814.999C811.052,815.179,819.032,814.938,814.999,814.999z"/>
		<path fill="#F9EB21" d="M814.999,814.999c-3.28,472.16-7.343,782.437-3.488,799.965c6.404,0.044,4.668,0.051,8.858-0.006
			C824.149,1597.405,820.127,1279.57,814.999,814.999C811.518,815.068,819.944,815.063,814.999,814.999z"/>
		<path fill="#B5AD55" d="M814.999,814.999C812.577,814.99,820.928,815.217,814.999,814.999
			c-12.784,367.739-26.171,681.144-20.887,712.246c5.07,0.166,3.294,0.123,8.26,0.192L814.999,814.999z"/>
		<path fill="#81DF0B" d="M814.999,814.999C813.294,814.941,821.88,815.414,814.999,814.999
			c-16.331,260.415-39.189,581.742-33.938,624.209c3.243,0.191,4.082,0.253,5.387,0.282L814.999,814.999z"/>
		<path fill="#9D79C5" d="M814.999,814.999L814.999,814.999c-13.465,148.26-46.496,483.735-42.621,536.016l3.03,0.259
			L814.999,814.999z"/>
	</g>
	<g>
		<path fill="#B51B0F" d="M814.999,814.999l-64.979,533.813l3.023,0.331c3.664-13.417,7.735-29.111,11.055-42.625L814.999,814.999
			L814.999,814.999z"/>
		<path fill="#89A157" d="M814.999,814.999L722.293,1433.3c1.007,0.156,0.201,0.044,5.344,0.743
			c3.301-10.102,7.034-21.916,10.133-32.066L814.999,814.999C814.716,814.961,815.182,815.032,814.999,814.999z"/>
		<path fill="#77D98B" d="M814.999,814.999l-125.205,701.56c3.697,0.683,2.138,0.413,8.157,1.391
			C708.694,1489.523,757.926,1173.133,814.999,814.999C811.059,814.372,816.518,815.31,814.999,814.999z"/>
		<path fill="#A9EFBD" d="M814.999,814.999c-95.779,462.35-160.058,766.037-159.705,783.991c3.764,0.789,2.189,0.477,8.72,1.71
			C671.17,1584.24,729.042,1271.596,814.999,814.999C809.985,814.083,818.555,815.768,814.999,814.999z"/>
		<path fill="#D7E3D3" d="M814.999,814.999C811.595,814.29,819.903,816.187,814.999,814.999
			c-84.651,357.805-158.679,662.838-159.602,694.551c3.657,0.865,2.135,0.523,8.078,1.794L814.999,814.999z"/>
		<path fill="#8D7F4D" d="M814.999,814.999C813.528,814.674,819.14,816.102,814.999,814.999
			c-67.155,252.09-151.94,563.011-155.129,605.659c3.132,0.826,2.011,0.544,5.232,1.319L814.999,814.999z"/>
		<path fill="#A52DEF" d="M814.999,814.999L814.999,814.999c-42.32,142.669-139.839,465.43-146.318,517.477
			c1.567,0.457,2.147,0.631,2.922,0.843L814.999,814.999z"/>
	</g>
	<g>
		<path fill="#1F070B" d="M814.999,814.999l-167.804,510.919l2.899,0.919c6.232-12.44,13.304-27.021,19.216-39.62L814.999,814.999
			L814.999,814.999z"/>
		<path fill="#679191" d="M814.999,814.999l-211.59,588.308c1,0.372,0.501,0.198,5.091,1.784
			c5.221-9.258,11.194-20.092,16.237-29.452L814.999,814.999C808.203,812.656,816.061,815.402,814.999,814.999z"/>
		<path fill="#89C365" d="M814.999,814.999L555.2,1478.565c4.613,1.826,2.96,1.191,7.716,2.97
			C579.038,1455.755,688.681,1154.98,814.999,814.999C809.512,812.97,817.315,815.94,814.999,814.999z"/>
		<path fill="#79EFCD" d="M814.999,814.999c-184.627,434.569-306.604,719.962-309.785,737.629c4.892,2.078,3.152,1.359,8.197,3.394
			C523.655,1541.281,641.081,1245.854,814.999,814.999C811.273,813.527,818.597,816.558,814.999,814.999z"/>
		<path fill="#695B29" d="M814.999,814.999C812.511,813.946,820.269,817.427,814.999,814.999
			c-153.413,334.857-285.075,619.42-292.115,649.956c4.608,2.1,3.003,1.387,7.555,3.351L814.999,814.999z"/>
		<path fill="#D3D907" d="M814.999,814.999C814.668,814.862,815.321,815.156,814.999,814.999
			c-115.237,234.1-258.805,522.451-270.294,563.67c2.828,1.376,3.648,1.787,4.861,2.335L814.999,814.999z"/>
		<path fill="#21F78D" d="M814.999,814.999L814.999,814.999c-69.46,131.735-227.866,429.168-244.388,478.919l2.702,1.4
			L814.999,814.999z"/>
	</g>
	<g>
		<path fill="#97D535" d="M814.999,814.999L550.803,1283.29c0.688,0.404,1.202,0.675,2.662,1.475
			c8.548-10.99,18.342-23.915,26.605-35.116L814.999,814.999C814.734,814.854,815.173,815.105,814.999,814.999z"/>
		<path fill="#199D31" d="M814.999,814.999l-322.238,535.625c2.767,1.691,1.763,1.092,4.627,2.767
			c6.929-8.065,14.916-17.543,21.681-25.731L814.999,814.999C809.758,811.975,817.036,816.26,814.999,814.999z"/>
		<path fill="#53DD21" d="M814.999,814.999l-384.185,600.052c4.239,2.73,5.263,3.405,6.965,4.433
			C458.623,1397.322,624.771,1123.851,814.999,814.999C811.553,812.909,818.306,817.15,814.999,814.999z"/>
		<path fill="#251D99" d="M814.999,814.999c-265.204,389.57-441.055,646.28-447.614,662.976c6.723,4.556,6.032,4.083,7.349,4.938
			C387.653,1470.437,560.47,1203.713,814.999,814.999C812.745,813.559,819.754,818.249,814.999,814.999z"/>
		<path fill="#3B57E3" d="M814.999,814.999C814.439,814.623,815.55,815.393,814.999,814.999
			c-215.383,298.298-400.258,551.663-413.193,580.438c6.538,4.669,5.462,3.903,6.734,4.774L814.999,814.999z"/>
		<path fill="#314BA1" d="M814.999,814.999L814.999,814.999c-158.559,207.269-355.749,461.914-374.998,500.052l4.31,3.239
			L814.999,814.999z"/>
		<path fill="#5327E9" d="M814.999,814.999L814.999,814.999c-93.733,115.751-307.255,376.361-333.116,421.953l2.388,1.888
			L814.999,814.999z"/>
	</g>
	<g>
		<path fill="#9F67A5" d="M814.999,814.999L464.52,1222.663l2.296,1.999c10.54-9.141,22.658-19.921,32.938-29.304L814.999,814.999
			C810.517,811.297,817.004,816.762,814.999,814.999z"/>
		<path fill="#E16D67" d="M814.999,814.999l-420.491,462.46l3.982,3.635C432.413,1254.354,642.363,1011.977,814.999,814.999
			C811.954,812.366,817.897,817.669,814.999,814.999z"/>
		<path fill="#1BFB91" d="M814.999,814.999l-493.765,513.654l5.965,5.707C351.916,1316.69,568.48,1081.056,814.999,814.999
			C813.226,813.395,819.362,819.198,814.999,814.999z"/>
		<path fill="#7D0F4F" d="M814.999,814.999c-335.742,330.72-558.551,548.009-568.197,563.078l6.252,6.271
			C268.124,1374.639,489.919,1146.929,814.999,814.999C814.89,814.899,815.103,815.103,814.999,814.999z"/>
		<path fill="#C5FDC3" d="M814.999,814.999L814.999,814.999c-269.421,251.07-500.298,463.265-518.421,488.784l5.685,5.988
			L814.999,814.999z"/>
		<path fill="#87ABCF" d="M814.999,814.999L814.999,814.999c-193.377,170.436-439.226,383.846-465.358,417.336l3.616,4
			L814.999,814.999z"/>
		<path fill="#311D65" d="M814.999,814.999C812.379,811.966,815.967,816.221,814.999,814.999
			c-113.385,94.473-374.785,309.022-409.114,348.854l1.986,2.306L814.999,814.999z"/>
	</g>
	<g>
		<path fill="#751D85" d="M814.999,814.999l-423.353,331.462l1.871,2.399C439.832,1122.282,698.35,909.968,814.999,814.999
			C812.446,811.902,817.399,818.101,814.999,814.999z"/>
		<path fill="#3F33A7" d="M814.999,814.999l-502.689,371.605l3.216,4.33c9.683-4.912,20.215-10.389,29.836-15.515L814.999,814.999
			C813.54,813.15,818.646,819.932,814.999,814.999z"/>
		<path fill="#8F8D63" d="M814.999,814.999l-584.542,407.55l4.767,6.753C262.873,1216.815,521.413,1028.008,814.999,814.999
			C814.92,814.897,815.073,815.104,814.999,814.999z"/>
		<path fill="#899171" d="M814.999,814.999c-393.765,258.935-654.803,428.595-667.194,441.501l4.94,7.372
			C169.41,1257.3,431.565,1077.202,814.999,814.999L814.999,814.999z"/>
		<path fill="#299FC1" d="M814.999,814.999L814.999,814.999c-313.22,193.661-581.176,356.823-603.908,378.311l4.434,6.98
			L814.999,814.999z"/>
		<path fill="#D7E587" d="M814.999,814.999C811.765,809.639,815.918,816.639,814.999,814.999
			C592.25,944.257,309.258,1105.807,277.07,1133.578l2.78,4.624L814.999,814.999z"/>
		<path fill="#E90B93" d="M814.999,814.999C812.492,810.626,816.626,818.061,814.999,814.999
			c-130.52,70.932-428.191,230.243-469.389,262.406l1.504,2.643L814.999,814.999z"/>
	</g>
	<g>
		<path fill="#2BDF07" d="M814.999,814.999l-479.933,242.572l1.371,2.714c13.395-4.461,28.294-9.641,41.6-14.466L814.999,814.999
			C813.645,812.504,817.45,819.883,814.999,814.999z"/>
		<path fill="#0D052F" d="M814.999,814.999l-565.601,266.395l2.315,4.874c9.747-2.721,21.85-6.214,32.281-9.358L814.999,814.999
			C814.237,813.506,817.942,821.21,814.999,814.999z"/>
		<path fill="#138BF5" d="M814.999,814.999l-652.922,285.576l3.363,7.561C195.005,1101.319,485.347,966.301,814.999,814.999
			L814.999,814.999z"/>
		<path fill="#0D61E5" d="M814.999,814.999C378.057,991.576,89.041,1107.394,74.361,1117.622l3.409,8.207
			C95.407,1122.658,387.48,996.884,814.999,814.999L814.999,814.999z"/>
		<path fill="#85836F" d="M814.999,814.999L814.999,814.999c-344.79,128.213-639.453,236.329-666.18,253.074l2.984,7.718
			L814.999,814.999z"/>
		<path fill="#A79141" d="M814.999,814.999C812.897,809.16,815.584,816.809,814.999,814.999
			c-243.807,82.964-552.735,186.557-589.752,207.463l1.819,5.08L814.999,814.999z"/>
		<path fill="#3BA7A9" d="M814.999,814.999C813.398,810.206,815.917,818.082,814.999,814.999
			c-142.014,43.932-464.77,142.41-511.508,165.854l0.955,2.887L814.999,814.999z"/>
	</g>
	<g>
		<path fill="#75C577" d="M814.999,814.999L297.047,959.33l0.807,2.933c14.11-1.751,29.935-3.94,43.64-6.01L814.999,814.999
			C814.016,811.801,816.315,819.844,814.999,814.999z"/>
		<path fill="#8BF541" d="M814.999,814.999L208.373,965.868l1.303,5.234c10.777-0.806,22.698-1.815,33.504-2.843L814.999,814.999
			C814.57,813.549,816.022,819.148,814.999,814.999z"/>
		<path fill="#3B11A1" d="M814.999,814.999L118.996,967.568l1.794,8.063C151.113,974.737,462.077,898.68,814.999,814.999
			C814.718,813.9,816.562,822.052,814.999,814.999z"/>
		<path fill="#E5F9CF" d="M814.999,814.999C351.95,902.656,46.057,960.011,29.652,967.153l1.707,8.688
			C49.262,976.175,352.828,911.114,814.999,814.999L814.999,814.999z"/>
		<path fill="#F1515D" d="M814.999,814.999L814.999,814.999C451.393,873.49,141.646,922.091,112.376,933.187l1.385,8.132
			L814.999,814.999z"/>
		<path fill="#9F8F03" d="M814.999,814.999L814.999,814.999c-258.708,34.358-578.17,75.069-618.756,88.409l0.767,5.333
			L814.999,814.999z"/>
		<path fill="#B393EF" d="M814.999,814.999L814.999,814.999c-148.228,15.579-483.364,48.866-533.909,62.823l0.356,3.026
			L814.999,814.999z"/>
	</g>
	<g>
		<path fill="#B101EF" d="M814.999,814.999L278.9,855.42c0.085,1.288,0.129,2.102,0.23,3.038
			c13.913,0.988,30.103,1.934,44.006,2.571L814.999,814.999C814.414,808.78,815.115,816.913,814.999,814.999z"/>
		<path fill="#C787C3" d="M814.999,814.999L190.642,844.7c0.178,4.223,0.117,3.073,0.269,5.382
			c10.562,1.263,22.867,2.616,33.454,3.678L814.999,814.999C814.61,809.433,815.1,817.769,814.999,814.999z"/>
		<path fill="#EB3D35" d="M814.999,814.999l-712.372,14.145c0.119,6.772,0.074,5.038,0.201,8.25
			C132.84,842.356,452.54,829.024,814.999,814.999C814.818,811.05,815.06,819.033,814.999,814.999z"/>
		<path fill="#93A987" d="M814.999,814.999c-472.16-3.28-782.437-7.343-799.965-3.488c-0.043,6.362-0.051,4.653,0.006,8.858
			C32.593,824.149,350.428,820.127,814.999,814.999C814.93,811.537,814.934,819.929,814.999,814.999z"/>
		<path fill="#CDB531" d="M814.999,814.999C815.008,812.578,814.78,820.958,814.999,814.999
			c-368.105-12.797-681.351-26.135-712.246-20.887c-0.162,4.959-0.122,3.188-0.192,8.26L814.999,814.999z"/>
		<path fill="#A123D3" d="M814.999,814.999C815.057,813.281,814.581,821.922,814.999,814.999
			c-260.415-16.331-581.742-39.189-624.209-33.938c-0.191,3.243-0.252,4.082-0.282,5.387L814.999,814.999z"/>
		<path fill="#4DB937" d="M814.999,814.999L814.999,814.999c-148.26-13.465-483.738-46.496-536.016-42.621l-0.259,3.031
			L814.999,814.999z"/>
	</g>
	<g>
		<path fill="#330D03" d="M814.999,814.999L281.186,750.02l-0.331,3.023c13.421,3.665,29.11,7.735,42.625,11.055L814.999,814.999
			L814.999,814.999z"/>
		<path fill="#77A999" d="M814.999,814.999l-618.301-92.706c-0.159,1.026-0.04,0.176-0.743,5.344
			c10.101,3.3,21.899,7.029,32.066,10.133L814.999,814.999C815.037,814.716,814.965,815.183,814.999,814.999z"/>
		<path fill="#13EB2B" d="M814.999,814.999l-701.56-125.205c-0.684,3.699-0.414,2.146-1.391,8.157
			C140.475,708.694,456.864,757.926,814.999,814.999C815.625,811.061,814.688,816.519,814.999,814.999z"/>
		<path fill="#F7E3D7" d="M814.999,814.999C352.649,719.219,48.962,654.941,31.008,655.294c-0.795,3.791-0.481,2.205-1.71,8.72
			C45.758,671.17,358.402,729.042,814.999,814.999C815.911,810.003,814.232,818.541,814.999,814.999z"/>
		<path fill="#FDF36B" d="M814.999,814.999C815.704,811.614,813.819,819.87,814.999,814.999
			c-357.805-84.651-662.84-158.679-694.551-159.602c-0.866,3.663-0.524,2.14-1.794,8.078L814.999,814.999z"/>
		<path fill="#1FA34F" d="M814.999,814.999C815.325,813.523,813.892,819.155,814.999,814.999
			c-252.09-67.155-563.011-151.94-605.659-155.129c-0.826,3.132-0.544,2.01-1.319,5.232L814.999,814.999z"/>
		<path fill="#73D571" d="M814.999,814.999L814.999,814.999c-142.669-42.32-465.43-139.839-517.477-146.318
			c-0.457,1.566-0.631,2.147-0.843,2.922L814.999,814.999z"/>
	</g>
	<g>
		<path fill="#B72FD5" d="M814.999,814.999L304.08,647.195l-0.919,2.899c12.441,6.233,27.019,13.303,39.62,19.216L814.999,814.999
			L814.999,814.999z"/>
		<path fill="#C5DB59" d="M814.999,814.999L226.69,603.409c-0.371,1-0.199,0.503-1.784,5.091
			c9.369,5.284,20.21,11.258,29.452,16.237L814.999,814.999C817.344,808.197,814.598,816.055,814.999,814.999z"/>
		<path fill="#6137D3" d="M814.999,814.999L151.433,555.2c-1.868,4.719-1.232,3.071-2.97,7.716
			C174.242,579.038,475.018,688.681,814.999,814.999C817.032,809.501,814.054,817.324,814.999,814.999z"/>
		<path fill="#E9D77B" d="M814.999,814.999C380.43,630.371,95.037,508.395,77.37,505.214c-2.082,4.902-1.356,3.144-3.394,8.197
			C88.717,523.655,384.144,641.081,814.999,814.999C816.471,811.273,813.44,818.597,814.999,814.999z"/>
		<path fill="#39EFBF" d="M814.999,814.999C816.046,812.524,812.576,820.26,814.999,814.999
			c-334.857-153.413-619.42-285.075-649.956-292.115c-2.104,4.616-1.387,3.003-3.351,7.555L814.999,814.999z"/>
		<path fill="#DFC53F" d="M814.999,814.999C815.136,814.668,814.842,815.321,814.999,814.999
			c-234.1-115.237-522.451-258.805-563.67-270.294c-1.373,2.823-1.787,3.648-2.335,4.861L814.999,814.999z"/>
		<path fill="#4B914F" d="M814.999,814.999L814.999,814.999c-131.735-69.46-429.168-227.865-478.919-244.388l-1.4,2.702
			L814.999,814.999z"/>
	</g>
	<g>
		<path fill="#59D3CF" d="M814.999,814.999L346.708,550.803c-0.404,0.688-0.678,1.206-1.475,2.662
			c10.99,8.548,23.915,18.342,35.116,26.605L814.999,814.999C815.143,814.735,814.892,815.173,814.999,814.999z"/>
		<path fill="#C9F1F1" d="M814.999,814.999L279.374,492.761c-1.73,2.829-1.131,1.83-2.767,4.627
			c7.954,6.834,17.426,14.819,25.731,21.681L814.999,814.999C818.005,809.789,813.723,817.059,814.999,814.999z"/>
		<path fill="#7D97C3" d="M814.999,814.999L214.947,430.814c-2.649,4.113-3.389,5.236-4.433,6.965
			C232.673,458.62,506.181,624.792,814.999,814.999C817.089,811.553,812.848,818.306,814.999,814.999z"/>
		<path fill="#9DDDBF" d="M814.999,814.999c-389.57-265.204-646.28-441.055-662.976-447.614c-4.552,6.717-4.085,6.036-4.938,7.349
			C159.561,387.653,426.285,560.469,814.999,814.999C816.438,812.747,811.729,819.783,814.999,814.999z"/>
		<path fill="#DD4F71" d="M814.999,814.999C815.38,814.431,814.599,815.557,814.999,814.999
			C516.701,599.616,263.336,414.741,234.561,401.805c-4.639,6.496-3.889,5.441-4.774,6.734L814.999,814.999z"/>
		<path fill="#BDDD93" d="M814.999,814.999L814.999,814.999C607.73,656.44,353.085,459.25,314.947,440.001l-3.239,4.31
			L814.999,814.999z"/>
		<path fill="#F963CF" d="M814.999,814.999L814.999,814.999c-115.754-93.736-376.36-307.254-421.953-333.116l-1.888,2.388
			L814.999,814.999z"/>
	</g>
	<g>
		<path fill="#3D0DB7" d="M814.999,814.999L407.335,464.52l-1.998,2.296c9.133,10.531,19.918,22.655,29.304,32.938L814.999,814.999
			C818.692,810.527,813.241,816.999,814.999,814.999z"/>
		<path fill="#5BDFB3" d="M814.999,814.999l-462.46-420.491l-3.634,3.982C375.629,432.395,618.021,642.362,814.999,814.999
			C817.636,811.948,812.328,817.897,814.999,814.999z"/>
		<path fill="#738D43" d="M814.999,814.999L301.345,321.234l-5.707,5.965C313.307,351.916,548.933,568.472,814.999,814.999
			C816.604,813.224,810.793,819.37,814.999,814.999z"/>
		<path fill="#EB47E1" d="M814.999,814.999C484.279,479.257,266.99,256.448,251.921,246.802l-6.272,6.252
			C255.359,268.124,483.069,489.919,814.999,814.999C815.097,814.891,814.895,815.102,814.999,814.999z"/>
		<path fill="#CF2395" d="M814.999,814.999L814.999,814.999c-251.07-269.42-463.264-500.297-488.784-518.421l-5.988,5.685
			L814.999,814.999z"/>
		<path fill="#19A1EF" d="M814.999,814.999L814.999,814.999C644.63,621.698,431.155,375.774,397.663,349.641l-4,3.616
			L814.999,814.999z"/>
		<path fill="#F1A105" d="M814.999,814.999C818.029,812.381,813.776,815.967,814.999,814.999
			C720.53,701.62,505.99,440.225,466.145,405.885l-2.306,1.986L814.999,814.999z"/>
	</g>
	<g>
		<path fill="#731D00" d="M814.999,814.999L483.537,391.646l-2.399,1.871C507.716,439.832,720.029,698.35,814.999,814.999
			C818.035,812.496,811.817,817.461,814.999,814.999z"/>
		<path fill="#13F343" d="M814.999,814.999L443.394,312.309l-4.33,3.216c4.92,9.697,10.39,20.216,15.515,29.836L814.999,814.999
			C816.842,813.545,810.067,818.645,814.999,814.999z"/>
		<path fill="#7F0D6F" d="M814.999,814.999l-407.55-584.542l-6.753,4.767C413.185,262.878,601.993,521.418,814.999,814.999
			C815.102,814.919,814.892,815.074,814.999,814.999z"/>
		<path fill="#5B8D39" d="M814.999,814.999C556.064,421.234,386.404,160.196,373.497,147.805l-7.372,4.94
			C372.698,169.41,552.795,431.565,814.999,814.999L814.999,814.999z"/>
		<path fill="#F3B7BB" d="M814.999,814.999L814.999,814.999c-193.661-313.22-356.823-581.176-378.311-603.908l-6.98,4.434
			L814.999,814.999z"/>
		<path fill="#89DD2F" d="M814.999,814.999C820.358,811.766,813.359,815.918,814.999,814.999
			C686.008,592.71,524.178,309.244,496.42,277.07l-4.624,2.78L814.999,814.999z"/>
		<path fill="#672F6D" d="M814.999,814.999C819.365,812.496,811.941,816.624,814.999,814.999
			c-70.932-130.52-230.243-428.191-262.406-469.389l-2.643,1.504L814.999,814.999z"/>
	</g>
	<g>
		<path fill="#953FDD" d="M814.999,814.999L572.427,335.066l-2.714,1.371c4.46,13.392,9.641,28.295,14.466,41.6L814.999,814.999
			C817.525,813.628,810.125,817.445,814.999,814.999z"/>
		<path fill="#4371CB" d="M814.999,814.999L548.604,249.398l-4.874,2.315c2.725,9.76,6.217,21.86,9.358,32.281L814.999,814.999
			C816.481,814.243,808.835,817.92,814.999,814.999z"/>
		<path fill="#05EF33" d="M814.999,814.999L529.422,162.077l-7.561,3.363C528.679,195.007,663.691,485.335,814.999,814.999
			L814.999,814.999z"/>
		<path fill="#5BC1B3" d="M814.999,814.999C638.422,378.057,522.604,89.041,512.376,74.361l-8.207,3.409
			C507.34,95.407,633.114,387.48,814.999,814.999L814.999,814.999z"/>
		<path fill="#F5019D" d="M814.999,814.999L814.999,814.999C686.786,470.21,578.67,175.546,561.925,148.819l-7.718,2.984
			L814.999,814.999z"/>
		<path fill="#FDBB95" d="M814.999,814.999C820.827,812.901,813.196,815.582,814.999,814.999
			c-82.964-243.807-186.557-552.735-207.463-589.752l-5.08,1.819L814.999,814.999z"/>
		<path fill="#77CFE5" d="M814.999,814.999C819.78,813.402,811.894,815.924,814.999,814.999
			c-43.932-142.014-142.41-464.77-165.854-511.508l-2.888,0.955L814.999,814.999z"/>
	</g>
	<g>
		<path fill="#EDBD85" d="M814.999,814.999L670.668,297.047l-2.933,0.807c1.744,14.052,3.931,29.879,6.01,43.64L814.999,814.999
			C818.193,814.017,810.154,816.315,814.999,814.999z"/>
		<path fill="#15F76F" d="M814.999,814.999L664.13,208.373l-5.234,1.303c0.806,10.772,1.815,22.698,2.843,33.504L814.999,814.999
			C816.455,814.568,810.839,816.024,814.999,814.999z"/>
		<path fill="#3933C9" d="M814.999,814.999L662.429,118.996l-8.063,1.794C655.26,151.114,731.318,462.077,814.999,814.999
			C816.091,814.719,807.954,816.56,814.999,814.999z"/>
		<path fill="#5FEB03" d="M814.999,814.999C727.341,351.95,669.986,46.057,662.844,29.652l-8.688,1.707
			C653.822,49.262,718.884,352.828,814.999,814.999L814.999,814.999z"/>
		<path fill="#57115B" d="M814.999,814.999L814.999,814.999C756.504,451.373,707.907,141.644,696.81,112.376l-8.132,1.385
			L814.999,814.999z"/>
		<path fill="#8D7FE5" d="M814.999,814.999L814.999,814.999c-34.358-258.708-75.07-578.173-88.409-618.756l-5.333,0.767
			L814.999,814.999z"/>
		<path fill="#1F3739" d="M814.999,814.999L814.999,814.999c-15.58-148.23-48.866-483.364-62.823-533.909l-3.026,0.356
			L814.999,814.999z"/>
	</g>
	<g>
		<path fill="#7D8D7B" d="M814.999,814.999L774.578,278.9c-1.289,0.085-2.102,0.129-3.038,0.23
			c-0.987,13.906-1.933,30.101-2.571,44.006L814.999,814.999C821.237,814.412,813.074,815.116,814.999,814.999z"/>
		<path fill="#599743" d="M814.999,814.999l-29.702-624.357c-4.242,0.179-3.067,0.116-5.382,0.269
			c-1.262,10.558-2.616,22.869-3.678,33.454L814.999,814.999C820.577,814.609,812.225,815.1,814.999,814.999z"/>
		<path fill="#E14D23" d="M814.999,814.999l-14.145-712.372c-6.795,0.119-5.051,0.074-8.25,0.201
			C787.642,132.835,800.977,452.609,814.999,814.999C818.944,814.818,810.966,815.06,814.999,814.999z"/>
		<path fill="#058759" d="M814.999,814.999c3.28-472.16,7.343-782.437,3.488-799.965c-6.361-0.043-4.655-0.051-8.858,0.006
			C805.849,32.593,809.871,350.428,814.999,814.999C818.461,814.93,810.069,814.934,814.999,814.999z"/>
		<path fill="#47DF85" d="M814.999,814.999C817.43,815.008,809.044,814.78,814.999,814.999
			c12.797-368.105,26.135-681.351,20.887-712.246c-5.069-0.166-3.305-0.124-8.26-0.192L814.999,814.999z"/>
		<path fill="#737523" d="M814.999,814.999C816.709,815.057,808.082,814.581,814.999,814.999
			c16.331-260.415,39.189-581.742,33.938-624.209c-3.243-0.191-4.082-0.252-5.387-0.282L814.999,814.999z"/>
		<path fill="#F95FC3" d="M814.999,814.999L814.999,814.999c13.465-148.26,46.496-483.738,42.621-536.016l-3.031-0.259
			L814.999,814.999z"/>
	</g>
	<g>
		<path fill="#216945" d="M814.999,814.999l64.979-533.813l-3.023-0.331c-3.666,13.425-7.734,29.108-11.055,42.625L814.999,814.999
			L814.999,814.999z"/>
		<path fill="#37417B" d="M814.999,814.999l92.706-618.301c-1.024-0.159-0.179-0.041-5.345-0.743
			c-3.303,10.11-7.028,21.896-10.133,32.066L814.999,814.999C815.282,815.037,814.815,814.965,814.999,814.999z"/>
		<path fill="#454177" d="M814.999,814.999l125.205-701.56c-3.702-0.684-2.144-0.414-8.157-1.391
			C921.303,140.475,872.072,456.864,814.999,814.999C818.932,815.624,813.479,814.688,814.999,814.999z"/>
		<path fill="#CFE595" d="M814.999,814.999c95.779-462.35,160.058-766.037,159.705-783.991c-3.797-0.796-2.206-0.481-8.72-1.71
			C958.828,45.758,900.955,358.402,814.999,814.999C819.996,815.911,811.454,814.232,814.999,814.999z"/>
		<path fill="#7DE1A5" d="M814.999,814.999C818.401,815.708,810.095,813.811,814.999,814.999
			c84.651-357.805,158.679-662.838,159.602-694.551c-3.67-0.868-2.127-0.521-8.078-1.794L814.999,814.999z"/>
		<path fill="#0B9B81" d="M814.999,814.999C816.475,815.325,810.842,813.892,814.999,814.999
			c67.167-252.133,151.938-562.988,155.129-605.659c-3.132-0.826-2.01-0.544-5.232-1.319L814.999,814.999z"/>
		<path fill="#9D69F5" d="M814.999,814.999L814.999,814.999c42.32-142.669,139.839-465.429,146.318-517.477
			c-1.56-0.455-2.147-0.631-2.922-0.843L814.999,814.999z"/>
	</g>
	<g>
		<path fill="#879B87" d="M814.999,814.999L982.803,304.08l-2.899-0.919c-6.233,12.442-13.303,27.019-19.216,39.62L814.999,814.999
			L814.999,814.999z"/>
		<path fill="#AB7969" d="M814.999,814.999l211.59-588.308c-1-0.372-0.507-0.2-5.091-1.784
			c-5.222,9.259-11.194,20.091-16.237,29.452L814.999,814.999C821.819,817.35,813.937,814.596,814.999,814.999z"/>
		<path fill="#29D78D" d="M814.999,814.999l259.799-663.566c-4.719-1.868-3.071-1.232-7.716-2.97
			C1050.959,174.242,941.317,475.019,814.999,814.999C820.496,817.032,812.678,814.056,814.999,814.999z"/>
		<path fill="#614BE3" d="M814.999,814.999C999.626,380.43,1121.603,95.037,1124.784,77.37c-4.902-2.082-3.142-1.355-8.197-3.394
			C1106.342,88.717,988.917,384.144,814.999,814.999C818.731,816.474,811.401,813.44,814.999,814.999z"/>
		<path fill="#0D0733" d="M814.999,814.999C817.473,816.045,809.751,812.581,814.999,814.999
			c153.413-334.857,285.075-619.42,292.115-649.956c-4.616-2.104-3.003-1.387-7.555-3.351L814.999,814.999z"/>
		<path fill="#3BFD73" d="M814.999,814.999C815.329,815.135,814.676,814.842,814.999,814.999
			c115.237-234.1,258.805-522.451,270.294-563.67c-2.827-1.376-3.649-1.788-4.861-2.335L814.999,814.999z"/>
		<path fill="#ED49B1" d="M814.999,814.999L814.999,814.999c69.46-131.736,227.865-429.168,244.388-478.919l-2.702-1.4
			L814.999,814.999z"/>
	</g>
	<g>
		<path fill="#E5ED19" d="M814.999,814.999l264.196-468.291c-0.686-0.402-1.208-0.679-2.662-1.475
			c-8.55,10.992-18.34,23.912-26.605,35.116L814.999,814.999C815.263,815.144,814.825,814.892,814.999,814.999z"/>
		<path fill="#CDE571" d="M814.999,814.999l322.238-535.625c-2.825-1.727-1.831-1.132-4.627-2.767
			c-6.818,7.936-14.805,17.409-21.681,25.731L814.999,814.999C820.23,818.017,812.945,813.727,814.999,814.999z"/>
		<path fill="#97AF97" d="M814.999,814.999l384.185-600.052c-4.111-2.647-5.237-3.39-6.965-4.433
			C1171.382,232.669,1005.251,506.107,814.999,814.999C818.445,817.088,811.695,812.85,814.999,814.999z"/>
		<path fill="#F9C363" d="M814.999,814.999c265.204-389.57,441.055-646.28,447.614-662.976c-6.715-4.551-6.036-4.085-7.349-4.938
			C1242.345,159.561,1069.528,426.285,814.999,814.999C817.248,816.436,810.195,811.716,814.999,814.999z"/>
		<path fill="#F5F7BD" d="M814.999,814.999C815.57,815.382,814.439,814.598,814.999,814.999
			c215.383-298.298,400.259-551.665,413.193-580.438c-6.509-4.648-5.458-3.901-6.734-4.774L814.999,814.999z"/>
		<path fill="#51F1E1" d="M814.999,814.999L814.999,814.999c158.559-207.269,355.75-461.917,374.998-500.052l-4.31-3.239
			L814.999,814.999z"/>
		<path fill="#FDFDE9" d="M814.999,814.999L814.999,814.999c93.736-115.754,307.255-376.362,333.117-421.953l-2.388-1.888
			L814.999,814.999z"/>
	</g>
	<g>
		<path fill="#793149" d="M814.999,814.999l350.479-407.664l-2.296-1.998c-10.532,9.134-22.657,19.92-32.938,29.304L814.999,814.999
			C819.455,818.679,812.986,813.229,814.999,814.999z"/>
		<path fill="#21613B" d="M814.999,814.999l420.491-462.46l-3.982-3.634C1197.602,375.628,987.635,618.021,814.999,814.999
			C817.984,817.58,812.031,812.263,814.999,814.999z"/>
		<path fill="#DB6559" d="M814.999,814.999l493.765-513.654l-5.965-5.707C1278.084,313.305,1061.484,548.978,814.999,814.999
			C816.779,816.609,810.626,810.79,814.999,814.999z"/>
		<path fill="#AB29F3" d="M814.999,814.999c335.742-330.72,558.55-548.009,568.197-563.078l-6.252-6.272
			C1361.873,255.359,1140.079,483.069,814.999,814.999C815.107,815.097,814.896,814.895,814.999,814.999z"/>
		<path fill="#D55F9F" d="M814.999,814.999L814.999,814.999c269.304-250.961,500.245-463.19,518.421-488.784l-5.685-5.988
			L814.999,814.999z"/>
		<path fill="#1739E7" d="M814.999,814.999L814.999,814.999c193.291-170.36,439.227-383.846,465.358-417.336l-3.616-4
			L814.999,814.999z"/>
		<path fill="#758749" d="M814.999,814.999C817.621,818.034,814.03,813.775,814.999,814.999
			c113.385-94.473,374.785-309.022,409.114-348.854l-1.986-2.306L814.999,814.999z"/>
	</g>
	<g>
		<path fill="#23C9E9" d="M814.999,814.999l423.353-331.462l-1.871-2.399C1190.186,507.703,931.648,720.029,814.999,814.999
			C817.556,818.101,812.595,811.892,814.999,814.999z"/>
		<path fill="#8D4B2D" d="M814.999,814.999l502.69-371.605l-3.216-4.33c-9.703,4.922-20.218,10.391-29.836,15.515L814.999,814.999
			C816.452,816.84,811.351,810.065,814.999,814.999z"/>
		<path fill="#6B27E7" d="M814.999,814.999l584.542-407.55l-4.767-6.753C1367.12,413.185,1108.58,601.992,814.999,814.999
			C815.078,815.101,814.924,814.893,814.999,814.999z"/>
		<path fill="#63356D" d="M814.999,814.999c393.765-258.935,654.803-428.595,667.194-441.501l-4.94-7.372
			C1460.588,372.698,1198.433,552.795,814.999,814.999L814.999,814.999z"/>
		<path fill="#798D39" d="M814.999,814.999L814.999,814.999c313.22-193.661,581.176-356.823,603.908-378.311l-4.434-6.98
			L814.999,814.999z"/>
		<path fill="#C70B31" d="M814.999,814.999C818.232,820.358,814.074,813.349,814.999,814.999
			c222.737-129.251,505.771-290.835,537.929-318.579l-2.78-4.624L814.999,814.999z"/>
		<path fill="#995335" d="M814.999,814.999C817.51,819.379,813.368,811.931,814.999,814.999
			c130.521-70.932,428.191-230.243,469.389-262.406l-1.504-2.643L814.999,814.999z"/>
	</g>
	<g>
		<path fill="#192343" d="M814.999,814.999l479.933-242.572l-1.371-2.714c-13.411,4.467-28.318,9.65-41.6,14.466L814.999,814.999
			C816.369,817.524,812.546,810.112,814.999,814.999z"/>
		<path fill="#A75D5D" d="M814.999,814.999L1380.6,548.604l-2.315-4.874c-9.752,2.722-21.859,6.217-32.281,9.358L814.999,814.999
			C815.755,816.482,812.078,808.835,814.999,814.999z"/>
		<path fill="#498397" d="M814.999,814.999l652.922-285.576l-3.363-7.561C1434.993,528.679,1144.653,663.695,814.999,814.999
			L814.999,814.999z"/>
		<path fill="#E5C52B" d="M814.999,814.999c436.942-176.577,725.958-292.395,740.638-302.623l-3.409-8.207
			C1534.591,507.34,1242.518,633.114,814.999,814.999L814.999,814.999z"/>
		<path fill="#F5C99F" d="M814.999,814.999L814.999,814.999c344.788-128.212,639.451-236.327,666.18-253.074l-2.984-7.719
			L814.999,814.999z"/>
		<path fill="#4359DB" d="M814.999,814.999C817.097,820.828,814.417,813.198,814.999,814.999
			c243.807-82.964,552.735-186.558,589.752-207.463l-1.819-5.08L814.999,814.999z"/>
		<path fill="#CB2F71" d="M814.999,814.999C816.6,819.792,814.083,811.925,814.999,814.999
			c142.014-43.932,464.766-142.408,511.508-165.854l-0.955-2.887L814.999,814.999z"/>
	</g>
	<g>
		<path fill="#2FA59F" d="M814.999,814.999l517.951-144.331l-0.807-2.933c-14.11,1.751-29.935,3.94-43.64,6.01L814.999,814.999
			C815.989,818.22,813.669,810.101,814.999,814.999z"/>
		<path fill="#C727FD" d="M814.999,814.999l606.626-150.869l-1.303-5.234c-10.777,0.806-22.698,1.815-33.504,2.843L814.999,814.999
			C815.43,816.454,813.973,810.837,814.999,814.999z"/>
		<path fill="#3187C5" d="M814.999,814.999l696.003-152.569l-1.794-8.063C1478.884,655.26,1167.922,731.318,814.999,814.999
			C815.281,816.104,813.429,807.915,814.999,814.999z"/>
		<path fill="#8D7791" d="M814.999,814.999c463.049-87.657,768.942-145.012,785.347-152.154l-1.707-8.688
			C1580.736,653.822,1277.17,718.884,814.999,814.999L814.999,814.999z"/>
		<path fill="#EBEB03" d="M814.999,814.999L814.999,814.999c363.606-58.491,673.353-107.092,702.622-118.188l-1.385-8.132
			L814.999,814.999z"/>
		<path fill="#D54BF3" d="M814.999,814.999L814.999,814.999c258.708-34.358,578.172-75.07,618.756-88.409l-0.767-5.333
			L814.999,814.999z"/>
		<path fill="#EB470B" d="M814.999,814.999L814.999,814.999c148.228-15.579,483.364-48.866,533.909-62.823l-0.356-3.026
			L814.999,814.999z"/>
	</g>
</g>
</svg>
