<svg xmlns="http://www.w3.org/2000/svg" version="1.1" xmlns:xlink="http://www.w3.org/1999/xlink" xmlns:svgjs="http://svgjs.dev/svgjs" viewBox="0 0 800 800"><defs><linearGradient x1="50%" y1="0%" x2="50%" y2="100%" id="ffflurry-grad" gradientTransform="rotate(270)"><stop stop-color="hsl(238, 82%, 13%)" stop-opacity="1" offset="0%"></stop><stop stop-color="hsl(162, 100%, 58%)" stop-opacity="1" offset="45%"></stop><stop stop-color="hsl(270, 73%, 53%)" stop-opacity="1" offset="100%"></stop></linearGradient></defs><rect width="100%" height="100%" fill="hsl(238, 82%, 13%)"></rect><g fill="url(#ffflurry-grad)"><rect width="676" height="2" x="17" y="601" rx="1" transform="rotate(298, 355, 602)" opacity="0.44"></rect><rect width="687" height="2" x="78.5" y="765" rx="1" transform="rotate(298, 422, 766)" opacity="0.20"></rect><rect width="105" height="2" x="368.5" y="663" rx="1" transform="rotate(298, 421, 664)" opacity="0.79"></rect><rect width="522" height="2" x="440" y="745" rx="1" transform="rotate(298, 701, 746)" opacity="0.81"></rect><rect width="556" height="2" x="478" y="136" rx="1" transform="rotate(298, 756, 137)" opacity="0.29"></rect><rect width="285" height="2" x="82.5" y="639" rx="1" transform="rotate(298, 225, 640)" opacity="0.87"></rect><rect width="441" height="2" x="-94.5" y="170" rx="1" transform="rotate(298, 126, 171)" opacity="0.32"></rect><rect width="1042" height="2" x="-479" y="418" rx="1" transform="rotate(298, 42, 419)" opacity="0.29"></rect><rect width="97" height="2" x="12.5" y="38" rx="1" transform="rotate(298, 61, 39)" opacity="0.23"></rect><rect width="728" height="2" x="313" y="211" rx="1" transform="rotate(298, 677, 212)" opacity="0.23"></rect><rect width="792" height="2" x="175" y="769" rx="1" transform="rotate(298, 571, 770)" opacity="0.57"></rect><rect width="1278" height="2" x="-156" y="287" rx="1" transform="rotate(298, 483, 288)" opacity="0.21"></rect><rect width="143" height="2" x="228.5" y="662" rx="1" transform="rotate(298, 300, 663)" opacity="0.32"></rect><rect width="139" height="2" x="-7.5" y="748" rx="1" transform="rotate(298, 62, 749)" opacity="0.41"></rect><rect width="331" height="2" x="447.5" y="530" rx="1" transform="rotate(298, 613, 531)" opacity="0.95"></rect><rect width="706" height="2" x="69" y="199" rx="1" transform="rotate(298, 422, 200)" opacity="0.94"></rect><rect width="1360" height="2" x="-245" y="497" rx="1" transform="rotate(298, 435, 498)" opacity="0.82"></rect><rect width="299" height="2" x="-103.5" y="131" rx="1" transform="rotate(298, 46, 132)" opacity="0.34"></rect><rect width="164" height="2" x="233" y="270" rx="1" transform="rotate(298, 315, 271)" opacity="0.75"></rect><rect width="925" height="2" x="296.5" y="197" rx="1" transform="rotate(298, 759, 198)" opacity="0.68"></rect><rect width="471" height="2" x="500.5" y="87" rx="1" transform="rotate(298, 736, 88)" opacity="0.91"></rect><rect width="470" height="2" x="-196" y="267" rx="1" transform="rotate(298, 39, 268)" opacity="0.39"></rect><rect width="396" height="2" x="572" y="380" rx="1" transform="rotate(298, 770, 381)" opacity="0.88"></rect><rect width="973" height="2" x="-164.5" y="72" rx="1" transform="rotate(298, 322, 73)" opacity="0.53"></rect><rect width="491" height="2" x="15.5" y="450" rx="1" transform="rotate(298, 261, 451)" opacity="0.10"></rect><rect width="927" height="2" x="-262.5" y="743" rx="1" transform="rotate(298, 201, 744)" opacity="0.66"></rect><rect width="175" height="2" x="480.5" y="397" rx="1" transform="rotate(298, 568, 398)" opacity="0.47"></rect><rect width="581" height="2" x="-39.5" y="360" rx="1" transform="rotate(298, 251, 361)" opacity="0.68"></rect><rect width="53" height="2" x="649.5" y="443" rx="1" transform="rotate(298, 676, 444)" opacity="0.75"></rect><rect width="995" height="2" x="-368.5" y="683" rx="1" transform="rotate(298, 129, 684)" opacity="0.50"></rect><rect width="989" height="2" x="177.5" y="648" rx="1" transform="rotate(298, 672, 649)" opacity="0.51"></rect><rect width="331" height="2" x="478.5" y="766" rx="1" transform="rotate(298, 644, 767)" opacity="0.24"></rect><rect width="145" height="2" x="189.5" y="547" rx="1" transform="rotate(298, 262, 548)" opacity="0.40"></rect><rect width="153" height="2" x="102.5" y="369" rx="1" transform="rotate(298, 179, 370)" opacity="0.24"></rect><rect width="708" height="2" x="-267" y="515" rx="1" transform="rotate(298, 87, 516)" opacity="0.57"></rect><rect width="608" height="2" x="232" y="491" rx="1" transform="rotate(298, 536, 492)" opacity="0.79"></rect><rect width="793" height="2" x="100.5" y="763" rx="1" transform="rotate(298, 497, 764)" opacity="0.10"></rect><rect width="1485" height="2" x="-698.5" y="608" rx="1" transform="rotate(298, 44, 609)" opacity="0.95"></rect><rect width="429" height="2" x="-108.5" y="352" rx="1" transform="rotate(298, 106, 353)" opacity="0.73"></rect><rect width="68" height="2" x="728" y="439" rx="1" transform="rotate(298, 762, 440)" opacity="0.94"></rect><rect width="62" height="2" x="684" y="342" rx="1" transform="rotate(298, 715, 343)" opacity="0.88"></rect><rect width="39" height="2" x="502.5" y="580" rx="1" transform="rotate(298, 522, 581)" opacity="0.97"></rect><rect width="1000" height="2" x="-261" y="150" rx="1" transform="rotate(298, 239, 151)" opacity="0.77"></rect><rect width="385" height="2" x="567.5" y="488" rx="1" transform="rotate(298, 760, 489)" opacity="0.36"></rect><rect width="357" height="2" x="358.5" y="40" rx="1" transform="rotate(298, 537, 41)" opacity="0.39"></rect><rect width="144" height="2" x="694" y="726" rx="1" transform="rotate(298, 766, 727)" opacity="0.10"></rect><rect width="1142" height="2" x="80" y="51" rx="1" transform="rotate(298, 651, 52)" opacity="0.66"></rect><rect width="366" height="2" x="309" y="688" rx="1" transform="rotate(298, 492, 689)" opacity="0.93"></rect><rect width="509" height="2" x="433.5" y="536" rx="1" transform="rotate(298, 688, 537)" opacity="0.90"></rect><rect width="615" height="2" x="38.5" y="489" rx="1" transform="rotate(298, 346, 490)" opacity="0.92"></rect><rect width="925" height="2" x="-298.5" y="583" rx="1" transform="rotate(298, 164, 584)" opacity="0.43"></rect><rect width="975" height="2" x="264.5" y="273" rx="1" transform="rotate(298, 752, 274)" opacity="0.48"></rect><rect width="518" height="2" x="-140" y="237" rx="1" transform="rotate(298, 119, 238)" opacity="0.62"></rect><rect width="313" height="2" x="283.5" y="582" rx="1" transform="rotate(298, 440, 583)" opacity="0.79"></rect><rect width="986" height="2" x="-270" y="226" rx="1" transform="rotate(298, 223, 227)" opacity="0.74"></rect><rect width="425" height="2" x="-46.5" y="460" rx="1" transform="rotate(298, 166, 461)" opacity="0.50"></rect><rect width="1331" height="2" x="-259.5" y="52" rx="1" transform="rotate(298, 406, 53)" opacity="0.82"></rect><rect width="120" height="2" x="402" y="402" rx="1" transform="rotate(298, 462, 403)" opacity="0.51"></rect><rect width="185" height="2" x="264.5" y="366" rx="1" transform="rotate(298, 357, 367)" opacity="0.35"></rect><rect width="964" height="2" x="-226" y="54" rx="1" transform="rotate(298, 256, 55)" opacity="0.29"></rect><rect width="613" height="2" x="462.5" y="546" rx="1" transform="rotate(298, 769, 547)" opacity="0.86"></rect><rect width="823" height="2" x="336.5" y="613" rx="1" transform="rotate(298, 748, 614)" opacity="0.26"></rect><rect width="956" height="2" x="37" y="138" rx="1" transform="rotate(298, 515, 139)" opacity="0.36"></rect><rect width="993" height="2" x="-162.5" y="165" rx="1" transform="rotate(298, 334, 166)" opacity="0.55"></rect><rect width="285" height="2" x="610.5" y="28" rx="1" transform="rotate(298, 753, 29)" opacity="0.59"></rect><rect width="686" height="2" x="255" y="258" rx="1" transform="rotate(298, 598, 259)" opacity="0.48"></rect><rect width="612" height="2" x="58" y="734" rx="1" transform="rotate(298, 364, 735)" opacity="0.37"></rect><rect width="526" height="2" x="313" y="635" rx="1" transform="rotate(298, 576, 636)" opacity="0.41"></rect><rect width="416" height="2" x="78" y="758" rx="1" transform="rotate(298, 286, 759)" opacity="0.48"></rect><rect width="941" height="2" x="155.5" y="144" rx="1" transform="rotate(298, 626, 145)" opacity="0.85"></rect><rect width="840" height="2" x="-240" y="291" rx="1" transform="rotate(298, 180, 292)" opacity="0.68"></rect><rect width="594" height="2" x="294" y="707" rx="1" transform="rotate(298, 591, 708)" opacity="0.21"></rect><rect width="143" height="2" x="105.5" y="30" rx="1" transform="rotate(298, 177, 31)" opacity="0.32"></rect><rect width="302" height="2" x="481" y="347" rx="1" transform="rotate(298, 632, 348)" opacity="0.47"></rect><rect width="500" height="2" x="-93" y="101" rx="1" transform="rotate(298, 157, 102)" opacity="0.30"></rect></g></svg>