<svg xmlns="http://www.w3.org/2000/svg" version="1.1" xmlns:xlink="http://www.w3.org/1999/xlink" xmlns:svgjs="http://svgjs.dev/svgjs" viewBox="0 0 800 800" opacity="0.35"><defs><linearGradient x1="50%" y1="0%" x2="50%" y2="100%" id="ggglitch-grad"><stop stop-color="hsl(206, 75%, 49%)" stop-opacity="1" offset="45%"></stop><stop stop-color="hsl(331, 90%, 56%)" stop-opacity="1" offset="100%"></stop></linearGradient><clipPath id="SvgjsClipPath1346"><rect width="14.035087719298245" height="800" x="0" y="0"></rect><rect width="14.035087719298245" height="800" x="28.07017543859649" y="0"></rect><rect width="14.035087719298245" height="800" x="56.14035087719298" y="0"></rect><rect width="14.035087719298245" height="800" x="84.21052631578947" y="0"></rect><rect width="14.035087719298245" height="800" x="112.28070175438596" y="0"></rect><rect width="14.035087719298245" height="800" x="140.35087719298244" y="0"></rect><rect width="14.035087719298245" height="800" x="168.42105263157893" y="0"></rect><rect width="14.035087719298245" height="800" x="196.49122807017542" y="0"></rect><rect width="14.035087719298245" height="800" x="224.56140350877192" y="0"></rect><rect width="14.035087719298245" height="800" x="252.6315789473684" y="0"></rect><rect width="14.035087719298245" height="800" x="280.7017543859649" y="0"></rect><rect width="14.035087719298245" height="800" x="308.77192982456137" y="0"></rect><rect width="14.035087719298245" height="800" x="336.84210526315786" y="0"></rect><rect width="14.035087719298245" height="800" x="364.91228070175436" y="0"></rect><rect width="14.035087719298245" height="800" x="392.98245614035085" y="0"></rect><rect width="14.035087719298245" height="800" x="421.05263157894734" y="0"></rect><rect width="14.035087719298245" height="800" x="449.12280701754383" y="0"></rect><rect width="14.035087719298245" height="800" x="477.1929824561403" y="0"></rect><rect width="14.035087719298245" height="800" x="505.2631578947368" y="0"></rect><rect width="14.035087719298245" height="800" x="533.3333333333333" y="0"></rect><rect width="14.035087719298245" height="800" x="561.4035087719298" y="0"></rect><rect width="14.035087719298245" height="800" x="589.4736842105262" y="0"></rect><rect width="14.035087719298245" height="800" x="617.5438596491227" y="0"></rect><rect width="14.035087719298245" height="800" x="645.6140350877192" y="0"></rect><rect width="14.035087719298245" height="800" x="673.6842105263157" y="0"></rect><rect width="14.035087719298245" height="800" x="701.7543859649122" y="0"></rect><rect width="14.035087719298245" height="800" x="729.8245614035087" y="0"></rect><rect width="14.035087719298245" height="800" x="757.8947368421052" y="0"></rect><rect width="14.035087719298245" height="800" x="785.9649122807017" y="0"></rect><rect width="14.035087719298245" height="800" x="814.0350877192982" y="0"></rect><rect width="14.035087719298245" height="800" x="842.1052631578947" y="0"></rect><rect width="14.035087719298245" height="800" x="870.1754385964912" y="0"></rect><rect width="14.035087719298245" height="800" x="898.2456140350877" y="0"></rect><rect width="14.035087719298245" height="800" x="926.3157894736842" y="0"></rect><rect width="14.035087719298245" height="800" x="954.3859649122807" y="0"></rect><rect width="14.035087719298245" height="800" x="982.4561403508771" y="0"></rect><rect width="14.035087719298245" height="800" x="1010.5263157894736" y="0"></rect><rect width="14.035087719298245" height="800" x="1038.5964912280701" y="0"></rect><rect width="14.035087719298245" height="800" x="1066.6666666666665" y="0"></rect><rect width="14.035087719298245" height="800" x="1094.7368421052631" y="0"></rect><rect width="14.035087719298245" height="800" x="1122.8070175438595" y="0"></rect><rect width="14.035087719298245" height="800" x="1150.877192982456" y="0"></rect><rect width="14.035087719298245" height="800" x="1178.9473684210525" y="0"></rect><rect width="14.035087719298245" height="800" x="1207.017543859649" y="0"></rect><rect width="14.035087719298245" height="800" x="1235.0877192982455" y="0"></rect><rect width="14.035087719298245" height="800" x="1263.157894736842" y="0"></rect><rect width="14.035087719298245" height="800" x="1291.2280701754385" y="0"></rect><rect width="14.035087719298245" height="800" x="1319.298245614035" y="0"></rect><rect width="14.035087719298245" height="800" x="1347.3684210526314" y="0"></rect><rect width="14.035087719298245" height="800" x="1375.438596491228" y="0"></rect><rect width="14.035087719298245" height="800" x="1403.5087719298244" y="0"></rect><rect width="14.035087719298245" height="800" x="1431.578947368421" y="0"></rect><rect width="14.035087719298245" height="800" x="1459.6491228070174" y="0"></rect><rect width="14.035087719298245" height="800" x="1487.719298245614" y="0"></rect><rect width="14.035087719298245" height="800" x="1515.7894736842104" y="0"></rect><rect width="14.035087719298245" height="800" x="1543.859649122807" y="0"></rect><rect width="14.035087719298245" height="800" x="1571.9298245614034" y="0"></rect><rect width="14.035087719298245" height="800" x="1600" y="0"></rect></clipPath><clipPath id="SvgjsClipPath1347"><rect width="14.035087719298245" height="800" x="14.035087719298245" y="0"></rect><rect width="14.035087719298245" height="800" x="42.10526315789473" y="0"></rect><rect width="14.035087719298245" height="800" x="70.17543859649122" y="0"></rect><rect width="14.035087719298245" height="800" x="98.24561403508771" y="0"></rect><rect width="14.035087719298245" height="800" x="126.31578947368419" y="0"></rect><rect width="14.035087719298245" height="800" x="154.38596491228068" y="0"></rect><rect width="14.035087719298245" height="800" x="182.45614035087718" y="0"></rect><rect width="14.035087719298245" height="800" x="210.52631578947367" y="0"></rect><rect width="14.035087719298245" height="800" x="238.59649122807016" y="0"></rect><rect width="14.035087719298245" height="800" x="266.66666666666663" y="0"></rect><rect width="14.035087719298245" height="800" x="294.7368421052631" y="0"></rect><rect width="14.035087719298245" height="800" x="322.8070175438596" y="0"></rect><rect width="14.035087719298245" height="800" x="350.8771929824561" y="0"></rect><rect width="14.035087719298245" height="800" x="378.9473684210526" y="0"></rect><rect width="14.035087719298245" height="800" x="407.0175438596491" y="0"></rect><rect width="14.035087719298245" height="800" x="435.0877192982456" y="0"></rect><rect width="14.035087719298245" height="800" x="463.1578947368421" y="0"></rect><rect width="14.035087719298245" height="800" x="491.2280701754386" y="0"></rect><rect width="14.035087719298245" height="800" x="519.2982456140351" y="0"></rect><rect width="14.035087719298245" height="800" x="547.3684210526316" y="0"></rect><rect width="14.035087719298245" height="800" x="575.438596491228" y="0"></rect><rect width="14.035087719298245" height="800" x="603.5087719298245" y="0"></rect><rect width="14.035087719298245" height="800" x="631.578947368421" y="0"></rect><rect width="14.035087719298245" height="800" x="659.6491228070175" y="0"></rect><rect width="14.035087719298245" height="800" x="687.719298245614" y="0"></rect><rect width="14.035087719298245" height="800" x="715.7894736842105" y="0"></rect><rect width="14.035087719298245" height="800" x="743.859649122807" y="0"></rect><rect width="14.035087719298245" height="800" x="771.9298245614035" y="0"></rect><rect width="14.035087719298245" height="800" x="800" y="0"></rect><rect width="14.035087719298245" height="800" x="828.0701754385965" y="0"></rect><rect width="14.035087719298245" height="800" x="856.140350877193" y="0"></rect><rect width="14.035087719298245" height="800" x="884.2105263157895" y="0"></rect><rect width="14.035087719298245" height="800" x="912.280701754386" y="0"></rect><rect width="14.035087719298245" height="800" x="940.3508771929825" y="0"></rect><rect width="14.035087719298245" height="800" x="968.421052631579" y="0"></rect><rect width="14.035087719298245" height="800" x="996.4912280701755" y="0"></rect><rect width="14.035087719298245" height="800" x="1024.561403508772" y="0"></rect><rect width="14.035087719298245" height="800" x="1052.6315789473683" y="0"></rect><rect width="14.035087719298245" height="800" x="1080.701754385965" y="0"></rect><rect width="14.035087719298245" height="800" x="1108.7719298245613" y="0"></rect><rect width="14.035087719298245" height="800" x="1136.842105263158" y="0"></rect><rect width="14.035087719298245" height="800" x="1164.9122807017543" y="0"></rect><rect width="14.035087719298245" height="800" x="1192.982456140351" y="0"></rect><rect width="14.035087719298245" height="800" x="1221.0526315789473" y="0"></rect><rect width="14.035087719298245" height="800" x="1249.122807017544" y="0"></rect><rect width="14.035087719298245" height="800" x="1277.1929824561403" y="0"></rect><rect width="14.035087719298245" height="800" x="1305.2631578947369" y="0"></rect><rect width="14.035087719298245" height="800" x="1333.3333333333333" y="0"></rect><rect width="14.035087719298245" height="800" x="1361.4035087719299" y="0"></rect><rect width="14.035087719298245" height="800" x="1389.4736842105262" y="0"></rect><rect width="14.035087719298245" height="800" x="1417.5438596491229" y="0"></rect><rect width="14.035087719298245" height="800" x="1445.6140350877192" y="0"></rect><rect width="14.035087719298245" height="800" x="1473.6842105263158" y="0"></rect><rect width="14.035087719298245" height="800" x="1501.7543859649122" y="0"></rect><rect width="14.035087719298245" height="800" x="1529.8245614035088" y="0"></rect><rect width="14.035087719298245" height="800" x="1557.8947368421052" y="0"></rect><rect width="14.035087719298245" height="800" x="1585.9649122807018" y="0"></rect></clipPath></defs><g stroke-width="50" stroke="url(#ggglitch-grad)" fill="none"><circle r="330" cx="400" cy="400" fill="none" opacity="0.66" clip-path="url(&quot;#SvgjsClipPath1346&quot;)"></circle><circle r="217" cx="400" cy="400" fill="none" opacity="0.66" clip-path="url(&quot;#SvgjsClipPath1346&quot;)"></circle><circle r="104" cx="400" cy="400" fill="none" opacity="0.66" clip-path="url(&quot;#SvgjsClipPath1346&quot;)"></circle><circle r="375" cx="400" cy="400" fill="none" clip-path="url(&quot;#SvgjsClipPath1347&quot;)"></circle><circle r="262" cx="400" cy="400" fill="none" clip-path="url(&quot;#SvgjsClipPath1347&quot;)"></circle><circle r="149" cx="400" cy="400" fill="none" clip-path="url(&quot;#SvgjsClipPath1347&quot;)"></circle></g></svg>