<svg xmlns="http://www.w3.org/2000/svg" version="1.1" xmlns:xlink="http://www.w3.org/1999/xlink" xmlns:svgjs="http://svgjs.dev/svgjs" viewBox="0 0 800 800"><defs><linearGradient x1="50%" y1="0%" x2="50%" y2="100%" id="ssscribble-grad"><stop stop-color="hsl(206, 75%, 49%)" stop-opacity="1" offset="0%"></stop><stop stop-color="hsl(331, 90%, 56%)" stop-opacity="1" offset="100%"></stop></linearGradient></defs><g fill="none" stroke-width="1.5" stroke="url(#ssscribble-grad)" stroke-linecap="round"><path d="M1099.99 475.1C1136.96 499.96 1094.81 492.98 987.96 456.26 837.48 419.95 673.81 358.4 525.9 285.23 410.28 235.37 343.18 209.53 325.15 238.75 353.61 334.36 414.79 501.81 492.25 719.28 584.37 918.13 669.07 1049.83 737.25 1048.93 797.66 909.99 836 674.65 853.98 449.63 863.05 363.81 857.51 470.97 842.13 736.18 823.84 1010.95 801.09 1136.87 776.24 1021.6 751.39 736.82 725.6 469.23 697.02 376.9 665.53 502.46 625.87 757.63 573.72 992.1 512.67 1098.05 433.4 1024.36 334.69 824.49 228.2 574.99 107.83 377.32 -16.86 281.01 -126.9 292.1 -217.54 385.61 -271.87 511.26 -279.73 653.39 -234.91 762.44 -137.51 827.12 -7.82 865.54 141.7 867.78 282.59 849.53 379.85 821.67 416.96 791.26 379.99 766.41 272.27 741.55 122.75 723.43 -34.78 704.43 -177.09 675.81 -271.9 628.37 -306.83 546.89 -282.89 439.16 -205.11 289.19 -91.78 108.76 45.59 -55.2 184.28 -184.41 308.87 -228.11 418.7 -164.4 501.36 3.77 557.93 227.39 593.97 401.41 611.76 452.85 619.31 328.73 615.26 -58.59 623.71 -114.53 654.35 301.51 679.2 416.87 716.16 296.06 762.15 30.89 805.85 -224.75 853.84 -317.81 899.57 -213.81 935.09 29.41 958.23 287.04 960.49 451.88 942.23 478.68 895.24 376.45 817.99 210.18 725.98 25.28 616.75 -106.49 505.25 -163.8 417.8 -154.71 362.31 -87.95 356.58 4.97 409.73 121.22 518.68 227.97 670.59 311.15 837.71 394.74 992.27 450.25 1099.99 475.1Q1099.99 475.1 1099.99 475.1" opacity="0.81"></path><path d="M1085.02 288.8C1121.99 312.61 1086.03 307.28 989.35 277.94 849.81 253.1 693.77 215.49 547.34 182.47 425.53 179.03 345.12 212.15 309.12 302.77 316.26 442.27 357.24 630.56 418.38 833.29 498.23 985.91 577.03 1050.28 645.03 984.5 710.29 810.46 757.15 579.13 785.08 392.75 806.48 354.26 812.24 492.97 805.53 759.48 796.39 1014.51 779.12 1121.98 755.3 1006.61 731.49 734.83 702.25 471.59 666.47 361.06 628.26 452.09 579.18 681.43 516.51 920.62 447.29 1067.59 361.22 1054.06 259.25 905.23 154.54 676.9 41.55 458.87 -69.51 311.16 -161.87 251.52 -231.09 280.7 -263.03 363.01 -251.83 484.03 -192.78 597.65 -88.42 682.67 40.53 755.21 183.02 792.25 313.37 801.06 400.86 802.11 431.99 787.89 395.02 764.08 292.97 740.26 151.6 707.97 0.68 662.02 -139.77 608.3 -239.81 527.95 -286.75 414.14 -280.47 287.85 -222.38 135.01 -127.13 -22.72 -4.3 -141.75 126.4 -205.16 249.97 -176.76 365.75 -60.29 459.8 129.48 530.68 333.02 584.57 457.08 619.72 449.3 642.22 284.9 659.33 -93.18 689.75 -84.45 720.94 316.52 744.75 431.97 776.52 329.4 813.36 83.58 847.71 -173.76 882.2 -298.96 910.8 -243.04 929.58 -39.22 933.66 213.47 916.48 412.32 882.32 502.92 822.47 466.79 737.91 345.4 645.56 173.89 543.08 19.78 445.05 -83 374.59 -136.92 337.85 -130.82 349.01 -86.1 413.39 -11.8 526.98 69.12 676.62 138.88 836.72 213.13 982.93 264.97 1084.99 288.79Q1085.02 288.8 1085.02 288.8" opacity="0.45"></path><path d="M1070.02 129.71C1106.88 152.49 1076.78 155.33 989.97 144.69 861.52 140.94 714.01 138.15 570.79 153.08 445.18 196.89 354.02 281.51 302.16 415.94 289.22 576.38 309.88 758.96 353.17 923.83 417.73 1018.24 486.62 1015.7 550.03 896.94 615.1 703.86 665.8 490.19 699.82 348.17 729.75 354.76 744.02 519.19 744.19 782.53 742.52 1016.77 729.9 1106.62 707.12 991.61 684.34 732.84 652.47 475.19 611.17 349.04 568.04 406.74 512.33 606.49 442.92 841.52 369.42 1019.15 281.2 1061.11 181.02 968.92 82.49 778.45 -19.09 562.15 -113.51 382.46 -186.66 263.63 -234.33 227.14 -245.11 253.74 -216.97 331.37 -146.25 424.43 -37.34 507.29 89.18 591.77 223.72 647.97 343.38 674.61 421.4 696.8 446.88 695.38 410.02 672.6 313.53 649.82 180.26 606.75 36.28 541.6 -101.37 471.99 -205.13 374.35 -262.37 250.39 -272.26 128.05 -233.22 -2.52 -156.62 -115.27 -50.37 -176.98 69.06 -173.19 187.54 -84.22 304.42 65.6 405.17 254.89 486.36 421.63 554.54 490.11 604.59 427.72 640.59 233.39 667.79 -18.33 688.11 -231.05 706.23 -297.54 721.89 -180.19 740.1 72.84 762.88 331.61 785.66 446.62 811.94 361.39 839.25 135.94 864.09 -118.6 885.21 -270.06 897.49 -259.95 900.97 -101.24 888.44 132.85 855.37 349.65 809.29 492.14 741.25 521.69 654.23 457.14 565.62 322.13 473.18 172.25 390.66 46.93 337.77 -52.38 319.17 -99.49 345.76 -103.82 419.7 -79.26 536.42 -35.02 682.87 11.67 835.64 65.28 973.53 106.92 1070.02 129.71Q1070.02 129.71 1070.02 129.71" opacity="0.26"></path><path d="M1054.69 36.68C1091.6 58.43 1067.29 73.22 990.28 87 873.13 108.14 735 142.19 596.53 201.85 469.36 284 369.92 403.37 304.38 557.59 272.94 714.4 273.71 867.62 298.33 978.36 345.41 1010.31 401.12 948.08 456.12 791.88 516.37 595.92 566.43 411.4 602.64 316.9 637.1 364.86 656.77 548.88 661.76 804.9 665.54 1017.6 656.54 1090.71 634.8 976.5 613.05 730.75 579.59 479.86 534.79 340.71 488.8 366.79 429.57 534.26 357.42 757.08 283.53 954.34 197.66 1044.15 103.89 1009.59 15.37 869.09 -71.55 674.72 -147.13 484.72 -200.26 325.26 -226.81 231.67 -218.01 200.39 -175.12 221.97 -95.18 275.52 16.04 336.19 138.57 409.94 264.33 466.94 373.08 499.11 441.69 530.57 461.6 536.01 424.69 514.27 333.43 492.54 208.04 444.64 71.26 372.18 -62.65 299.01 -168.52 202.45 -234.11 91.02 -258.26 -7.34 -237.03 -96.71 -178.91 -151.83 -90.43 -154.09 15.19 -91.74 125.02 39.19 238.47 200.68 341.21 369.28 428.36 487.16 506.56 499.11 568.14 389.83 615.25 176.65 655.01 -62.09 685.67 -241.97 710.8 -276.5 733.68 -145.8 755.24 100.64 776.98 346.41 798.73 460.7 819.63 392.06 837.77 187.78 858.1 -145.69 838.16 -51.16 780.6 269.44 726.96 448.3 655.45 536.33 570.5 532.89 489.17 450.66 409.33 328.66 343.49 205.36 308.01 84.65 306.28 1.09 346.37 -43.37 427.91 -65.33 546.15 -59.83 688.46 -39.95 833.63 -12.72 963.43 14.94 1054.69 36.68Q1054.69 36.68 1054.69 36.68" opacity="0.43"></path><path d="M1039.99 32.79C1076.24 53.51 1056.78 80.6 988.72 118.05 882.51 161.57 754.24 225.93 621.96 317.68 495.65 422.11 390.92 554.13 314.74 702.54 258.85 886.97 305.86 907.51 369.91 676.92 421.54 493.11 466.95 346.46 501.63 299.94 536.61 384.16 558.4 581.5 565.92 826.46 572.87 1017.2 566.27 1074.56 545.56 961.6 524.85 728.83 491 485.81 445 336.31 398.42 333.07 338.95 466.72 268.08 670.36 197.51 876.1 117.99 1003.74 34.45 1023.4 -41.23 939.5 -111.53 783.34 -167.54 604.21 -201.22 426.67 -208.43 292.48 -182.78 210.91 -128.16 174.94 -42.01 179.32 69.11 204.17 186.21 248.94 302.7 290.01 400.91 315.41 460.98 343.38 476.24 348.85 439.99 328.14 354.34 307.45 237.04 261.55 107.76 194.52 -21.73 130.07 -128.63 51.32 -201.24 -29.33 -238.31 -90.09 -234.03 -128.6 -194.33 -124.57 -124.66 -74.94 -35.03 29.5 63.09 179.88 169.06 331.88 269.43 463.5 358.37 525.86 442.3 484.67 511.8 338.49 567.27 117.59 617.14 -101.24 656.5 -246.71 687.68 -251.52 716.95 -110.06 741.5 128.72 762.21 361.51 782.92 474.55 798.81 421.45 808.6 238.73 816.48 1.75 814.8 -183.82 800.82 -252.9 781.24 -191.22 745.84 -26.01 693.84 179.36 636.82 376.96 566.19 510.66 487.36 564.81 416.38 543.1 351.3 466.34 303.2 367.08 285.06 250.59 299.35 152.68 351.6 84.14 439.39 28.28 558.08 1.59 695.57 -2.86 832.84 -1.26 954.35 12.08 1039.99 32.79Q1039.99 32.79 1039.99 32.79" opacity="0.76"></path><path d="M1025.02 118.72C1060.72 138.39 1045.99 174.89 986.68 229.52 891.43 287.8 773.54 369.58 648.66 474.93 525.17 582.36 417.6 704.36 333.33 824.55 272.79 914.12 239.11 964.94 228.41 953.07 238.88 877.26 263.04 737.74 293.52 559.69 333.54 400.79 371 297.6 400.98 297.1 432.92 411.48 453.86 615.95 461.8 846.59 469.72 1015.23 464.36 1057.87 444.68 946.61 425.01 726.79 391.95 492.66 346.92 335.45 301.88 305.58 245.15 404.97 179.11 583.79 115.03 787.38 45.16 941.34 -25.16 1008.03 -85.97 981.78 -138.38 874.77 -174.63 724.58 -189.72 552.02 -179.37 398.39 -139.32 281.78 -75.53 197.22 14.38 153.17 123.46 137.24 233.91 142.79 340.6 156.47 428.26 165.73 479.98 179.65 490.72 179.19 455.02 159.51 374.68 139.85 265.22 101.9 143.58 50.88 19.28 4.51 -87.17 -44.96 -164.86 -84.62 -212.67 -102.8 -223.46 -91.17 -201.05 -36.94 -150.08 49.32 -77.56 174.69 6.64 321.47 101.73 445.88 195.71 529.59 282.27 535.39 367.33 448.24 440.62 276.65 501.06 58.65 557.72 -134.6 603.32 -245.22 638.97 -223 673.15 -73.43 699.96 156.68 719.63 376.52 739.31 487.86 750.93 449.26 753.86 288.25 755.32 65.19 745.52 -128.1 722.96 -228.09 696.62 -213.19 655.74 -92.37 601 87 544.77 285.55 479.04 448.4 409.73 550.01 351.3 587.67 302.1 565.1 271.61 505.85 269.68 415.99 298.1 326.38 360.32 253.06 452.42 181.8 570.07 135.81 701.96 114.64 831.18 97.11 944.63 99.03 1024.99 118.71Q1025.02 118.72 1025.02 118.72" opacity="0.19"></path><path d="M1010.02 273.49C1045.06 292.13 1034.69 332.93 983.71 394.59 899.21 457.12 792.04 540.57 675.6 639.7 556.77 731.87 448.85 825.09 359.25 901.63 288.27 941.8 240.69 937.03 214.43 873.56 207.36 763.87 214.95 612.09 231.11 448.34 257.57 324.07 284.65 266.68 307.42 308.06 333.36 445.82 350.83 651.5 357.29 865.05 364.17 1011.71 358.96 1040.73 340.32 931.61 321.68 724.7 290.5 500.4 248.46 338.08 206.85 284.64 155.47 350.34 97.23 500.13 42.16 691.96 -15.61 860.14 -70.8 963.79 -115.68 990.99 -150.04 937.96 -167.39 829.76 -165.56 682.51 -140.09 531.67 -88.52 399.7 -18.33 283.42 72.87 201.01 178.03 148.21 280.81 113.84 377.38 96.08 454.68 84.64 498.47 78.51 505.06 68.4 470.02 49.76 394.87 31.12 293.15 4.84 179.31 -24.17 60.87 -47.89 -43.89 -64.04 -124.94 -61.99 -181.47 -41.51 -205.44 10.18 -198.98 97.73 -166.14 200.97 -111.2 325.05 -42.4 447.88 39.2 531.67 123.46 562.62 204 516.04 285.99 393.01 359.09 208.13 421.07 2.63 481.03 -160.83 530.17 -237.18 568.47 -190.99 605.79 -35.9 633.93 184.59 652.57 391.52 671.21 500.71 679.47 475.53 677.3 336.09 674.15 129.73 658.92 -65.34 631.26 -189.47 601.58 -217.21 559.18 -143.12 505.92 0.54 454.11 183.7 396.61 357.58 339.43 491.71 278.64 595.39 282.08 520.64 372.61 429.51 467.33 362.68 582.71 313.14 708.34 285.77 829.37 259.25 934.87 254.85 1010.02 273.49Q1010.02 273.49 1010.02 273.49" opacity="0.84"></path><path d="M994.98 459.36C1029.24 476.96 1022.87 516.17 979.75 573.84 905.7 629.94 809.4 700.28 702.22 776.45 480.26 888.25 309.39 916.51 214.94 759.04 186.19 500.95 203.31 271.92 226.71 331.9 244.44 485.87 256.43 687.23 259.86 881.5 264.05 1006.61 258.06 1023.12 240.46 916.51 222.85 722.42 194.47 508.8 157.08 343.94 120.45 270.36 76.44 304.03 28.19 422.18 -56.21 774.82 -128.28 969.77 -145.67 905.32 -97.37 657.91 36.14 399.75 232.29 233.52 326.58 167.32 412.85 121.71 480.11 90.48 516.44 63.87 519.24 43.33 484.98 25.72 414.91 8.12 320.78 -5.7 214.82 -12.3 102.81 -14.27 0.88 -0.68 -81.86 35 -183.13 140.22 -171.55 343.43 -81.74 544.69 62.25 563 212.59 330.71 332.92 -47.73 392.72 -178.78 442.59 -222.48 481.63 -155.69 520.14 2.37 548.6 212.42 566.2 406.51 583.81 513.12 589.73 500.18 584.42 381.86 578.58 194.39 560.73 3.04 531.44 -138.01 472.12 -172.19 376.73 94.18 278.87 398.41 235.21 602.03 260.98 628.72 388.05 577.93 483.7 532.27 595.65 493.95 714.46 471.05 827.21 446.59 924.91 441.76 994.98 459.36Q994.98 459.36 994.98 459.36" opacity="0.75"></path><path d="M980.01 630.59C1011.74 663.72 908.7 755.75 728.01 855.31 517.81 896.37 341.94 834.71 229.49 622.42 171.33 383.7 160.02 234.95 163.83 367.2 184.24 714.85 186.09 1000.11 152.95 901.52 119.82 515.03 54.83 262.42 -23 352.17 -84.23 670.06 -124.64 913.57 -109.91 940.76 -40.89 781.85 99.82 553.52 285.73 374.29 442.13 214.33 531.74 126.43 500.01 93.3 344.21 60.16 138.81 84.92 -35.81 187.46 -151.16 309.26 -168.03 485.88 -109.55 601.35 3.14 530.73 132.6 252.07 242.55 -90.1 355.73 -204.14 433.84 35.03 466.97 421.52 500.13 520.11 485.17 248.28 429.42 -75.07 376.89 -183.04 299.14 0.85 229.86 283.01 214.8 538.73 266.81 652.11 406.43 668.47 605.34 626.33 824.17 597.44 979.98 630.58Q980.01 630.59 980.01 630.59" opacity="0.20"></path><path d="M965.02 745.3C998.88 776.37 912.61 829.91 752.58 858.72 557.19 834.71 381.8 708.01 257.13 479.41 174.88 286.12 137.8 222.05 122.39 411.98 123.16 748.9 115.4 991.92 84.34 886.61 53.27 524.94 1.84 260.32 -52.76 292.31 -91.19 561.35 -102.59 826.96 -61.05 930.27 22.88 869.11 165.32 701.49 337.94 540 475.2 371.04 548.88 267.13 515.02 236.06 371.69 204.97 181.6 249.67 12.7 364.78 -112.39 472.44 -153.48 591.59 -124.26 612.08 -43.75 468.1 61.13 169.55 156.42 -122.28 258.62 -177.1 331.6 74.85 362.67 436.52 393.75 541.94 379.97 311.56 331.61 -2.6 290.16 -169.8 233.75 -72.81 193.94 161.19 205.42 430.52 279.45 605.71 427.3 683.55 618.96 708.58 821.65 714.23 964.99 745.29Q965.02 745.3 965.02 745.3" opacity="0.35"></path><path d="M949.98 775.55C985.45 804.54 914.9 818.58 775.49 784.69 597.39 713.18 427.49 554.55 296.42 346.05 196.24 216.08 137.51 233.25 104.73 464.3 86.51 780.77 68.88 982.03 39.88 871.51 -7.91 399.93 -69.47 586 -0.55 873.87 92.51 904.44 231.65 814.43 388.5 694.58 506.65 548.31 565.45 447.75 529.98 418.76 398.84 389.76 224.35 435.07 63.29 531.1 -67.31 600.7 -128 645.46 -124.92 576.89 -75.72 382.08 2.75 89.19 80.5 -142.6 167.42 -143.55 232.3 115.17 261.29 451.51 290.28 562.03 280.65 372.53 243.98 77.3 216.48 -132.48 183.25 -118.9 172.05 49.07 206.98 295.58 298.41 499.46 450.28 621.21 632.6 705.35 818.84 746.56 949.98 775.55Q949.98 775.55 949.98 775.55" opacity="0.20"></path><path d="M934.99 713.87C971.49 740.8 915.41 723.5 796.23 647.62 637.25 553.33 477.24 397.37 345.37 237.91 233.88 179.25 158.74 266.9 111.66 521.32 76.72 809.27 50.02 970.34 23.09 856.6 -16.12 410.59 -23.16 474.84 69.6 777.18 166.18 880.95 297.64 870.06 436.88 804.94 536.33 704.54 581.49 624.01 544.99 597.09 425.72 570.16 266.97 599.39 115.58 653.13 -16.56 671.6 -91.96 640.46 -111.12 501.42 -90.79 281.96 -38.74 17.11 20.01 -149.71 88.9 -103.84 143.55 155.82 170.48 466.51 197.4 580.34 194.05 430.24 171.82 162.02 159.71 -72.68 149.69 -131.8 164.64 -37.86 219.09 156.88 323.05 354.86 474.93 495.81 646.06 618.35 815.72 686.95 934.99 713.87Q934.99 713.87 934.99 713.87" opacity="0.59"></path><path d="M920.02 575.35C956.96 600.2 914.08 565.64 814.41 474.68 675.73 383.3 529.23 259.38 401.68 166.8 285.47 177.88 199.75 320.08 142.29 580.62 94.14 833.86 60.02 956.88 35.17 841.61 10.32 556.81 -2.91 291.53 2.16 188.85 16.55 272.24 63.48 465.46 147.11 650.93 242.09 800.85 362.23 856.46 482.7 846.6 564.15 802.31 596.96 751.89 560.02 727.04 452.31 702.19 309.32 705.25 169.12 706.47 39.13 673.26 -46.06 578.87 -82.96 396.39 -87.74 178.35 -60.5 -41.22 -20.68 -142.85 29.08 -58.43 72.36 196.72 97.22 481.52 122.07 596.88 126.15 483.99 119.44 248.96 122.7 6.61 134.23 -109.24 171.6 -87.75 241.06 37.39 352.62 200.09 500.83 334.55 659.24 468.58 812.31 550.49 920.02 575.35Q920.02 575.35 920.02 575.35" opacity="0.62"></path><path d="M904.75 393.79C941.86 416.57 911.1 380.56 830.14 300.67 712.43 233.36 582.29 160.76 463.46 140.18 348.68 210.92 258.27 388.45 194.72 639.31 137.6 853.69 98.32 941.53 75.54 826.52 52.75 567.75 48.63 312.86 66.27 182.22 90.34 205.97 145.19 345.14 230.12 509.25 319.09 675.14 425.06 774.67 526.07 809.65 590.33 818.05 611.86 799.61 574.75 776.82 478.07 754.04 350.59 729.08 222.81 681.2 98.36 606.74 8.25 471.66 -41.41 275.91 -66.42 81.94 -60.76 -81.39 -38.42 -121.84 -7.14 -7.89 24.67 237.75 47.46 496.52 70.24 611.53 81.82 532.92 90.02 335.24 107.16 101.08 137.05 -52.28 191.92 -93.15 271.46 -42.72 385.73 65.43 526.88 172.22 671.36 291.59 808.07 371.01 904.75 393.79Q904.75 393.79 904.75 393.79" opacity="0.45"></path><path d="M889.99 213.9C926.24 234.61 905.71 210.44 841.82 160.93 744.71 130.36 632.72 115.82 526.15 160.29 418.32 274.33 329.03 466.92 263.92 694.82 202.65 868.33 160.92 924.56 140.21 811.6 119.5 578.81 121.76 338.82 147.15 189.71 176.36 161.64 233.33 242.62 314.02 368.7 393.44 522.41 483.46 638.79 565.4 700.83 614.11 747.43 626.24 755.21 589.99 734.49 504.35 713.78 392.33 666.54 277.92 584.05 161.75 486.13 70.99 337.42 13.16 156.56 -27.01 3.34 -39.07 -99.6 -31.94 -86.7 -17.43 47.21 3.58 278.81 24.29 511.6 45 624.56 63.44 576.73 84.83 418.4 113.59 205.68 157.97 35.05 225.3 -51.84 310.26 -69.16 422.99 -22.3 554.35 44.15 683.93 129.55 804.35 193.19 889.99 213.9Q889.99 213.9 889.99 213.9" opacity="0.44"></path><path d="M874.87 79.45C910.02 98.09 898.59 93.45 850.49 83.08 773.45 91.78 680.66 129.88 588.91 223.07 492.4 360.79 409.1 549.43 346.45 744.35 285.51 877.03 243.97 905.68 225.33 796.56 206.69 589.65 212.72 368.45 241.36 210.26 271.7 140.93 325.92 166.06 398 244.96 465.31 364.82 538.33 472.46 601.71 541.31 636.14 605.58 640.02 628.79 604.87 610.15 529.62 591.51 432.51 532.78 332.01 436.21 226.5 335.06 139.19 198.33 78.04 54.04 28.43 -49.28 3.58 -94.18 -1.16 -38.51 -0.33 106 11.43 319.65 30.07 526.56 48.71 635.68 72.45 614.58 103.93 495.57 140.97 314.31 194.92 145.44 268.96 32.15 354.53 -36.6 461.62 -45.61 580.79 -22.01 694.95 20.65 799.62 60.81 874.87 79.45Q874.87 79.45 874.87 79.45" opacity="0.20"></path><path d="M860.02 23.56C891.75 56.69 789.35 114.9 647.49 319.59 479.67 607.17 356.44 880.08 323.3 781.61 290.16 395.09 353.4 139.76 477.78 152.34 576.21 331.66 651.75 467.56 620.02 434.42 464.21 401.28 276.45 205.38 152.12 -17.36 53.8 -73.37 31.21 155.09 64.35 541.61 97.49 640.08 180.07 394.03 321.82 149.89 489.57 -11.37 704.18 -9.58 859.99 23.55Q860.02 23.56 860.02 23.56" opacity="0.97"></path><path d="M844.84 59.72C880.49 88.71 809.54 202.78 700.45 436.5 563.64 684.84 456.87 876.97 427.88 766.55 398.89 430.21 453.16 161.66 551.96 100.72 623.05 184.66 670.49 279.15 634.84 250.16 503.54 221.16 344.41 74.17 231.81 -47.76 130.73 -24.82 95.02 220.21 124.01 556.55 153 666.97 241.22 498.34 380.3 288.01 530.9 92.29 713.54 30.72 844.84 59.72Q844.84 59.72 844.84 59.72" opacity="0.77"></path><path d="M830.02 179.3C866.96 204.15 822.56 339.71 744.09 558.14 640.29 749.39 554.37 866.88 529.52 751.61 504.66 466.81 545.59 206.46 616.81 95.42 662.7 90.26 686.96 127.54 650.02 102.69 542.31 77.83 412.34 -4.43 315.89 -31.84 221.27 46.61 180.52 286.81 205.38 571.61 230.23 686.88 315.98 589.54 443.16 430.86 572.2 245 722.31 154.45 830.02 179.3Q830.02 179.3 830.02 179.3" opacity="0.95"></path><path d="M815.02 352.85C851.25 373.56 828.48 497.46 777.25 668.03 705.65 795.35 642.35 849.57 621.64 736.61 600.92 503.79 626.72 270.02 671.18 135.61 695.27 65.05 701.25 48.66 665.02 27.95 579.37 7.23 477.9 -13.86 400.34 29.54 319.42 136.8 280.66 353.79 301.38 586.61 322.09 699.57 398.35 662.14 506.41 561.96 611.11 418.53 729.37 332.14 815.02 352.85Q815.02 352.85 815.02 352.85" opacity="0.46"></path><path d="M800.02 537.95C831.75 571.08 729.9 820.1 696.77 721.61 663.63 335.09 711.75 77.43 680.02 44.3 524.21 11.16 371.8 215.09 404.94 601.61 438.07 700.1 644.21 504.81 800.02 537.95Q800.02 537.95 800.02 537.95" opacity="0.49"></path><path d="M785.02 689.27C821.96 714.12 774 821.88 749.15 706.61 724.29 421.75 731.96 172.58 695.02 147.73 587.29 122.87 483.26 331.75 508.12 616.61 532.97 731.88 677.29 664.41 785.02 689.27Q785.02 689.27 785.02 689.27" opacity="0.75"></path><path d="M770.02 769.76C803.31 786.32 791.32 795.1 774.76 691.61 758.19 510.29 743.31 329.49 710.02 312.93 644.96 296.36 586.44 450.29 603.01 631.61 619.57 735.1 704.96 753.19 770.02 769.76Q770.02 769.76 770.02 769.76" opacity="0.84"></path></g></svg>