<svg xmlns="http://www.w3.org/2000/svg" viewBox="0 0 1440 700" ><path fill="#0099ff" fill-opacity="1" d="M0,256L34.3,245.3C68.6,235,137,213,206,213.3C274.3,213,343,235,411,208C480,181,549,107,617,69.3C685.7,32,754,32,823,42.7C891.4,53,960,75,1029,101.3C1097.1,128,1166,160,1234,144C1302.9,128,1371,64,1406,32L1440,0L1440,320L1405.7,320C1371.4,320,1303,320,1234,320C1165.7,320,1097,320,1029,320C960,320,891,320,823,320C754.3,320,686,320,617,320C548.6,320,480,320,411,320C342.9,320,274,320,206,320C137.1,320,69,320,34,320L0,320Z"></path></svg>