<svg xmlns="http://www.w3.org/2000/svg" version="1.1" xmlns:xlink="http://www.w3.org/1999/xlink" xmlns:svgjs="http://svgjs.dev/svgjs" viewBox="0 0 800 800"><circle r="10.5" cx="178" cy="37" fill="hsl(258, 50%, 50%)" opacity="0.25"></circle><circle r="7.5" cx="735" cy="725" fill="hsl(158, 50%, 50%)" opacity="0.87"></circle><circle r="10.5" cx="20" cy="686" stroke-width="2" stroke="hsl(169, 50%, 50%)" fill="none" opacity="0.90"></circle><circle r="10.5" cx="142" cy="567" fill="hsl(241, 50%, 50%)" opacity="0.30"></circle><circle r="8" cx="498" cy="780" stroke-width="2" stroke="hsl(120, 50%, 50%)" fill="none" opacity="0.87"></circle><circle r="7" cx="495" cy="193" stroke-width="2" stroke="hsl(120, 50%, 50%)" fill="none" opacity="0.69"></circle><circle r="7" cx="527" cy="216" stroke-width="2" stroke="hsl(111, 50%, 50%)" fill="none" opacity="0.24"></circle><circle r="6.5" cx="555" cy="190" stroke-width="2" stroke="hsl(105, 50%, 50%)" fill="none" opacity="0.68"></circle><circle r="7" cx="476" cy="670" stroke-width="2" stroke="hsl(123, 50%, 50%)" fill="none" opacity="0.35"></circle><circle r="7.5" cx="19" cy="100" fill="hsl(188, 50%, 50%)" opacity="0.62"></circle><circle r="7.5" cx="719" cy="293" stroke-width="2" stroke="hsl(146, 50%, 50%)" fill="none" opacity="0.27"></circle><circle r="9" cx="784" cy="402" fill="hsl(211, 50%, 50%)" opacity="0.49"></circle><circle r="10.5" cx="239" cy="344" stroke-width="2" stroke="hsl(228, 50%, 50%)" fill="none" opacity="0.89"></circle><circle r="10" cx="389" cy="741" fill="hsl(146, 50%, 50%)" opacity="0.30"></circle><circle r="10" cx="18" cy="732" fill="hsl(169, 50%, 50%)" opacity="0.77"></circle><circle r="9" cx="749" cy="510" fill="hsl(171, 50%, 50%)" opacity="0.96"></circle><circle r="6.5" cx="615" cy="307" stroke-width="2" stroke="hsl(98, 50%, 50%)" fill="none" opacity="0.87"></circle><circle r="10" cx="287" cy="440" fill="hsl(208, 50%, 50%)" opacity="0.53"></circle><circle r="12" cx="513" cy="57" stroke-width="2" stroke="hsl(238, 50%, 50%)" fill="none" opacity="0.11"></circle><circle r="8.5" cx="719" cy="400" stroke-width="2" stroke="hsl(146, 50%, 50%)" fill="none" opacity="0.80"></circle><circle r="8.5" cx="388" cy="637" stroke-width="2" stroke="hsl(146, 50%, 50%)" fill="none" opacity="0.76"></circle><circle r="9" cx="314" cy="372" fill="hsl(185, 50%, 50%)" opacity="0.69"></circle><circle r="5.5" cx="607" cy="348" stroke-width="2" stroke="hsl(98, 50%, 50%)" fill="none" opacity="0.69"></circle><circle r="8.5" cx="370" cy="782" stroke-width="2" stroke="hsl(157, 50%, 50%)" fill="none" opacity="0.82"></circle><circle r="7" cx="601" cy="199" stroke-width="2" stroke="hsl(98, 50%, 50%)" fill="none" opacity="0.89"></circle><circle r="9" cx="85" cy="67" fill="hsl(239, 50%, 50%)" opacity="0.16"></circle><circle r="7.5" cx="717" cy="757" stroke-width="2" stroke="hsl(146, 50%, 50%)" fill="none" opacity="0.11"></circle><circle r="7.5" cx="453" cy="697" stroke-width="2" stroke="hsl(129, 50%, 50%)" fill="none" opacity="0.38"></circle><circle r="12" cx="696" cy="58" stroke-width="2" stroke="hsl(219, 50%, 50%)" fill="none" opacity="0.47"></circle><circle r="8" cx="761" cy="663" fill="hsl(184, 50%, 50%)" opacity="0.35"></circle><circle r="10.5" cx="82" cy="279" stroke-width="2" stroke="hsl(212, 50%, 50%)" fill="none" opacity="0.46"></circle><circle r="9" cx="324" cy="303" fill="hsl(185, 50%, 50%)" opacity="0.77"></circle><circle r="10" cx="23" cy="779" fill="hsl(169, 50%, 50%)" opacity="0.60"></circle><circle r="9.5" cx="431" cy="154" fill="hsl(166, 50%, 50%)" opacity="0.91"></circle><circle r="5" cx="530" cy="473" fill="hsl(111, 50%, 50%)" opacity="0.95"></circle><circle r="6.5" cx="485" cy="374" stroke-width="2" stroke="hsl(123, 50%, 50%)" fill="none" opacity="0.11"></circle><circle r="10" cx="573" cy="92" stroke-width="2" stroke="hsl(193, 50%, 50%)" fill="none" opacity="0.74"></circle><circle r="10.5" cx="88" cy="215" stroke-width="2" stroke="hsl(219, 50%, 50%)" fill="none" opacity="0.56"></circle><circle r="5" cx="587" cy="371" fill="hsl(100, 50%, 50%)" opacity="0.74"></circle><circle r="11.5" cx="106" cy="180" stroke-width="2" stroke="hsl(228, 50%, 50%)" fill="none" opacity="0.40"></circle><circle r="6" cx="531" cy="532" fill="hsl(111, 50%, 50%)" opacity="0.41"></circle><circle r="7" cx="627" cy="271" fill="hsl(99, 50%, 50%)" opacity="0.36"></circle><circle r="6" cx="462" cy="328" fill="hsl(129, 50%, 50%)" opacity="0.24"></circle><circle r="9" cx="372" cy="548" fill="hsl(157, 50%, 50%)" opacity="0.91"></circle><circle r="9" cx="303" cy="559" stroke-width="2" stroke="hsl(193, 50%, 50%)" fill="none" opacity="0.61"></circle><circle r="8" cx="413" cy="669" fill="hsl(138, 50%, 50%)" opacity="0.28"></circle><circle r="10.5" cx="168" cy="603" stroke-width="2" stroke="hsl(245, 50%, 50%)" fill="none" opacity="0.41"></circle><circle r="8.5" cx="784" cy="220" fill="hsl(211, 50%, 50%)" opacity="0.78"></circle><circle r="7" cx="654" cy="303" stroke-width="2" stroke="hsl(105, 50%, 50%)" fill="none" opacity="0.90"></circle><circle r="9" cx="49" cy="410" stroke-width="2" stroke="hsl(186, 50%, 50%)" fill="none" opacity="0.20"></circle><circle r="9" cx="747" cy="226" fill="hsl(171, 50%, 50%)" opacity="0.52"></circle><circle r="7.5" cx="457" cy="781" fill="hsl(129, 50%, 50%)" opacity="0.21"></circle><circle r="11.5" cx="221" cy="716" fill="hsl(238, 50%, 50%)" opacity="0.93"></circle><circle r="10" cx="782" cy="488" stroke-width="2" stroke="hsl(211, 50%, 50%)" fill="none" opacity="0.89"></circle><circle r="10" cx="258" cy="689" stroke-width="2" stroke="hsl(222, 50%, 50%)" fill="none" opacity="0.40"></circle><circle r="7" cx="447" cy="389" fill="hsl(131, 50%, 50%)" opacity="0.82"></circle><circle r="6" cx="501" cy="526" stroke-width="2" stroke="hsl(117, 50%, 50%)" fill="none" opacity="0.75"></circle><circle r="9" cx="16" cy="512" fill="hsl(169, 50%, 50%)" opacity="0.66"></circle><circle r="7" cx="566" cy="623" stroke-width="2" stroke="hsl(102, 50%, 50%)" fill="none" opacity="0.51"></circle><circle r="11" cx="782" cy="128" fill="hsl(262, 50%, 50%)" opacity="0.24"></circle><circle r="9.5" cx="359" cy="665" stroke-width="2" stroke="hsl(163, 50%, 50%)" fill="none" opacity="0.74"></circle><circle r="6" cx="469" cy="467" fill="hsl(126, 50%, 50%)" opacity="0.18"></circle><circle r="8.5" cx="708" cy="249" stroke-width="2" stroke="hsl(135, 50%, 50%)" fill="none" opacity="0.31"></circle><circle r="8" cx="396" cy="314" stroke-width="2" stroke="hsl(146, 50%, 50%)" fill="none" opacity="0.89"></circle><circle r="8" cx="413" cy="781" fill="hsl(138, 50%, 50%)" opacity="0.13"></circle><circle r="9" cx="90" cy="96" fill="hsl(240, 50%, 50%)" opacity="0.64"></circle><circle r="7.5" cx="17" cy="43" fill="hsl(190, 50%, 50%)" opacity="0.12"></circle><circle r="11.5" cx="181" cy="650" stroke-width="2" stroke="hsl(245, 50%, 50%)" fill="none" opacity="0.32"></circle><circle r="10" cx="55" cy="749" stroke-width="2" stroke="hsl(195, 50%, 50%)" fill="none" opacity="0.33"></circle><circle r="8.5" cx="388" cy="697" stroke-width="2" stroke="hsl(146, 50%, 50%)" fill="none" opacity="0.98"></circle><circle r="10.5" cx="229" cy="479" fill="hsl(234, 50%, 50%)" opacity="0.16"></circle><circle r="11" cx="140" cy="712" stroke-width="2" stroke="hsl(241, 50%, 50%)" fill="none" opacity="0.87"></circle><circle r="9.5" cx="73" cy="122" stroke-width="2" stroke="hsl(221, 50%, 50%)" fill="none" opacity="0.84"></circle><circle r="8" cx="726" cy="441" fill="hsl(158, 50%, 50%)" opacity="0.77"></circle><circle r="6" cx="592" cy="557" fill="hsl(99, 50%, 50%)" opacity="0.47"></circle><circle r="8" cx="708" cy="553" stroke-width="2" stroke="hsl(135, 50%, 50%)" fill="none" opacity="0.31"></circle><circle r="10.5" cx="503" cy="128" fill="hsl(178, 50%, 50%)" opacity="0.12"></circle><circle r="9.5" cx="111" cy="14" fill="hsl(258, 50%, 50%)" opacity="0.84"></circle><circle r="12" cx="147" cy="105" stroke-width="2" stroke="hsl(250, 50%, 50%)" fill="none" opacity="0.34"></circle><circle r="8.5" cx="728" cy="687" stroke-width="2" stroke="hsl(158, 50%, 50%)" fill="none" opacity="0.76"></circle><circle r="11" cx="298" cy="144" fill="hsl(203, 50%, 50%)" opacity="0.82"></circle><circle r="6.5" cx="413" cy="345" stroke-width="2" stroke="hsl(138, 50%, 50%)" fill="none" opacity="0.73"></circle><circle r="7" cx="441" cy="552" fill="hsl(131, 50%, 50%)" opacity="0.63"></circle><circle r="8.5" cx="382" cy="280" fill="hsl(151, 50%, 50%)" opacity="0.35"></circle><circle r="9.5" cx="60" cy="669" fill="hsl(195, 50%, 50%)" opacity="0.32"></circle><circle r="12" cx="193" cy="517" fill="hsl(244, 50%, 50%)" opacity="0.48"></circle><circle r="11.5" cx="427" cy="50" fill="hsl(257, 50%, 50%)" opacity="0.57"></circle><circle r="9" cx="747" cy="376" fill="hsl(171, 50%, 50%)" opacity="0.30"></circle><circle r="10.5" cx="149" cy="174" fill="hsl(242, 50%, 50%)" opacity="0.86"></circle><circle r="7.5" cx="439" cy="586" fill="hsl(131, 50%, 50%)" opacity="0.86"></circle><circle r="9.5" cx="83" cy="157" fill="hsl(220, 50%, 50%)" opacity="0.47"></circle><circle r="9" cx="780" cy="252" fill="hsl(211, 50%, 50%)" opacity="0.53"></circle><circle r="10.5" cx="130" cy="385" fill="hsl(238, 50%, 50%)" opacity="0.69"></circle><circle r="5.5" cx="563" cy="351" fill="hsl(102, 50%, 50%)" opacity="0.15"></circle><circle r="10" cx="82" cy="477" fill="hsl(212, 50%, 50%)" opacity="0.71"></circle><circle r="7.5" cx="727" cy="333" fill="hsl(158, 50%, 50%)" opacity="0.51"></circle><circle r="6" cx="621" cy="497" stroke-width="2" stroke="hsl(98, 50%, 50%)" fill="none" opacity="0.76"></circle><circle r="9" cx="294" cy="752" stroke-width="2" stroke="hsl(200, 50%, 50%)" fill="none" opacity="0.33"></circle><circle r="6" cx="516" cy="396" fill="hsl(114, 50%, 50%)" opacity="0.34"></circle><circle r="8.5" cx="346" cy="386" fill="hsl(170, 50%, 50%)" opacity="0.19"></circle><circle r="12.5" cx="491" cy="20" fill="hsl(257, 50%, 50%)" opacity="0.55"></circle><circle r="12.5" cx="469" cy="55" stroke-width="2" stroke="hsl(251, 50%, 50%)" fill="none" opacity="0.75"></circle><circle r="10.5" cx="283" cy="244" fill="hsl(208, 50%, 50%)" opacity="0.77"></circle><circle r="6" cx="666" cy="723" stroke-width="2" stroke="hsl(111, 50%, 50%)" fill="none" opacity="0.55"></circle><circle r="7.5" cx="742" cy="785" fill="hsl(171, 50%, 50%)" opacity="0.90"></circle><circle r="7" cx="632" cy="739" stroke-width="2" stroke="hsl(99, 50%, 50%)" fill="none" opacity="0.95"></circle><circle r="7" cx="461" cy="614" stroke-width="2" stroke="hsl(129, 50%, 50%)" fill="none" opacity="0.99"></circle><circle r="9.5" cx="49" cy="493" stroke-width="2" stroke="hsl(186, 50%, 50%)" fill="none" opacity="0.13"></circle><circle r="7" cx="500" cy="601" stroke-width="2" stroke="hsl(120, 50%, 50%)" fill="none" opacity="0.11"></circle><circle r="7.5" cx="14" cy="128" fill="hsl(184, 50%, 50%)" opacity="0.13"></circle><circle r="11.5" cx="485" cy="91" stroke-width="2" stroke="hsl(221, 50%, 50%)" fill="none" opacity="0.79"></circle><circle r="11.5" cx="204" cy="776" stroke-width="2" stroke="hsl(242, 50%, 50%)" fill="none" opacity="0.45"></circle><circle r="7.5" cx="759" cy="13" fill="hsl(218, 50%, 50%)" opacity="0.31"></circle><circle r="5.5" cx="635" cy="467" fill="hsl(99, 50%, 50%)" opacity="0.10"></circle><circle r="6" cx="517" cy="312" stroke-width="2" stroke="hsl(114, 50%, 50%)" fill="none" opacity="0.46"></circle><circle r="6.5" cx="575" cy="696" stroke-width="2" stroke="hsl(102, 50%, 50%)" fill="none" opacity="0.52"></circle><circle r="9.5" cx="109" cy="123" fill="hsl(240, 50%, 50%)" opacity="0.26"></circle><circle r="9.5" cx="50" cy="453" fill="hsl(186, 50%, 50%)" opacity="0.83"></circle><circle r="10.5" cx="218" cy="388" fill="hsl(238, 50%, 50%)" opacity="0.42"></circle><circle r="11.5" cx="177" cy="447" fill="hsl(245, 50%, 50%)" opacity="0.43"></circle><circle r="6.5" cx="648" cy="160" fill="hsl(134, 50%, 50%)" opacity="0.19"></circle><circle r="8" cx="376" cy="351" fill="hsl(151, 50%, 50%)" opacity="0.76"></circle><circle r="6.5" cx="656" cy="411" fill="hsl(105, 50%, 50%)" opacity="0.32"></circle><circle r="6" cx="561" cy="543" fill="hsl(105, 50%, 50%)" opacity="0.54"></circle></svg>