<svg xmlns="http://www.w3.org/2000/svg" version="1.1" xmlns:xlink="http://www.w3.org/1999/xlink" xmlns:svgjs="http://svgjs.dev/svgjs" viewBox="0 0 2400 800" opacity="0.43"><defs><linearGradient x1="50%" y1="0%" x2="50%" y2="100%" id="sssurf-grad"><stop stop-color="hsl(265, 55%, 30%)" stop-opacity="1" offset="0%"></stop><stop stop-color="hsl(265, 55%, 60%)" stop-opacity="1" offset="100%"></stop></linearGradient></defs><g fill="url(#sssurf-grad)" transform="matrix(1,0,0,1,0,-85.95416259765625)"><path d="M 0 370.66350509426013 Q 480 450 480 363.3100307865375 Q 960 450 960 361.59951973478275 Q 1440 450 1440 361.1696556968063 Q 1920 450 1920 271.90833446029603 Q 2400 450 2400 276.7658437436588 L 2400 800 L 0 800 L 0 295.49130860720885 Z" transform="matrix(1,0,0,1,0,25)" opacity="0.05"></path><path d="M 0 370.66350509426013 Q 480 450 480 363.3100307865375 Q 960 450 960 361.59951973478275 Q 1440 450 1440 361.1696556968063 Q 1920 450 1920 271.90833446029603 Q 2400 450 2400 276.7658437436588 L 2400 800 L 0 800 L 0 295.49130860720885 Z" transform="matrix(1,0,0,1,0,50)" opacity="0.15"></path><path d="M 0 370.66350509426013 Q 480 450 480 363.3100307865375 Q 960 450 960 361.59951973478275 Q 1440 450 1440 361.1696556968063 Q 1920 450 1920 271.90833446029603 Q 2400 450 2400 276.7658437436588 L 2400 800 L 0 800 L 0 295.49130860720885 Z" transform="matrix(1,0,0,1,0,75)" opacity="0.24"></path><path d="M 0 370.66350509426013 Q 480 450 480 363.3100307865375 Q 960 450 960 361.59951973478275 Q 1440 450 1440 361.1696556968063 Q 1920 450 1920 271.90833446029603 Q 2400 450 2400 276.7658437436588 L 2400 800 L 0 800 L 0 295.49130860720885 Z" transform="matrix(1,0,0,1,0,100)" opacity="0.34"></path><path d="M 0 370.66350509426013 Q 480 450 480 363.3100307865375 Q 960 450 960 361.59951973478275 Q 1440 450 1440 361.1696556968063 Q 1920 450 1920 271.90833446029603 Q 2400 450 2400 276.7658437436588 L 2400 800 L 0 800 L 0 295.49130860720885 Z" transform="matrix(1,0,0,1,0,125)" opacity="0.43"></path><path d="M 0 370.66350509426013 Q 480 450 480 363.3100307865375 Q 960 450 960 361.59951973478275 Q 1440 450 1440 361.1696556968063 Q 1920 450 1920 271.90833446029603 Q 2400 450 2400 276.7658437436588 L 2400 800 L 0 800 L 0 295.49130860720885 Z" transform="matrix(1,0,0,1,0,150)" opacity="0.53"></path><path d="M 0 370.66350509426013 Q 480 450 480 363.3100307865375 Q 960 450 960 361.59951973478275 Q 1440 450 1440 361.1696556968063 Q 1920 450 1920 271.90833446029603 Q 2400 450 2400 276.7658437436588 L 2400 800 L 0 800 L 0 295.49130860720885 Z" transform="matrix(1,0,0,1,0,175)" opacity="0.62"></path><path d="M 0 370.66350509426013 Q 480 450 480 363.3100307865375 Q 960 450 960 361.59951973478275 Q 1440 450 1440 361.1696556968063 Q 1920 450 1920 271.90833446029603 Q 2400 450 2400 276.7658437436588 L 2400 800 L 0 800 L 0 295.49130860720885 Z" transform="matrix(1,0,0,1,0,200)" opacity="0.72"></path><path d="M 0 370.66350509426013 Q 480 450 480 363.3100307865375 Q 960 450 960 361.59951973478275 Q 1440 450 1440 361.1696556968063 Q 1920 450 1920 271.90833446029603 Q 2400 450 2400 276.7658437436588 L 2400 800 L 0 800 L 0 295.49130860720885 Z" transform="matrix(1,0,0,1,0,225)" opacity="0.81"></path><path d="M 0 370.66350509426013 Q 480 450 480 363.3100307865375 Q 960 450 960 361.59951973478275 Q 1440 450 1440 361.1696556968063 Q 1920 450 1920 271.90833446029603 Q 2400 450 2400 276.7658437436588 L 2400 800 L 0 800 L 0 295.49130860720885 Z" transform="matrix(1,0,0,1,0,250)" opacity="0.91"></path><path d="M 0 370.66350509426013 Q 480 450 480 363.3100307865375 Q 960 450 960 361.59951973478275 Q 1440 450 1440 361.1696556968063 Q 1920 450 1920 271.90833446029603 Q 2400 450 2400 276.7658437436588 L 2400 800 L 0 800 L 0 295.49130860720885 Z" transform="matrix(1,0,0,1,0,275)" opacity="1.00"></path></g></svg>