<svg xmlns="http://www.w3.org/2000/svg" version="1.1" xmlns:xlink="http://www.w3.org/1999/xlink" xmlns:svgjs="http://svgjs.dev/svgjs" viewBox="0 0 800 800" opacity="0.39"><g fill="none" stroke-width="5.25" stroke="hsl(352, 100%, 76%)" stroke-linecap="round" stroke-dasharray="35 25.5" transform="matrix(0.9,0,0,0.9,40.0000061035156,40.00000762939453)"><line x1="530.5" y1="400" x2="269.5" y2="400" transform="rotate(0, 400, 400)" opacity="0.97"></line><line x1="345.5" y1="400" x2="454.5" y2="400" transform="rotate(10, 400, 400)" opacity="0.76"></line><line x1="30" y1="400" x2="770" y2="400" transform="rotate(20, 400, 400)" opacity="0.85"></line><line x1="-221" y1="400" x2="1021" y2="400" transform="rotate(30, 400, 400)" opacity="0.61"></line><line x1="-301.5" y1="400" x2="1101.5" y2="400" transform="rotate(40, 400, 400)" opacity="0.45"></line><line x1="-293.5" y1="400" x2="1093.5" y2="400" transform="rotate(50, 400, 400)" opacity="0.20"></line><line x1="-267.5" y1="400" x2="1067.5" y2="400" transform="rotate(60, 400, 400)" opacity="0.72"></line><line x1="150" y1="400" x2="650" y2="400" transform="rotate(70, 400, 400)" opacity="0.86"></line><line x1="-61" y1="400" x2="861" y2="400" transform="rotate(80, 400, 400)" opacity="0.17"></line><line x1="696.5" y1="400" x2="103.5" y2="400" transform="rotate(90, 400, 400)" opacity="0.72"></line><line x1="665.5" y1="400" x2="134.5" y2="400" transform="rotate(100, 400, 400)" opacity="0.36"></line><line x1="3.5" y1="400" x2="796.5" y2="400" transform="rotate(110, 400, 400)" opacity="0.81"></line><line x1="616" y1="400" x2="184" y2="400" transform="rotate(120, 400, 400)" opacity="0.53"></line><line x1="82.5" y1="400" x2="717.5" y2="400" transform="rotate(130, 400, 400)" opacity="0.76"></line><line x1="492" y1="400" x2="308" y2="400" transform="rotate(140, 400, 400)" opacity="0.56"></line><line x1="126" y1="400" x2="674" y2="400" transform="rotate(150, 400, 400)" opacity="0.99"></line><line x1="-134" y1="400" x2="934" y2="400" transform="rotate(160, 400, 400)" opacity="0.95"></line><line x1="-308" y1="400" x2="1108" y2="400" transform="rotate(170, 400, 400)" opacity="0.41"></line><line x1="104" y1="400" x2="696" y2="400" transform="rotate(180, 400, 400)" opacity="0.89"></line><line x1="677.5" y1="400" x2="122.5" y2="400" transform="rotate(190, 400, 400)" opacity="0.61"></line><line x1="319" y1="400" x2="481" y2="400" transform="rotate(200, 400, 400)" opacity="0.98"></line><line x1="247" y1="400" x2="553" y2="400" transform="rotate(210, 400, 400)" opacity="0.19"></line><line x1="-112.5" y1="400" x2="912.5" y2="400" transform="rotate(220, 400, 400)" opacity="0.08"></line><line x1="-301" y1="400" x2="1101" y2="400" transform="rotate(230, 400, 400)" opacity="0.92"></line><line x1="-295.5" y1="400" x2="1095.5" y2="400" transform="rotate(240, 400, 400)" opacity="0.66"></line><line x1="-116" y1="400" x2="916" y2="400" transform="rotate(250, 400, 400)" opacity="0.08"></line><line x1="-10.5" y1="400" x2="810.5" y2="400" transform="rotate(260, 400, 400)" opacity="0.77"></line><line x1="559.5" y1="400" x2="240.5" y2="400" transform="rotate(270, 400, 400)" opacity="0.72"></line><line x1="60.5" y1="400" x2="739.5" y2="400" transform="rotate(280, 400, 400)" opacity="0.92"></line><line x1="174" y1="400" x2="626" y2="400" transform="rotate(290, 400, 400)" opacity="0.82"></line><line x1="458" y1="400" x2="342" y2="400" transform="rotate(300, 400, 400)" opacity="0.73"></line><line x1="315" y1="400" x2="485" y2="400" transform="rotate(310, 400, 400)" opacity="0.39"></line><line x1="196" y1="400" x2="604" y2="400" transform="rotate(320, 400, 400)" opacity="0.61"></line><line x1="623.5" y1="400" x2="176.5" y2="400" transform="rotate(330, 400, 400)" opacity="0.31"></line><line x1="585" y1="400" x2="215" y2="400" transform="rotate(340, 400, 400)" opacity="0.64"></line></g></svg>