<svg xmlns="http://www.w3.org/2000/svg" version="1.1" xmlns:xlink="http://www.w3.org/1999/xlink" xmlns:svgjs="http://svgjs.dev/svgjs" viewBox="0 0 800 800"><g fill="none" stroke-width="4" stroke="hsl(50, 98%, 50%)" stroke-linecap="round" stroke-dasharray="0 67"><line x1="523" y1="400" x2="277" y2="400" transform="rotate(0, 400, 400)" opacity="0.11"></line><line x1="622" y1="400" x2="178" y2="400" transform="rotate(3, 400, 400)" opacity="0.10"></line><line x1="563" y1="400" x2="237" y2="400" transform="rotate(6, 400, 400)" opacity="0.52"></line><line x1="389.5" y1="400" x2="410.5" y2="400" transform="rotate(9, 400, 400)" opacity="0.30"></line><line x1="483" y1="400" x2="317" y2="400" transform="rotate(12, 400, 400)" opacity="0.62"></line><line x1="414.5" y1="400" x2="385.5" y2="400" transform="rotate(15, 400, 400)" opacity="0.25"></line><line x1="266" y1="400" x2="534" y2="400" transform="rotate(18, 400, 400)" opacity="0.60"></line><line x1="426.5" y1="400" x2="373.5" y2="400" transform="rotate(21, 400, 400)" opacity="0.26"></line><line x1="605" y1="400" x2="195" y2="400" transform="rotate(24, 400, 400)" opacity="0.66"></line><line x1="445.5" y1="400" x2="354.5" y2="400" transform="rotate(27, 400, 400)" opacity="0.89"></line><line x1="640" y1="400" x2="160" y2="400" transform="rotate(30, 400, 400)" opacity="0.35"></line><line x1="211.5" y1="400" x2="588.5" y2="400" transform="rotate(33, 400, 400)" opacity="0.23"></line><line x1="406.5" y1="400" x2="393.5" y2="400" transform="rotate(36, 400, 400)" opacity="0.68"></line><line x1="657.5" y1="400" x2="142.5" y2="400" transform="rotate(39, 400, 400)" opacity="0.28"></line><line x1="282" y1="400" x2="518" y2="400" transform="rotate(42, 400, 400)" opacity="0.43"></line><line x1="611" y1="400" x2="189" y2="400" transform="rotate(45, 400, 400)" opacity="0.63"></line><line x1="533.5" y1="400" x2="266.5" y2="400" transform="rotate(48, 400, 400)" opacity="0.44"></line><line x1="613" y1="400" x2="187" y2="400" transform="rotate(51, 400, 400)" opacity="0.52"></line><line x1="279" y1="400" x2="521" y2="400" transform="rotate(54, 400, 400)" opacity="0.63"></line><line x1="416" y1="400" x2="384" y2="400" transform="rotate(57, 400, 400)" opacity="0.53"></line><line x1="374" y1="400" x2="426" y2="400" transform="rotate(60, 400, 400)" opacity="0.49"></line><line x1="389" y1="400" x2="411" y2="400" transform="rotate(63, 400, 400)" opacity="0.35"></line><line x1="351.5" y1="400" x2="448.5" y2="400" transform="rotate(66, 400, 400)" opacity="0.42"></line><line x1="251.5" y1="400" x2="548.5" y2="400" transform="rotate(69, 400, 400)" opacity="0.89"></line><line x1="560.5" y1="400" x2="239.5" y2="400" transform="rotate(72, 400, 400)" opacity="0.90"></line><line x1="225" y1="400" x2="575" y2="400" transform="rotate(75, 400, 400)" opacity="0.40"></line><line x1="391.5" y1="400" x2="408.5" y2="400" transform="rotate(78, 400, 400)" opacity="0.08"></line><line x1="389" y1="400" x2="411" y2="400" transform="rotate(81, 400, 400)" opacity="0.49"></line><line x1="405" y1="400" x2="395" y2="400" transform="rotate(84, 400, 400)" opacity="0.69"></line><line x1="209" y1="400" x2="591" y2="400" transform="rotate(87, 400, 400)" opacity="0.58"></line><line x1="462.5" y1="400" x2="337.5" y2="400" transform="rotate(90, 400, 400)" opacity="0.49"></line><line x1="580" y1="400" x2="220" y2="400" transform="rotate(93, 400, 400)" opacity="0.84"></line><line x1="566.5" y1="400" x2="233.5" y2="400" transform="rotate(96, 400, 400)" opacity="0.64"></line><line x1="342.5" y1="400" x2="457.5" y2="400" transform="rotate(99, 400, 400)" opacity="0.67"></line><line x1="610" y1="400" x2="190" y2="400" transform="rotate(102, 400, 400)" opacity="0.64"></line><line x1="293.5" y1="400" x2="506.5" y2="400" transform="rotate(105, 400, 400)" opacity="0.48"></line><line x1="258" y1="400" x2="542" y2="400" transform="rotate(108, 400, 400)" opacity="0.75"></line><line x1="546.5" y1="400" x2="253.5" y2="400" transform="rotate(111, 400, 400)" opacity="0.31"></line><line x1="386" y1="400" x2="414" y2="400" transform="rotate(114, 400, 400)" opacity="0.40"></line><line x1="505.5" y1="400" x2="294.5" y2="400" transform="rotate(117, 400, 400)" opacity="0.91"></line><line x1="424" y1="400" x2="376" y2="400" transform="rotate(120, 400, 400)" opacity="0.24"></line><line x1="410" y1="400" x2="390" y2="400" transform="rotate(123, 400, 400)" opacity="0.92"></line><line x1="589" y1="400" x2="211" y2="400" transform="rotate(126, 400, 400)" opacity="0.52"></line><line x1="365" y1="400" x2="435" y2="400" transform="rotate(129, 400, 400)" opacity="0.19"></line><line x1="589.5" y1="400" x2="210.5" y2="400" transform="rotate(132, 400, 400)" opacity="0.99"></line><line x1="366.5" y1="400" x2="433.5" y2="400" transform="rotate(135, 400, 400)" opacity="0.49"></line><line x1="392" y1="400" x2="408" y2="400" transform="rotate(138, 400, 400)" opacity="0.43"></line><line x1="414.5" y1="400" x2="385.5" y2="400" transform="rotate(141, 400, 400)" opacity="0.51"></line><line x1="467.5" y1="400" x2="332.5" y2="400" transform="rotate(144, 400, 400)" opacity="0.25"></line><line x1="380" y1="400" x2="420" y2="400" transform="rotate(147, 400, 400)" opacity="0.71"></line><line x1="272.5" y1="400" x2="527.5" y2="400" transform="rotate(150, 400, 400)" opacity="0.50"></line><line x1="556" y1="400" x2="244" y2="400" transform="rotate(153, 400, 400)" opacity="0.47"></line><line x1="426.5" y1="400" x2="373.5" y2="400" transform="rotate(156, 400, 400)" opacity="0.90"></line><line x1="435.5" y1="400" x2="364.5" y2="400" transform="rotate(159, 400, 400)" opacity="0.89"></line><line x1="620.5" y1="400" x2="179.5" y2="400" transform="rotate(162, 400, 400)" opacity="0.49"></line><line x1="524.5" y1="400" x2="275.5" y2="400" transform="rotate(165, 400, 400)" opacity="0.16"></line><line x1="589.5" y1="400" x2="210.5" y2="400" transform="rotate(168, 400, 400)" opacity="0.90"></line><line x1="345.5" y1="400" x2="454.5" y2="400" transform="rotate(171, 400, 400)" opacity="0.58"></line><line x1="586" y1="400" x2="214" y2="400" transform="rotate(174, 400, 400)" opacity="0.82"></line><line x1="502" y1="400" x2="298" y2="400" transform="rotate(177, 400, 400)" opacity="0.62"></line><line x1="617" y1="400" x2="183" y2="400" transform="rotate(180, 400, 400)" opacity="0.90"></line><line x1="390" y1="400" x2="410" y2="400" transform="rotate(183, 400, 400)" opacity="0.47"></line><line x1="606.5" y1="400" x2="193.5" y2="400" transform="rotate(186, 400, 400)" opacity="0.69"></line><line x1="309" y1="400" x2="491" y2="400" transform="rotate(189, 400, 400)" opacity="0.80"></line><line x1="368.5" y1="400" x2="431.5" y2="400" transform="rotate(192, 400, 400)" opacity="0.51"></line><line x1="615" y1="400" x2="185" y2="400" transform="rotate(195, 400, 400)" opacity="0.12"></line><line x1="224" y1="400" x2="576" y2="400" transform="rotate(198, 400, 400)" opacity="0.41"></line><line x1="309.5" y1="400" x2="490.5" y2="400" transform="rotate(201, 400, 400)" opacity="0.30"></line><line x1="621" y1="400" x2="179" y2="400" transform="rotate(204, 400, 400)" opacity="0.32"></line><line x1="586" y1="400" x2="214" y2="400" transform="rotate(207, 400, 400)" opacity="0.30"></line><line x1="424.5" y1="400" x2="375.5" y2="400" transform="rotate(210, 400, 400)" opacity="0.19"></line><line x1="474.5" y1="400" x2="325.5" y2="400" transform="rotate(213, 400, 400)" opacity="1.00"></line><line x1="608.5" y1="400" x2="191.5" y2="400" transform="rotate(216, 400, 400)" opacity="0.38"></line><line x1="354" y1="400" x2="446" y2="400" transform="rotate(219, 400, 400)" opacity="0.56"></line><line x1="380.5" y1="400" x2="419.5" y2="400" transform="rotate(222, 400, 400)" opacity="0.72"></line><line x1="435.5" y1="400" x2="364.5" y2="400" transform="rotate(225, 400, 400)" opacity="0.65"></line><line x1="379" y1="400" x2="421" y2="400" transform="rotate(228, 400, 400)" opacity="0.41"></line><line x1="506.5" y1="400" x2="293.5" y2="400" transform="rotate(231, 400, 400)" opacity="0.34"></line><line x1="531.5" y1="400" x2="268.5" y2="400" transform="rotate(234, 400, 400)" opacity="0.92"></line><line x1="623" y1="400" x2="177" y2="400" transform="rotate(237, 400, 400)" opacity="0.08"></line><line x1="585.5" y1="400" x2="214.5" y2="400" transform="rotate(240, 400, 400)" opacity="0.33"></line><line x1="318" y1="400" x2="482" y2="400" transform="rotate(243, 400, 400)" opacity="0.75"></line><line x1="624.5" y1="400" x2="175.5" y2="400" transform="rotate(246, 400, 400)" opacity="0.12"></line><line x1="329.5" y1="400" x2="470.5" y2="400" transform="rotate(249, 400, 400)" opacity="0.44"></line><line x1="493" y1="400" x2="307" y2="400" transform="rotate(252, 400, 400)" opacity="0.53"></line><line x1="423" y1="400" x2="377" y2="400" transform="rotate(255, 400, 400)" opacity="0.07"></line><line x1="622" y1="400" x2="178" y2="400" transform="rotate(258, 400, 400)" opacity="0.82"></line><line x1="585.5" y1="400" x2="214.5" y2="400" transform="rotate(261, 400, 400)" opacity="0.86"></line><line x1="528.5" y1="400" x2="271.5" y2="400" transform="rotate(264, 400, 400)" opacity="0.67"></line><line x1="340.5" y1="400" x2="459.5" y2="400" transform="rotate(267, 400, 400)" opacity="0.29"></line><line x1="331" y1="400" x2="469" y2="400" transform="rotate(270, 400, 400)" opacity="0.67"></line><line x1="223.5" y1="400" x2="576.5" y2="400" transform="rotate(273, 400, 400)" opacity="0.67"></line><line x1="463.5" y1="400" x2="336.5" y2="400" transform="rotate(276, 400, 400)" opacity="0.88"></line><line x1="582" y1="400" x2="218" y2="400" transform="rotate(279, 400, 400)" opacity="0.98"></line><line x1="294" y1="400" x2="506" y2="400" transform="rotate(282, 400, 400)" opacity="0.83"></line><line x1="565.5" y1="400" x2="234.5" y2="400" transform="rotate(285, 400, 400)" opacity="0.67"></line><line x1="447.5" y1="400" x2="352.5" y2="400" transform="rotate(288, 400, 400)" opacity="0.93"></line><line x1="454" y1="400" x2="346" y2="400" transform="rotate(291, 400, 400)" opacity="0.07"></line><line x1="428" y1="400" x2="372" y2="400" transform="rotate(294, 400, 400)" opacity="0.88"></line><line x1="428.5" y1="400" x2="371.5" y2="400" transform="rotate(297, 400, 400)" opacity="0.78"></line><line x1="637" y1="400" x2="163" y2="400" transform="rotate(300, 400, 400)" opacity="0.96"></line><line x1="514.5" y1="400" x2="285.5" y2="400" transform="rotate(303, 400, 400)" opacity="0.61"></line><line x1="501.5" y1="400" x2="298.5" y2="400" transform="rotate(306, 400, 400)" opacity="0.64"></line><line x1="307.5" y1="400" x2="492.5" y2="400" transform="rotate(309, 400, 400)" opacity="0.13"></line><line x1="449.5" y1="400" x2="350.5" y2="400" transform="rotate(312, 400, 400)" opacity="0.11"></line><line x1="492.5" y1="400" x2="307.5" y2="400" transform="rotate(315, 400, 400)" opacity="0.60"></line><line x1="319" y1="400" x2="481" y2="400" transform="rotate(318, 400, 400)" opacity="0.53"></line><line x1="364" y1="400" x2="436" y2="400" transform="rotate(321, 400, 400)" opacity="0.81"></line><line x1="402" y1="400" x2="398" y2="400" transform="rotate(324, 400, 400)" opacity="0.42"></line><line x1="382.5" y1="400" x2="417.5" y2="400" transform="rotate(327, 400, 400)" opacity="0.58"></line><line x1="598.5" y1="400" x2="201.5" y2="400" transform="rotate(330, 400, 400)" opacity="0.87"></line><line x1="509.5" y1="400" x2="290.5" y2="400" transform="rotate(333, 400, 400)" opacity="0.10"></line><line x1="364" y1="400" x2="436" y2="400" transform="rotate(336, 400, 400)" opacity="0.42"></line><line x1="535.5" y1="400" x2="264.5" y2="400" transform="rotate(339, 400, 400)" opacity="0.86"></line><line x1="197" y1="400" x2="603" y2="400" transform="rotate(342, 400, 400)" opacity="0.90"></line><line x1="300" y1="400" x2="500" y2="400" transform="rotate(345, 400, 400)" opacity="0.10"></line><line x1="497" y1="400" x2="303" y2="400" transform="rotate(348, 400, 400)" opacity="0.97"></line><line x1="418" y1="400" x2="382" y2="400" transform="rotate(351, 400, 400)" opacity="0.67"></line><line x1="586" y1="400" x2="214" y2="400" transform="rotate(354, 400, 400)" opacity="0.44"></line><line x1="450" y1="400" x2="350" y2="400" transform="rotate(357, 400, 400)" opacity="0.10"></line><line x1="402" y1="400" x2="398" y2="400" transform="rotate(360, 400, 400)" opacity="0.64"></line><line x1="301" y1="400" x2="499" y2="400" transform="rotate(363, 400, 400)" opacity="0.53"></line><line x1="501.5" y1="400" x2="298.5" y2="400" transform="rotate(366, 400, 400)" opacity="0.30"></line><line x1="260" y1="400" x2="540" y2="400" transform="rotate(369, 400, 400)" opacity="0.31"></line><line x1="291" y1="400" x2="509" y2="400" transform="rotate(372, 400, 400)" opacity="0.59"></line><line x1="194" y1="400" x2="606" y2="400" transform="rotate(375, 400, 400)" opacity="0.69"></line><line x1="530" y1="400" x2="270" y2="400" transform="rotate(378, 400, 400)" opacity="0.87"></line><line x1="223" y1="400" x2="577" y2="400" transform="rotate(381, 400, 400)" opacity="0.20"></line><line x1="520" y1="400" x2="280" y2="400" transform="rotate(384, 400, 400)" opacity="0.80"></line><line x1="459" y1="400" x2="341" y2="400" transform="rotate(387, 400, 400)" opacity="0.49"></line><line x1="577.5" y1="400" x2="222.5" y2="400" transform="rotate(390, 400, 400)" opacity="0.16"></line><line x1="417.5" y1="400" x2="382.5" y2="400" transform="rotate(393, 400, 400)" opacity="0.30"></line><line x1="469" y1="400" x2="331" y2="400" transform="rotate(396, 400, 400)" opacity="0.83"></line><line x1="307.5" y1="400" x2="492.5" y2="400" transform="rotate(399, 400, 400)" opacity="0.48"></line></g></svg>