<svg xmlns="http://www.w3.org/2000/svg" version="1.1" xmlns:xlink="http://www.w3.org/1999/xlink" xmlns:svgjs="http://svgjs.dev/svgjs" viewBox="0 0 800 800" opacity="0.54"><defs><linearGradient x1="50%" y1="0%" x2="50%" y2="100%" id="uundulate-grad"><stop stop-color="hsl(162, 100%, 58%)" stop-opacity="1" offset="45%"></stop><stop stop-color="hsl(270, 73%, 53%)" stop-opacity="1" offset="100%"></stop></linearGradient></defs><g stroke-width="2" stroke="url(#uundulate-grad)" fill="none"><path d="M746.0827719338686 260.32247396461185C777.9046336096367 351.43620793172056 767.2076745550212 516.3144113282428 723.8795864340968 602.5525709661092C680.5514983131724 688.7907306039755 653.8402627505608 641.0160467493145 538.1079489534309 674.2656402263711C422.37563515630086 707.5152337034278 272.7521578162193 822.1732544428914 168.36448020787265 762.150619655981C63.97680259952597 702.1279848690706 27.155000544422194 538.6293912146485 37.04709643336753 386.15699324920206C46.93919232231286 233.68459528375547 104.57830006709315 76.31443136459097 215.84654047481024 30.28310942183805C327.1147808825274 -15.748212520914876 460.6687688364391 117.28178031090988 571.1346503904098 165.20664792398782C681.6005319443804 213.13151553706575 714.2609102581007 169.20873999750302 746.0827719338686 260.32247396461185C777.9046336096367 351.43620793172056 767.2076745550212 516.3144113282428 723.8795864340968 602.5525709661092 "></path><path d="M733.2648892313123 265.49572358159094C763.9081634376075 353.2348748091771 753.6073880516815 512.0064780799023 711.8840439352357 595.050631805255C670.1606998187898 678.0947855306077 644.4387692770158 632.0895344113046 532.9928374723721 664.1076614632851C421.5469056677284 696.1257885152658 277.46503859950167 806.5372158940081 176.94357127294563 748.7376416547613C76.4221039463896 690.9380674155142 40.96407233777114 533.4949772297743 50.48979430490368 386.6697051149C60.01551627203622 239.84443300002556 115.51984224849133 88.30279367045966 222.6670367151819 43.97633550336428C329.8142311818724 -0.35012266373109924 458.42177513749107 127.75283339654459 564.7963277450184 173.90270591284184C671.1708803525457 220.0525784291391 702.6216150250171 177.75657235400467 733.2648892313123 265.49572358159094C763.9081634376075 353.2348748091771 753.6073880516815 512.0064780799023 711.8840439352357 595.050631805255 "></path><path d="M720.4470065287558 270.6689731985699C749.9116932655779 355.0335416866336 740.0071015483416 507.69854483156155 699.8885014363744 587.5486926444008C659.7699013244073 667.39884045724 635.0372758034707 623.1630220732947 527.8777259913134 653.949682700199C420.718176179156 684.7363433271034 282.177919382784 790.9011773451252 185.52266233801868 735.3246636535414C88.86740529325323 679.7481499619578 54.77314413112009 528.3605632449003 63.93249217643984 387.18241698059796C73.09184022175958 246.00427071629565 126.4613844298895 100.29115597632841 229.4875329555535 57.669561584890516C332.5136814812174 15.047967193452678 456.17478143854305 138.2238864821793 558.4580050996271 182.59876390169586C660.741228760711 226.97364132121243 690.9823197919335 186.30440471050628 720.4470065287558 270.6689731985699C749.9116932655779 355.0335416866336 740.0071015483416 507.69854483156155 699.8885014363744 587.5486926444008 "></path><path d="M707.6291238261992 275.842222815549C735.9152230935487 356.83220856409014 726.4068150450016 503.390611583221 687.8929589375132 580.0467534835467C649.3791028300247 656.7028953838723 625.6357823299256 614.2365097352847 522.7626145102545 643.791703937113C419.88944669058344 673.3468981389412 286.89080016606647 775.2651387962419 194.10175340309166 721.9116856523217C101.31270664011686 668.5582325084013 68.58221592446904 523.2261492600261 77.37519004797599 387.6951288462959C86.168164171483 252.16410843256563 137.40292661128768 112.27951828219716 236.3080291959251 71.3627876664168C335.21313178056243 30.446057050636398 453.92778773959515 148.694939567814 552.1196824542358 191.29482189054988C650.3115771688763 233.89470421328588 679.34302455885 194.85223706700788 707.6291238261992 275.842222815549C735.9152230935487 356.83220856409014 726.4068150450016 503.390611583221 687.8929589375132 580.0467534835467 "></path><path d="M694.8112411236428 281.0154724325281C721.9187529215193 358.6308754415468 712.8065285416617 499.0826783348805 675.8974164386519 572.5448143226924C638.9883043356423 646.0069503105045 616.2342888563805 605.3099973972747 517.6475030291958 633.6337251740268C419.0607172020109 661.9574529507789 291.6036809493488 759.6291002473588 202.68084446816465 708.4987076511019C113.75800798698049 657.3683150548449 82.39128771781799 518.0917352751519 90.81788791951215 388.20784071199387C99.24448812120636 258.3239461488357 148.34446879268586 124.2678805880659 243.12852543629674 85.05601374794304C337.91258207990757 45.844146907820175 451.68079404064713 159.1659926534487 545.7813598088444 199.99087987940396C639.8819255770417 240.8157671053592 667.7037293257664 203.40006942350954 694.8112411236428 281.0154724325281C721.9187529215193 358.6308754415468 712.8065285416617 499.0826783348805 675.8974164386519 572.5448143226924 "></path><path d="M681.9933584210863 286.18866101435094C707.9222827494899 360.42948128384694 699.2062420383218 494.7746840513836 663.9018739397907 565.0428141266821C628.5975058412597 635.3109442019805 606.8327953828355 596.3834240241085 512.532391548137 623.4756853757845C418.23198771343846 650.5679467274604 296.31656173263127 743.9930006633194 211.2599355332377 695.0856686147258C126.20330933384406 646.1783365661322 96.20035951116694 512.9572602551216 104.2605857910483 388.72049154253557C112.32081207092972 264.48372282994956 159.28601097408404 136.2561818587784 249.94902167666828 98.74917879431302C340.6120323792526 61.2421757298477 449.4338003416992 169.63698470392717 539.443037163453 208.68687683310173C629.452273985207 247.73676896227636 656.0644340926827 211.9478407448549 681.9933584210863 286.18866101435094C707.9222827494899 360.42948128384694 699.2062420383218 494.7746840513836 663.9018739397907 565.0428141266821 "></path><path d="M669.1754757185298 291.36191063133003C693.9258125774604 362.22814816130347 685.6059555349818 490.46675080304294 651.9063314409294 557.5408749658279C618.2067073468772 624.6149991286129 597.4313019092904 587.4569116860987 507.4172800670781 613.3177066126984C417.403258224866 639.178501539298 301.0294425159136 728.3569621144363 219.83902659831068 681.6726906135061C138.6486106807077 634.9884191125757 110.00943130451589 507.8228462702475 117.70328366258445 389.2332034082335C125.39713602065308 270.64356054621953 170.22755315548216 148.24454416464715 256.76951791703993 112.44240487583932C343.3114826785977 76.64026558703148 447.1868066427512 180.10803778956188 533.1047145180617 217.3829348219558C619.0226223933723 254.65783185434975 644.4251388595991 220.4956731013565 669.1754757185298 291.36191063133003C693.9258125774604 362.22814816130347 685.6059555349818 490.46675080304294 651.9063314409294 557.5408749658279 "></path><path d="M656.3575930159734 296.535160248309C679.929342405431 364.02681503876 672.005669031642 486.1588175547024 639.9107889420684 550.0389358049738C607.8159088524947 613.919054055245 588.0298084357453 578.5303993480887 502.30216858601943 603.1597278496123C416.5745287362935 627.7890563511357 305.74232329919596 712.7209235655532 228.41811766338367 668.2597126122863C151.09391202757132 623.7985016590193 123.81850309786483 502.6884322853733 131.1459815341206 389.7459152739315C138.47345997037644 276.8033982624896 181.16909533688033 160.23290647051584 263.59001415741153 126.13563095736555C346.01093297794273 92.03835544421526 444.9398129438032 190.57909087519653 526.7663918726705 226.07899281080984C608.5929708015376 261.5788947464231 632.7858436265155 229.04350545785815 656.3575930159734 296.535160248309C679.929342405431 364.02681503876 672.005669031642 486.1588175547024 639.9107889420684 550.0389358049738 "></path><path d="M643.5397103134169 301.7084098652881C665.9328722334017 365.8254819162165 658.4053825283021 481.8508843063619 627.915246443207 542.5369966441197C597.4251103581121 603.2231089818773 578.6283149622002 569.6038870100789 497.18705710496056 593.0017490865262C415.7457992477209 616.3996111629735 310.4552040824784 697.08488501667 236.9972087284567 654.8467346110664C163.53921337443495 612.6085842054629 137.62757489121378 497.55401830049914 144.58867940565676 390.2586271396294C151.5497839200998 282.96323597875966 192.1106375182785 172.2212687763846 270.4105103977831 139.82885703889178C348.71038327728775 107.43644530139903 442.6928192448553 201.05014396083124 520.4280692272791 234.77505079966386C598.1633192097029 268.4999576384965 621.146548393432 237.59133781435975 643.5397103134169 301.7084098652881C665.9328722334017 365.8254819162165 658.4053825283021 481.8508843063619 627.915246443207 542.5369966441197 "></path><path d="M630.7218428696494 306.88164422347813C651.9364173201614 367.624133534884 644.8051112837512 477.5429357992323 615.919719203135 535.0350422244763C587.0343271225186 592.5271486497206 569.2268367474442 560.6773594132799 492.071960882691 582.8437550646511C414.91708501793755 605.0101507160223 315.1681001245498 681.4488312089978 245.5763150523187 641.4337413510576C175.98452998008764 601.4186514931174 151.4366619433518 492.419589056836 158.03139253598198 390.7713237465383C164.62612312861222 289.1230584362406 203.05219495846575 184.20961582346428 277.23102189694384 153.522067861629C351.4098488354218 122.83451989979375 440.44584080469633 211.52118178767688 514.0897618406768 243.47109352972882C587.7336828766572 275.4210052717808 609.5072684191375 246.13915491207229 630.7218428696494 306.88164422347813C651.9364173201614 367.624133534884 644.8051112837512 477.5429357992323 615.919719203135 535.0350422244763 "></path><path d="M617.903990684671 312.0548938404572C637.9399776657101 369.4228004123406 631.2048552979894 473.2350025508915 603.9242072218518 527.5331030636223C576.6435591457141 581.8312035763529 559.8253737914772 551.75084707527 486.9568799192102 572.685776301565C414.08838604694324 593.62070552786 319.88101142541035 665.8127926601147 254.15543663496987 628.0207633498378C188.4298618445294 590.228734039561 165.24576425427887 487.28517507196193 171.47412092509632 391.28403561223627C177.7024775959137 295.2828961525107 213.99376765744205 196.19797812933302 284.05154865489357 167.21529394315525C354.1093296523451 138.23260975697747 438.19887762332655 221.9922348733116 507.7514697128636 252.1671515185829C577.3040618024007 282.34206816385415 597.868003703632 254.68698726857394 617.903990684671 312.0548938404572C637.9399776657101 369.4228004123406 631.2048552979894 473.2350025508915 603.9242072218518 527.5331030636223 "></path><path d="M605.0860774645365 317.2281129398582C623.9434769761026 371.2214367722189 617.6045382770714 468.92703878497286 591.9286342054124 520.03113338519C566.2527301337535 571.135227985407 550.423849800354 542.8243042196821 481.84173792057334 562.5277670209008C413.25962604079257 582.2312298221196 324.5938616911146 650.1767235936535 262.73449718246474 614.60775483104C200.87513267381485 579.0387860684264 179.0548055300497 482.1507305695095 184.91678827905434 391.7967169603561C190.77877102805894 301.4427033512026 224.9352793212621 208.18630991762365 290.87201437768704 180.9084895071034C356.808749434112 153.63066909658312 435.9518534068004 232.46325744136817 501.4131165498941 260.8631789898588C566.8743796929878 289.2631005383494 586.2286779529703 263.2347891074975 605.0860774645365 317.2281129398582C623.9434769761026 371.2214367722189 617.6045382770714 468.92703878497286 591.9286342054124 520.03113338519 "></path><path d="M592.2682252795581 322.4013930744154C609.9470373216515 373.02013416725356 604.0042822913097 464.61913605421046 579.9331222241293 512.5292247419139C555.8619621569491 560.4393134296174 541.0223868443871 533.8978223992501 476.7266569570927 552.3698187753928C412.43092706979826 570.8418151515355 329.30677299197515 634.5407155623485 271.3136187651159 601.1948073473983C213.3204645382566 567.8488991324481 192.86390784097676 477.01634710221356 198.35951666816862 392.30945934363217C203.85512549536043 307.6025715850508 235.8768520202384 220.17470274107052 297.69254113563676 194.60174610620777C359.5082302510351 169.02878947134502 433.7048902254305 242.934341044581 495.07482442208084 269.55926749629094C556.4447586187313 296.18419394800094 574.5894132374649 271.7826519815772 592.2682252795581 322.4013930744154C609.9470373216515 373.02013416725356 604.0042822913097 464.61913605421046 579.9331222241293 512.5292247419139 "></path><path d="M579.4503425770017 327.57462743260544C595.9505671496221 374.81878578592114 590.4039957879697 460.31118754708075 567.937579725268 505.02727032227074C545.4711636625666 549.7433530974606 531.620893370842 524.9712948024512 471.6115454760338 542.2118247535177C411.6021975812257 559.4523547045842 334.01965377525755 618.9046617546762 279.8927098301889 587.7818140873895C225.76576588512023 556.6589664201026 206.6729796343257 471.8819178585504 211.80221453970478 392.8221559505412C216.93144944508384 313.7623940425318 246.81839420163658 232.16304978815015 304.51303737600836 208.29495692894494C362.20768055038025 184.42686406973974 431.4578965264826 253.40537887142665 488.7365017766896 278.25531022635596C546.0151070268967 303.1052415812852 562.9501180043812 280.33046907928974 579.4503425770017 327.57462743260544C595.9505671496221 374.81878578592114 590.4039957879697 460.31118754708075 567.937579725268 505.02727032227074 "></path><path d="M566.6324293568671 332.74786179079547C581.9540664600147 376.6174374045886 576.8036787670517 456.00323903995115 555.9420067088288 497.5253159026274C535.0803346506059 539.0473927653038 522.2193693797188 516.0447672056523 466.49640347739705 532.0538307316426C410.77343757507515 548.0628942576329 338.73250404096177 603.268607947004 288.47177037768375 574.3688208273807C238.21103671440574 545.469033707757 220.48202091009654 466.7474886148872 225.2448818936628 393.33485255744995C230.00774287722908 319.9222165000128 257.75990586545663 244.15139683522983 311.3335030988019 221.98816775168217C364.90710033214714 199.82493866813445 429.21087230995647 263.8764166982723 482.3981486137202 286.9513529564209C535.5854249174838 310.02628921456954 551.3107922537195 288.87828617700234 566.6324293568671 332.74786179079547C581.9540664600147 376.6174374045886 576.8036787670517 456.00323903995115 555.9420067088288 497.5253159026274 "></path><path d="M553.8145466543106 337.92109614898544C567.9575962879853 378.416089023256 563.2033922637117 451.69529053282145 543.9464642099675 490.0233614829842C524.6895361562233 528.351432433147 512.8178759061738 507.1182396088533 461.3812919963382 521.8958367097674C409.94470808650266 536.6734338106816 343.4453848242442 587.6325541393319 297.05086144275674 560.9558275673718C250.65633806126937 534.2791009954116 234.29109270344549 461.6130593712239 238.68757976519896 393.84754916435895C243.08406682695244 326.08203895749375 268.70144804685475 256.1397438823095 318.1539993391735 235.68137857441934C367.60655063149215 215.22301326652916 426.96387861100857 274.34745452511794 476.0598259683288 295.6473956864859C525.1557733256491 316.9473368478539 539.6714970206359 297.4261032747149 553.8145466543106 337.92109614898544C567.9575962879853 378.416089023256 563.2033922637117 451.69529053282145 543.9464642099675 490.0233614829842 "></path><path d="M540.9966944693322 343.09434576596453C553.9611566335341 380.21475590071253 549.60313627795 447.3873572844809 531.9509522286844 482.5214223221301C514.2987681794189 517.6554873597793 503.4164129502068 498.19172727084333 456.26621103285754 511.7378579466813C409.1160091155083 525.2839886225192 348.1582961251047 571.9965155904488 305.6299830254079 547.542849566152C263.1016699257111 523.0891835418552 248.1001950143725 456.47864538634985 252.13030815431324 394.36026103005685C256.1604212942539 332.24187667376384 279.64302074583105 268.12810618817826 324.9745260971232 249.37460465594557C370.30603144841535 230.62110312371294 424.7169154296387 284.81850761075265 469.7215338405156 304.34345367533996C514.7261522513925 323.8683997399272 528.0322323051305 305.9739356312165 540.9966944693322 343.09434576596453C553.9611566335341 380.21475590071253 549.60313627795 447.3873572844809 531.9509522286844 482.5214223221301 "></path><path d="M528.1788117667758 348.2675801241545C539.9646864615046 382.01340751938 536.00284977461 443.0794087773512 519.9554097298233 475.0194679024869C503.9079696850364 506.95952702762247 494.0149194766617 489.2651996740444 451.1510995517988 501.5798639248062C408.2872796269358 513.8945281755679 352.87117690838704 556.3604617827766 314.2090740904809 534.1298563061432C275.54697127257475 511.8992508295096 261.90926680772145 451.3442161426867 265.5730060258494 394.87295763696574C269.2367452439773 338.4016991312448 290.58456292722923 280.11645323525795 331.79502233749486 263.0678154786828C373.0054817477604 246.0191777221076 422.46992173069066 295.2895454375983 463.3832111951243 313.0394964054049C504.29650065955786 330.78944737321154 516.3929370720468 314.5217527289291 528.1788117667758 348.2675801241545C539.9646864615046 382.01340751938 536.00284977461 443.0794087773512 519.9554097298233 475.0194679024869 "></path><path d="M515.3609290642192 353.44084499992266C525.9682162894752 383.8120896556256 522.4025632712701 438.77149078779973 507.959867230962 467.5175440004218C493.5171711906538 496.2635972130439 484.6134260031166 480.33870259482353 446.03598807074 491.42190042050913C407.4585501383633 502.50509824619473 357.58405769166944 540.7244384926826 322.7881651555539 520.7168935637123C287.9922726194383 500.70934863474235 275.7183386010704 446.2098174166016 279.01570389738555 395.38568476145275C282.31306919370064 344.5615521063039 301.5261051086274 292.10483079991576 338.61551857786645 276.7610568189981C375.70493204710544 261.41728283808044 420.2229280317427 305.76061378202206 457.04488854973295 321.735569653048C493.86684906772314 337.710525524074 504.7536418389633 323.06960034421974 515.3609290642192 353.44084499992266C525.9682162894752 383.8120896556256 522.4025632712701 438.77149078779973 507.959867230962 467.5175440004218 "></path><path d="M502.54304636166285 358.6140640993236C511.97174611744583 385.610726015504 508.80227676793015 434.46352702188096 495.96432473210075 460.01557432198956C483.12637269627135 485.56762162209805 475.2119325295715 471.41215973923556 440.9208765896812 481.2638911398449C406.6298206497908 491.1156225404543 362.29693847495184 525.0883694262213 331.3672562206269 507.3038850449145C300.43757396630195 489.5194006636077 289.52741039441935 441.0753729141493 292.4584017689217 395.8983661095726C295.389393143424 350.7213593049959 312.4676472900256 304.0931625882063 345.43601481823805 290.4542523829462C378.4043823464505 276.8153421776861 417.97593433279474 316.23163635007865 450.7065659043416 330.43159712432396C483.4371974758884 344.6315578985692 493.11434660587975 331.61740218314327 502.54304636166285 358.6140640993236C511.97174611744583 385.610726015504 508.80227676793015 434.46352702188096 495.96432473210075 460.01557432198956 "></path><path d="M489.72516365910633 363.78729845751366C497.97527594541657 387.4093776341715 495.20199026459034 430.1555785147513 483.9687822332395 452.5136199023463C472.73557420188877 474.87166128994124 465.8104390560265 462.48563214243654 435.8057651086224 471.1058971179698C405.8010911612183 479.72616209350304 367.00981925823424 509.45231561854905 339.9463472856999 493.89089178490576C312.8828753131656 478.32946795126225 303.3364821877683 435.94094367048615 305.90109964045786 396.4110627164815C308.46571709314736 356.88118176247684 323.40918947142376 316.081509635286 352.25651105860965 304.14746320568344C381.1038326457956 292.2134167760808 415.7289406338468 326.70267417692423 444.36824325895026 339.1276398543889C473.0075458840538 351.55260553185354 481.4750513727961 340.1652192808558 489.72516365910633 363.78729845751366C497.97527594541657 387.4093776341715 495.20199026459034 430.1555785147513 483.9687822332395 452.5136199023463 "></path><path d="M476.9072809565498 368.9605633332818C483.9788057733872 389.2080597704171 481.6017037612504 425.8476605251998 471.9732397343783 445.0116960002812C462.3447757075062 464.17573147536257 456.4089455824814 453.5591350632157 430.6906536275636 460.9479336136728C404.9723616726459 468.33673216412984 371.72270004151665 493.816292328455 348.5254383507729 480.4779290424749C325.3281766600292 467.13956575649485 317.14555398111725 430.806544944401 319.343797511994 396.92378984096854C321.5420410428707 363.04103473753594 334.35073165282193 328.0698871999438 359.07700729898124 317.84070454599873C383.8032829451406 307.61152189205364 413.4819469348988 337.173742521348 438.02992061355894 347.823713102032C462.57789429221907 358.473683682716 469.8357561397125 348.71306689614653 476.9072809565498 368.9605633332818C483.9788057733872 389.2080597704171 481.6017037612504 425.8476605251998 471.9732397343783 445.0116960002812 "></path><path d="M464.08939825399335 374.1337976914718C469.98233560135776 391.00671138908456 468.0014172579105 421.53971201807013 459.9776972355171 437.509741580638C451.95397721312366 453.47977114320577 447.0074521089363 444.63260746641674 425.57554214650486 450.78993959179763C404.14363218407334 456.94727171717847 376.435580824799 478.18023852078284 357.10452941584595 467.06493578246614C337.77347800689284 455.9496330441493 330.9546257744662 425.6721157007379 332.78649538353017 397.4364864478774C334.6183649925941 369.2008571950169 345.2922738342201 340.0582342470235 365.8975035393529 331.5339153687359C386.5027332444857 323.00959649044836 411.2349532359508 347.64478034819365 431.6915979681676 356.51975583209696C452.1482427003844 365.3947313160003 458.1964609066289 357.26088399385907 464.08939825399335 374.1337976914718C469.98233560135776 391.00671138908456 468.0014172579105 421.53971201807013 459.9776972355171 437.509741580638 "></path><path d="M451.2715155514369 379.3070320496618C455.9858654293284 392.805363007752 454.40113075457054 417.2317635109405 447.98215473665584 430.0077871609948C441.56317871874114 442.783810811049 437.60595863539123 435.7060798696178 420.4604306654461 440.63194556992244C403.3149026955009 445.55781127022715 381.1484616080814 462.54418471311067 365.68362048091893 453.65194252245726C350.2187793537565 444.75970033180386 344.76369756781514 420.53768645707464 346.2291932550663 397.9491830547863C347.6946889423175 375.36067965249794 356.23381601561823 352.0465812941032 372.7179997797245 345.22712619147313C389.20218354383076 338.4076710888431 408.98795953700284 358.1158181750393 425.35327532277626 365.215798562162C441.7185911085497 372.3157789492846 446.55716567354534 365.8087010915716 451.2715155514369 379.3070320496618C455.9858654293284 392.805363007752 454.40113075457054 417.2317635109405 447.98215473665584 430.0077871609948 "></path><path d="M438.45364810766944 384.4802816666409C441.9894105160881 394.60402988520855 440.80085951001973 412.9238302625999 435.98662749658365 422.5058480001406C431.1723954831476 432.0878657376813 428.20448042063526 426.7795675316079 415.34533444317634 430.4739668068364C402.4861884657175 434.16836608206495 385.86135765015285 446.9081461642275 374.262726804781 440.23896452123745C362.6640959594091 433.56978287824745 358.57278461995315 415.4032724722005 359.67190638539154 398.46189492048427C360.7710281508299 381.52051736876797 367.17537345580547 364.03494359997194 379.53851127888515 358.92035227299937C391.90164910196484 353.8057609460268 406.74098109684394 368.586871260674 419.014967936174 373.911856551016C431.28895477550407 379.236841841358 434.91788569925075 374.35653344807326 438.45364810766944 384.4802816666409C441.9894105160881 394.60402988520855 440.80085951001973 412.9238302625999 435.98662749658365 422.5058480001406 "></path><path d="M425.635765405113 389.6535160248309C427.99294034405875 396.402681503876 427.2005730066798 408.61588175547024 423.99108499772245 415.0038935804974C420.7815969887651 421.39190540552454 418.8029869470902 417.85303993480886 410.2302229621176 420.3159727849612C401.657458977145 422.7789056351136 390.5742384334352 431.27209235655533 382.84181786985397 426.82597126122863C375.10939730627274 422.3798501659019 372.3818564133021 410.2688432285373 373.1146042569277 398.97459152739316C373.8473521005533 387.68033982624894 378.11691563720365 376.02329064705157 386.3590075192568 372.61356309573654C394.6010994013099 369.2038355444215 404.4939873978959 379.05790908751965 412.6766452907827 382.60789928108096C420.8593031836694 386.15788947464233 423.2785904661672 382.9043505457858 425.635765405113 389.6535160248309C427.99294034405875 396.402681503876 427.2005730066798 408.61588175547024 423.99108499772245 415.0038935804974 "></path><path d="M412.81788270255646 394.82676564180997C413.9964701720294 398.20134838133254 413.60028650333993 404.30794850712965 411.99554249886125 407.5019544196432C410.3907984943825 410.6959603321568 409.4014934735451 408.92652759679896 405.11511148105876 410.15799402187514C400.8287294885725 411.3894604469513 395.2871192167176 415.63605380767217 391.420908934927 413.4129932600088C387.55469865313637 411.1899327123455 386.19092820665105 405.1344292436632 386.55730212846385 399.4873033930911C386.92367605027664 393.84017754251903 389.0584578186018 388.0116529529203 393.1795037596284 386.30678917726283C397.3005497006549 384.6019254016053 402.24699369894796 389.52896217315435 406.3383226453913 391.30395726993504C410.42965159183467 393.07895236671567 411.6392952330836 391.45218290228746 412.81788270255646 394.82676564180997C413.9964701720294 398.20134838133254 413.60028650333993 404.30794850712965 411.99554249886125 407.5019544196432 "></path></g></svg>