<svg xmlns="http://www.w3.org/2000/svg" version="1.1" xmlns:xlink="http://www.w3.org/1999/xlink" xmlns:svgjs="http://svgjs.dev/svgjs" viewBox="0 0 800 800"><defs><filter id="uuunion-blur" x="-100%" y="-100%" width="400%" height="400%" color-interpolation-filters="sRGB">
        <feGaussianBlur in="SourceGraphic" stdDeviation="0 0" result="blur"></feGaussianBlur>
        <feDropShadow stdDeviation="33.23076923076923" in="blur" dx="27" dy="27" flood-color="hsl(234, 11%, 94%)" flood-opacity="0.77" x="0%" y="0%" width="100%" height="100%"></feDropShadow>
      </filter><filter id="uuunion-blur2" x="-100%" y="-100%" width="400%" height="400%" color-interpolation-filters="sRGB">
        <feGaussianBlur in="SourceGraphic" stdDeviation="0 0" result="blur"></feGaussianBlur>
        <feDropShadow stdDeviation="33.23076923076923" in="blur" dx="-27" dy="-27" flood-color="hsl(234, 11%, 94%)" flood-opacity="0.77" x="0%" y="0%" width="100%" height="100%"></feDropShadow>
      </filter><linearGradient gradientTransform="rotate(0, 0.5, 0.5)" x1="50%" y1="0%" x2="50%" y2="100%" id="uuunion-grad"><stop stop-color="hsl(0, 0%, 100%)" offset="10%"></stop><stop stop-color="hsl(234, 11%, 94%)" offset="90%"></stop></linearGradient><linearGradient gradientTransform="rotate(280, 0.5, 0.5)" x1="50%" y1="0%" x2="50%" y2="100%" id="uuunion-grad2"><stop stop-color="hsl(0, 0%, 100%)" offset="25%"></stop><stop stop-color="hsl(234, 11%, 94%)" offset="100%"></stop></linearGradient><linearGradient gradientTransform="rotate(333, 0.5, 0.5)" x1="50%" y1="0%" x2="50%" y2="100%" id="uuunion-grad3"><stop stop-color="hsl(0, 0%, 100%)" offset="0%"></stop><stop stop-color="hsl(234, 11%, 94%)" offset="75%"></stop></linearGradient></defs><path d="M-77.41 -79.76Q-63.08 -77.69 -48.75 -75.82 -34.42 -74.29 -20.09 -73.23 -5.77 -72.73 8.55 -72.83 22.88 -73.52 37.21 -74.75 51.54 -76.41 65.86 -78.37 80.19 -80.46 94.52 -82.51 108.85 -84.36 123.18 -85.84 137.5 -86.84 151.83 -87.28 166.16 -87.11 180.49 -86.36 194.82 -85.08 209.15 -83.38 223.47 -81.4 237.8 -79.3 252.13 -77.26 266.46 -75.45 280.79 -74.01 295.11 -73.07 309.44 -72.7 323.77 -72.93 338.1 -73.75 352.43 -75.08 366.75 -76.82 381.08 -78.82 395.41 -80.92 409.74 -82.94 424.07 -84.72 438.39 -86.11 452.72 -86.99 467.05 -87.29 481.38 -87 495.71 -86.12 510.04 -84.74 524.36 -82.96 538.69 -80.94 553.02 -78.84 567.35 -76.84 581.68 -75.1 596 -73.76 610.33 -72.94 624.66 -72.7 638.99 -73.06 653.32 -74 667.64 -75.43 681.97 -77.24 696.3 -79.28 710.63 -81.37 724.96 -83.35 739.28 -85.06 753.61 -86.35 767.94 -87.11 782.27 -87.28 796.6 -86.85 810.93 -85.86 825.25 -84.38 839.58 -82.54 840.34 -67.71 844.95 -52.89 852.95 -38.07 863.56 -23.24 875.77 -8.42 888.39 6.4 900.2 21.22 910.05 36.04 916.98 50.87 920.34 65.69 919.79 80.51 915.38 95.34 907.54 110.16 897.04 124.98 884.89 139.81 872.26 154.63 860.38 169.46 850.4 184.28 843.29 199.1 839.73 213.93 840.08 228.75 844.29 243.57 851.96 258.4 862.34 273.22 874.44 288.05 887.07 302.87 899.02 317.69 909.12 332.52 916.41 347.34 920.17 362.16 920.03 376.99 916.02 391.81 908.52 406.64 898.25 421.46 886.22 436.28 873.58 451.11 861.57 465.93 851.34 480.75 843.88 495.58 839.93 510.4 839.85 525.22 843.67 540.05 851 554.87 861.14 569.7 873.1 584.52 885.74 599.34 897.82 614.17 908.17 628.99 915.79 643.81 919.95 658.64 920.23 673.46 916.62 688.29 909.46 703.11 899.45 717.93 887.55 732.76 874.92 747.58 862.78 762.4 852.31 777.23 844.52 792.05 840.17 806.88 839.67 821.7 843.08 836.52 847.68 853.75 830.62 848.11 815.95 842.7 801.29 840.37 786.62 841.32 771.95 845.46 757.29 852.45 742.62 861.73 727.95 872.51 713.29 883.91 698.62 894.98 683.95 904.82 669.29 912.61 654.62 917.7 639.95 919.68 625.29 918.37 610.62 913.9 595.95 906.62 581.29 897.15 566.62 886.25 551.95 874.84 537.28 863.86 522.62 854.2 507.95 846.68 493.28 841.92 478.62 840.3 463.95 841.95 449.28 846.76 434.62 854.31 419.95 863.98 405.28 874.98 390.62 886.39 375.95 897.27 361.28 906.72 346.62 913.97 331.95 918.41 317.28 919.67 302.62 917.66 287.95 912.53 273.28 904.72 258.62 894.86 243.95 883.77 229.28 872.37 214.61 861.61 199.95 852.36 185.28 845.39 170.61 841.29 155.95 840.38 141.28 842.74 126.61 848.19 111.95 856.26 97.28 866.3 82.61 877.46 67.95 888.84 53.28 899.48 38.61 908.52 23.95 915.19 9.28 918.96 -5.38 919.51 -20.04 916.79 -34.71 911.04 -49.38 902.71 -64.04 892.51 -78.71 881.28 -78.08 866.26 -77.63 851.25 -77.41 836.23 -77.44 821.21 -77.72 806.2 -78.22 791.18 -78.89 776.16 -79.67 761.15 -80.48 746.13 -81.24 731.11 -81.88 716.1 -82.34 701.08 -82.57 686.07 -82.55 671.05 -82.29 656.03 -81.8 641.02 -81.14 626 -80.36 610.98 -79.55 595.97 -78.79 580.95 -78.14 565.93 -77.67 550.92 -77.42 535.9 -77.43 520.89 -77.68 505.87 -78.16 490.85 -78.82 475.84 -79.58 460.82 -80.39 445.8 -81.16 430.79 -81.82 415.77 -82.3 400.75 -82.56 385.74 -82.57 370.72 -82.33 355.71 -81.86 340.69 -81.21 325.67 -80.45 310.66 -79.64 295.64 -78.86 280.62 -78.2 265.61 -77.71 250.59 -77.44 235.57 -77.42 220.56 -77.64 205.54 -78.1 190.53 -78.74 175.51 -79.5 160.49 -80.31 145.48 -81.09 130.46 -81.76 115.44 -82.26 100.43 -82.54 85.41 -82.58 70.39 -82.36 55.38 -81.92 40.36 -81.29 25.35 -80.53 10.33 -79.72 -4.68 -78.94 -19.69 -78.26 -34.71 -77.75 -49.73 -77.46 -64.74 -77.41 -79.76" fill="url(#uuunion-grad)"></path><path d="M-77.41 -79.76Q-77.46 -64.74 -77.75 -49.73 -78.26 -34.71 -78.94 -19.69 -79.72 -4.68 -80.53 10.33 -81.29 25.35 -81.92 40.36 -82.36 55.38 -82.58 70.39 -82.54 85.41 -82.26 100.43 -81.76 115.44 -81.09 130.46 -80.31 145.48 -79.5 160.49 -78.74 175.51 -78.1 190.53 -77.64 205.54 -77.42 220.56 -77.44 235.57 -77.71 250.59 -78.2 265.61 -78.86 280.62 -79.64 295.64 -80.45 310.66 -81.21 325.67 -81.86 340.69 -82.33 355.71 -82.57 370.72 -82.56 385.74 -82.3 400.75 -71.9 405.23 -61.5 409.51 -51.1 413.44 -40.7 416.88 -30.31 419.69 -19.91 421.78 -0.41 423.38 2.95 423.48 16 416.14 29.08 407.55 42.15 397.86 55.19 387.29 68.17 376.09 81.05 364.58 93.82 353.04 106.45 341.79 118.93 331.1 131.23 321.21 143.35 312.32 155.28 304.56 167.01 297.99 178.56 292.61 189.94 288.33 201.15 285.04 212.23 282.54 223.19 280.59 234.06 278.95 244.88 277.33 255.69 275.49 266.53 273.16 277.43 270.14 288.43 266.26 299.59 261.4 310.93 255.51 322.49 248.58 334.32 240.69 346.43 231.94 358.85 222.5 371.61 212.57 384.71 202.38 398.16 192.14 411.96 182.1 426.11 172.46 440.58 163.4 455.35 155.08 470.39 147.59 485.67 140.98 501.13 135.25 516.73 130.34 532.42 126.15 548.13 122.55 563.81 119.37 579.39 116.42 594.81 113.5 610 110.42 624.91 107.01 639.48 103.12 653.65 98.61 667.38 93.42 680.63 87.5 693.37 80.87 705.57 73.55 717.21 65.64 728.31 57.26 738.85 48.54 748.86 39.64 758.37 30.71 767.41 21.91 776.04 13.39 784.29 5.26 792.26 -2.38 800 -9.48 786.8 -26.42 775.34 -43.36 767.13 -60.3 763.23 -77.24 764.16 -94.18 769.81 -111.12 778.21 -136.19 762.23 -143.29 747.47 -141.99 732.72 -140.53 717.96 -139.02 703.2 -137.59 688.45 -136.36 673.69 -135.43 658.93 -134.87 644.18 -134.73 629.42 -135.01 614.66 -135.71 599.91 -136.75 585.15 -138.06 570.39 -139.53 555.64 -141.03 540.88 -142.45 526.12 -143.67 511.37 -144.59 496.61 -145.14 481.85 -145.26 467.1 -144.96 452.34 -144.25 437.58 -143.19 422.83 -141.87 408.07 -140.4 393.31 -138.9 378.56 -137.49 363.8 -136.28 349.04 -135.37 334.29 -134.84 319.53 -134.73 304.77 -135.06 290.02 -135.78 275.26 -136.85 260.5 -138.17 245.75 -139.65 230.99 -141.15 216.23 -142.56 201.48 -143.76 186.72 -144.65 171.96 -145.16 157.21 -145.25 142.45 -144.91 127.69 -144.17 112.94 -143.09 98.18 -141.76 83.42 -140.28 68.67 -138.78 53.91 -137.38 39.15 -136.19 24.4 -135.31 9.64 -134.82 -5.11 -134.74 -19.86 -135.1 -34.62 -135.85 -49.38 -136.95 -64.13 -138.29 -78.89 -139.77 -93.65 -141.27 -108.4 -142.67 -123.16 -143.84 -131.78 -131.62 -113.79 -113.94 -104.49 -105.64 -95.34 -97.15 -86.32 -88.52 -77.41 -79.76" fill="url(#uuunion-grad2)" filter="url(#uuunion-blur)"></path><path d="M832.82 377.71Q843.22 376.7 853.62 376.54 864.02 377.25 874.42 378.79 884.82 381.12 895.22 384.14 905.62 387.75 916.02 391.81 908.52 406.64 898.25 421.46 886.22 436.28 873.58 451.11 861.57 465.93 851.34 480.75 843.88 495.58 839.93 510.4 839.85 525.22 843.67 540.05 851 554.87 861.14 569.7 873.1 584.52 885.74 599.34 897.82 614.17 908.17 628.99 915.79 643.81 919.95 658.64 920.23 673.46 916.62 688.29 909.46 703.11 899.45 717.93 887.55 732.76 874.92 747.58 862.78 762.4 852.31 777.23 844.52 792.05 840.17 806.88 839.67 821.7 843.08 836.52 848.28 854.13 833.04 849.27 819.58 843.76 806.12 840.78 792.66 840.53 779.2 843.03 765.74 848.1 752.28 855.4 738.82 864.41 725.36 874.51 711.9 884.99 698.44 895.12 684.98 904.19 671.52 911.59 658.06 916.78 644.6 919.4 631.14 919.29 617.68 916.43 604.22 911.04 590.76 903.48 577.3 894.29 563.84 884.1 550.38 873.63 536.92 863.59 523.46 854.71 510 847.58 496.54 842.71 483.08 840.44 469.62 840.93 456.16 844.13 442.7 849.84 429.24 857.65 415.78 867.01 402.32 877.28 388.86 887.74 375.4 897.65 361.94 906.34 348.48 913.19 335.02 917.73 321.56 919.64 308.1 918.79 294.64 915.24 281.18 909.23 267.72 901.18 254.26 891.66 240.8 881.32 227.34 870.89 213.88 861.1 200.42 852.62 186.96 846.05 173.5 841.85 160.04 840.3 146.58 841.52 133.12 845.42 119.66 851.72 106.2 860 92.74 869.67 79.28 880.06 65.82 890.45 52.36 900.1 38.9 908.36 25.44 914.64 5.17 913.93 -1.76 899.01 -1.86 888.68 -1.93 878.34 -1.95 868 -1.93 857.66 -1.58 842.16 -0.81 837 11.34 829.48 23.63 819.93 36.05 808.56 48.62 795.69 61.34 781.71 74.22 767.07 87.26 752.28 100.45 737.81 113.78 724.14 127.23 711.68 140.77 700.77 154.4 691.66 168.06 684.49 181.75 679.3 195.41 675.99 209.02 674.38 222.53 674.17 235.93 675.01 249.16 676.48 262.21 678.11 275.04 679.47 287.63 680.12 299.95 679.67 312 677.81 323.76 674.29 335.24 668.99 346.43 661.88 357.35 653.03 368.01 642.6 378.44 630.87 388.67 618.16 398.73 604.86 408.67 591.38 418.53 578.14 428.37 565.53 438.22 553.9 448.15 543.56 458.22 534.72 468.47 527.51 478.97 521.95 489.75 517.99 500.87 515.46 512.37 514.14 524.29 513.73 536.65 513.87 549.47 514.19 562.77 514.31 576.56 513.88 590.82 512.56 605.54 510.09 620.7 506.26 636.27 500.97 652.19 494.18 668.43 485.94 684.93 476.39 701.61 465.75 718.41 454.28 735.26 442.29 752.07 430.13 768.77 418.13 785.27 406.62 801.49 395.9 817.37 386.2 832.82 377.71 832.82 377.71 832.82 377.71" fill="url(#uuunion-grad3)" filter="url(#uuunion-blur2)"></path></svg>