<svg xmlns="http://www.w3.org/2000/svg" version="1.1" xmlns:xlink="http://www.w3.org/1999/xlink" xmlns:svgjs="http://svgjs.dev/svgjs" viewBox="0 0 800 800"><defs><filter id="uuunion-blur" x="-100%" y="-100%" width="400%" height="400%" color-interpolation-filters="sRGB">
        <feGaussianBlur in="SourceGraphic" stdDeviation="7.5 0" result="blur"></feGaussianBlur>
        <feDropShadow stdDeviation="9.846153846153847" in="blur" dx="8" dy="8" flood-color="hsl(234, 11%, 94%)" flood-opacity="0.6" x="0%" y="0%" width="100%" height="100%"></feDropShadow>
      </filter><filter id="uuunion-blur2" x="-100%" y="-100%" width="400%" height="400%" color-interpolation-filters="sRGB">
        <feGaussianBlur in="SourceGraphic" stdDeviation="7.5 0" result="blur"></feGaussianBlur>
        <feDropShadow stdDeviation="9.846153846153847" in="blur" dx="-8" dy="-8" flood-color="hsl(234, 11%, 94%)" flood-opacity="0.6" x="0%" y="0%" width="100%" height="100%"></feDropShadow>
      </filter><linearGradient gradientTransform="rotate(0, 0.5, 0.5)" x1="50%" y1="0%" x2="50%" y2="100%" id="uuunion-grad"><stop stop-color="hsl(0, 0%, 100%)" offset="10%"></stop><stop stop-color="hsl(234, 11%, 94%)" offset="90%"></stop></linearGradient><linearGradient gradientTransform="rotate(135, 0.5, 0.5)" x1="50%" y1="0%" x2="50%" y2="100%" id="uuunion-grad2"><stop stop-color="hsl(0, 0%, 100%)" offset="25%"></stop><stop stop-color="hsl(234, 11%, 94%)" offset="100%"></stop></linearGradient><linearGradient gradientTransform="rotate(333, 0.5, 0.5)" x1="50%" y1="0%" x2="50%" y2="100%" id="uuunion-grad3"><stop stop-color="hsl(0, 0%, 100%)" offset="0%"></stop><stop stop-color="hsl(234, 11%, 94%)" offset="75%"></stop></linearGradient></defs><path d="M-76.45 -79.06Q-62.25 -77.86 -48.04 -76.81 -33.84 -75.96 -19.64 -75.38 -5.44 -75.11 8.75 -75.17 22.96 -75.54 37.16 -76.21 51.36 -77.14 65.56 -78.25 79.76 -79.48 93.97 -80.74 108.17 -81.96 122.37 -83.04 136.57 -83.92 150.77 -84.54 164.97 -84.86 179.18 -84.85 193.38 -84.52 207.58 -83.89 221.78 -83 235.98 -81.91 250.19 -80.7 264.39 -79.43 278.59 -78.21 292.79 -77.1 306.99 -76.18 321.2 -75.52 335.4 -75.16 349.6 -75.12 363.8 -75.4 378 -75.99 392.21 -76.84 406.41 -77.91 420.61 -79.11 434.81 -80.37 449.01 -81.61 463.22 -82.74 477.42 -83.69 491.62 -84.39 505.82 -84.8 520.02 -84.89 534.22 -84.65 548.43 -84.11 562.63 -83.29 576.83 -82.25 591.03 -81.06 605.23 -79.8 619.44 -78.56 633.64 -77.41 647.84 -76.43 662.04 -75.69 676.24 -75.23 690.45 -75.1 704.65 -75.28 718.85 -75.78 733.05 -76.57 747.25 -77.58 761.46 -78.75 775.66 -80 789.86 -81.25 804.06 -82.42 817.56 -76.73 813.33 -55.85 822.58 -41.68 842.82 -27.5 870.18 -13.32 899.42 0.85 924.94 15.02 941.85 29.2 946.92 43.38 939.17 57.56 920.09 71.74 893.33 85.91 864.02 100.09 837.77 114.27 819.6 128.45 813 142.62 819.23 156.8 837.09 170.98 863.17 185.16 892.48 199.33 919.39 213.51 938.76 227.69 946.87 241.87 942.18 256.04 925.58 270.22 900.25 284.4 871.04 298.58 843.55 312.75 823.03 326.93 813.42 341.11 816.57 355.29 831.85 369.47 856.36 383.64 885.4 397.82 913.39 412 935 426.18 946.07 440.35 944.48 454.53 930.55 468.71 906.94 482.89 878.16 497.06 849.74 511.24 827.11 525.42 814.61 539.6 814.63 553.77 827.16 567.95 849.82 582.13 878.25 596.31 907.02 610.49 930.61 624.66 944.51 638.84 946.05 653.02 934.95 667.2 913.32 681.37 885.31 695.55 856.28 709.73 831.79 723.91 816.54 738.08 813.43 752.26 823.08 766.44 843.62 780.62 871.13 794.79 900.33 808.97 925.65 823.15 909.88 833.67 894.11 847.27 878.35 863.04 862.58 879.94 846.81 896.85 831.05 912.64 815.28 926.25 799.51 936.79 783.75 943.55 767.98 946.08 752.21 944.22 736.45 938.09 720.68 928.09 704.91 914.89 689.15 899.37 673.38 882.57 657.61 865.59 641.85 849.57 626.08 835.57 610.32 824.53 594.55 817.18 578.78 814.01 563.02 815.22 547.25 820.74 531.48 830.21 515.72 842.98 499.95 858.22 484.18 874.91 468.42 891.93 452.65 908.16 436.88 922.52 421.12 934.05 405.35 941.98 389.58 945.79 373.82 945.22 358.05 940.32 342.28 931.4 326.52 919.07 310.75 904.13 294.98 887.59 279.22 870.55 263.45 854.13 247.69 839.43 231.92 827.43 216.15 818.93 200.39 814.49 184.62 814.41 168.85 818.68 153.09 827.04 137.32 838.92 121.55 853.53 105.79 869.9 90.02 886.94 74.25 903.52 58.49 918.54 42.72 930.99 26.95 940.05 11.19 945.11 -4.57 945.85 -20.34 942.2 -36.1 934.42 -51.87 923.02 -67.64 908.75 -83.4 892.58 -81.51 877.39 -79.33 862.21 -77.28 847.03 -75.75 831.85 -75.03 816.67 -75.26 801.48 -76.4 786.3 -78.23 771.12 -80.39 755.94 -82.48 740.76 -84.1 725.57 -84.92 710.39 -84.81 695.21 -83.77 680.03 -82.01 664.85 -79.86 649.66 -77.74 634.48 -76.05 619.3 -75.12 604.12 -75.12 588.94 -76.05 573.75 -77.74 558.57 -79.86 543.39 -82.01 528.21 -83.77 513.03 -84.81 497.84 -84.93 482.66 -84.1 467.48 -82.49 452.3 -80.4 437.12 -78.23 421.93 -76.4 406.75 -75.26 391.57 -75.03 376.39 -75.74 361.21 -77.27 346.02 -79.33 330.84 -81.51 315.66 -83.4 300.48 -84.64 285.3 -84.99 270.11 -84.38 254.93 -82.93 239.75 -80.93 224.57 -78.74 209.39 -76.79 194.2 -75.46 179.02 -75 163.84 -75.49 148.66 -76.84 133.48 -78.8 118.29 -80.99 103.11 -82.99 87.93 -84.41 72.75 -84.99 57.57 -84.61 42.38 -83.35 27.2 -81.44 12.02 -79.26 -3.15 -77.22 -18.33 -75.71 -33.52 -75.02 -48.7 -75.28 -63.88 -76.45 -79.06" fill="url(#uuunion-grad)"></path><path d="M-76.45 -79.06Q-75.28 -63.88 -75.02 -48.7 -75.71 -33.52 -77.22 -18.33 -79.26 -3.15 -81.44 12.02 -83.35 27.2 -84.61 42.38 -84.99 57.57 -84.41 72.75 -82.99 87.93 -80.99 103.11 -78.8 118.29 -76.84 133.48 -75.49 148.66 -75 163.84 -75.46 179.02 -76.79 194.2 -78.74 209.39 -80.93 224.57 -82.93 239.75 -84.38 254.93 -84.99 270.11 -84.64 285.3 -83.4 300.48 -81.51 315.66 -79.33 330.84 -77.27 346.02 -75.74 361.21 -75.03 376.39 -75.26 391.57 -76.4 406.75 -66.94 412.63 -57.48 418.13 -48.02 423.1 -38.56 427.38 -29.1 430.85 -19.64 433.41 -1.9 435.35 1.16 435.47 12.72 427.76 24.14 418.52 35.53 407.94 46.97 396.22 58.57 383.67 70.41 370.58 82.58 357.28 95.14 344.1 108.15 331.37 121.62 319.36 135.57 308.32 149.96 298.45 164.74 289.89 179.84 282.72 195.17 276.92 210.6 272.46 226 269.22 241.25 267.01 256.18 265.63 270.67 264.82 284.59 264.33 297.83 263.87 310.3 263.18 321.93 262.01 332.7 260.13 342.62 257.37 351.72 253.58 360.08 248.7 367.82 242.69 375.08 235.57 382.03 227.42 388.86 218.37 395.79 208.57 403.03 198.22 410.79 187.52 419.29 176.69 428.7 165.96 439.2 155.52 450.91 145.57 463.91 136.24 478.26 127.68 493.95 119.94 510.91 113.07 529.05 107.07 548.22 101.88 568.2 97.41 588.77 93.56 609.66 90.19 630.57 87.13 651.2 84.21 671.26 81.29 690.44 78.19 708.47 74.78 725.12 70.93 740.17 66.56 753.49 61.61 764.98 56.04 774.62 49.86 782.43 43.1 788.53 35.82 795.79 19.93 800 3.37 769.97 -14.5 747.72 -32.37 739.02 -50.25 746.12 -68.13 767.18 -86 796.74 -103.88 827.15 -121.76 850.52 -139.63 834.69 -139.39 818.86 -139.18 803.02 -139.03 787.19 -138.94 771.36 -138.92 755.53 -138.97 739.7 -139.09 723.86 -139.27 708.03 -139.49 692.2 -139.75 676.37 -140.03 660.53 -140.3 644.7 -140.55 628.87 -140.77 613.04 -140.93 597.2 -141.03 581.37 -141.07 565.54 -141.03 549.71 -140.93 533.88 -140.77 518.04 -140.55 502.21 -140.3 486.38 -140.03 470.55 -139.75 454.71 -139.49 438.88 -139.27 423.05 -139.09 407.22 -138.97 391.39 -138.92 375.55 -138.94 359.72 -139.03 343.89 -139.18 328.06 -139.39 312.22 -139.63 296.39 -139.9 280.56 -140.18 264.73 -140.44 248.9 -140.68 233.06 -140.86 217.23 -141 201.4 -141.06 185.57 -141.06 169.73 -140.99 153.9 -140.85 138.07 -140.65 122.24 -140.41 106.4 -140.15 90.57 -139.87 74.74 -139.61 58.91 -139.36 43.08 -139.16 27.24 -139.02 11.41 -138.94 -4.41 -138.92 -20.24 -138.98 -36.08 -139.11 -51.91 -139.29 -67.74 -139.52 -83.57 -139.78 -99.4 -140.06 -115.24 -140.33 -131.07 -140.58 -139.03 -128.09 -117.72 -111.28 -106.85 -103.48 -96.32 -95.5 -86.18 -87.35 -76.45 -79.06" fill="url(#uuunion-grad2)" filter="url(#uuunion-blur)"></path><path d="M756.17 411.97Q765.63 406.06 775.09 399.97 784.55 393.88 794.01 387.97 803.47 382.42 812.93 377.39 822.39 373.03 831.85 369.47 856.36 383.64 885.4 397.82 913.39 412 935 426.18 946.07 440.35 944.48 454.53 930.55 468.71 906.94 482.89 878.16 497.06 849.74 511.24 827.11 525.42 814.61 539.6 814.63 553.77 827.16 567.95 849.82 582.13 878.25 596.31 907.02 610.49 930.61 624.66 944.51 638.84 946.05 653.02 934.95 667.2 913.32 681.37 885.31 695.55 856.28 709.73 831.79 723.91 816.54 738.08 813.43 752.26 823.08 766.44 843.62 780.62 871.13 794.79 900.33 808.97 925.65 823.15 911.18 832.67 896.71 844.85 882.24 859 867.77 874.32 853.3 889.97 838.83 905.05 824.36 918.73 809.89 930.24 795.42 938.93 780.96 944.31 766.49 946.09 752.02 944.17 737.55 938.65 723.08 929.83 708.61 918.23 694.14 904.48 679.67 889.36 665.2 873.71 650.73 858.41 636.26 844.33 621.8 832.24 607.33 822.84 592.86 816.63 578.39 813.98 563.92 815.03 549.45 819.73 534.98 827.8 520.51 838.79 506.04 852.1 491.57 866.97 477.1 882.58 462.64 898.03 448.17 912.48 433.7 925.1 419.23 935.2 404.76 942.2 390.29 945.71 375.82 945.54 361.35 941.69 346.88 934.39 332.41 924.03 317.94 911.21 303.48 896.63 289.01 881.13 274.54 865.56 260.07 850.8 245.6 837.67 231.13 826.92 216.66 819.14 202.19 814.78 187.72 814.07 173.25 817.06 158.79 823.58 144.32 833.26 129.85 845.56 115.38 859.79 100.91 875.15 86.44 890.79 71.97 905.82 57.5 919.4 43.03 930.77 28.56 939.3 6.75 939.97 -0.85 924.81 -1.12 914.17 -1.38 903.54 -1.61 892.9 -1.78 882.26 -1.67 866.31 -0.99 861 10.6 852.94 22.35 842.19 34.31 828.98 46.58 813.66 59.19 796.68 72.2 778.56 85.61 759.86 99.42 741.16 113.59 723.04 128.06 706.04 142.76 690.63 157.58 677.23 172.42 666.12 187.14 657.5 201.64 651.45 215.77 647.92 229.43 646.75 242.51 647.66 254.94 650.31 266.65 654.24 277.61 658.98 287.84 664.01 297.35 668.79 306.22 672.83 322.34 675.92 337.72 673.31 345.41 668.16 353.41 660.73 361.9 651.09 371.07 639.45 381.1 626.08 392.12 611.34 404.25 595.64 417.56 579.44 432.09 563.2 447.82 547.39 464.69 532.44 482.61 518.73 501.42 506.6 520.93 496.27 540.92 487.92 561.13 481.6 581.3 477.28 601.15 474.82 620.39 474.04 638.75 474.63 656 476.26 671.91 478.54 686.3 481.07 699.06 483.44 718.59 485.53 733.17 483.99 740.99 474.42 746.2 459.65 748.09 449.44 750.13 437.9 754.43 418.64 756.17 411.97" fill="url(#uuunion-grad3)" filter="url(#uuunion-blur2)"></path></svg>