<svg xmlns="http://www.w3.org/2000/svg" version="1.1" xmlns:xlink="http://www.w3.org/1999/xlink" xmlns:svgjs="http://svgjs.dev/svgjs" viewBox="0 0 800 800"><defs><filter id="uuunion-blur" x="-100%" y="-100%" width="400%" height="400%" color-interpolation-filters="sRGB">
        <feGaussianBlur in="SourceGraphic" stdDeviation="0 0" result="blur"></feGaussianBlur>
        <feDropShadow stdDeviation="12.307692307692308" in="blur" dx="10" dy="10" flood-color="#11232E" flood-opacity="0.52" x="0%" y="0%" width="100%" height="100%"></feDropShadow>
      </filter><filter id="uuunion-blur2" x="-100%" y="-100%" width="400%" height="400%" color-interpolation-filters="sRGB">
        <feGaussianBlur in="SourceGraphic" stdDeviation="0 0" result="blur"></feGaussianBlur>
        <feDropShadow stdDeviation="12.307692307692308" in="blur" dx="-10" dy="-10" flood-color="#11232E" flood-opacity="0.52" x="0%" y="0%" width="100%" height="100%"></feDropShadow>
      </filter><linearGradient gradientTransform="rotate(131, 0.5, 0.5)" x1="50%" y1="0%" x2="50%" y2="100%" id="uuunion-grad"><stop stop-color="hsl(265, 65%, 31%)" offset="10%"></stop><stop stop-color="#11232E" offset="90%"></stop></linearGradient><linearGradient gradientTransform="rotate(137, 0.5, 0.5)" x1="50%" y1="0%" x2="50%" y2="100%" id="uuunion-grad2"><stop stop-color="hsl(265, 65%, 31%)" offset="25%"></stop><stop stop-color="#11232E" offset="100%"></stop></linearGradient><linearGradient gradientTransform="rotate(267, 0.5, 0.5)" x1="50%" y1="0%" x2="50%" y2="100%" id="uuunion-grad3"><stop stop-color="hsl(265, 65%, 31%)" offset="0%"></stop><stop stop-color="#11232E" offset="75%"></stop></linearGradient></defs><path d="M-77.68 -80.46Q-63.29 -78.18 -48.91 -76.07 -34.52 -74.33 -20.14 -73.11 -5.76 -72.53 8.62 -72.65 23 -73.45 37.39 -74.86 51.77 -76.74 66.15 -78.93 80.54 -81.22 94.92 -83.39 109.3 -85.25 123.69 -86.62 138.07 -87.37 152.46 -87.44 166.84 -86.81 181.22 -85.55 195.61 -83.78 209.99 -81.65 224.37 -79.37 238.76 -77.15 253.14 -75.19 267.53 -73.68 281.91 -72.75 296.29 -72.5 310.68 -72.95 325.06 -74.05 339.45 -75.7 353.83 -77.76 368.21 -80.02 382.6 -82.28 396.98 -84.32 411.36 -85.97 425.75 -87.06 440.13 -87.49 454.52 -87.23 468.9 -86.29 483.28 -84.77 497.67 -82.8 512.05 -80.57 526.43 -78.29 540.82 -76.17 555.2 -74.4 569.59 -73.16 583.97 -72.55 598.35 -72.63 612.74 -73.39 627.12 -74.77 641.51 -76.64 655.89 -78.82 670.27 -81.11 684.66 -83.29 699.04 -85.17 713.42 -86.56 727.81 -87.35 742.19 -87.45 756.58 -86.86 770.96 -85.63 785.34 -83.88 799.73 -81.76 814.11 -79.48 828.5 -77.25 842.88 -75.28 846.39 -59.98 851.93 -44.69 859.15 -29.39 867.63 -14.1 876.85 1.19 886.26 16.48 895.3 31.78 903.41 47.07 910.11 62.37 915.01 77.66 917.79 92.96 918.3 108.25 916.51 123.55 912.52 138.84 906.58 154.14 899.03 169.43 890.34 184.73 881.03 200.02 871.65 215.32 862.78 230.61 854.94 245.91 848.61 261.2 844.17 276.5 841.88 291.79 841.89 307.09 844.19 322.38 848.64 337.68 854.98 352.97 862.83 368.27 871.7 383.56 881.08 398.86 890.39 414.15 899.08 429.45 906.62 444.74 912.55 460.03 916.53 475.33 918.31 490.62 917.78 505.92 914.98 521.21 910.08 536.51 903.36 551.8 895.24 567.1 886.21 582.39 876.8 597.69 867.58 612.98 859.1 628.28 851.89 643.57 846.37 658.87 842.86 674.16 841.6 689.46 842.64 704.75 845.93 720.05 851.27 735.34 858.34 750.64 866.71 765.93 875.88 781.23 885.3 796.52 894.4 811.82 902.63 827.11 909.5 842.41 914.59 857.7 917.61 873 909.78 891 885.58 882.55 869.97 871.16 854.36 860.58 838.75 851.82 823.14 845.67 807.52 842.71 791.91 843.23 776.3 847.16 760.69 854.14 745.08 863.53 729.47 874.44 713.86 885.88 698.25 896.77 682.64 906.1 667.03 913 651.41 916.83 635.8 917.24 620.19 914.18 604.58 907.95 588.97 899.12 573.36 888.5 557.75 877.1 542.14 865.97 526.53 856.14 510.91 848.53 495.3 843.84 479.69 842.52 464.08 844.68 448.47 850.13 432.86 858.35 417.25 868.58 401.64 879.88 386.03 891.18 370.42 901.45 354.8 909.72 339.19 915.23 323.58 917.46 307.97 916.21 292.36 911.59 276.75 904.03 261.14 894.24 245.53 883.12 229.92 871.72 214.3 861.08 198.69 852.2 183.08 845.91 167.47 842.78 151.86 843.12 136.25 846.88 120.64 853.73 105.03 863.01 89.42 873.88 73.81 885.31 58.19 896.25 42.58 905.68 26.97 912.72 11.36 916.72 -4.24 917.3 -19.85 914.41 -35.46 908.33 -51.07 899.61 -66.68 889.06 -82.3 877.68 -82.39 862.71 -82.35 847.73 -82.16 832.76 -81.84 817.79 -81.41 802.82 -80.9 787.85 -80.33 772.88 -79.74 757.91 -79.16 742.94 -78.64 727.97 -78.2 713 -77.87 698.02 -77.66 683.05 -77.6 668.08 -77.67 653.11 -77.89 638.14 -78.24 623.17 -78.69 608.2 -79.22 593.23 -79.8 578.26 -80.38 563.29 -80.95 548.31 -81.46 533.34 -81.88 518.37 -82.18 503.4 -82.36 488.43 -82.39 473.46 -82.28 458.49 -82.03 443.52 -81.66 428.55 -81.19 413.58 -80.64 398.6 -80.06 383.63 -79.48 368.66 -78.92 353.69 -78.43 338.72 -78.04 323.75 -77.76 308.78 -77.61 293.81 -77.61 278.84 -77.76 263.86 -78.03 248.89 -78.43 233.92 -78.92 218.95 -79.47 203.98 -80.06 189.01 -80.64 174.04 -81.18 159.07 -81.66 144.1 -82.03 129.13 -82.28 114.15 -82.39 99.18 -82.36 84.21 -82.18 69.24 -81.88 54.27 -81.46 39.3 -80.95 24.33 -80.39 9.36 -79.8 -5.6 -79.22 -20.57 -78.69 -35.55 -78.24 -50.52 -77.89 -65.49 -77.68 -80.46" fill="url(#uuunion-grad)"></path><path d="M-77.68 -80.46Q-77.89 -65.49 -78.24 -50.52 -78.69 -35.55 -79.22 -20.57 -79.8 -5.6 -80.39 9.36 -80.95 24.33 -81.46 39.3 -81.88 54.27 -82.18 69.24 -82.36 84.21 -82.39 99.18 -82.28 114.15 -82.03 129.13 -81.66 144.1 -81.18 159.07 -80.64 174.04 -80.06 189.01 -79.47 203.98 -78.92 218.95 -78.43 233.92 -78.03 248.89 -77.76 263.86 -77.61 278.84 -77.61 293.81 -77.76 308.78 -78.04 323.75 -78.43 338.72 -78.92 353.69 -79.48 368.66 -80.06 383.63 -80.64 398.6 -70.53 403.18 -60.41 407.63 -50.3 411.76 -40.18 415.41 -30.07 418.41 -19.95 420.65 -0.99 422.37 2.28 422.48 14.73 415.09 27.07 406.35 39.3 396.45 51.43 385.64 63.45 374.23 75.37 362.57 87.21 350.99 98.97 339.86 110.67 329.46 122.32 320.05 133.93 311.81 145.53 304.86 157.13 299.21 168.75 294.8 180.41 291.48 192.12 289.05 203.91 287.24 215.8 285.76 227.8 284.3 239.92 282.53 252.19 280.2 264.61 277.05 277.19 272.9 289.95 267.64 302.9 261.24 316.02 253.72 329.34 245.18 342.83 235.81 356.51 225.82 370.35 215.46 384.36 205.01 398.52 194.74 412.81 184.89 427.22 175.7 441.72 167.34 456.29 159.91 470.91 153.48 485.56 148.03 500.19 143.48 514.79 139.7 529.33 136.52 543.78 133.72 558.1 131.06 572.28 128.32 586.27 125.27 600.07 121.71 613.63 117.49 626.95 112.49 640 106.65 652.75 99.98 665.21 92.52 677.36 84.38 689.18 75.7 700.68 66.65 711.86 57.43 722.73 48.23 733.28 39.23 743.53 30.62 753.51 22.53 763.22 15.06 772.7 8.27 781.96 2.17 791.05 -3.27 800 -8.14 790.09 -25.2 781 -42.25 773.46 -59.31 768.08 -76.36 765.32 -93.41 765.39 -110.47 768.29 -127.52 773.78 -144.58 759.35 -145.34 744.92 -145.62 730.49 -145.38 716.05 -144.64 701.62 -143.48 687.19 -142 672.76 -140.33 658.33 -138.63 643.9 -137.06 629.46 -135.76 615.03 -134.84 600.6 -134.4 586.17 -134.48 571.74 -135.06 557.3 -136.09 542.87 -137.48 528.44 -139.1 514.01 -140.81 499.58 -142.44 485.15 -143.84 470.71 -144.89 456.28 -145.5 441.85 -145.59 427.42 -145.18 412.99 -144.28 398.56 -143 384.12 -141.44 369.69 -139.74 355.26 -138.07 340.83 -136.57 326.4 -135.39 311.96 -134.64 297.53 -134.37 283.1 -134.62 268.67 -135.37 254.24 -136.53 239.81 -138.02 225.37 -139.69 210.94 -141.39 196.51 -142.96 182.08 -144.25 167.65 -145.16 153.22 -145.59 138.78 -145.51 124.35 -144.92 109.92 -143.88 95.49 -142.48 81.06 -140.86 66.62 -139.15 52.19 -137.52 37.76 -136.12 23.33 -135.08 8.9 -134.49 -5.52 -134.4 -19.96 -134.82 -34.39 -135.73 -48.82 -137.02 -63.25 -138.59 -77.68 -140.28 -92.11 -141.95 -106.55 -143.44 -120.98 -144.61 -130.05 -132.32 -113.13 -114.78 -104.19 -106.49 -95.31 -97.99 -86.48 -89.3 -77.68 -80.46" fill="url(#uuunion-grad2)" filter="url(#uuunion-blur)"></path><path d="M809.47 381.66Q819.59 384.69 829.7 388.35 839.82 392.49 849.93 396.95 860.05 401.53 870.16 406.05 880.28 410.31 890.39 414.15 899.08 429.45 906.62 444.74 912.55 460.03 916.53 475.33 918.31 490.62 917.78 505.92 914.98 521.21 910.08 536.51 903.36 551.8 895.24 567.1 886.21 582.39 876.8 597.69 867.58 612.98 859.1 628.28 851.89 643.57 846.37 658.87 842.86 674.16 841.6 689.46 842.64 704.75 845.93 720.05 851.27 735.34 858.34 750.64 866.71 765.93 875.88 781.23 885.3 796.52 894.4 811.82 902.63 827.11 909.5 842.41 914.59 857.7 917.61 873 910.42 891.44 888.15 884.43 873.82 873.93 859.5 863.91 845.17 855.15 830.84 848.34 816.52 844 802.19 842.5 787.86 843.93 773.54 848.18 759.21 854.94 744.89 863.66 730.56 873.65 716.23 884.15 701.91 894.32 687.58 903.37 673.25 910.58 658.93 915.4 644.6 917.44 630.27 916.54 615.95 912.78 601.62 906.45 587.29 898.05 572.97 888.22 558.64 877.76 544.32 867.47 529.99 858.16 515.66 850.56 501.34 845.27 487.01 842.71 472.68 843.06 458.36 846.32 444.03 852.21 429.7 860.28 415.38 869.9 401.05 880.31 386.73 890.69 372.4 900.24 358.07 908.2 343.75 913.94 329.42 917.03 315.09 917.21 300.77 914.48 286.44 909.04 272.11 901.32 257.79 891.93 243.46 881.61 229.14 871.16 214.81 861.4 200.48 853.1 186.16 846.91 171.83 843.31 157.5 842.59 143.18 844.8 128.85 849.77 114.52 857.11 100.2 866.25 85.87 876.46 71.54 886.95 57.22 896.89 42.89 905.51 28.57 912.13 7.09 911.7 -0.04 896.86 -0.06 886.55 -0.1 876.24 -0.17 865.93 -0.26 855.61 -0.18 840.15 0.52 835 13.16 827.42 25.69 817.7 38.11 806.06 50.43 792.89 62.63 778.65 74.72 763.85 86.7 749.07 98.59 734.85 110.38 721.7 122.1 710.05 133.75 700.22 145.35 692.44 156.91 686.78 168.46 683.16 180 681.41 191.57 681.2 203.17 682.12 214.83 683.71 226.57 685.44 238.4 686.81 250.35 687.32 262.42 686.54 274.65 684.15 287.03 679.92 299.59 673.73 312.33 665.61 325.25 655.7 338.38 644.27 351.69 631.66 365.21 618.31 378.91 604.68 392.8 591.24 406.86 578.47 421.09 566.77 435.46 556.48 449.97 547.84 464.58 540.97 479.28 535.91 494.04 532.54 508.83 530.65 523.63 529.95 538.41 530.06 553.14 530.55 567.79 530.99 582.32 530.94 596.71 530.02 610.93 527.89 624.95 524.31 638.75 519.12 652.3 512.28 665.57 503.86 678.56 494.01 691.23 483 703.59 471.15 715.62 458.82 727.31 446.43 738.67 434.37 749.69 423 760.39 412.65 770.77 403.57 780.85 395.91 790.64 389.74 804.82 383.35 809.47 381.66" fill="url(#uuunion-grad3)" filter="url(#uuunion-blur2)"></path></svg>