<svg xmlns="http://www.w3.org/2000/svg" version="1.1" xmlns:xlink="http://www.w3.org/1999/xlink" xmlns:svgjs="http://svgjs.dev/svgjs" viewBox="0 0 800 800"><defs><filter id="uuunion-blur" x="-100%" y="-100%" width="400%" height="400%" color-interpolation-filters="sRGB">
        <feGaussianBlur in="SourceGraphic" stdDeviation="0 0" result="blur"></feGaussianBlur>
        <feDropShadow stdDeviation="12.307692307692308" in="blur" dx="10" dy="10" flood-color="#23262b" flood-opacity="0.83" x="0%" y="0%" width="100%" height="100%"></feDropShadow>
      </filter><filter id="uuunion-blur2" x="-100%" y="-100%" width="400%" height="400%" color-interpolation-filters="sRGB">
        <feGaussianBlur in="SourceGraphic" stdDeviation="0 0" result="blur"></feGaussianBlur>
        <feDropShadow stdDeviation="12.307692307692308" in="blur" dx="-10" dy="-10" flood-color="#23262b" flood-opacity="0.83" x="0%" y="0%" width="100%" height="100%"></feDropShadow>
      </filter><linearGradient gradientTransform="rotate(76, 0.5, 0.5)" x1="50%" y1="0%" x2="50%" y2="100%" id="uuunion-grad"><stop stop-color="hsl(218, 26%, 19%)" offset="10%"></stop><stop stop-color="#23262b" offset="90%"></stop></linearGradient><linearGradient gradientTransform="rotate(135, 0.5, 0.5)" x1="50%" y1="0%" x2="50%" y2="100%" id="uuunion-grad2"><stop stop-color="hsl(218, 26%, 19%)" offset="25%"></stop><stop stop-color="#23262b" offset="100%"></stop></linearGradient><linearGradient gradientTransform="rotate(333, 0.5, 0.5)" x1="50%" y1="0%" x2="50%" y2="100%" id="uuunion-grad3"><stop stop-color="hsl(218, 26%, 19%)" offset="0%"></stop><stop stop-color="#23262b" offset="75%"></stop></linearGradient></defs><path d="M-79.9 -88.26Q-64.93 -86.23 -49.96 -82.32 -34.99 -77.72 -20.02 -73.8 -5.05 -71.74 9.91 -72.16 24.88 -74.95 39.85 -79.25 54.82 -83.77 69.79 -87.16 84.76 -88.39 99.73 -87.1 114.7 -83.67 129.67 -79.14 144.64 -74.86 159.61 -72.13 174.58 -71.76 189.55 -73.87 204.52 -77.82 219.49 -82.43 234.46 -86.3 249.43 -88.28 264.4 -87.76 279.36 -84.91 294.33 -80.58 309.3 -76.07 324.27 -72.74 339.24 -71.6 354.21 -72.98 369.18 -76.47 384.15 -81.02 399.12 -85.26 414.09 -87.92 429.06 -88.2 444.03 -86 459 -82.01 473.97 -77.4 488.94 -73.58 503.91 -71.68 518.88 -72.29 533.85 -75.21 548.82 -79.58 563.79 -84.06 578.76 -87.33 593.73 -88.39 608.7 -86.92 623.67 -83.37 638.64 -78.81 653.61 -74.6 668.58 -72.02 683.55 -71.83 698.52 -74.1 713.49 -78.15 728.46 -82.74 743.43 -86.52 758.4 -88.33 773.37 -87.63 788.33 -84.64 803.3 -80.25 818.27 -75.78 833.24 -72.58 848.21 -71.61 863.06 -67.41 853.25 -46.54 852.21 -31.42 860.17 -16.31 874.55 -1.19 890.69 13.91 903.37 29.03 908.48 44.14 904.37 59.26 892.37 74.37 876.37 89.49 861.54 104.6 852.68 119.72 852.67 134.83 861.5 149.95 876.32 165.06 892.33 180.18 904.35 195.29 908.48 210.41 903.39 225.52 890.73 240.64 874.6 255.76 860.21 270.87 852.22 285.99 853.23 301.1 862.9 316.22 878.1 331.33 893.92 346.45 905.23 361.56 908.37 376.68 902.32 391.79 889.05 406.91 872.85 422.02 858.95 437.14 851.87 452.25 853.9 467.37 864.37 482.48 879.9 497.6 895.46 512.71 906.01 527.83 908.15 542.94 901.17 558.06 887.33 573.17 871.12 588.29 857.79 603.4 851.64 618.52 854.67 633.64 865.9 648.75 881.69 663.87 896.93 678.98 906.69 694.1 907.81 709.21 899.92 724.33 885.58 739.44 869.44 754.56 856.71 769.67 851.51 784.79 855.54 799.9 867.49 815.02 883.48 830.13 898.34 845.25 907.27 860.36 907.37 875.48 898.6 890.59 883.3 902.44 867.99 907.54 852.68 904.35 837.38 893.83 822.07 879.16 806.77 864.73 791.46 854.9 776.15 852.61 760.85 858.56 745.54 870.96 730.24 886.07 714.93 899.36 699.62 906.82 684.32 906.21 669.01 897.72 653.71 883.89 638.4 868.9 623.09 857.24 607.79 852.42 592.48 855.9 577.18 866.63 561.87 881.37 546.56 895.71 531.26 905.31 515.95 907.3 500.64 901.08 485.34 888.52 470.03 873.39 454.73 860.25 439.42 853.05 424.11 853.95 408.81 862.69 393.5 876.63 378.2 891.59 362.89 903.05 347.58 907.59 332.28 903.82 316.97 892.88 301.67 878.07 286.36 863.84 271.05 854.47 255.75 852.77 240.44 859.26 225.14 871.99 209.83 887.13 194.52 900.12 179.22 907.05 163.91 905.85 148.61 896.87 133.3 882.82 117.99 867.91 102.69 856.64 87.38 852.4 72.08 856.45 56.77 867.59 41.46 882.46 26.16 896.59 10.85 905.72 -4.44 907.12 -19.75 900.36 -35.06 887.48 -50.36 872.34 -65.67 859.51 -80.97 852.83 -81.44 838.13 -81.43 823.42 -80.96 808.72 -80.18 794.02 -79.34 779.31 -78.71 764.61 -78.5 749.9 -78.77 735.2 -79.44 720.49 -80.29 705.79 -81.04 691.08 -81.46 676.38 -81.4 661.67 -80.89 646.97 -80.08 632.26 -79.25 617.56 -78.66 602.85 -78.5 588.15 -78.83 573.44 -79.53 558.74 -80.38 544.03 -81.11 529.33 -81.48 514.62 -81.36 499.92 -80.81 485.21 -79.99 470.51 -79.17 455.81 -78.62 441.1 -78.51 426.4 -78.89 411.69 -79.62 396.99 -80.47 382.28 -81.17 367.58 -81.49 352.87 -81.32 338.17 -80.73 323.46 -79.9 308.76 -79.1 294.05 -78.59 279.35 -78.53 264.64 -78.95 249.94 -79.71 235.23 -80.56 220.53 -81.23 205.82 -81.49 191.12 -81.28 176.41 -80.64 161.71 -79.8 147.01 -79.02 132.3 -78.56 117.6 -78.56 102.89 -79.02 88.19 -79.8 73.48 -80.65 58.78 -81.28 44.07 -81.49 29.37 -81.23 14.66 -80.56 -0.03 -79.71 -14.74 -78.95 -29.44 -78.53 -44.15 -78.59 -58.85 -79.1 -73.56 -79.9 -88.26" fill="url(#uuunion-grad)"></path><path d="M-79.9 -88.26Q-79.1 -73.56 -78.59 -58.85 -78.53 -44.15 -78.95 -29.44 -79.71 -14.74 -80.56 -0.03 -81.23 14.66 -81.49 29.37 -81.28 44.07 -80.65 58.78 -79.8 73.48 -79.02 88.19 -78.56 102.89 -78.56 117.6 -79.02 132.3 -79.8 147.01 -80.64 161.71 -81.28 176.41 -81.49 191.12 -81.23 205.82 -80.56 220.53 -79.71 235.23 -78.95 249.94 -78.53 264.64 -78.59 279.35 -79.1 294.05 -79.9 308.76 -80.73 323.46 -81.32 338.17 -81.49 352.87 -81.17 367.58 -80.47 382.28 -70.37 384.64 -60.27 389.08 -50.17 395 -40.07 401.6 -29.98 407.98 -19.88 413.28 -0.94 417.66 2.32 417.95 15.23 409.12 28.25 397.13 41.32 383.21 54.37 368.99 67.34 356.14 80.13 346 92.7 339.35 105 336.22 116.99 335.92 128.67 337.15 140.07 338.34 151.23 337.95 162.23 334.77 173.16 328.22 184.12 318.39 195.24 306.1 206.62 292.63 218.36 279.5 230.56 268.15 243.27 259.6 256.52 254.29 270.31 251.97 284.58 251.77 299.26 252.41 314.24 252.43 329.38 250.54 344.5 245.87 359.45 238.13 374.06 227.68 388.16 215.45 401.62 202.71 414.34 190.82 426.27 180.94 437.38 173.78 447.73 169.48 457.39 167.6 466.52 167.17 475.27 166.96 483.88 165.71 492.55 162.4 501.54 156.46 511.06 147.87 521.32 137.17 532.49 125.33 544.68 113.53 557.96 102.93 572.32 94.39 587.69 88.37 603.94 84.75 620.87 82.94 638.24 81.99 655.79 80.77 673.2 78.24 690.17 73.66 706.43 66.73 721.72 57.64 735.84 47.03 748.65 35.83 760.08 25.1 770.16 15.74 786.3 4.14 800 -2.13 783.79 -19.56 774.65 -36.98 776.57 -54.41 788.7 -71.83 805.77 -89.26 820.31 -106.68 825.99 -124.11 820.34 -141.53 805.07 -144.99 789.8 -146.97 774.53 -146.87 759.26 -144.73 743.98 -141.18 728.71 -137.28 713.44 -134.19 698.17 -132.82 682.9 -133.58 667.63 -136.25 652.36 -140.03 637.09 -143.8 621.82 -146.44 606.55 -147.17 591.28 -145.76 576.01 -142.64 560.74 -138.73 545.47 -135.2 530.19 -133.1 514.92 -133.04 499.65 -135.05 484.38 -138.53 469.11 -142.44 453.84 -145.63 438.57 -147.14 423.3 -146.53 408.03 -143.98 392.76 -140.24 377.49 -136.43 362.22 -133.68 346.95 -132.8 331.68 -134.07 316.4 -137.09 301.13 -140.98 285.86 -144.57 270.59 -146.81 255.32 -147.02 240.05 -145.14 224.78 -141.74 209.51 -137.81 194.24 -134.54 178.97 -132.89 163.7 -133.34 148.43 -135.78 133.16 -139.47 117.89 -143.31 102.61 -146.17 87.34 -147.19 72.07 -146.08 56.8 -143.16 41.53 -139.29 26.26 -135.64 10.99 -133.28 -4.27 -132.92 -19.54 -134.65 -34.81 -137.98 -50.08 -141.9 -65.35 -145.26 -80.62 -147.05 -95.9 -146.75 -111.17 -144.44 -126.44 -140.81 -137 -125.13 -119.35 -112.88 -109.44 -107.75 -99.51 -102.08 -89.64 -95.63 -79.9 -88.26" fill="url(#uuunion-grad2)" filter="url(#uuunion-blur)"></path><path d="M808.26 396.15Q818.36 402.77 828.45 409.02 838.55 414.05 848.65 417.17 858.75 417.96 868.85 416.31 875.9 417.24 858.95 437.14 851.87 452.25 853.9 467.37 864.37 482.48 879.9 497.6 895.46 512.71 906.01 527.83 908.15 542.94 901.17 558.06 887.33 573.17 871.12 588.29 857.79 603.4 851.64 618.52 854.67 633.64 865.9 648.75 881.69 663.87 896.93 678.98 906.69 694.1 907.81 709.21 899.92 724.33 885.58 739.44 869.44 754.56 856.71 769.67 851.51 784.79 855.54 799.9 867.49 815.02 883.48 830.13 898.34 845.25 907.27 860.36 907.37 875.48 898.6 890.59 884.56 901.68 870.51 907.26 856.46 905.89 842.42 897.95 828.37 885.43 814.32 871.53 800.28 859.79 786.23 853.18 772.18 853.4 758.14 860.38 744.09 872.35 730.04 886.26 716 898.58 701.95 906.18 687.9 907.11 673.86 901.15 659.81 889.81 645.77 875.97 631.72 863.15 617.67 854.62 603.63 852.55 589.58 857.45 575.53 868.09 561.49 881.76 547.44 894.97 533.39 904.38 519.35 907.59 505.3 903.77 491.25 893.91 477.21 880.51 463.16 866.98 449.11 856.76 435.07 852.44 421.02 855.14 406.98 864.16 392.93 877.21 378.88 890.96 364.84 901.93 350.79 907.32 336.74 905.75 322.7 897.64 308.65 885.04 294.6 871.16 280.56 859.52 266.51 853.09 252.46 853.51 238.42 860.66 224.37 872.73 210.32 886.65 196.28 898.87 182.23 906.3 168.19 907.03 154.14 900.89 140.09 889.43 126.05 875.57 112 862.84 97.95 854.47 83.91 852.59 69.86 857.68 55.81 868.45 41.77 882.15 27.72 895.31 6.77 900.97 -0.03 887.18 -0.07 876.98 -0.24 866.78 -0.52 856.58 -0.88 846.38 -1.17 831.08 -0.6 826 11.42 816.9 23.39 802.97 35.37 785.88 47.43 767.92 59.66 751.56 72.09 738.9 84.78 731.24 97.76 728.84 111.03 730.83 124.55 735.45 138.28 740.38 152.16 743.29 166.08 742.27 179.94 736.27 193.64 725.28 207.07 710.36 220.13 693.35 232.75 676.54 244.88 662.13 256.49 651.82 267.6 646.4 278.27 645.65 288.57 648.37 298.62 652.65 308.57 656.25 318.57 657.13 328.79 653.82 339.39 645.75 350.51 633.35 362.28 617.96 374.78 601.53 388.05 586.2 402.1 573.86 416.87 565.76 432.26 562.22 448.13 562.64 464.29 565.57 480.52 569.06 496.62 571.05 512.34 569.85 527.48 564.44 541.85 554.68 555.29 541.37 567.71 526.02 579.07 510.57 589.39 496.94 598.77 486.66 607.34 480.53 622.92 480.34 638.31 484.55 646.62 484.78 655.71 481.58 665.82 474.34 677.13 463.33 689.75 449.59 703.71 434.72 718.98 420.56 735.44 408.73 752.88 400.38 771.04 395.9 789.62 394.87 808.26 396.15 808.26 396.15 808.26 396.15" fill="url(#uuunion-grad3)" filter="url(#uuunion-blur2)"></path></svg>