<svg xmlns="http://www.w3.org/2000/svg" version="1.1" xmlns:xlink="http://www.w3.org/1999/xlink" xmlns:svgjs="http://svgjs.dev/svgjs" viewBox="0 0 800 800"><defs><linearGradient x1="50%" y1="0%" x2="50%" y2="100%" id="nnneon-grad"><stop stop-color="hsl(206, 75%, 49%)" stop-opacity="1" offset="0%"></stop><stop stop-color="hsl(331, 90%, 56%)" stop-opacity="1" offset="100%"></stop></linearGradient><filter id="nnneon-filter" x="-100%" y="-100%" width="400%" height="400%" filterUnits="objectBoundingBox" primitiveUnits="userSpaceOnUse" color-interpolation-filters="sRGB">
	<feGaussianBlur stdDeviation="23 2" x="0%" y="0%" width="100%" height="100%" in="SourceGraphic" edgeMode="none" result="blur"></feGaussianBlur></filter><filter id="nnneon-filter2" x="-100%" y="-100%" width="400%" height="400%" filterUnits="objectBoundingBox" primitiveUnits="userSpaceOnUse" color-interpolation-filters="sRGB">
	<feGaussianBlur stdDeviation="35 25" x="0%" y="0%" width="100%" height="100%" in="SourceGraphic" edgeMode="none" result="blur"></feGaussianBlur></filter></defs><g stroke-width="44" stroke="url(#nnneon-grad)" fill="none"><path d="M375.4819232728478 46.38269956365741C390.65372803588684 37.62483165583973 409.3463329992694 37.62483165583973 424.51813776230847 46.385151374381905L693.9819436247923 201.95989727436898C709.1537483878313 210.71776518218667 718.5000508695226 226.9070713958821 718.5000508695226 244.42525902224202V555.5747508222163C718.5000508695226 573.0929384485761 709.1537483878313 589.2822446622716 693.9819436247923 598.0425643808136L424.51813776230847 753.6173102808008C409.3463329992694 762.3751781886184 390.65372803588684 762.3751781886184 375.4819232728478 753.6148584700763L106.01811741036397 598.0401125700893C90.84631264732485 589.2822446622716 81.50001016563363 573.0929384485761 81.50001016563363 555.5747508222163V244.42525902224202C81.50001016563363 226.9070713958821 90.84631264732485 210.71776518218667 106.01811741036397 201.9574454636446L375.4819232728478 46.38269956365741Z " filter="url(#nnneon-filter)"></path><path d="M415.4819232728478 46.38269956365741C430.65372803588684 37.62483165583973 449.3463329992694 37.62483165583973 464.51813776230847 46.385151374381905L733.9819436247923 201.95989727436898C749.1537483878313 210.71776518218667 758.5000508695226 226.9070713958821 758.5000508695226 244.42525902224202V555.5747508222163C758.5000508695226 573.0929384485761 749.1537483878313 589.2822446622716 733.9819436247923 598.0425643808136L464.51813776230847 753.6173102808008C449.3463329992694 762.3751781886184 430.65372803588684 762.3751781886184 415.4819232728478 753.6148584700763L146.01811741036397 598.0401125700893C130.84631264732485 589.2822446622716 121.50001016563363 573.0929384485761 121.50001016563363 555.5747508222163V244.42525902224202C121.50001016563363 226.9070713958821 130.84631264732485 210.71776518218667 146.01811741036397 201.9574454636446L415.4819232728478 46.38269956365741Z " filter="url(#nnneon-filter2)" opacity="0.09"></path><path d="M335.4819232728478 46.38269956365741C350.65372803588684 37.62483165583973 369.3463329992694 37.62483165583973 384.51813776230847 46.385151374381905L653.9819436247923 201.95989727436898C669.1537483878313 210.71776518218667 678.5000508695226 226.9070713958821 678.5000508695226 244.42525902224202V555.5747508222163C678.5000508695226 573.0929384485761 669.1537483878313 589.2822446622716 653.9819436247923 598.0425643808136L384.51813776230847 753.6173102808008C369.3463329992694 762.3751781886184 350.65372803588684 762.3751781886184 335.4819232728478 753.6148584700763L66.01811741036397 598.0401125700893C50.84631264732485 589.2822446622716 41.500010165633626 573.0929384485761 41.500010165633626 555.5747508222163V244.42525902224202C41.500010165633626 226.9070713958821 50.84631264732485 210.71776518218667 66.01811741036397 201.9574454636446L335.4819232728478 46.38269956365741Z " filter="url(#nnneon-filter2)" opacity="0.09"></path><path d="M375.4819232728478 46.38269956365741C390.65372803588684 37.62483165583973 409.3463329992694 37.62483165583973 424.51813776230847 46.385151374381905L693.9819436247923 201.95989727436898C709.1537483878313 210.71776518218667 718.5000508695226 226.9070713958821 718.5000508695226 244.42525902224202V555.5747508222163C718.5000508695226 573.0929384485761 709.1537483878313 589.2822446622716 693.9819436247923 598.0425643808136L424.51813776230847 753.6173102808008C409.3463329992694 762.3751781886184 390.65372803588684 762.3751781886184 375.4819232728478 753.6148584700763L106.01811741036397 598.0401125700893C90.84631264732485 589.2822446622716 81.50001016563363 573.0929384485761 81.50001016563363 555.5747508222163V244.42525902224202C81.50001016563363 226.9070713958821 90.84631264732485 210.71776518218667 106.01811741036397 201.9574454636446L375.4819232728478 46.38269956365741Z "></path></g></svg>